<svg xmlns="http://www.w3.org/2000/svg" xmlns:xlink="http://www.w3.org/1999/xlink" width="643.161" height="528.589" viewBox="0 0 643.161 528.589">
  <defs>
    <linearGradient id="linear-gradient" x1="-0.03" y1="0.119" x2="0.938" y2="0.934" gradientUnits="objectBoundingBox">
      <stop offset="0" stop-color="#f5d4f9"/>
      <stop offset="1" stop-color="#7469ff" stop-opacity="0.647"/>
      <stop offset="1" stop-color="#ba83c4" stop-opacity="0"/>
    </linearGradient>
  </defs>
  <g id="_1" data-name="1" transform="translate(-0.001)">
    <path id="blob_1_" data-name="blob (1)" d="M403.064-18.841c42.759,38.571,55.328,86.95,64.44,148.6,9.113,61.967,8.767,167.848-20.323,208-29.62,40.883-83.154,48.371-146.24,70.186-28.948,9.214-133.851.048-194.02-18.576C22.265,363.166-6.921,330.9-43.021,277.152s-35.894-73.877-16.617-129.2C-40.011,92.62,12.211,48.991,66.536,12.632c54.325-36.674,91.617-57.465,155.756-65.369C286.429-60.956,360.306-57.1,403.064-18.841Z" transform="translate(127.597 115.525)" opacity="0.61" fill="url(#linear-gradient)"/>
    <path id="Контур_2043" data-name="Контур 2043" d="M749.177,620.677a31.517,31.517,0,0,0,30.435-5.361c10.66-8.947,14-23.687,16.721-37.336l8.043-40.37-16.839,11.6c-12.11,8.339-24.493,16.944-32.878,29.023s-12.045,28.566-5.308,41.635" transform="translate(-278.419 -186)" fill="rgba(116,105,255,0.65)"/>
    <path id="Контур_2044" data-name="Контур 2044" d="M750.617,669.554c-1.7-12.415-3.457-24.99-2.261-37.538,1.062-11.144,4.462-22.029,11.383-30.953a51.494,51.494,0,0,1,13.211-11.971c1.321-.834,2.537,1.26,1.222,2.09a48.952,48.952,0,0,0-19.363,23.363c-4.216,10.722-4.893,22.411-4.166,33.8.439,6.888,1.37,13.731,2.309,20.565a1.254,1.254,0,0,1-.845,1.489,1.218,1.218,0,0,1-1.489-.845Z" transform="translate(-278.419 -186)" fill="#f2f2f2"/>
    <path id="Контур_2045" data-name="Контур 2045" d="M767.034,647.585a23.2,23.2,0,0,0,20.215,10.433c10.233-.486,18.764-7.628,26.444-14.408l22.715-20.055-15.034-.719c-10.811-.517-21.9-1-32.2,2.334s-19.794,11.358-21.677,22.016" transform="translate(-278.419 -186)" fill="rgba(116,105,255,0.65)"/>
    <path id="Контур_2046" data-name="Контур 2046" d="M745.8,676.69c8.2-14.516,17.719-30.648,34.722-35.8a38.746,38.746,0,0,1,14.6-1.508c1.551.134,1.163,2.524-.384,2.391a36,36,0,0,0-23.306,6.166c-6.572,4.473-11.688,10.692-16.019,17.286-2.653,4.039-5.029,8.25-7.405,12.456-.76,1.344-2.979.374-2.211-.986Z" transform="translate(-278.419 -186)" fill="#f2f2f2"/>
    <path id="Контур_2047" data-name="Контур 2047" d="M543.607,574.714a62.116,62.116,0,0,1-59.982-10.566c-21.009-17.633-27.6-46.684-32.955-73.584L434.816,411l33.189,22.853c23.867,16.434,48.273,33.4,64.8,57.2s23.739,56.3,10.461,82.057" transform="translate(-278.419 -186)" fill="rgba(116,105,255,0.65)"/>
    <path id="Контур_2048" data-name="Контур 2048" d="M540.77,671.043c3.359-24.468,6.813-49.251,4.457-73.981-2.093-21.963-8.793-43.416-22.435-61a101.483,101.483,0,0,0-26.037-23.594c-2.6-1.643-5,2.483-2.408,4.119a96.477,96.477,0,0,1,38.162,46.045c8.308,21.132,9.643,44.168,8.211,66.617-.866,13.575-2.7,27.062-4.55,40.531a2.472,2.472,0,0,0,1.666,2.934,2.4,2.4,0,0,0,2.934-1.666Z" transform="translate(-278.419 -186)" fill="#f2f2f2"/>
    <path id="Контур_2049" data-name="Контур 2049" d="M508.415,627.745a45.725,45.725,0,0,1-39.841,20.563c-20.168-.957-36.982-15.033-52.117-28.4l-44.768-39.527,29.629-1.418c21.307-1.02,43.164-1.971,63.459,4.6s39.011,22.384,42.722,43.391" transform="translate(-278.419 -186)" fill="rgba(116,105,255,0.65)"/>
    <path id="Контур_2050" data-name="Контур 2050" d="M550.263,685.108c-16.168-28.609-34.922-60.4-68.432-70.566a76.363,76.363,0,0,0-28.783-2.972c-3.056.264-2.293,4.974.758,4.711a70.942,70.942,0,0,1,45.934,12.152c12.952,8.816,23.036,21.072,31.571,34.069,5.228,7.961,9.911,16.26,14.595,24.548,1.5,2.649,5.872.737,4.358-1.943Z" transform="translate(-278.419 -186)" fill="#f2f2f2"/>
    <path id="Контур_2051" data-name="Контур 2051" d="M425.472,297.794,286.264,268.628l-1.809-.378a5,5,0,0,0-5.5,7.139l55.866,111.772a5,5,0,0,0,8.114,1.18l38.1-40.655a2.91,2.91,0,0,1,2.133-.947,3.011,3.011,0,0,1,2.689,1.542l7.94,14.479a4.886,4.886,0,0,0,5.486,2.475l.039-.009a4.893,4.893,0,0,0,3.849-4.67l1.374-33.54a3.059,3.059,0,0,1,.3-1.207,3.254,3.254,0,0,1,.783-.978l22.011-18.289a5.006,5.006,0,0,0-2.164-8.748Zm.892,7.212-22.011,18.288a4.936,4.936,0,0,0-.774.791L286.03,271.614a1.745,1.745,0,0,0-.323-.111,2,2,0,0,0-1.648,3.575l96.812,70.234a4.8,4.8,0,0,0-1.3,1l-38.1,40.655a3,3,0,0,1-4.869-.708L280.737,274.491a3.008,3.008,0,0,1,3.3-4.279l1.852.389,139.165,29.155a3.007,3.007,0,0,1,1.308,5.251Z" transform="translate(-278.419 -186)" fill="#ccc"/>
    <path id="Контур_2052" data-name="Контур 2052" d="M425.472,297.794,286.264,268.628l-1.809-.378a5,5,0,0,0-5.5,7.139l55.866,111.772a5,5,0,0,0,8.114,1.18l38.1-40.655a2.91,2.91,0,0,1,2.133-.947,3.011,3.011,0,0,1,2.689,1.542l7.94,14.479a4.886,4.886,0,0,0,5.486,2.475l.039-.009a4.893,4.893,0,0,0,3.849-4.67l1.374-33.54a3.059,3.059,0,0,1,.3-1.207,3.254,3.254,0,0,1,.783-.978l22.011-18.289a5.006,5.006,0,0,0-2.164-8.748Zm.892,7.212-22.012,18.289a4.933,4.933,0,0,0-.774.791,4.653,4.653,0,0,0-.527.838,4.794,4.794,0,0,0-.357.953l0,.01a4.731,4.731,0,0,0-.151,1.05l-1.374,33.54a2.9,2.9,0,0,1-2.306,2.8l-.02,0a2.911,2.911,0,0,1-3.3-1.475L387.6,347.318a4.989,4.989,0,0,0-4.115-2.582l-.01,0c-.114,0-.228-.01-.34,0a4.866,4.866,0,0,0-2.269.578,4.8,4.8,0,0,0-1.3,1l-38.1,40.655a3,3,0,0,1-4.869-.708L280.737,274.491a3.008,3.008,0,0,1,3.3-4.279l1.852.389,139.165,29.155a3.007,3.007,0,0,1,1.308,5.251Z" transform="translate(-278.419 -186)" fill="#3f3d56"/>
    <path id="Контур_2053" data-name="Контур 2053" d="M404.024,324.282l-.815,1.826-.512-.222,0-.01L285.239,273.456l98.241,71.283.01,0,.26.2-1.17,1.62-1.708-1.242L284.06,275.078a2,2,0,0,1,1.648-3.575,1.744,1.744,0,0,1,.323.111l117.549,52.471Z" transform="translate(-278.419 -186)" fill="#3f3d56"/>
    <path id="Контур_2054" data-name="Контур 2054" d="M706.259,464.02l5.08,49.67.1,1.02,1.51,14.73,12.4,121.28v.02l2.41,23.53a28.068,28.068,0,0,0-2.49,4.01,28.883,28.883,0,0,0,.84,27.65q9.075-2.28,17.9-5.2a269.638,269.638,0,0,0,35.52-14.56,28.914,28.914,0,0,0-9.71-16.85l-12.45-149.59-1.09-13.12-3.55-42.59Z" transform="translate(-278.419 -186)" fill="#ffb8b8"/>
    <circle id="Эллипс_199" data-name="Эллипс 199" cx="65.747" cy="65.747" r="65.747" transform="translate(323.977 96.246) rotate(-45)" fill="#ffb8b8"/>
    <path id="Контур_2055" data-name="Контур 2055" d="M572.828,553.61c.01.13.021.26.03.38a12.066,12.066,0,0,0,9.43,10.76l98.12,21.43a12.151,12.151,0,0,0,2.59.28,12.027,12.027,0,0,0,11.59-8.83c.21-.78.44-1.58.69-2.41v-.01c3.31-11.24,9.22-26.54,17.67-45.77q2.865-6.525,6.13-13.67c.4-.88.81-1.77,1.21-2.66q6.735-14.625,15.03-31.66a78.806,78.806,0,0,0,6.09-17.43,79.689,79.689,0,0,0-4.03-47.63,78.687,78.687,0,0,0-4.35-8.95,80.056,80.056,0,0,0-63.34-40.31c-2.07-.17-4.13-.25-6.2-.25A80.5,80.5,0,0,0,608,389.4a78.571,78.571,0,0,0-19.51,30.58c-.26.73-.5,1.47-.74,2.21a297.552,297.552,0,0,0-8.88,35.72c-1.33,7.17-2.41,14.24-3.28,21.13a435.963,435.963,0,0,0-2.76,74.57Z" transform="translate(-278.419 -186)" fill="#6c63ff"/>
    <path id="Контур_2056" data-name="Контур 2056" d="M522.48,693.7c72.892,19.531,137.14,28.995,203.628,12.235q9.075-2.28,17.9-5.2a447.4,447.4,0,0,0-18.659-49.99v-.02c-12.021-26.95-23.06-43.44-28.44-50.72a9.352,9.352,0,0,1-1.33-8.49l1.67-5.01a12.021,12.021,0,0,0-1.97-11.28v-.01c-.11-.14-.23-.28-.35-.42-43.71-49.8-119.91-22.63-120.68-22.35l-.38.14-.24.33c-.26.36-.52.71-.77,1.08C552.2,582.94,531.331,641.885,522.48,693.7Z" transform="translate(-278.419 -186)" fill="#2f2e41"/>
    <path id="Контур_2057" data-name="Контур 2057" d="M439.773,358.619a28.178,28.178,0,0,1,.641,4.39l114.993,66.339,27.95-16.09,29.8,39.008-46.713,33.294a21.415,21.415,0,0,1-25.693-.626L422.17,391.388a28.1,28.1,0,1,1,17.6-32.769Z" transform="translate(-278.419 -186)" fill="#ffb8b8"/>
    <path id="Контур_2058" data-name="Контур 2058" d="M557.169,428.33v.01a12,12,0,0,0,2.08,4.15l19.62,25.42,9.35,12.13,8.2,10.62a12.043,12.043,0,0,0,18.21,1l29.78-30.92,12.29-12.77a33.455,33.455,0,0,0-41.02-52.86L608,389.4l-45.09,25.22a12.07,12.07,0,0,0-5.74,13.71Z" transform="translate(-278.419 -186)" fill="#6c63ff"/>
    <path id="Контур_2059" data-name="Контур 2059" d="M687.229,444.27l1.88,60.05.01.38a12.042,12.042,0,0,0,14.18,11.48l8.14-1.47,2.08-.38h.01l6.76-1.22,35.99-6.5,6.89-1.24a12.057,12.057,0,0,0,9.27-15.71l-19.41-57.47a33.45,33.45,0,1,0-65.8,12.08Z" transform="translate(-278.419 -186)" fill="#6c63ff"/>
    <path id="Контур_2060" data-name="Контур 2060" d="M684.968,267.124c-16.9,11.566-39.087,23.454-56.346,11.138-11.333-8.087-14.9-23.063-10.308-36.2,8.264-23.633,30.97-34.038,52.683-42.013,28.226-10.368,58.961-18.616,88.1-11.191s54.891,35.637,49.631,65.244c-4.23,23.809-26.689,43.62-23.5,67.591,3.209,24.125,30.339,36.823,54.292,41.135s50.755,5.7,67.969,22.9c21.959,21.947,16.475,61.176-4.187,84.348s-51.843,33.676-82.057,40.816c-40.032,9.461-83.329,14.433-121.35-1.268s-67.607-57.966-56.593-97.6c4.652-16.741,15.612-30.889,26.2-44.663s21.316-28.177,25.357-45.076c3.367-14.082.875-30.433-8.464-41a11.878,11.878,0,0,1-1.591-13.884Z" transform="translate(-278.419 -186)" fill="#2f2e41"/>
  </g>
</svg>
