<svg xmlns="http://www.w3.org/2000/svg" width="40.5" height="29" viewBox="0 0 40.5 29"><path d="M31.459,29A1.46,1.46,0,0,1,30,27.54v-.08A1.461,1.461,0,0,1,31.459,26h5.961a.081.081,0,0,0,.081-.081V3.081A.082.082,0,0,0,37.419,3H31.475A1.476,1.476,0,0,1,30,1.524V1.476A1.476,1.476,0,0,1,31.475,0h5.944A3.081,3.081,0,0,1,40.5,3.081V25.919A3.081,3.081,0,0,1,37.419,29ZM3.081,29A3.081,3.081,0,0,1,0,25.919V3.081A3.081,3.081,0,0,1,3.081,0H9.025A1.476,1.476,0,0,1,10.5,1.476v.048A1.476,1.476,0,0,1,9.025,3H3.081A.082.082,0,0,0,3,3.081V25.919A.081.081,0,0,0,3.081,26H9.041A1.46,1.46,0,0,1,10.5,27.46v.08A1.46,1.46,0,0,1,9.041,29Zm23.877-7.773a2,2,0,1,1,2,2A2,2,0,0,1,26.958,21.227Zm-9,0a2,2,0,1,1,2,2A2,2,0,0,1,17.958,21.227Zm-9,0a2,2,0,1,1,2,2A2,2,0,0,1,8.958,21.227Zm18-7a2,2,0,1,1,2,2A2,2,0,0,1,26.958,14.226Zm-9,0a2,2,0,1,1,2,2A2,2,0,0,1,17.958,14.226Zm-9,0a2,2,0,1,1,2,2A2,2,0,0,1,8.958,14.226Zm18-7a2,2,0,1,1,2,2A2,2,0,0,1,26.958,7.227Zm-9,0a2,2,0,1,1,2,2A2,2,0,0,1,17.958,7.227Zm-9,0a2,2,0,1,1,2,2A2,2,0,0,1,8.958,7.227Z" fill="#7469ff"/></svg>