<svg width="41" height="29" viewBox="0 0 41 29" fill="none" xmlns="http://www.w3.org/2000/svg">
<g clip-path="url(#clip0_29_1867)">
<path d="M31.459 29C31.072 28.9997 30.7009 28.8458 30.4273 28.572C30.1537 28.2982 30 27.927 30 27.54V27.46C30.0003 27.073 30.154 26.702 30.4276 26.4283C30.7011 26.1546 31.072 26.0005 31.459 26H37.42C37.4415 26 37.4621 25.9915 37.4773 25.9763C37.4925 25.9611 37.501 25.9405 37.501 25.919V3.081C37.5007 3.05943 37.492 3.03882 37.4766 3.02366C37.4613 3.0085 37.4406 3 37.419 3H31.475C31.0837 2.99973 30.7085 2.84411 30.432 2.56734C30.1554 2.29056 30 1.91529 30 1.524V1.476C30 1.08471 30.1554 0.709439 30.432 0.432664C30.7085 0.155889 31.0837 0.000265099 31.475 0L37.419 0C38.2361 0 39.0198 0.324604 39.5976 0.902404C40.1754 1.4802 40.5 2.26387 40.5 3.081V25.919C40.5 26.7361 40.1754 27.5198 39.5976 28.0976C39.0198 28.6754 38.2361 29 37.419 29H31.459ZM3.081 29C2.26387 29 1.4802 28.6754 0.902404 28.0976C0.324604 27.5198 0 26.7361 0 25.919L0 3.081C0 2.26387 0.324604 1.4802 0.902404 0.902404C1.4802 0.324604 2.26387 0 3.081 0H9.025C9.41629 0.000265099 9.79146 0.155889 10.068 0.432664C10.3446 0.709439 10.5 1.08471 10.5 1.476V1.524C10.5 1.91529 10.3446 2.29056 10.068 2.56734C9.79146 2.84411 9.41629 2.99973 9.025 3H3.081C3.0596 3.00026 3.03915 3.00888 3.02401 3.02401C3.00888 3.03915 3.00026 3.0596 3 3.081V25.919C3 25.9405 3.00853 25.9611 3.02372 25.9763C3.03891 25.9915 3.05952 26 3.081 26H9.041C9.42804 26.0003 9.79914 26.1542 10.0727 26.428C10.3463 26.7018 10.5 27.073 10.5 27.46V27.54C10.5 27.927 10.3463 28.2982 10.0727 28.572C9.79914 28.8458 9.42804 28.9997 9.041 29H3.081ZM26.958 21.227C26.958 20.8314 27.0753 20.4448 27.2951 20.1159C27.5148 19.787 27.8272 19.5306 28.1926 19.3792C28.5581 19.2279 28.9602 19.1883 29.3482 19.2654C29.7361 19.3426 30.0925 19.5331 30.3722 19.8128C30.6519 20.0925 30.8424 20.4489 30.9196 20.8368C30.9967 21.2248 30.9571 21.6269 30.8058 21.9924C30.6544 22.3578 30.398 22.6702 30.0691 22.8899C29.7402 23.1097 29.3536 23.227 28.958 23.227C28.4276 23.227 27.9189 23.0163 27.5438 22.6412C27.1687 22.2661 26.958 21.7574 26.958 21.227ZM17.958 21.227C17.958 20.8314 18.0753 20.4448 18.2951 20.1159C18.5148 19.787 18.8272 19.5306 19.1926 19.3792C19.5581 19.2279 19.9602 19.1883 20.3482 19.2654C20.7361 19.3426 21.0925 19.5331 21.3722 19.8128C21.6519 20.0925 21.8424 20.4489 21.9196 20.8368C21.9967 21.2248 21.9571 21.6269 21.8058 21.9924C21.6544 22.3578 21.398 22.6702 21.0691 22.8899C20.7402 23.1097 20.3536 23.227 19.958 23.227C19.4276 23.227 18.9189 23.0163 18.5438 22.6412C18.1687 22.2661 17.958 21.7574 17.958 21.227ZM8.958 21.227C8.958 20.8314 9.0753 20.4448 9.29506 20.1159C9.51482 19.787 9.82718 19.5306 10.1926 19.3792C10.5581 19.2279 10.9602 19.1883 11.3482 19.2654C11.7361 19.3426 12.0925 19.5331 12.3722 19.8128C12.6519 20.0925 12.8424 20.4489 12.9196 20.8368C12.9967 21.2248 12.9571 21.6269 12.8058 21.9924C12.6544 22.3578 12.398 22.6702 12.0691 22.8899C11.7402 23.1097 11.3536 23.227 10.958 23.227C10.4276 23.227 9.91886 23.0163 9.54379 22.6412C9.16871 22.2661 8.958 21.7574 8.958 21.227ZM26.958 14.227C26.958 13.8314 27.0753 13.4448 27.2951 13.1159C27.5148 12.787 27.8272 12.5306 28.1926 12.3792C28.5581 12.2279 28.9602 12.1883 29.3482 12.2654C29.7361 12.3426 30.0925 12.5331 30.3722 12.8128C30.6519 13.0925 30.8424 13.4489 30.9196 13.8368C30.9967 14.2248 30.9571 14.6269 30.8058 14.9924C30.6544 15.3578 30.398 15.6702 30.0691 15.8899C29.7402 16.1097 29.3536 16.227 28.958 16.227C28.6953 16.227 28.4351 16.1752 28.1924 16.0747C27.9497 15.9741 27.7292 15.8267 27.5434 15.6409C27.3577 15.455 27.2104 15.2344 27.11 14.9917C27.0095 14.7489 26.9579 14.4887 26.958 14.226V14.227ZM17.958 14.227C17.958 13.8314 18.0753 13.4448 18.2951 13.1159C18.5148 12.787 18.8272 12.5306 19.1926 12.3792C19.5581 12.2279 19.9602 12.1883 20.3482 12.2654C20.7361 12.3426 21.0925 12.5331 21.3722 12.8128C21.6519 13.0925 21.8424 13.4489 21.9196 13.8368C21.9967 14.2248 21.9571 14.6269 21.8058 14.9924C21.6544 15.3578 21.398 15.6702 21.0691 15.8899C20.7402 16.1097 20.3536 16.227 19.958 16.227C19.6953 16.227 19.4351 16.1752 19.1924 16.0747C18.9497 15.9741 18.7292 15.8267 18.5434 15.6409C18.3577 15.455 18.2104 15.2344 18.11 14.9917C18.0095 14.7489 17.9579 14.4887 17.958 14.226V14.227ZM8.958 14.227C8.958 13.8314 9.0753 13.4448 9.29506 13.1159C9.51482 12.787 9.82718 12.5306 10.1926 12.3792C10.5581 12.2279 10.9602 12.1883 11.3482 12.2654C11.7361 12.3426 12.0925 12.5331 12.3722 12.8128C12.6519 13.0925 12.8424 13.4489 12.9196 13.8368C12.9967 14.2248 12.9571 14.6269 12.8058 14.9924C12.6544 15.3578 12.398 15.6702 12.0691 15.8899C11.7402 16.1097 11.3536 16.227 10.958 16.227C10.6953 16.227 10.4351 16.1752 10.1924 16.0747C9.94969 15.9741 9.72916 15.8267 9.54343 15.6409C9.3577 15.455 9.2104 15.2344 9.10995 14.9917C9.0095 14.7489 8.95787 14.4887 8.958 14.226V14.227ZM26.958 7.227C26.958 6.83144 27.0753 6.44476 27.2951 6.11586C27.5148 5.78696 27.8272 5.53062 28.1926 5.37924C28.5581 5.22787 28.9602 5.18826 29.3482 5.26543C29.7361 5.3426 30.0925 5.53308 30.3722 5.81279C30.6519 6.09249 30.8424 6.44886 30.9196 6.83682C30.9967 7.22478 30.9571 7.62691 30.8058 7.99237C30.6544 8.35782 30.398 8.67018 30.0691 8.88994C29.7402 9.1097 29.3536 9.227 28.958 9.227C28.4276 9.227 27.9189 9.01629 27.5438 8.64121C27.1687 8.26614 26.958 7.75743 26.958 7.227ZM17.958 7.227C17.958 6.83144 18.0753 6.44476 18.2951 6.11586C18.5148 5.78696 18.8272 5.53062 19.1926 5.37924C19.5581 5.22787 19.9602 5.18826 20.3482 5.26543C20.7361 5.3426 21.0925 5.53308 21.3722 5.81279C21.6519 6.09249 21.8424 6.44886 21.9196 6.83682C21.9967 7.22478 21.9571 7.62691 21.8058 7.99237C21.6544 8.35782 21.398 8.67018 21.0691 8.88994C20.7402 9.1097 20.3536 9.227 19.958 9.227C19.4276 9.227 18.9189 9.01629 18.5438 8.64121C18.1687 8.26614 17.958 7.75743 17.958 7.227ZM8.958 7.227C8.958 6.83144 9.0753 6.44476 9.29506 6.11586C9.51482 5.78696 9.82718 5.53062 10.1926 5.37924C10.5581 5.22787 10.9602 5.18826 11.3482 5.26543C11.7361 5.3426 12.0925 5.53308 12.3722 5.81279C12.6519 6.09249 12.8424 6.44886 12.9196 6.83682C12.9967 7.22478 12.9571 7.62691 12.8058 7.99237C12.6544 8.35782 12.398 8.67018 12.0691 8.88994C11.7402 9.1097 11.3536 9.227 10.958 9.227C10.4276 9.227 9.91886 9.01629 9.54379 8.64121C9.16871 8.26614 8.958 7.75743 8.958 7.227Z" fill="#263769"/>
</g>
<defs>
<clipPath id="clip0_29_1867">
<rect width="40.5" height="29" fill="white"/>
</clipPath>
</defs>
</svg>
