<svg width="30" height="30" viewBox="0 0 30 30" fill="none" xmlns="http://www.w3.org/2000/svg">
<g clip-path="url(#clip0_29_1882)">
<path d="M14.8081 21.1647C14.4765 21.1664 14.1486 21.0958 13.8471 20.9578C13.5456 20.8198 13.2778 20.6177 13.0624 20.3656C12.8469 20.1135 12.6891 19.8175 12.5997 19.4982C12.5104 19.1789 12.4918 18.8439 12.5451 18.5167C12.6379 17.9571 12.7922 17.4094 13.0051 16.8837C13.6427 15.5552 14.5365 14.3657 15.6351 13.3837C16.546 12.5564 17.3798 11.648 18.1261 10.6697C18.6524 9.88507 18.933 8.96144 18.9321 8.01667C19.0045 6.96925 18.6683 5.93452 17.9941 5.12967C17.6312 4.77961 17.1987 4.50971 16.7248 4.33745C16.2509 4.16518 15.7461 4.09439 15.2431 4.12967C14.2208 4.08028 13.2192 4.42944 12.4491 5.10367C12.1097 5.41298 11.8433 5.79382 11.6691 6.21867C11.4905 6.66673 11.1823 7.05139 10.7841 7.32355C10.3858 7.5957 9.91547 7.74301 9.43312 7.74667C9.03064 7.74952 8.63383 7.65177 8.27873 7.46231C7.92362 7.27285 7.62148 6.99768 7.39973 6.66179C7.17799 6.32589 7.04367 5.93992 7.00899 5.53893C6.9743 5.13795 7.04035 4.73465 7.20112 4.36567C7.60646 3.49498 8.19284 2.72076 8.92112 2.09467C10.6995 0.645005 12.9515 -0.0952032 15.2431 0.0166654C17.5337 -0.122357 19.7919 0.612365 21.5621 2.07267C22.334 2.81054 22.9367 3.70712 23.3284 4.70053C23.7201 5.69394 23.8917 6.76052 23.8311 7.82667C23.8311 10.02 22.8098 12.179 20.7671 14.3037L18.2871 16.7447C17.6575 17.5003 17.243 18.4115 17.0871 19.3827C16.9705 19.8967 16.68 20.3547 16.2648 20.6793C15.8496 21.004 15.3351 21.1754 14.8081 21.1647ZM11.9981 27.4267C11.9834 27.0725 12.0421 26.7191 12.1705 26.3887C12.2989 26.0583 12.4942 25.758 12.7441 25.5067C13.0141 25.2561 13.3317 25.0622 13.678 24.9364C14.0242 24.8107 14.3922 24.7557 14.7601 24.7747C15.133 24.7548 15.506 24.8114 15.8561 24.9411C16.2063 25.0707 16.5262 25.2707 16.7961 25.5287C17.0428 25.7782 17.2362 26.0753 17.3644 26.402C17.4927 26.7286 17.5531 27.0779 17.5421 27.4287C17.5514 27.7694 17.4919 28.1084 17.3672 28.4256C17.2424 28.7428 17.055 29.0316 16.8161 29.2747C16.5425 29.5329 16.2187 29.732 15.8648 29.8597C15.5109 29.9873 15.1345 30.0408 14.7591 30.0167C14.385 30.041 14.0099 29.9875 13.6576 29.8594C13.3052 29.7314 12.9833 29.5316 12.7121 29.2727C12.4761 29.028 12.2913 28.7387 12.1686 28.4217C12.0458 28.1047 11.9875 27.7665 11.9971 27.4267H11.9981Z" fill="#263769"/>
</g>
<defs>
<clipPath id="clip0_29_1882">
<rect width="30" height="30" fill="white"/>
</clipPath>
</defs>
</svg>
