<svg xmlns="http://www.w3.org/2000/svg" width="27" height="27" viewBox="0 0 27 27"><defs><style>.a{fill:#7469ff;}</style></defs><g transform="translate(-1 -2)"><path class="a" d="M21.57,29H4.18A3.18,3.18,0,0,1,1,25.82V8.68A3.18,3.18,0,0,1,4.18,5.5h7.2A1.5,1.5,0,0,1,12.88,7h0a1.5,1.5,0,0,1-1.5,1.5H4.18A.18.18,0,0,0,4,8.68V25.82a.18.18,0,0,0,.18.18H21.57a.18.18,0,0,0,.18-.18V18.75a1.5,1.5,0,0,1,1.5-1.5h0a1.5,1.5,0,0,1,1.5,1.5v7.07A3.18,3.18,0,0,1,21.57,29Z"/><path class="a" d="M26.5,2h-10a1.5,1.5,0,1,0,0,3h6.41L10.5,17.41a1.48,1.48,0,0,0,2.09,2.09L25,7.1v6.4a1.5,1.5,0,0,0,3,0V3.5A1.5,1.5,0,0,0,26.5,2Z"/></g></svg>