<svg xmlns="http://www.w3.org/2000/svg" width="30" height="30" viewBox="0 0 30 30"><path d="M21.573,29H4.177A3.178,3.178,0,0,1,1,25.823V8.677A3.178,3.178,0,0,1,4.177,5.5h7.2a1.5,1.5,0,1,1,0,3h-7.2A.178.178,0,0,0,4,8.677V25.823A.178.178,0,0,0,4.177,26h17.4a.178.178,0,0,0,.178-.178V18.75a1.5,1.5,0,0,1,3,0v7.073A3.178,3.178,0,0,1,21.573,29ZM8.181,21.283,8.8,17.81a.454.454,0,0,1,.768-.241l2.853,2.853a.453.453,0,0,1-.242.767l-3.472.621a.454.454,0,0,1-.526-.527Z" fill="#7469ff"/><rect width="5" height="17" rx="0.48" transform="translate(22.148 4.307) rotate(45)" fill="#7469ff"/><path d="M24.9,2.531h2.241A1.379,1.379,0,0,1,28.516,3.91v.919a.589.589,0,0,1-.589.589H24.1a.589.589,0,0,1-.589-.589V3.91A1.379,1.379,0,0,1,24.9,2.531Z" transform="translate(10.43 -17.232) rotate(45)" fill="#7469ff"/><path d="M0,30,30,0" fill="#7469ff"/></svg>