<svg width="29" height="28" viewBox="0 0 29 28" fill="none" xmlns="http://www.w3.org/2000/svg">
<g clip-path="url(#clip0_29_1880)">
<path d="M12.126 27.69C11.728 27.6917 11.3384 27.5759 11.006 27.357C10.7078 27.1568 10.4653 26.8843 10.3009 26.565C10.1365 26.2457 10.0557 25.89 10.066 25.531V16.259C10.0351 15.9633 9.93911 15.6782 9.78499 15.424L0.465993 3.18297C0.222861 2.89286 0.0673251 2.53954 0.0175653 2.16431C-0.0321945 1.78907 0.0258772 1.40743 0.184993 1.06397C0.361856 0.730096 0.629677 0.453146 0.95744 0.265196C1.2852 0.0772446 1.6595 -0.0140189 2.03699 0.0019733H26.095C26.471 -0.014157 26.844 0.0753826 27.1717 0.260439C27.4994 0.445496 27.7686 0.718665 27.949 1.04897C28.1124 1.38784 28.1775 1.76571 28.137 2.13971C28.0965 2.51372 27.9521 2.8689 27.72 3.16497L18.977 15.372C18.8196 15.6438 18.7224 15.9463 18.692 16.259V23.081C18.6777 23.6583 18.5025 24.2201 18.1861 24.7032C17.8696 25.1862 17.4245 25.5713 16.901 25.815L13.055 27.49C12.7624 27.62 12.4461 27.6881 12.126 27.69V27.69ZM4.09399 3.00197L12.171 13.602C12.7251 14.3802 13.038 15.3042 13.071 16.259V24.213L15.708 23.064L15.697 16.264C15.7287 15.3244 16.0217 14.4123 16.543 13.63L24.147 3.00197H4.09399Z" fill="#263769"/>
</g>
<defs>
<clipPath id="clip0_29_1880">
<rect width="28.148" height="27.69" fill="white"/>
</clipPath>
</defs>
</svg>
