<svg width="22" height="22" viewBox="0 0 22 22" fill="none" xmlns="http://www.w3.org/2000/svg">
<g clip-path="url(#clip0_29_1887)">
<path d="M15.564 7.95999H20.502V9.24199H13.621V8.20099L18.401 1.295H13.653V-0.00500488H20.353V1.015L15.564 7.95999ZM19.227 19.089H15.647L14.897 21.242H13.228L16.719 12H18.16L21.66 21.242H19.983L19.227 19.089ZM16.097 17.795H18.776L17.436 13.961L16.097 17.795ZM10.688 15.131C10.572 15.0149 10.4343 14.9228 10.2827 14.86C10.1311 14.7972 9.9686 14.7648 9.8045 14.7648C9.6404 14.7648 9.47791 14.7972 9.32632 14.86C9.17472 14.9228 9.03699 15.0149 8.921 15.131L6.765 17.287V1.258C6.765 0.926475 6.6333 0.608532 6.39888 0.374112C6.16446 0.139691 5.84652 0.00799513 5.515 0.00799513C5.18348 0.00799513 4.86554 0.139691 4.63112 0.374112C4.3967 0.608532 4.265 0.926475 4.265 1.258V17.276L2.145 15.156C2.02909 15.0399 1.89145 14.9479 1.73994 14.8851C1.58842 14.8223 1.42602 14.7899 1.262 14.7899C1.09798 14.7899 0.935577 14.8223 0.784065 14.8851C0.632553 14.9479 0.494908 15.0399 0.379001 15.156L0.366001 15.169C0.249954 15.2849 0.157893 15.4225 0.0950813 15.5741C0.0322695 15.7256 -6.10352e-05 15.888 -6.10352e-05 16.052C-6.10352e-05 16.216 0.0322695 16.3784 0.0950813 16.5299C0.157893 16.6814 0.249954 16.8191 0.366001 16.935L4.642 21.211C4.87618 21.4448 5.19358 21.5761 5.5245 21.5761C5.85543 21.5761 6.17282 21.4448 6.407 21.211L6.42 21.198C6.44183 21.1689 6.46187 21.1385 6.48 21.107L10.688 16.899C10.8042 16.783 10.8964 16.6452 10.9594 16.4935C11.0223 16.3418 11.0546 16.1792 11.0546 16.015C11.0546 15.8508 11.0223 15.6882 10.9594 15.5365C10.8964 15.3848 10.8042 15.247 10.688 15.131V15.131Z" fill="#263769"/>
</g>
<defs>
<clipPath id="clip0_29_1887">
<rect width="21.66" height="21.576" fill="white"/>
</clipPath>
</defs>
</svg>
