<svg width="30" height="24" viewBox="0 0 30 24" fill="none" xmlns="http://www.w3.org/2000/svg">
<g clip-path="url(#clip0_29_1871)">
<path d="M0.600015 11.568C0.363199 11.2769 0.18686 10.9415 0.0813328 10.5814C-0.0241948 10.2213 -0.0567892 9.84372 -0.0145407 9.47086C0.0277079 9.09799 0.14395 8.73731 0.327374 8.40994C0.510798 8.08257 0.757714 7.7951 1.05366 7.56437C1.3496 7.33365 1.68861 7.16431 2.05083 7.06628C2.41306 6.96825 2.7912 6.9435 3.16311 6.99347C3.53502 7.04345 3.89322 7.16716 4.21671 7.35733C4.5402 7.54751 4.82248 7.80034 5.04702 8.10101L11.2 15.994L25.108 0.90801C25.6193 0.375882 26.3188 0.0653672 27.0564 0.0430952C27.794 0.0208231 28.5109 0.288569 29.0534 0.788879C29.5958 1.28919 29.9206 1.9822 29.9579 2.7192C29.9952 3.4562 29.7422 4.17846 29.253 4.73101L13.2 22.142C12.693 22.6915 11.9884 23.0172 11.2413 23.0474C10.4943 23.0776 9.76575 22.8098 9.21601 22.303" fill="#263769"/>
</g>
<defs>
<clipPath id="clip0_29_1871">
<rect width="30" height="23.05" fill="white"/>
</clipPath>
</defs>
</svg>
