<svg width="19" height="33" viewBox="0 0 19 33" fill="none" xmlns="http://www.w3.org/2000/svg">
<g clip-path="url(#clip0_29_1865)">
<path d="M8.684 32.16L0.335997 22.516C0.119115 22.2548 0.000395775 21.926 0.000395775 21.5865C0.000395775 21.247 0.119115 20.9182 0.335997 20.657C0.433695 20.5366 0.557014 20.4396 0.696967 20.373C0.836921 20.3063 0.989982 20.2717 1.145 20.2717C1.30001 20.2717 1.45307 20.3063 1.59303 20.373C1.73298 20.4396 1.8563 20.5366 1.954 20.657L9.023 28.822C9.07922 28.8921 9.15046 28.9486 9.23146 28.9875C9.31246 29.0264 9.40115 29.0465 9.491 29.0465C9.58084 29.0465 9.66953 29.0264 9.75053 28.9875C9.83154 28.9486 9.90277 28.8921 9.959 28.822L17.028 20.657C17.1256 20.5367 17.2488 20.4396 17.3887 20.373C17.5286 20.3063 17.6816 20.2717 17.8365 20.2717C17.9914 20.2717 18.1444 20.3063 18.2843 20.373C18.4242 20.4396 18.5474 20.5367 18.645 20.657C18.8604 20.9179 18.9782 21.2457 18.9782 21.584C18.9782 21.9223 18.8604 22.2501 18.645 22.511L10.301 32.16C10.2032 32.2809 10.0797 32.3784 9.93933 32.4454C9.79901 32.5124 9.64549 32.5472 9.49 32.5472C9.3345 32.5472 9.18098 32.5124 9.04066 32.4454C8.90034 32.3784 8.77677 32.2809 8.679 32.16H8.684ZM6.83 16.274C6.83 15.6807 7.00594 15.1006 7.33559 14.6073C7.66523 14.1139 8.13377 13.7294 8.68195 13.5024C9.23012 13.2753 9.83332 13.2159 10.4153 13.3316C10.9972 13.4474 11.5318 13.7331 11.9513 14.1527C12.3709 14.5722 12.6566 15.1068 12.7724 15.6887C12.8881 16.2707 12.8287 16.8739 12.6016 17.422C12.3746 17.9702 11.9901 18.4388 11.4967 18.7684C11.0034 19.098 10.4233 19.274 9.83 19.274C9.03435 19.274 8.27128 18.9579 7.70868 18.3953C7.14607 17.8327 6.83 17.0696 6.83 16.274ZM17.835 12.274C17.6801 12.2736 17.5272 12.2385 17.3876 12.1714C17.2479 12.1043 17.1251 12.0067 17.028 11.886L9.958 3.72099C9.90178 3.65092 9.83053 3.59436 9.74953 3.5555C9.66853 3.51664 9.57984 3.49646 9.49 3.49646C9.40015 3.49646 9.31146 3.51664 9.23046 3.5555C9.14946 3.59436 9.07822 3.65092 9.022 3.72099L1.953 11.886C1.85567 12.0066 1.73265 12.1041 1.5929 12.1712C1.45316 12.2382 1.3002 12.2733 1.14519 12.2738C0.990172 12.2743 0.837004 12.2401 0.696844 12.1739C0.556685 12.1077 0.433065 12.011 0.334996 11.891C0.118296 11.6297 -0.000305176 11.3009 -0.000305176 10.9615C-0.000305176 10.622 0.118296 10.2933 0.334996 10.032L8.684 0.387994C8.78166 0.266927 8.9052 0.169263 9.04553 0.102166C9.18587 0.0350699 9.33945 0.000244141 9.495 0.000244141C9.65055 0.000244141 9.80412 0.0350699 9.94446 0.102166C10.0848 0.169263 10.2083 0.266927 10.306 0.387994L18.65 10.037C18.8654 10.2979 18.9832 10.6257 18.9832 10.964C18.9832 11.3023 18.8654 11.6301 18.65 11.891C18.5523 12.0107 18.4292 12.1072 18.2897 12.1735C18.1501 12.2397 17.9975 12.274 17.843 12.274H17.835Z" fill="#263769"/>
</g>
<defs>
<clipPath id="clip0_29_1865">
<rect width="18.98" height="32.547" fill="white"/>
</clipPath>
</defs>
</svg>
