<svg xmlns="http://www.w3.org/2000/svg" width="18.98" height="32.547" viewBox="0 0 18.98 32.547"><path d="M21.684,31.886l-8.348-9.644a1.455,1.455,0,0,1,0-1.859,1.042,1.042,0,0,1,1.618,0l7.069,8.165a.6.6,0,0,0,.936,0l7.069-8.165a1.041,1.041,0,0,1,1.617,0,1.456,1.456,0,0,1,0,1.854l-8.344,9.649a1.043,1.043,0,0,1-1.622,0ZM19.83,16a3,3,0,1,1,3,3A3,3,0,0,1,19.83,16Zm11.005-4a1.039,1.039,0,0,1-.807-.388L22.958,3.447a.6.6,0,0,0-.936,0l-7.069,8.165a1.042,1.042,0,0,1-1.618.005,1.456,1.456,0,0,1,0-1.859L21.684.114a1.042,1.042,0,0,1,1.622,0l8.344,9.649a1.456,1.456,0,0,1,0,1.854,1.041,1.041,0,0,1-.807.383Z" transform="translate(-13 0.274)" fill="#7469ff"/></svg>