<svg xmlns="http://www.w3.org/2000/svg" viewBox="0 0 30 30"><path d="M23.132 8.24l-7.071-7.071a1.5 1.5 0 0 0-2.122 0l-7.071 7.071a1.5 1.5 0 0 0 2.122 2.121l4.533-4.534v14.464a1.48 1.48 0 0 0 2.96 0v-14.457l4.527 4.527a1.5 1.5 0 0 0 2.122-2.121zM26.419 29.271h-22.838a3.081 3.081 0 0 1-3.081-3.081v-5.96a1.46 1.46 0 0 1 1.46-1.459h.08a1.46 1.46 0 0 1 1.46 1.459v5.96a.081.081 0 0 0 .081.081h22.838a.081.081 0 0 0 .081-.081v-5.944a1.475 1.475 0 0 1 1.476-1.475h.048a1.475 1.475 0 0 1 1.476 1.475v5.944a3.081 3.081 0 0 1-3.081 3.081z"/><title></title></svg>
