<svg xmlns="http://www.w3.org/2000/svg" viewBox="0 0 30 30"><path d="M14.434,15a7.5,7.5,0,1,0-7.5-7.5A7.509,7.509,0,0,0,14.434,15Zm0-12.857A5.357,5.357,0,1,1,9.077,7.5,5.364,5.364,0,0,1,14.434,2.143Z"/><path d="M17.456,18.724a1.082,1.082,0,0,0-.861-1.338,14.964,14.964,0,0,0-2.7-.243c-6.927,0-12.642,4.651-13.325,10.59a1.078,1.078,0,0,0,1.071,1.2A1.053,1.053,0,0,0,2.7,28.008c.542-4.887,5.358-8.722,11.2-8.722a12.887,12.887,0,0,1,2.352.215A1.057,1.057,0,0,0,17.456,18.724Z"/><path d="M27.827,20.893H23.541V16.607a1.607,1.607,0,0,0-3.214,0v4.286H16.041a1.607,1.607,0,0,0,0,3.214h4.286v4.286a1.607,1.607,0,0,0,3.214,0V24.107h4.286a1.607,1.607,0,0,0,0-3.214Z"/><title></title></svg>
