<svg xmlns="http://www.w3.org/2000/svg" viewBox="0 0 30 30"><path d="M28.32,21.27c-.08-.09-.21-.25-.39-.43h0c-.18-.17-.35-.29-.37-.31l-.09-.05a.91.91,0,0,0-1.21.28A.89.89,0,0,0,26.43,22s.43.41.49.48a3.48,3.48,0,0,1-.43,4.9A3.49,3.49,0,0,1,21,25.94a3.38,3.38,0,0,1,.46-3.28.9.9,0,0,0,.81.87.91.91,0,0,0,1-.81l.27-2.36a.53.53,0,0,0-.39-.56l-2.46-.58a.92.92,0,0,0-.42,1.8l.11,0A5.35,5.35,0,0,0,19,24.75a5.26,5.26,0,0,0,1.89,4,5.39,5.39,0,0,0,6.82,0l.07-.06A5.35,5.35,0,0,0,28.32,21.27Z"/><path d="M9.84,11.88l5.44,7.77a1.32,1.32,0,0,0,2.4-.76,1.26,1.26,0,0,0-.24-.75l-.51-.73,3.89-3.88,3.35,3.35v1.37h0s0,0,0,0a1.32,1.32,0,0,0,2.64,0s0,0,0,0h0V3.6A3.61,3.61,0,0,0,23.2,0H4A3.6,3.6,0,0,0,.44,3.6V22.76A3.6,3.6,0,0,0,4,26.36H16.36a1.32,1.32,0,1,0,0-2.63H4a1,1,0,0,1-1-1v-1.4ZM3.08,3.6a1,1,0,0,1,1-1H23.2a1,1,0,0,1,1,1v9.55l-2.39-2.39,0,0a1.31,1.31,0,0,0-.94-.38,1.35,1.35,0,0,0-.93.38s0,0,0,0L15.4,15.22,10.93,8.84a1.39,1.39,0,0,0-1.06-.56,1.35,1.35,0,0,0-1.09.55l-5.7,8Z"/><path d="M16.68,8.79a2.2,2.2,0,1,0-2.19-2.2A2.2,2.2,0,0,0,16.68,8.79Z"/></svg>