<svg xmlns="http://www.w3.org/2000/svg" viewBox="0 0 30 30"><path d="M26.791.75h-17.469a3.2 3.2 0 0 0-3.209 3.177v1.823h-2.936a3.18 3.18 0 0 0-3.177 3.177v17.146a3.18 3.18 0 0 0 3.177 3.177h17.5a3.2 3.2 0 0 0 3.209-3.177v-1.823h2.9a3.2 3.2 0 0 0 3.214-3.177v-17.146a3.2 3.2 0 0 0-3.209-3.177zm-23.582 25.5a.2.2 0 0 1-.209-.177v-17.146a.2.2 0 0 1 .209-.177h17.364a.178.178 0 0 1 .177.177v17.146a.178.178 0 0 1-.177.177zm23.791-5.177a.2.2 0 0 1-.209.177h-3.041v-12.323a3.18 3.18 0 0 0-3.177-3.177h-11.46v-1.823a.2.2 0 0 1 .209-.177h17.469a.2.2 0 0 1 .209.177zM17.25 15.75h-3.5v-3.5a1.75 1.75 0 0 0-3.5 0v3.5h-3.5a1.75 1.75 0 0 0 0 3.5h3.5v3.5a1.75 1.75 0 0 0 3.5 0v-3.5h3.5a1.75 1.75 0 0 0 0-3.5z"/><title></title></svg>
