<svg xmlns="http://www.w3.org/2000/svg" viewBox="0 0 30 30"><path d="M3.209.75H20.678a3.2,3.2,0,0,1,3.209,3.177V5.75h2.936A3.18,3.18,0,0,1,30,8.927V26.073a3.18,3.18,0,0,1-3.177,3.177H9.322a3.2,3.2,0,0,1-3.209-3.177V24.25h-2.9A3.2,3.2,0,0,1,0,21.073V3.927A3.2,3.2,0,0,1,3.209.75Zm23.582,25.5A.2.2,0,0,0,27,26.073V8.927a.2.2,0,0,0-.209-.177H9.427a.178.178,0,0,0-.177.177V26.073a.178.178,0,0,0,.177.177ZM3,21.073a.2.2,0,0,0,.209.177H6.25V8.927A3.18,3.18,0,0,1,9.427,5.75h11.46V3.927a.2.2,0,0,0-.209-.177H3.209A.2.2,0,0,0,3,3.927Z" style="fill:#092a3a"/><rect x="11.5" y="10.823" width="13" height="3" rx="1.5" transform="translate(36 24.645) rotate(-180)"/><rect x="11.5" y="15.823" width="13" height="3" rx="1.5" transform="translate(36 34.645) rotate(180)" style="fill:#092a3a"/><rect x="11.5" y="20.823" width="13" height="3" rx="1.5" transform="translate(36 44.645) rotate(180)"/><title></title></svg>
