<svg width="30" height="30" viewBox="0 0 30 30" fill="none" xmlns="http://www.w3.org/2000/svg">
<g clip-path="url(#clip0_301_529)">
<path d="M24.8995 5.0995C22.9416 3.14156 20.447 1.80819 17.7313 1.268C15.0155 0.727808 12.2006 1.00505 9.64244 2.06468C7.08427 3.12431 4.89777 4.91872 3.35943 7.22101C1.82109 9.5233 1.00001 12.2301 1.00001 14.999C1 17.7679 1.82109 20.4747 3.35943 22.777C4.89777 25.0793 7.08427 26.8737 9.64244 27.9333C12.2006 28.9929 15.0155 29.2702 17.7313 28.73C20.447 28.1898 22.9416 26.8564 24.8995 24.8985C27.525 22.273 29 18.712 29 14.999C29 11.286 27.525 7.72501 24.8995 5.0995ZM19.0305 21.7165L15 17.686L10.9695 21.7165C10.7931 21.8929 10.5836 22.0329 10.3531 22.1284C10.1226 22.2239 9.87551 22.273 9.62599 22.273C9.37648 22.273 9.12941 22.2239 8.89889 22.1284C8.66838 22.0329 8.45892 21.8929 8.28249 21.7165C8.10606 21.5401 7.96611 21.3306 7.87062 21.1001C7.77514 20.8696 7.72599 20.6225 7.72599 20.373C7.72599 20.1235 7.77514 19.8764 7.87062 19.6459C7.96611 19.4154 8.10606 19.2059 8.28249 19.0295L12.313 14.999L8.28249 10.9685C8.10606 10.7921 7.96611 10.5826 7.87062 10.3521C7.77514 10.1216 7.72599 9.8745 7.72599 9.62498C7.72599 9.37547 7.77514 9.1284 7.87062 8.89788C7.96611 8.66737 8.10606 8.45791 8.28249 8.28148C8.45892 8.10505 8.66838 7.9651 8.89889 7.86961C9.12941 7.77413 9.37648 7.72498 9.62599 7.72498C9.8755 7.72498 10.1226 7.77413 10.3531 7.86961C10.5836 7.9651 10.7931 8.10505 10.9695 8.28148L15 12.312L19.0305 8.28148C19.2069 8.10505 19.4164 7.9651 19.6469 7.86961C19.8774 7.77413 20.1245 7.72498 20.374 7.72498C20.6235 7.72498 20.8706 7.77413 21.1011 7.86961C21.3316 7.9651 21.5411 8.10505 21.7175 8.28148C21.894 8.45791 22.0339 8.66737 22.1294 8.89789C22.2249 9.1284 22.274 9.37547 22.274 9.62498C22.274 9.8745 22.2249 10.1216 22.1294 10.3521C22.0339 10.5826 21.894 10.7921 21.7175 10.9685L17.687 14.999L21.7175 19.0295C22.0738 19.3858 22.274 19.8691 22.274 20.373C22.274 20.8769 22.0738 21.3602 21.7175 21.7165C21.3612 22.0728 20.8779 22.273 20.374 22.273C19.8701 22.273 19.3868 22.0728 19.0305 21.7165Z" fill="black"/>
</g>
<defs>
<clipPath id="clip0_301_529">
<rect width="30" height="30" fill="white"/>
</clipPath>
</defs>
</svg>
