<svg xmlns="http://www.w3.org/2000/svg" viewBox="0 0 30 30"><path d="M27.432 15.585a10.316 10.316 0 0 0-.176-1.039l-.067-.2a1.5 1.5 0 0 0-2.881.747l.021.107s.171 1.6.171 1.8a9.511 9.511 0 1 1-18.5-3.113 9.4 9.4 0 0 1 9-6.387h.011l.131.007-1.458 1.393a1.5 1.5 0 0 0 2.066 2.17l3.533-3.358a1.733 1.733 0 0 0 .188-2.234l-3.139-4.192a1.5 1.5 0 1 0-2.4 1.8l1.06 1.414a12.615 12.615 0 0 0-12.282 14.746 12.647 12.647 0 0 0 12.524 10.254 12.53 12.53 0 0 0 12.266-12.566 10.648 10.648 0 0 0-.068-1.349z"/><title></title></svg>
