<svg xmlns="http://www.w3.org/2000/svg" viewBox="0 0 30 30"><circle cx="7.5" cy="12.5" r="1.5"/><circle cx="12.5" cy="12.5" r="1.5"/><circle cx="17.5" cy="12.5" r="1.5"/><circle cx="22.5" cy="12.5" r="1.5"/><circle cx="7.5" cy="17.5" r="1.5"/><circle cx="12.5" cy="17.5" r="1.5"/><circle cx="7.5" cy="22.5" r="1.5"/><circle cx="12.5" cy="22.5" r="1.5"/><path d="M22.25 15.5a6.75 6.75 0 1 0 6.75 6.75 6.758 6.758 0 0 0-6.75-6.75zm0 11.5a4.75 4.75 0 1 1 4.75-4.75 4.756 4.756 0 0 1-4.75 4.75zM24.25 21.5h-1.25v-2.75a.75.75 0 0 0-1.5 0v3.79a.46.46 0 0 0 .46.46h2.29a.75.75 0 0 0 0-1.5zM26.984 4.4h-1.984v-1.4a1 1 0 0 0-2 0v1.4h-4v-1.4a1 1 0 0 0-2 0v1.4h-4v-1.4a1 1 0 0 0-2 0v1.4h-4v-1.4a1 1 0 0 0-2 0v1.4h-1.145a2.436 2.436 0 0 0-2.436 2.431v19.629a2.436 2.436 0 0 0 2.436 2.44h10.564a1 1 0 0 0 0-2h-10.564a.436.436 0 0 1-.436-.436v-19.633a.436.436 0 0 1 .436-.431h1.145v1.6a1 1 0 0 0 2 0v-1.6h4v1.6a1 1 0 0 0 2 0v-1.6h4v1.6a1 1 0 0 0 2 0v-1.6h4v1.6a1 1 0 0 0 2 0v-1.6h1.984a.435.435 0 0 1 .435.435v8.915a1 1 0 0 0 2 0v-8.919a2.435 2.435 0 0 0-2.435-2.431z"/><title></title></svg>
