<svg xmlns="http://www.w3.org/2000/svg" viewBox="0 0 30 30"><defs><style>.a{opacity:0.7;}</style></defs><path d="M11.85,1H28.52a.79.79,0,0,1,.75.83V5.17a.79.79,0,0,1-.75.83H11.85a.8.8,0,0,1-.76-.83V1.83A.8.8,0,0,1,11.85,1Z"/><path class="a" d="M11.85,12.5H28.52a.79.79,0,0,1,.75.83v3.34a.79.79,0,0,1-.75.83H11.85a.8.8,0,0,1-.76-.83V13.33A.8.8,0,0,1,11.85,12.5Z"/><path d="M11.85,24H28.52a.79.79,0,0,1,.75.83v3.34a.79.79,0,0,1-.75.83H11.85a.8.8,0,0,1-.76-.83V24.83A.8.8,0,0,1,11.85,24Z"/><path d="M1.2,14.31l5.64-3.53a.82.82,0,0,1,1.25.7v7a.82.82,0,0,1-1.25.7L1.2,15.69A.81.81,0,0,1,1.2,14.31Z"/></svg>