<?xml version="1.0" encoding="UTF-8"?><svg xmlns="http://www.w3.org/2000/svg" viewBox="0 0 30 30"><g id="a"/><g id="b"/><g id="c"/><g id="d"/><g id="e"/><g id="f"/><g id="g"/><g id="h"/><g id="i"/><g id="j"/><g id="k"/><g id="l"/><g id="m"/><g id="n"/><g id="o"/><g id="p"><g><path d="M28.25,20.56h-3.5v-3.5c0-.97-.78-1.75-1.75-1.75s-1.75,.78-1.75,1.75v3.5h-3.5c-.97,0-1.75,.78-1.75,1.75s.78,1.75,1.75,1.75h3.5v3.5c0,.97,.78,1.75,1.75,1.75s1.75-.78,1.75-1.75v-3.5h3.5c.97,0,1.75-.78,1.75-1.75s-.78-1.75-1.75-1.75Z"/><path d="M17.1,18.69c.82,0,1.49-.67,1.49-1.49v-.35c0-.27,.13-.66,.28-.88L27.57,3.83h0c.48-.67,.56-1.45,.23-2.1-.33-.65-1.02-1.04-1.84-1.04H2.03C1.21,.69,.52,1.08,.19,1.74-.14,2.4-.03,3.19,.47,3.85l9.27,12.17c.15,.2,.28,.57,.28,.83v9.22c0,.77,.34,1.43,.93,1.82,.33,.22,.72,.33,1.11,.33,.31,0,.62-.07,.92-.2l1.1-.48c.55-.24,.91-.79,.91-1.39v-1.18c0-.51-.52-.86-.99-.65l-1.01,.44v-7.91c0-.81-.4-1.99-.89-2.64L4.08,3.67H24.02l-7.56,10.56c-.46,.65-.84,1.83-.84,2.63v.34c0,.82,.67,1.49,1.49,1.49Z"/></g></g><g id="q"/><g id="r"/><g id="s"/><g id="t"/><g id="u"/><g id="v"/><g id="w"/><g id="x"/><g id="y"/><g id="a`"/><g id="aa"/><g id="ab"/><g id="ac"/><g id="ad"/><g id="ae"/><g id="af"/><g id="ag"/><g id="ah"/><g id="ai"/><g id="aj"/><g id="ak"/><g id="al"/><g id="am"/><g id="an"/><g id="ao"/><g id="ap"/><g id="aq"/><g id="ar"/><g id="as"/><g id="at"/><g id="au"/><g id="av"/><g id="aw"/><g id="ax"/><g id="ay"/><g id="b`"/><g id="ba"/><g id="bb"/><g id="bc"/><g id="bd"/><g id="be"/><g id="bf"/><g id="bg"/><g id="bh"/></svg>