<svg xmlns="http://www.w3.org/2000/svg" viewBox="0 0 30 30"><path d="M13.06 29.188a2.02 2.02 0 0 1-1.12-.333 2.126 2.126 0 0 1-.94-1.826v-9.272a2.015 2.015 0 0 0-.281-.835l-9.319-12.241a1.994 1.994 0 0 1-.281-2.119 2 2 0 0 1 1.852-1.062h24.058a2.014 2.014 0 0 1 1.854 1.047 2.013 2.013 0 0 1-.229 2.116l-8.743 12.207a2.193 2.193 0 0 0-.285.887v6.822a3.1 3.1 0 0 1-1.791 2.734l-3.846 1.675a2.321 2.321 0 0 1-.929.2zm-8.032-24.688l8.077 10.6a4.871 4.871 0 0 1 .895 2.657v7.954l2.637-1.149-.011-6.8a5.058 5.058 0 0 1 .846-2.634l7.609-10.628z"/><title></title></svg>
