<svg width="1662" height="935" viewBox="0 0 1662 935" fill="none" xmlns="http://www.w3.org/2000/svg">
<g clip-path="url(#clip0_815_152)">
<rect width="1662" height="935" fill="white"/>
<g filter="url(#filter0_df_815_152)">
<path opacity="0.75" d="M261.5 130.5C155.368 130.5 -48.5 432.297 -48.5 535C-48.5 562.968 225.31 421.303 462.5 456.5C712.039 493.529 940.455 604.454 1020 592C1079.66 582.659 1153.65 609.572 1232.6 535C1315.75 456.465 1784.5 62.7499 1709 -11.5001C1633.5 -85.7501 1315.42 314.914 1192.25 304.25C1101.27 296.373 970.5 230 970.5 230C853 196.5 781.048 321.071 652.5 316C483.624 309.338 367.632 130.5 261.5 130.5Z" fill="#FC9862"/>
<path opacity="0.75" d="M3.50002 420C-102.632 420 -53.9999 400.204 -53.9999 297.5C-53.9999 194.797 -89.6318 -33.4999 16.5 -33.4999C122.632 -33.4999 452 -102.203 452 0.499992C452 55.9779 265.601 65.2594 157 162L67.5467 312.352C44.9044 370.846 29.3164 420 3.50002 420Z" fill="#B388EB"/>
<path opacity="0.75" d="M1294 663.455C1400.13 663.455 1805 174.158 1805 71.455C1805 -31.2485 1249.63 516.5 1143.5 516.5C1037.37 516.5 371.5 413.797 371.5 516.5C371.5 619.203 1187.87 663.455 1294 663.455Z" fill="#FA77CE"/>
<path opacity="0.75" d="M671.5 177.146C777.632 177.146 1210.5 14.3495 1210.5 -88.354C1210.5 -191.057 718.132 -88.3541 612 -88.3541C505.868 -88.3541 124 206.942 124 309.646C124 412.349 565.368 177.146 671.5 177.146Z" fill="#4441F9"/>
<path opacity="0.75" d="M807.5 290.146C913.632 290.146 1346.5 127.35 1346.5 24.646C1346.5 -78.0574 854.132 24.6459 748 24.6459C641.868 24.6459 260 319.942 260 422.646C260 525.349 701.368 290.146 807.5 290.146Z" fill="#8469FB"/>
<path opacity="0.75" d="M232 661C338.132 661 1231 681.203 1231 578.5C1231 475.797 287.632 490.5 181.5 490.5C75.3681 490.5 -256 752.942 -256 855.646C-256 958.349 125.868 661 232 661Z" fill="#937DFA"/>
<path opacity="0.75" d="M1210.5 249.582C1254.06 148.648 1604 222.215 1604 164.5C1604 101.692 1082.43 66.1432 1001.01 149C949.287 201.63 897.227 207.87 856 207.87C798.034 207.87 697.888 218.945 621.5 207.87C558.026 198.668 509 202.972 509 249.582C509 303.079 602.708 358.479 707.5 399.284C803.887 436.815 950.159 381 1001.01 381C1047.5 381 1176.55 328.259 1210.5 249.582Z" fill="#F78A8F"/>
<path opacity="0.75" d="M1571.91 94.342C1624.97 2.42916 1745.74 -115.334 1656.79 -166.686C1567.85 -218.038 1353.13 -21.728 1300.07 70.1849C1247 162.098 813.653 352.271 902.597 403.622C991.541 454.974 1518.84 186.255 1571.91 94.342Z" fill="#FA77CE"/>
<path opacity="0.75" d="M1310.91 94.342C1363.97 2.42916 1484.74 -115.334 1395.79 -166.686C1306.85 -218.038 1092.13 -21.728 1039.07 70.1849C986 162.098 552.653 352.271 641.597 403.622C730.541 454.974 1257.84 186.255 1310.91 94.342Z" fill="#DE2BAE" fill-opacity="0.75"/>
</g>
</g>
<defs>
<filter id="filter0_df_815_152" x="-456" y="-375.115" width="2461" height="1452.33" filterUnits="userSpaceOnUse" color-interpolation-filters="sRGB">
<feFlood flood-opacity="0" result="BackgroundImageFix"/>
<feColorMatrix in="SourceAlpha" type="matrix" values="0 0 0 0 0 0 0 0 0 0 0 0 0 0 0 0 0 0 127 0" result="hardAlpha"/>
<feOffset/>
<feGaussianBlur stdDeviation="100"/>
<feColorMatrix type="matrix" values="0 0 0 0 0.576471 0 0 0 0 0.345098 0 0 0 0 0.878431 0 0 0 0.67 0"/>
<feBlend mode="normal" in2="BackgroundImageFix" result="effect1_dropShadow_815_152"/>
<feBlend mode="normal" in="SourceGraphic" in2="effect1_dropShadow_815_152" result="shape"/>
<feGaussianBlur stdDeviation="100" result="effect2_foregroundBlur_815_152"/>
</filter>
<clipPath id="clip0_815_152">
<rect width="1662" height="935" fill="white"/>
</clipPath>
</defs>
</svg>
