<svg width="4000" height="2272" viewBox="0 0 4000 2272" fill="none" xmlns="http://www.w3.org/2000/svg">
<g clip-path="url(#clip0_833_1268)">
<g filter="url(#filter0_f_833_1268)">
<path d="M4006.67 274.985L3912.37 206.108L3871.85 321.982L4006.67 274.985Z" fill="#7490C2"/>
<path d="M649.745 1542.11L750.182 1406.58L643.115 1445.68L649.745 1542.11Z" fill="#9CC0C9"/>
<path d="M1467.24 594.449L1397.01 446.163L1351.09 598.096L1467.24 594.449Z" fill="#C99D9F"/>
<path d="M-6.90527 137.434V274.985L72.9043 206.108L-6.90527 137.434Z" fill="#FDF4E7"/>
<path d="M188.322 206.108H72.9043L179.727 412.332L188.322 206.108Z" fill="#FBF1E6"/>
<path d="M374.954 -5.58534L303.248 116.974L448.378 106.643L374.954 -5.58534Z" fill="#FFEEDF"/>
<path d="M874.931 89.2215L749.936 -5.5851L674.301 93.4756L874.931 89.2215Z" fill="#F9D4C6"/>
<path d="M685.107 388.631L884.017 395.519L789.719 269.718L685.107 388.631Z" fill="#E7D9D8"/>
<path d="M3874.8 -5.58538L3812.42 143.309L3953.13 36.7534L3874.8 -5.58538Z" fill="#6283BE"/>
<path d="M3812.42 143.309L3664.1 102.388L3599.76 219.883L3812.42 143.309Z" fill="#6986BE"/>
<path d="M794.63 802.091L696.894 695.94L676.511 792.57L794.63 802.091Z" fill="#A8C2DE"/>
<path d="M172.36 97.1215L303.248 116.974L249.959 -5.58534L172.36 97.1215Z" fill="#FEF3E5"/>
<path d="M2488.81 659.679L2363.81 705.056L2550.2 760.562L2488.81 659.679Z" fill="#D0928E"/>
<path d="M-6.90527 137.434L72.9043 206.108L172.36 97.1217L-6.90527 137.434Z" fill="#FDF4E7"/>
<path d="M2911.19 701.207L2872.14 838.96L3060 771.502L2911.19 701.207Z" fill="#D2AAA9"/>
<path d="M3293.54 648.335L3325.21 743.749L3464.45 644.486L3293.54 648.335Z" fill="#C9B8BE"/>
<path d="M1715.27 129.736L1869.48 75.6474L1749.89 -5.58591L1715.27 129.736Z" fill="#FCA58A"/>
<path d="M98.4437 1856.1L72.9043 1993.45H188.322L98.4437 1856.1Z" fill="#EDF4C0"/>
<path d="M284.585 312.056L399.756 219.883L188.322 206.108L284.585 312.056Z" fill="#F5EDE6"/>
<path d="M3260.88 322.996L3382.43 338.594L3404.04 209.755L3260.88 322.996Z" fill="#A29AB3"/>
<path d="M3812.42 143.309L4006.67 137.434L3953.13 36.7534L3812.42 143.309Z" fill="#6986BE"/>
<path d="M-6.90527 68.7608L172.36 97.1216L36.0693 29.8659L-6.90527 68.7608Z" fill="#FEF4E6"/>
<path d="M4006.67 274.985V137.434L3912.37 206.108L4006.67 274.985Z" fill="#7490C2"/>
<path d="M36.0693 29.8654L-6.90527 34.322V68.7603L36.0693 29.8654Z" fill="#FEF4E5"/>
<path d="M4006.67 68.7603V34.322L3953.13 36.753L4006.67 68.7603Z" fill="#6384BF"/>
<path d="M3953.13 36.7529L4001.02 17.1028L3968.6 -5.58583L3953.13 36.7529Z" fill="#6283BF"/>
<path d="M4000.04 -0.72428L3984.32 -5.58607L4001.02 17.1025L4000.04 -0.72428Z" fill="#6183BF"/>
<path d="M499.948 -5.58523L448.378 106.643L558.148 160.934L499.948 -5.58523Z" fill="#FFE9DA"/>
<path d="M3925.38 441.503L4006.67 274.985L3871.85 321.982L3925.38 441.503Z" fill="#90A3C7"/>
<path d="M315.526 1636.71L123.246 1720.78L271.569 1751.77L315.526 1636.71Z" fill="#C8E2CD"/>
<path d="M558.148 160.934L399.756 219.884L594.247 262.222L558.148 160.934Z" fill="#FCE5D9"/>
<path d="M3953.13 36.7538L4006.67 137.435V68.7611L3953.13 36.7538Z" fill="#6283BF"/>
<path d="M231.296 1872.92L399.756 1979.67L380.602 1848.61L231.296 1872.92Z" fill="#E9EFBD"/>
<path d="M188.322 1993.45L172.36 2102.64L303.248 2082.79L188.322 1993.45Z" fill="#F6F5B8"/>
<path d="M62.3451 -5.58447H31.158L36.0694 29.8667L62.3451 -5.58447Z" fill="#FEF4E5"/>
<path d="M4001.02 17.1028L3953.13 36.7529L4006.67 34.3219L4001.02 17.1028Z" fill="#6283BF"/>
<path d="M31.1579 -5.58447L15.4414 -1.53285L36.0693 29.8667L31.1579 -5.58447Z" fill="#FFF4E5"/>
<path d="M3968.6 -5.58583H3937.42L3953.13 36.7529L3968.6 -5.58583Z" fill="#6183BF"/>
<path d="M36.0693 29.8667L15.4414 -1.53285L-6.90527 17.1041L36.0693 29.8667Z" fill="#FEF4E5"/>
<path d="M3968.6 -5.58607L4001.02 17.1025L3984.32 -5.58607H3968.6Z" fill="#6183BF"/>
<path d="M-0.766276 -0.116322L-6.90527 17.1025L15.4414 -1.53444L-0.766276 -0.116322Z" fill="#FEF4E5"/>
<path d="M36.0693 29.8662L-6.90527 17.1036V34.3228L36.0693 29.8662Z" fill="#FEF4E5"/>
<path d="M172.36 97.1219L-6.90527 68.7611V137.435L172.36 97.1219Z" fill="#FEF3E5"/>
<path d="M124.965 -5.58447H62.3451L36.0693 29.8667L124.965 -5.58447Z" fill="#FFF4E5"/>
<path d="M3937.42 -5.58583H3874.8L3953.13 36.7529L3937.42 -5.58583Z" fill="#6283BE"/>
<path d="M3874.8 -5.58538H3749.8L3812.42 143.309L3874.8 -5.58538Z" fill="#6283BE"/>
<path d="M3664.1 102.388L3812.42 143.309L3749.8 -5.58538L3664.1 102.388Z" fill="#6C85BB"/>
<path d="M3723.28 294.026L3812.42 143.309L3599.76 219.883L3723.28 294.026Z" fill="#7B91C0"/>
<path d="M-6.90527 412.333V549.883L90.5853 484.855L-6.90527 412.333Z" fill="#ECEFED"/>
<path d="M303.248 116.974L188.322 206.108L399.756 219.883L303.248 116.974Z" fill="#FFF0E2"/>
<path d="M-6.90527 1924.78V2062.33L72.9043 1993.45L-6.90527 1924.78Z" fill="#F4F7BC"/>
<path d="M172.36 2102.64L72.9043 1993.45L-6.90527 2062.33L172.36 2102.64Z" fill="#FBF7B4"/>
<path d="M4006.67 137.434L3812.42 143.309L3912.37 206.108L4006.67 137.434Z" fill="#6686C0"/>
<path d="M3208.32 414.763L3231.41 536.107L3321.78 417.802L3208.32 414.763Z" fill="#B0A1B3"/>
<path d="M2972.09 924.246L3060 771.502L2872.14 838.961L2972.09 924.246Z" fill="#DBB4AE"/>
<path d="M3723.28 294.026L3912.37 206.108L3812.42 143.309L3723.28 294.026Z" fill="#7B91C0"/>
<path d="M3925.38 441.503L3871.85 321.982L3775.1 412.332L3925.38 441.503Z" fill="#90A3C7"/>
<path d="M179.727 412.332L72.9043 206.108L-6.90527 274.984L179.727 412.332Z" fill="#ECEDEB"/>
<path d="M72.9043 206.108H188.322L172.36 97.1217L72.9043 206.108Z" fill="#FBF3E7"/>
<path d="M-6.90527 2062.33V2131L172.36 2102.64L-6.90527 2062.33Z" fill="#FCFAB7"/>
<path d="M98.4438 1856.1L188.322 1993.45L231.296 1872.92L98.4438 1856.1Z" fill="#EDF4C0"/>
<path d="M3775.1 412.332L3871.85 321.982L3723.28 294.027L3775.1 412.332Z" fill="#8D9FC4"/>
<path d="M3723.28 294.027L3871.85 321.982L3912.37 206.108L3723.28 294.027Z" fill="#7B91C0"/>
<path d="M3699.46 547.452L3775.1 412.332L3666.55 452.848L3699.46 547.452Z" fill="#A8B0C7"/>
<path d="M4006.67 274.985L3925.38 441.504L4006.67 549.883V274.985Z" fill="#7490C2"/>
<path d="M3499.81 -5.5848L3531 123.457L3624.81 -5.5848H3499.81Z" fill="#7686B7"/>
<path d="M3249.82 -5.58549L3374.82 81.9277L3499.81 -5.58549H3249.82Z" fill="#928DAF"/>
<path d="M144.365 1037.08L243.083 1150.32L313.07 1027.36L144.365 1037.08Z" fill="#AEE1F6"/>
<path d="M3664.1 102.389L3749.8 -5.58515H3624.81L3664.1 102.389Z" fill="#6C85BB"/>
<path d="M415.964 328.667L399.756 219.883L284.584 312.056L415.964 328.667Z" fill="#F3E9E3"/>
<path d="M448.378 106.642L303.248 116.974L399.756 219.883L448.378 106.642Z" fill="#FEEBDD"/>
<path d="M172.36 97.1216L249.959 -5.58523H124.965L172.36 97.1216Z" fill="#FEF3E5"/>
<path d="M399.756 219.883L415.964 328.667L594.247 262.222L399.756 219.883Z" fill="#FDECE1"/>
<path d="M303.248 116.974L374.954 -5.58534H249.959L303.248 116.974Z" fill="#FFF0E2"/>
<path d="M36.0693 29.8659L172.36 97.1216L124.965 -5.58523L36.0693 29.8659Z" fill="#FEF4E5"/>
<path d="M188.322 206.108L303.248 116.974L172.36 97.1217L188.322 206.108Z" fill="#FBF1E6"/>
<path d="M284.584 312.057L330.26 429.147L415.964 328.668L284.584 312.057Z" fill="#F5EDE6"/>
<path d="M742.324 486.07L884.017 395.518L685.107 388.63L742.324 486.07Z" fill="#D9D3D8"/>
<path d="M935.833 282.075L872.967 192.536L789.719 269.718L935.833 282.075Z" fill="#EDCCC5"/>
<path d="M448.378 106.643L499.948 -5.58486H374.954L448.378 106.643Z" fill="#FEEBDD"/>
<path d="M558.148 160.934L674.302 93.4755L499.949 -5.58523L558.148 160.934Z" fill="#FCE5D9"/>
<path d="M558.393 1664.67L448.87 1624.56L420.629 1720.58L558.393 1664.67Z" fill="#B3CCC3"/>
<path d="M399.756 1979.67L188.322 1993.45L303.248 2082.79L399.756 1979.67Z" fill="#E8E7B4"/>
<path d="M72.9043 1993.45L172.36 2102.64L188.322 1993.45H72.9043Z" fill="#F8F8B9"/>
<path d="M188.322 206.108L179.727 412.332L284.585 312.056L188.322 206.108Z" fill="#FBF1E6"/>
<path d="M484.969 526.99L427.997 731.999L576.32 607.211L484.969 526.99Z" fill="#DAE0E7"/>
<path d="M1702.74 351.356L1628.58 248.244L1536 365.739L1702.74 351.356Z" fill="#EFA08C"/>
<path d="M742.324 486.07L685.107 388.631L611.191 491.337L742.324 486.07Z" fill="#D9D3D8"/>
<path d="M789.719 269.718L594.247 262.222L685.107 388.63L789.719 269.718Z" fill="#F0D6CF"/>
<path d="M508.298 407.268L594.247 262.222L415.964 328.668L508.298 407.268Z" fill="#E9E2E2"/>
<path d="M179.727 412.332L174.079 562.037L330.26 429.146L179.727 412.332Z" fill="#ECEDEB"/>
<path d="M685.107 388.631L594.246 262.222L508.297 407.268L685.107 388.631Z" fill="#E7D9D8"/>
<path d="M789.719 269.718L695.175 209.349L594.247 262.222L789.719 269.718Z" fill="#F0D6CF"/>
<path d="M695.175 209.35L558.148 160.934L594.247 262.222L695.175 209.35Z" fill="#F6DDD3"/>
<path d="M508.297 407.268L611.191 491.337L685.107 388.631L508.297 407.268Z" fill="#E9E2E2"/>
<path d="M856.759 676.898L1071.63 647.322L972.913 581.079L856.759 676.898Z" fill="#BAC3D6"/>
<path d="M874.931 89.2219L872.967 192.536L1012.94 109.479L874.931 89.2219Z" fill="#F9D4C6"/>
<path d="M789.719 269.718L872.967 192.536L695.175 209.349L789.719 269.718Z" fill="#F0D6CF"/>
<path d="M695.175 209.349L674.302 93.4751L558.148 160.933L695.175 209.349Z" fill="#F6DDD3"/>
<path d="M399.756 219.883L558.148 160.933L448.379 106.642L399.756 219.883Z" fill="#FDECE1"/>
<path d="M508.297 407.268L330.26 429.146L484.968 526.991L508.297 407.268Z" fill="#E9E2E2"/>
<path d="M972.913 581.079L855.286 541.374L856.759 676.898L972.913 581.079Z" fill="#C8BFCA"/>
<path d="M1012.94 109.478L872.967 192.535L1060.58 218.262L1012.94 109.478Z" fill="#F7CBBD"/>
<path d="M704.507 588.777L742.324 486.07L611.191 491.337L704.507 588.777Z" fill="#CBD1DE"/>
<path d="M972.913 581.079L1037.74 490.932L855.286 541.374L972.913 581.079Z" fill="#C8BFCA"/>
<path d="M704.506 588.777L611.191 491.337L576.32 607.212L704.506 588.777Z" fill="#CBD1DE"/>
<path d="M742.324 486.071L855.285 541.375L884.017 395.519L742.324 486.071Z" fill="#D9D3D8"/>
<path d="M1037.74 490.933L884.017 395.519L855.286 541.375L1037.74 490.933Z" fill="#D4BEC2"/>
<path d="M789.719 269.718L884.017 395.519L935.833 282.075L789.719 269.718Z" fill="#F0D6CF"/>
<path d="M1149.23 442.111L1178.7 562.24L1272.02 466.826L1149.23 442.111Z" fill="#DBB9B8"/>
<path d="M935.832 282.075L884.017 395.519L1077.77 356.218L935.832 282.075Z" fill="#EDCCC5"/>
<path d="M1060.58 218.263L935.833 282.075L1077.77 356.218L1060.58 218.263Z" fill="#F1C6BA"/>
<path d="M1249.91 -5.58511L1124.92 42.8311L1229.53 151.413L1249.91 -5.58511Z" fill="#F9BDAA"/>
<path d="M855.286 541.374L704.506 588.777L856.759 676.898L855.286 541.374Z" fill="#CFC9D2"/>
<path d="M1071.63 647.322L1037.74 490.932L972.913 581.079L1071.63 647.322Z" fill="#BDB4C3"/>
<path d="M576.32 607.212L563.55 719.034L696.894 695.94L576.32 607.212Z" fill="#CCD9E5"/>
<path d="M1021.78 890.618L1109.94 791.355L951.549 782.036L1021.78 890.618Z" fill="#96ABCC"/>
<path d="M742.324 486.07L704.506 588.777L855.286 541.374L742.324 486.07Z" fill="#D9D3D8"/>
<path d="M856.759 676.898L794.631 802.091L951.549 782.036L856.759 676.898Z" fill="#BAC3D6"/>
<path d="M676.512 792.57L563.55 719.035L581.968 851.926L676.512 792.57Z" fill="#ADCBE6"/>
<path d="M794.63 802.091L856.759 676.898L696.894 695.94L794.63 802.091Z" fill="#A8C2DE"/>
<path d="M576.32 607.212L696.894 695.941L704.506 588.778L576.32 607.212Z" fill="#CCD9E5"/>
<path d="M704.506 588.778L696.894 695.941L856.759 676.899L704.506 588.778Z" fill="#CBD1DE"/>
<path d="M460.411 830.654L427.996 731.999L339.837 801.483L460.411 830.654Z" fill="#B1D8F1"/>
<path d="M324.612 1240.27L465.077 1257.49L396.072 1144.65L324.612 1240.27Z" fill="#A5DAEB"/>
<path d="M581.968 851.925L460.412 830.655L521.313 1017.23L581.968 851.925Z" fill="#A9D0EC"/>
<path d="M717.277 1078L835.395 1051.06L735.203 936.197L717.277 1078Z" fill="#89BFE7"/>
<path d="M563.551 719.034L576.32 607.211L427.997 731.999L563.551 719.034Z" fill="#BCD5EA"/>
<path d="M735.203 936.197L676.512 792.569L581.968 851.925L735.203 936.197Z" fill="#97C2E5"/>
<path d="M1272.02 466.826L1178.7 562.24L1351.09 598.096L1272.02 466.826Z" fill="#D9B0AE"/>
<path d="M1149.23 442.111L1164.21 279.239L1077.77 356.218L1149.23 442.111Z" fill="#DBB9B8"/>
<path d="M1077.77 356.219L884.017 395.519L1037.74 490.933L1077.77 356.219Z" fill="#E5C1BC"/>
<path d="M749.937 -5.5854L874.931 89.2212L999.926 -5.5854H749.937Z" fill="#FCDCCE"/>
<path d="M1037.74 490.933L1149.23 442.112L1077.77 356.219L1037.74 490.933Z" fill="#D4BEC2"/>
<path d="M1164.21 279.239L1060.58 218.263L1077.77 356.218L1164.21 279.239Z" fill="#ECBEB3"/>
<path d="M674.301 93.4751L695.175 209.349L872.966 192.535L674.301 93.4751Z" fill="#FCE0D3"/>
<path d="M1458.16 157.894L1342.25 189.091L1499.17 259.993L1458.16 157.894Z" fill="#F8B09B"/>
<path d="M1037.74 490.932L1178.7 562.24L1149.23 442.111L1037.74 490.932Z" fill="#D4BEC2"/>
<path d="M1657.8 770.489L1491.55 688.242L1528.39 792.975L1657.8 770.489Z" fill="#AF8693"/>
<path d="M1178.7 562.239L1037.74 490.932L1071.63 647.322L1178.7 562.239Z" fill="#CAB1B8"/>
<path d="M1272.02 466.826L1397.01 446.163L1407.08 335.961L1272.02 466.826Z" fill="#D9B0AE"/>
<path d="M1273.24 731.796L1178.7 562.239L1071.63 647.321L1273.24 731.796Z" fill="#AFA0B2"/>
<path d="M1397.75 762.588L1351.09 598.095L1273.24 731.796L1397.75 762.588Z" fill="#AB95A7"/>
<path d="M1199.82 981.169L1021.78 890.618L1100.12 1065.64L1199.82 981.169Z" fill="#8794BA"/>
<path d="M1273.24 731.796L1109.94 791.354L1258.02 873.398L1273.24 731.796Z" fill="#AFA0B2"/>
<path d="M1397.75 762.588L1491.55 688.242L1351.09 598.095L1397.75 762.588Z" fill="#AB95A7"/>
<path d="M1458.16 157.896L1499.9 -5.58458L1374.91 58.0247L1458.16 157.896Z" fill="#F8B09B"/>
<path d="M1249.91 -5.58563H999.925L1124.92 42.8306L1249.91 -5.58563Z" fill="#F9BDAA"/>
<path d="M1536 365.739L1407.08 335.96L1397.01 446.163L1536 365.739Z" fill="#EAA697"/>
<path d="M1229.53 151.413L1060.58 218.263L1164.21 279.239L1229.53 151.413Z" fill="#F5BDAC"/>
<path d="M1164.21 279.239L1149.23 442.111L1291.66 280.252L1164.21 279.239Z" fill="#ECBEB3"/>
<path d="M1491.55 688.243L1657.8 770.489L1655.1 610.453L1491.55 688.243Z" fill="#BA959E"/>
<path d="M1149.23 442.111L1272.02 466.826L1291.66 280.252L1149.23 442.111Z" fill="#DBB9B8"/>
<path d="M1499.17 259.994L1342.25 189.092L1407.08 335.961L1499.17 259.994Z" fill="#F2AB99"/>
<path d="M499.949 -5.5851L674.302 93.4756L749.937 -5.5851H499.949Z" fill="#FFE9DA"/>
<path d="M1060.58 218.263L872.967 192.536L935.832 282.075L1060.58 218.263Z" fill="#F1C6BA"/>
<path d="M872.966 192.536L874.931 89.2219L674.301 93.476L872.966 192.536Z" fill="#F4D2C8"/>
<path d="M1715.27 129.736L1866.54 203.474L1869.48 75.6477L1715.27 129.736Z" fill="#FCA58A"/>
<path d="M1610.41 448.999L1536 365.739L1503.83 503.289L1610.41 448.999Z" fill="#E29F92"/>
<path d="M1272.02 466.826L1407.08 335.961L1291.66 280.252L1272.02 466.826Z" fill="#D9B0AE"/>
<path d="M1846.4 414.966L1838.3 307.6L1702.74 351.356L1846.4 414.966Z" fill="#EC9984"/>
<path d="M1628.58 248.245L1702.74 351.356L1838.3 307.6L1628.58 248.245Z" fill="#F5A690"/>
<path d="M1397.01 446.162L1503.83 503.289L1536 365.739L1397.01 446.162Z" fill="#DDA9A3"/>
<path d="M1351.09 598.096L1397.01 446.163L1272.02 466.826L1351.09 598.096Z" fill="#C7A3A9"/>
<path d="M1866.54 203.474L1628.58 248.244L1838.3 307.599L1866.54 203.474Z" fill="#FA9F84"/>
<path d="M1164.21 279.24L1291.66 280.252L1229.53 151.413L1164.21 279.24Z" fill="#ECBEB3"/>
<path d="M1499.17 259.994L1536 365.739L1628.58 248.244L1499.17 259.994Z" fill="#F2AB99"/>
<path d="M999.925 -5.58564L874.931 89.2209L1012.94 109.479L999.925 -5.58564Z" fill="#F9CCBD"/>
<path d="M1503.83 503.289L1467.24 594.449L1655.1 610.453L1503.83 503.289Z" fill="#D8A19B"/>
<path d="M1610.41 448.999L1702.74 351.356L1536 365.739L1610.41 448.999Z" fill="#E29F92"/>
<path d="M1229.53 151.413L1124.92 42.8311L1012.94 109.479L1229.53 151.413Z" fill="#F5BDAC"/>
<path d="M1341.27 997.781L1466.75 969.217L1430.16 866.308L1341.27 997.781Z" fill="#8286AC"/>
<path d="M3058.28 1019.46L3196.29 948.757L3134.16 856.989L3058.28 1019.46Z" fill="#E4BEB4"/>
<path d="M1966.48 456.697L2084.36 408.483L2012.65 317.526L1966.48 456.697Z" fill="#EA9581"/>
<path d="M2864.77 1003.25L2718.17 943.288L2734.38 1056.33L2864.77 1003.25Z" fill="#D1A7A5"/>
<path d="M2006.76 733.62L1876.11 876.032L1971.89 928.297L2006.76 733.62Z" fill="#BF8184"/>
<path d="M1758.98 1060.98L1625.39 928.297L1631.53 1100.69L1758.98 1060.98Z" fill="#77638B"/>
<path d="M1846.4 414.966L1755.29 562.443L1860.4 601.945L1846.4 414.966Z" fill="#EC9984"/>
<path d="M1625.39 928.297L1499.41 1073.14L1631.53 1100.69L1625.39 928.297Z" fill="#907895"/>
<path d="M1876.11 876.032L1763.89 945.516L1926.7 1015.61L1876.11 876.032Z" fill="#A07588"/>
<path d="M649.745 1542.11L732.747 1685.53L839.324 1643.19L649.745 1542.11Z" fill="#9CC0C9"/>
<path d="M1199.82 981.17L1226.83 1111.22L1341.27 997.781L1199.82 981.17Z" fill="#8794BA"/>
<path d="M1762.91 689.256L1655.1 610.453L1657.8 770.489L1762.91 689.256Z" fill="#C1898C"/>
<path d="M1733.44 468.648L1610.41 448.999L1655.1 610.453L1733.44 468.648Z" fill="#E3998B"/>
<path d="M1217.99 1225.07L1395.78 1283.01L1357.72 1147.89L1217.99 1225.07Z" fill="#6881B2"/>
<path d="M1078.02 1477.28L1143.34 1398.88L1073.6 1322.92L1078.02 1477.28Z" fill="#6687B1"/>
<path d="M1252.62 1367.69L1395.78 1283.01L1217.99 1225.07L1252.62 1367.69Z" fill="#5A74A8"/>
<path d="M1341.27 997.781L1499.41 1073.14L1466.75 969.217L1341.27 997.781Z" fill="#8286AC"/>
<path d="M1357.72 1147.89L1499.41 1073.14L1341.27 997.781L1357.72 1147.89Z" fill="#6B78A7"/>
<path d="M1258.02 873.398L1430.16 866.308L1397.75 762.588L1258.02 873.398Z" fill="#9797B5"/>
<path d="M1430.16 866.308L1258.02 873.399L1341.27 997.781L1430.16 866.308Z" fill="#998AA5"/>
<path d="M1073.6 1322.92L1252.62 1367.69L1217.99 1225.07L1073.6 1322.92Z" fill="#6A8DBB"/>
<path d="M1214.8 1476.27L1252.62 1367.69L1143.34 1398.88L1214.8 1476.27Z" fill="#5773A5"/>
<path d="M1499.41 1073.14L1625.39 928.297L1466.75 969.217L1499.41 1073.14Z" fill="#74729D"/>
<path d="M1625.39 928.297L1430.16 866.308L1466.75 969.217L1625.39 928.297Z" fill="#907895"/>
<path d="M1109.94 791.354L1273.24 731.797L1071.63 647.322L1109.94 791.354Z" fill="#A5A9C3"/>
<path d="M1021.78 890.618L951.549 782.036L887.701 868.739L1021.78 890.618Z" fill="#96ABCC"/>
<path d="M1226.83 1111.22L1065 1192.86L1217.99 1225.07L1226.83 1111.22Z" fill="#7488B5"/>
<path d="M982.244 1562.97L926.5 1403.14L842.27 1545.55L982.244 1562.97Z" fill="#7393B3"/>
<path d="M1078.02 1477.28L1073.6 1322.92L926.5 1403.14L1078.02 1477.28Z" fill="#6687B1"/>
<path d="M951.549 782.036L1071.63 647.322L856.759 676.898L951.549 782.036Z" fill="#A8B7D1"/>
<path d="M794.631 802.091L887.701 868.739L951.549 782.035L794.631 802.091Z" fill="#A8C2DE"/>
<path d="M735.203 936.198L906.61 968.813L887.701 868.739L735.203 936.198Z" fill="#97C2E5"/>
<path d="M1071.63 647.322L951.549 782.036L1109.94 791.354L1071.63 647.322Z" fill="#BDB4C3"/>
<path d="M1065 1192.86L1073.6 1322.92L1217.99 1225.07L1065 1192.86Z" fill="#7295C2"/>
<path d="M1258.02 873.399L1199.82 981.169L1341.27 997.781L1258.02 873.399Z" fill="#9797B5"/>
<path d="M1021.78 890.618L906.61 968.813L1100.12 1065.64L1021.78 890.618Z" fill="#96ABCC"/>
<path d="M1258.02 873.399L1109.94 791.355L1021.78 890.618L1258.02 873.399Z" fill="#9797B5"/>
<path d="M887.701 868.739L794.63 802.091L735.203 936.197L887.701 868.739Z" fill="#9CB8D8"/>
<path d="M1021.78 890.618L887.701 868.739L906.61 968.813L1021.78 890.618Z" fill="#96ABCC"/>
<path d="M676.511 792.569L735.202 936.197L794.63 802.091L676.511 792.569Z" fill="#ADCBE6"/>
<path d="M641.15 999.807L581.968 851.925L521.312 1017.23L641.15 999.807Z" fill="#94C7EB"/>
<path d="M940.744 1102.51L1065 1192.86L1100.12 1065.64L940.744 1102.51Z" fill="#7EA7D2"/>
<path d="M1226.83 1111.22L1217.99 1225.07L1357.72 1147.89L1226.83 1111.22Z" fill="#7488B5"/>
<path d="M1341.27 997.781L1226.83 1111.22L1357.72 1147.89L1341.27 997.781Z" fill="#8286AC"/>
<path d="M1065 1192.86L1226.83 1111.22L1100.12 1065.64L1065 1192.86Z" fill="#7295C2"/>
<path d="M1214.8 1476.27L1143.34 1398.88L1078.02 1477.28L1214.8 1476.27Z" fill="#5773A5"/>
<path d="M1252.62 1367.69L1073.6 1322.92L1143.34 1398.88L1252.62 1367.69Z" fill="#5A74A8"/>
<path d="M1065 1192.86L940.744 1102.51L891.875 1251.41L1065 1192.86Z" fill="#7295C2"/>
<path d="M836.377 1338.52L649.253 1248.17L750.182 1406.58L836.377 1338.52Z" fill="#7EABCE"/>
<path d="M940.744 1102.51L1100.12 1065.64L906.61 968.812L940.744 1102.51Z" fill="#7EA7D2"/>
<path d="M1073.6 1322.92L891.875 1251.41L926.501 1403.14L1073.6 1322.92Z" fill="#6A8DBB"/>
<path d="M906.61 968.812L835.395 1051.06L940.744 1102.51L906.61 968.812Z" fill="#8DB1D8"/>
<path d="M891.875 1251.41L771.792 1187.19L836.377 1338.52L891.875 1251.41Z" fill="#79A7D0"/>
<path d="M735.203 936.197L835.394 1051.06L906.61 968.812L735.203 936.197Z" fill="#97C2E5"/>
<path d="M835.395 1051.06L717.277 1078L771.793 1187.19L835.395 1051.06Z" fill="#86B4DD"/>
<path d="M1021.78 890.617L1199.82 981.169L1258.02 873.398L1021.78 890.617Z" fill="#96ABCC"/>
<path d="M1226.83 1111.22L1199.82 981.17L1100.12 1065.64L1226.83 1111.22Z" fill="#7488B5"/>
<path d="M1073.6 1322.92L1065 1192.86L891.875 1251.41L1073.6 1322.92Z" fill="#6A8DBB"/>
<path d="M926.5 1403.14L750.182 1406.58L842.27 1545.55L926.5 1403.14Z" fill="#769EC2"/>
<path d="M940.743 1102.51L835.394 1051.06L771.792 1187.19L940.743 1102.51Z" fill="#7EA7D2"/>
<path d="M750.182 1406.58L926.5 1403.14L836.377 1338.52L750.182 1406.58Z" fill="#88B4CF"/>
<path d="M649.745 1542.11L842.27 1545.55L750.182 1406.58L649.745 1542.11Z" fill="#9CC0C9"/>
<path d="M839.324 1643.19L842.27 1545.55L649.745 1542.11L839.324 1643.19Z" fill="#8BA7B7"/>
<path d="M926.501 1403.14L891.875 1251.41L836.377 1338.52L926.501 1403.14Z" fill="#769EC2"/>
<path d="M836.377 1338.52L771.792 1187.19L649.253 1248.17L836.377 1338.52Z" fill="#7EABCE"/>
<path d="M717.276 1078L735.203 936.197L641.15 999.806L717.276 1078Z" fill="#89BFE7"/>
<path d="M119.071 1371.33L-6.90527 1237.23V1374.78L119.071 1371.33Z" fill="#B6E3E5"/>
<path d="M926.5 1403.14L982.245 1562.97L1078.02 1477.28L926.5 1403.14Z" fill="#769EC2"/>
<path d="M643.114 1445.68L649.253 1248.17L543.414 1395.24L643.114 1445.68Z" fill="#96C0D1"/>
<path d="M533.1 1807.08L420.63 1720.58L380.602 1848.61L533.1 1807.08Z" fill="#C6D3BA"/>
<path d="M268.377 1350.67L386.495 1332.24L324.612 1240.27L268.377 1350.67Z" fill="#AEDEE5"/>
<path d="M315.526 1636.71L420.629 1720.58L448.87 1624.56L315.526 1636.71Z" fill="#C8E2CD"/>
<path d="M533.1 1807.08L512.227 1917.48L630.1 1972.58L533.1 1807.08Z" fill="#C6D3BA"/>
<path d="M630.1 1972.58L512.227 1917.48L519.348 2071.65L630.1 1972.58Z" fill="#C4CAAD"/>
<path d="M558.394 1664.67L732.748 1685.53L649.745 1542.11L558.394 1664.67Z" fill="#B3CCC3"/>
<path d="M649.745 1542.11L643.115 1445.68L524.014 1504.43L649.745 1542.11Z" fill="#9CC0C9"/>
<path d="M380.602 1848.61L420.63 1720.58L271.569 1751.77L380.602 1848.61Z" fill="#DCE4BB"/>
<path d="M649.254 1248.17L643.115 1445.68L750.182 1406.58L649.254 1248.17Z" fill="#8CC1E1"/>
<path d="M524.014 1504.43L643.115 1445.68L543.414 1395.24L524.014 1504.43Z" fill="#A7CDD2"/>
<path d="M533.1 1807.08L558.393 1664.67L420.629 1720.58L533.1 1807.08Z" fill="#C6D3BA"/>
<path d="M448.87 1624.56L558.393 1664.67L524.014 1504.43L448.87 1624.56Z" fill="#BBD7CA"/>
<path d="M231.296 1872.92L380.602 1848.61L271.569 1751.77L231.296 1872.92Z" fill="#E9EFBD"/>
<path d="M380.602 1848.61L399.756 1979.67L512.227 1917.48L380.602 1848.61Z" fill="#DCE4BB"/>
<path d="M315.526 1636.71L139.699 1583.84L123.246 1720.78L315.526 1636.71Z" fill="#C8E2CD"/>
<path d="M271.569 1751.77L420.63 1720.58L315.526 1636.71L271.569 1751.77Z" fill="#D9E9C4"/>
<path d="M269.114 1539.27L315.526 1636.71L396.073 1535.83L269.114 1539.27Z" fill="#C0E2D6"/>
<path d="M399.756 1979.67L231.296 1872.92L188.322 1993.45L399.756 1979.67Z" fill="#E8E7B4"/>
<path d="M269.114 1539.27L416.946 1428.06L195.443 1453.99L269.114 1539.27Z" fill="#C0E2D6"/>
<path d="M123.246 1720.78L-6.90527 1649.88V1787.23L123.246 1720.78Z" fill="#DCEEC9"/>
<path d="M524.014 1504.43L558.394 1664.67L649.745 1542.11L524.014 1504.43Z" fill="#A7CDD2"/>
<path d="M315.526 1636.71L448.87 1624.56L396.072 1535.83L315.526 1636.71Z" fill="#C8E2CD"/>
<path d="M-6.90527 1787.23V1924.78L98.4437 1856.1L-6.90527 1787.23Z" fill="#E6F2C5"/>
<path d="M231.296 1872.92L123.246 1720.78L98.4438 1856.1L231.296 1872.92Z" fill="#E9EFBD"/>
<path d="M243.083 1150.32L105.811 1166.73L158.362 1272.68L243.083 1150.32Z" fill="#A8DEF1"/>
<path d="M119.071 1371.33L158.362 1272.68L-6.90527 1237.23L119.071 1371.33Z" fill="#B6E3E5"/>
<path d="M396.072 1535.83L524.014 1504.43L416.946 1428.06L396.072 1535.83Z" fill="#B6D9D3"/>
<path d="M195.443 1453.99L119.071 1371.33L53.2588 1485.59L195.443 1453.99Z" fill="#BBE3DE"/>
<path d="M465.078 1257.49L543.414 1395.24L649.254 1248.17L465.078 1257.49Z" fill="#9CD1E7"/>
<path d="M158.362 1272.68L268.377 1350.67L324.612 1240.27L158.362 1272.68Z" fill="#AFE1EB"/>
<path d="M72.9043 1993.45L98.4437 1856.1L-6.90527 1924.78L72.9043 1993.45Z" fill="#F8F8B9"/>
<path d="M158.362 1272.68L324.612 1240.27L243.083 1150.32L158.362 1272.68Z" fill="#AFE1EB"/>
<path d="M123.246 1720.78L231.296 1872.92L271.569 1751.77L123.246 1720.78Z" fill="#DCEEC9"/>
<path d="M611.191 491.337L484.968 526.991L576.32 607.212L611.191 491.337Z" fill="#DCDAE0"/>
<path d="M173.833 886.161L-6.90527 962.33L144.365 1037.08L173.833 886.161Z" fill="#B7E2F7"/>
<path d="M563.551 719.034L427.997 731.999L460.412 830.654L563.551 719.034Z" fill="#BCD5EA"/>
<path d="M676.512 792.569L696.894 695.94L563.55 719.034L676.512 792.569Z" fill="#ADCBE6"/>
<path d="M-6.90527 1649.88L139.699 1583.84L53.2588 1485.59L-6.90527 1649.88Z" fill="#D5EDCF"/>
<path d="M641.15 999.807L549.062 1146.27L717.277 1078L641.15 999.807Z" fill="#94C7EB"/>
<path d="M581.968 851.926L641.15 999.807L735.203 936.198L581.968 851.926Z" fill="#A9D0EC"/>
<path d="M549.062 1146.27L641.15 999.807L521.312 1017.23L549.062 1146.27Z" fill="#94CBEB"/>
<path d="M1657.8 770.489L1528.39 792.975L1625.39 928.297L1657.8 770.489Z" fill="#AF8693"/>
<path d="M1755.29 562.442L1733.44 468.648L1655.1 610.453L1755.29 562.442Z" fill="#D6938B"/>
<path d="M1273.24 731.796L1351.09 598.095L1178.7 562.239L1273.24 731.796Z" fill="#AFA0B2"/>
<path d="M1467.24 594.449L1351.09 598.095L1491.55 688.242L1467.24 594.449Z" fill="#C99D9F"/>
<path d="M1467.24 594.449L1491.55 688.242L1655.1 610.453L1467.24 594.449Z" fill="#C99D9F"/>
<path d="M1397.01 446.162L1467.24 594.449L1503.83 503.289L1397.01 446.162Z" fill="#DDA9A3"/>
<path d="M1374.91 58.0243L1229.53 151.413L1342.25 189.092L1374.91 58.0243Z" fill="#FAB6A1"/>
<path d="M1655.1 610.453L1610.41 448.999L1503.83 503.289L1655.1 610.453Z" fill="#CC9391"/>
<path d="M1610.41 448.999L1733.44 468.648L1702.74 351.356L1610.41 448.999Z" fill="#E29F92"/>
<path d="M1758.98 1060.98L1763.89 945.515L1625.39 928.296L1758.98 1060.98Z" fill="#77638B"/>
<path d="M1762.91 689.255L1657.8 770.489L1785.99 796.621L1762.91 689.255Z" fill="#C1898C"/>
<path d="M1755.29 562.442L1762.91 689.256L1860.4 601.945L1755.29 562.442Z" fill="#D6938B"/>
<path d="M1397.75 762.588L1528.39 792.975L1491.55 688.242L1397.75 762.588Z" fill="#AB95A7"/>
<path d="M1625.39 928.297L1528.39 792.975L1430.16 866.308L1625.39 928.297Z" fill="#907895"/>
<path d="M1762.91 689.256L1755.29 562.442L1655.1 610.453L1762.91 689.256Z" fill="#C1898C"/>
<path d="M1846.4 414.966L1860.4 601.945L1966.48 456.697L1846.4 414.966Z" fill="#EC9984"/>
<path d="M1625.39 928.297L1763.89 945.516L1785.99 796.622L1625.39 928.297Z" fill="#907895"/>
<path d="M1785.99 796.621L2006.76 733.62L1762.91 689.255L1785.99 796.621Z" fill="#AD7F8B"/>
<path d="M1625.39 928.297L1785.99 796.621L1657.8 770.489L1625.39 928.297Z" fill="#907895"/>
<path d="M1785.99 796.622L1876.11 876.032L2006.76 733.62L1785.99 796.622Z" fill="#AD7F8B"/>
<path d="M2872.14 838.96L2718.17 943.288L2864.77 1003.25L2872.14 838.96Z" fill="#D4AAA7"/>
<path d="M2081.9 901.151L2159.99 969.622L2196.09 847.671L2081.9 901.151Z" fill="#A37384"/>
<path d="M771.792 1187.19L891.875 1251.41L940.743 1102.51L771.792 1187.19Z" fill="#82B6DD"/>
<path d="M717.276 1078L649.253 1248.17L771.792 1187.19L717.276 1078Z" fill="#89BFE7"/>
<path d="M380.602 1848.61L512.227 1917.48L533.1 1807.08L380.602 1848.61Z" fill="#DCE4BB"/>
<path d="M519.348 2071.65L512.227 1917.48L399.756 1979.67L519.348 2071.65Z" fill="#DBDAAE"/>
<path d="M519.348 2071.65L399.756 1979.67L303.248 2082.79L519.348 2071.65Z" fill="#DBDAAE"/>
<path d="M416.946 1428.06L524.014 1504.43L543.414 1395.24L416.946 1428.06Z" fill="#AAD6DC"/>
<path d="M448.869 1624.56L524.014 1504.43L396.072 1535.83L448.869 1624.56Z" fill="#BBD7CA"/>
<path d="M386.496 1332.24L543.414 1395.24L465.078 1257.49L386.496 1332.24Z" fill="#A6D7E4"/>
<path d="M53.2588 1485.59L139.699 1583.84L195.443 1453.99L53.2588 1485.59Z" fill="#C3E8DC"/>
<path d="M649.254 1248.17L549.062 1146.27L465.078 1257.49L649.254 1248.17Z" fill="#8CC1E1"/>
<path d="M313.071 1027.36L396.073 1144.65L521.313 1017.23L313.071 1027.36Z" fill="#A8DCF4"/>
<path d="M717.277 1078L549.062 1146.27L649.254 1248.17L717.277 1078Z" fill="#89BFE7"/>
<path d="M396.073 1144.65L243.083 1150.32L324.612 1240.27L396.073 1144.65Z" fill="#9FD6EF"/>
<path d="M465.077 1257.49L549.062 1146.27L396.072 1144.65L465.077 1257.49Z" fill="#9CD1E7"/>
<path d="M368.323 899.329L339.838 801.484L173.833 886.161L368.323 899.329Z" fill="#AEDBF4"/>
<path d="M549.062 1146.27L521.312 1017.23L396.072 1144.65L549.062 1146.27Z" fill="#94CBEB"/>
<path d="M313.071 1027.36L521.313 1017.23L368.323 899.328L313.071 1027.36Z" fill="#A8DCF4"/>
<path d="M416.946 1428.06L269.114 1539.27L396.073 1535.83L416.946 1428.06Z" fill="#AAD6DC"/>
<path d="M-6.90527 1237.23L158.362 1272.68L105.811 1166.73L-6.90527 1237.23Z" fill="#B0E3EE"/>
<path d="M203.792 772.921L339.837 801.484L275.253 673.049L203.792 772.921Z" fill="#C1E4F5"/>
<path d="M243.083 1150.32L396.073 1144.65L313.071 1027.36L243.083 1150.32Z" fill="#A8DEF1"/>
<path d="M144.365 1037.08L-6.90527 962.33V1099.88L144.365 1037.08Z" fill="#AEE1F6"/>
<path d="M-6.90527 1374.78V1649.88L53.2588 1485.59L-6.90527 1374.78Z" fill="#B8E5E5"/>
<path d="M203.793 772.92L173.833 886.161L339.838 801.483L203.793 772.92Z" fill="#C1E4F5"/>
<path d="M313.071 1027.36L368.323 899.329L173.833 886.161L313.071 1027.36Z" fill="#A8DCF4"/>
<path d="M368.323 899.329L460.411 830.655L339.837 801.484L368.323 899.329Z" fill="#AEDBF4"/>
<path d="M-6.90527 962.33L173.833 886.161L-6.90527 824.78V962.33Z" fill="#B3E3F8"/>
<path d="M174.079 562.037L354.817 550.49L330.26 429.146L174.079 562.037Z" fill="#DBEAF0"/>
<path d="M1846.4 414.966L1702.74 351.356L1733.44 468.648L1846.4 414.966Z" fill="#EC9984"/>
<path d="M315.526 1636.71L269.114 1539.27L139.699 1583.84L315.526 1636.71Z" fill="#C8E2CD"/>
<path d="M98.4437 1856.1L123.246 1720.78L-6.90527 1787.23L98.4437 1856.1Z" fill="#EDF4C0"/>
<path d="M521.313 1017.23L460.412 830.655L368.324 899.328L521.313 1017.23Z" fill="#9BD0F0"/>
<path d="M563.551 719.035L460.412 830.655L581.968 851.926L563.551 719.035Z" fill="#BCD5EA"/>
<path d="M330.26 429.147L508.297 407.269L415.964 328.668L330.26 429.147Z" fill="#E9E9E9"/>
<path d="M179.727 412.332L90.5854 484.855L174.079 562.037L179.727 412.332Z" fill="#ECEDEB"/>
<path d="M179.727 412.333L330.261 429.147L284.585 312.057L179.727 412.333Z" fill="#ECEDEB"/>
<path d="M330.26 429.146L354.817 550.49L484.968 526.991L330.26 429.146Z" fill="#E9E9E9"/>
<path d="M508.297 407.268L484.968 526.991L611.191 491.338L508.297 407.268Z" fill="#E9E2E2"/>
<path d="M427.996 731.999L484.968 526.99L354.817 550.489L427.996 731.999Z" fill="#BFDCEF"/>
<path d="M1258.02 873.398L1397.75 762.588L1273.24 731.796L1258.02 873.398Z" fill="#9797B5"/>
<path d="M1528.39 792.975L1397.75 762.588L1430.16 866.308L1528.39 792.975Z" fill="#A88A9C"/>
<path d="M1838.3 307.6L1846.4 414.966L2012.65 317.526L1838.3 307.6Z" fill="#F49D85"/>
<path d="M1866.54 203.475L2012.65 317.526L1985.15 160.732L1866.54 203.475Z" fill="#FA9F84"/>
<path d="M1926.7 1015.61L1763.89 945.515L1758.98 1060.98L1926.7 1015.61Z" fill="#856585"/>
<path d="M1785.99 796.622L1763.89 945.516L1876.11 876.032L1785.99 796.622Z" fill="#AD7F8B"/>
<path d="M1971.89 928.297L2026.89 1077.6L2159.99 969.622L1971.89 928.297Z" fill="#996F85"/>
<path d="M1926.7 1015.61L1971.89 928.297L1876.11 876.032L1926.7 1015.61Z" fill="#856585"/>
<path d="M2026.89 1077.6L2150.66 1063.21L2159.99 969.622L2026.89 1077.6Z" fill="#7D5E82"/>
<path d="M2267.3 938.628L2196.09 847.671L2159.99 969.622L2267.3 938.628Z" fill="#A67585"/>
<path d="M2458.11 943.896L2367.5 823.767L2267.3 938.629L2458.11 943.896Z" fill="#B2818C"/>
<path d="M2026.89 1077.6L1971.89 928.297L1926.7 1015.61L2026.89 1077.6Z" fill="#7D5E82"/>
<path d="M2006.76 733.62L1971.89 928.297L2081.9 901.151L2006.76 733.62Z" fill="#BF8184"/>
<path d="M2972.09 924.245L3058.28 1019.46L3134.16 856.989L2972.09 924.245Z" fill="#DBB4AE"/>
<path d="M2267.3 938.629L2326.49 1075.57L2438.71 1041.34L2267.3 938.629Z" fill="#A67585"/>
<path d="M105.811 1166.73L144.365 1037.08L-6.90527 1099.88L105.811 1166.73Z" fill="#ADE1F2"/>
<path d="M139.699 1583.84L-6.90527 1649.88L123.246 1720.78L139.699 1583.84Z" fill="#CBE9D4"/>
<path d="M275.253 673.049L427.996 731.999L354.817 550.489L275.253 673.049Z" fill="#CBE4F2"/>
<path d="M313.07 1027.36L173.833 886.161L144.365 1037.08L313.07 1027.36Z" fill="#A8DCF4"/>
<path d="M2012.65 317.526L1846.4 414.966L1966.48 456.697L2012.65 317.526Z" fill="#F49980"/>
<path d="M1755.29 562.442L1846.4 414.966L1733.44 468.649L1755.29 562.442Z" fill="#D6938B"/>
<path d="M2006.76 733.62L2036.22 590.195L1860.4 601.945L2006.76 733.62Z" fill="#BF8184"/>
<path d="M2162.94 301.725L2122.42 189.7L2012.65 317.526L2162.94 301.725Z" fill="#F09880"/>
<path d="M1587.08 146.753L1624.9 43.4387L1499.9 -5.58521L1587.08 146.753Z" fill="#FAAA92"/>
<path d="M1458.16 157.894L1499.17 259.993L1587.08 146.752L1458.16 157.894Z" fill="#F8B09B"/>
<path d="M2326.49 1075.57L2267.3 938.629L2150.66 1063.21L2326.49 1075.57Z" fill="#946B84"/>
<path d="M2227.28 742.533L2196.09 847.671L2367.5 823.767L2227.28 742.533Z" fill="#C38485"/>
<path d="M2159.99 969.622L2081.9 901.151L1971.89 928.296L2159.99 969.622Z" fill="#9A6D83"/>
<path d="M2150.66 1063.21L2267.3 938.629L2159.99 969.623L2150.66 1063.21Z" fill="#886382"/>
<path d="M2718.17 943.288L2486.35 846.051L2458.11 943.896L2718.17 943.288Z" fill="#C7999C"/>
<path d="M2365.29 458.723L2323.79 334.543L2211.31 437.249L2365.29 458.723Z" fill="#E09487"/>
<path d="M2267.3 938.629L2438.71 1041.34L2458.11 943.896L2267.3 938.629Z" fill="#A67585"/>
<path d="M2036.22 590.195L2120.7 675.885L2247.66 628.887L2036.22 590.195Z" fill="#D78C82"/>
<path d="M1860.4 601.945L1762.91 689.256L2006.76 733.62L1860.4 601.945Z" fill="#D38D86"/>
<path d="M2367.5 823.767L2196.09 847.671L2267.3 938.629L2367.5 823.767Z" fill="#BC8489"/>
<path d="M2006.76 733.62L2196.09 847.671L2227.28 742.533L2006.76 733.62Z" fill="#BF8184"/>
<path d="M2675.68 825.792L2486.35 846.05L2718.17 943.287L2675.68 825.792Z" fill="#CB999A"/>
<path d="M2247.66 628.887L2363.81 705.057L2377.32 586.954L2247.66 628.887Z" fill="#D28B85"/>
<path d="M2740.52 715.591L2675.69 825.793L2872.14 838.96L2740.52 715.591Z" fill="#D09F9D"/>
<path d="M2488.81 659.679L2377.32 586.954L2363.81 705.057L2488.81 659.679Z" fill="#D0928E"/>
<path d="M2227.28 742.533L2367.5 823.766L2363.81 705.056L2227.28 742.533Z" fill="#C38485"/>
<path d="M2550.2 760.562L2363.81 705.056L2367.5 823.766L2550.2 760.562Z" fill="#C99292"/>
<path d="M2458.11 943.896L2486.35 846.051L2367.5 823.767L2458.11 943.896Z" fill="#B2818C"/>
<path d="M2675.68 825.792L2626.08 682.569L2550.2 760.562L2675.68 825.792Z" fill="#CB999A"/>
<path d="M2458.11 943.896L2438.71 1041.34L2599.31 1033.03L2458.11 943.896Z" fill="#B2818C"/>
<path d="M2550.2 760.562L2367.5 823.766L2486.35 846.05L2550.2 760.562Z" fill="#C99292"/>
<path d="M2675.68 825.792L2740.52 715.59L2626.08 682.569L2675.68 825.792Z" fill="#CB999A"/>
<path d="M2458.11 943.895L2599.31 1033.03L2718.17 943.287L2458.11 943.895Z" fill="#B2818C"/>
<path d="M3058.28 1019.46L2972.09 924.245L2864.77 1003.25L3058.28 1019.46Z" fill="#E4BEB4"/>
<path d="M2718.17 943.288L2599.31 1033.03L2734.38 1056.33L2718.17 943.288Z" fill="#C7999C"/>
<path d="M2864.77 1003.25L2972.09 924.245L2872.14 838.96L2864.77 1003.25Z" fill="#D1A7A5"/>
<path d="M3060 771.502L3030.78 671.024L2911.19 701.208L3060 771.502Z" fill="#D9B7B4"/>
<path d="M2740.52 715.591L2872.14 838.96L2911.19 701.207L2740.52 715.591Z" fill="#D09F9D"/>
<path d="M2124.88 22.5735L2122.42 189.7L2210.33 102.794L2124.88 22.5735Z" fill="#F89C81"/>
<path d="M2486.35 846.05L2675.68 825.792L2550.2 760.562L2486.35 846.05Z" fill="#BF8A8F"/>
<path d="M2872.14 838.96L2675.69 825.792L2718.17 943.287L2872.14 838.96Z" fill="#D4AAA7"/>
<path d="M3434.98 783.454L3385.62 931.741L3502.27 943.085L3434.98 783.454Z" fill="#DACAC7"/>
<path d="M3374.08 500.859L3321.78 417.802L3231.41 536.107L3374.08 500.859Z" fill="#B0A9BD"/>
<path d="M3196.29 948.756L3254.98 823.969L3134.16 856.989L3196.29 948.756Z" fill="#EBCBBE"/>
<path d="M3434.98 783.454L3254.98 823.969L3385.62 931.741L3434.98 783.454Z" fill="#DACAC7"/>
<path d="M2776.61 591.411L2911.19 701.208L2930.59 577.028L2776.61 591.411Z" fill="#D0A09E"/>
<path d="M3167.07 697.155L3134.16 856.989L3254.98 823.969L3167.07 697.155Z" fill="#D2B8B9"/>
<path d="M2972.09 924.246L3134.16 856.99L3060 771.502L2972.09 924.246Z" fill="#DBB4AE"/>
<path d="M2626.08 682.57L2488.81 659.679L2550.2 760.562L2626.08 682.57Z" fill="#D09896"/>
<path d="M2488.81 659.679L2592.68 586.346L2484.63 515.444L2488.81 659.679Z" fill="#D0928E"/>
<path d="M2776.61 591.411L2626.08 682.57L2740.52 715.591L2776.61 591.411Z" fill="#D0A09E"/>
<path d="M2488.81 659.68L2626.08 682.57L2592.68 586.346L2488.81 659.68Z" fill="#D0928E"/>
<path d="M3325.21 743.749L3254.98 823.97L3434.98 783.455L3325.21 743.749Z" fill="#D6C3C2"/>
<path d="M2930.59 577.028L2911.19 701.208L3030.78 671.024L2930.59 577.028Z" fill="#CDA6A8"/>
<path d="M3404.04 209.755L3531 123.457L3374.82 81.9284L3404.04 209.755Z" fill="#898FB6"/>
<path d="M2122.42 189.7L2262.39 207.526L2210.33 102.794L2122.42 189.7Z" fill="#F69A80"/>
<path d="M3254.98 823.97L3325.21 743.749L3167.07 697.156L3254.98 823.97Z" fill="#E1C7C0"/>
<path d="M2911.19 701.208L2776.61 591.411L2740.52 715.591L2911.19 701.208Z" fill="#D2AAA9"/>
<path d="M3167.07 697.156L3030.78 671.024L3060 771.502L3167.07 697.156Z" fill="#D2B8B9"/>
<path d="M3092.91 581.485L3023.16 437.857L2930.59 577.028L3092.91 581.485Z" fill="#C8ACB2"/>
<path d="M2196.09 847.671L2006.76 733.62L2081.9 901.151L2196.09 847.671Z" fill="#B17A85"/>
<path d="M2227.28 742.533L2247.66 628.887L2120.7 675.885L2227.28 742.533Z" fill="#C38485"/>
<path d="M3615.48 710.729L3548.19 786.087L3680.8 802.901L3615.48 710.729Z" fill="#C9C5CA"/>
<path d="M139.699 1583.84L269.114 1539.27L195.443 1453.99L139.699 1583.84Z" fill="#CBE9D4"/>
<path d="M158.362 1272.68L119.071 1371.33L268.377 1350.67L158.362 1272.68Z" fill="#AFE1EB"/>
<path d="M144.365 1037.08L105.811 1166.73L243.083 1150.32L144.365 1037.08Z" fill="#AEE1F6"/>
<path d="M-6.90527 1237.23L105.811 1166.73L-6.90527 1099.88V1237.23Z" fill="#B0E3EE"/>
<path d="M195.443 1453.99L416.946 1428.06L268.377 1350.67L195.443 1453.99Z" fill="#BBE3DE"/>
<path d="M386.495 1332.24L268.377 1350.67L416.946 1428.06L386.495 1332.24Z" fill="#A6D7E4"/>
<path d="M543.414 1395.24L386.496 1332.24L416.946 1428.06L543.414 1395.24Z" fill="#9DCADA"/>
<path d="M324.612 1240.27L386.495 1332.24L465.077 1257.49L324.612 1240.27Z" fill="#A5DAEB"/>
<path d="M2036.22 590.195L1966.48 456.697L1860.4 601.945L2036.22 590.195Z" fill="#D78C82"/>
<path d="M2012.65 317.526L2084.36 408.483L2162.94 301.725L2012.65 317.526Z" fill="#F49980"/>
<path d="M2377.32 586.954L2484.63 515.444L2365.29 458.722L2377.32 586.954Z" fill="#D69089"/>
<path d="M2211.31 437.249L2271.97 527.599L2365.29 458.723L2211.31 437.249Z" fill="#E69482"/>
<path d="M2374.86 84.562L2396.23 237.306L2530.55 209.552L2374.86 84.562Z" fill="#EB9985"/>
<path d="M1624.9 43.438L1715.27 129.736L1749.89 -5.58591L1624.9 43.438Z" fill="#FDAA90"/>
<path d="M2036.22 590.195L2084.36 408.483L1966.48 456.697L2036.22 590.195Z" fill="#D78C82"/>
<path d="M2323.79 334.542L2262.39 207.525L2162.94 301.724L2323.79 334.542Z" fill="#E89684"/>
<path d="M1985.15 160.73L1999.88 -5.58586L1869.48 75.6475L1985.15 160.73Z" fill="#FA9D81"/>
<path d="M2012.65 317.526L1866.54 203.475L1838.3 307.6L2012.65 317.526Z" fill="#F49980"/>
<path d="M2211.31 437.25L2162.94 301.725L2084.36 408.484L2211.31 437.25Z" fill="#E69482"/>
<path d="M2122.42 189.7L2162.94 301.726L2262.39 207.527L2122.42 189.7Z" fill="#F69A80"/>
<path d="M1749.89 -5.58444H1499.9L1624.9 43.4395L1749.89 -5.58444Z" fill="#FEA588"/>
<path d="M1866.54 203.475L1715.27 129.737L1628.58 248.245L1866.54 203.475Z" fill="#FA9F84"/>
<path d="M2530.55 209.553L2719.89 259.589L2700.24 124.47L2530.55 209.553Z" fill="#DE988C"/>
<path d="M3126.79 486.881L3023.16 437.857L3092.91 581.485L3126.79 486.881Z" fill="#BDA6B1"/>
<path d="M2012.65 317.526L2122.42 189.7L1985.15 160.732L2012.65 317.526Z" fill="#F49980"/>
<path d="M3196.29 948.756L3385.62 931.74L3254.98 823.969L3196.29 948.756Z" fill="#EBCBBE"/>
<path d="M3548.19 786.088L3434.98 783.455L3585.03 874.615L3548.19 786.088Z" fill="#D8CCCA"/>
<path d="M3434.98 783.454L3502.27 943.085L3585.03 874.614L3434.98 783.454Z" fill="#DACAC7"/>
<path d="M3585.03 874.615L3680.8 802.902L3548.19 786.088L3585.03 874.615Z" fill="#E4D6CC"/>
<path d="M3030.78 671.023L3167.07 697.155L3092.91 581.484L3030.78 671.023Z" fill="#D1AFB0"/>
<path d="M3374.08 500.858L3293.54 648.334L3464.45 644.485L3374.08 500.858Z" fill="#B0A9BD"/>
<path d="M3434.98 783.454L3548.19 786.087L3464.45 644.486L3434.98 783.454Z" fill="#DACAC7"/>
<path d="M3293.54 648.334L3374.08 500.858L3231.41 536.107L3293.54 648.334Z" fill="#C9B8BE"/>
<path d="M3167.07 697.155L3060 771.501L3134.16 856.989L3167.07 697.155Z" fill="#D2B8B9"/>
<path d="M3167.07 697.155L3293.54 648.334L3231.41 536.106L3167.07 697.155Z" fill="#D2B8B9"/>
<path d="M3464.45 644.486L3548.19 786.087L3615.48 710.728L3464.45 644.486Z" fill="#C2BBC4"/>
<path d="M3925.38 441.504L3879.46 539.956L4006.67 549.883L3925.38 441.504Z" fill="#90A3C7"/>
<path d="M3520.44 529.422L3699.46 547.452L3666.55 452.848L3520.44 529.422Z" fill="#ACADC3"/>
<path d="M3775.1 412.332L3879.46 539.956L3925.38 441.503L3775.1 412.332Z" fill="#8D9FC4"/>
<path d="M3464.45 644.486L3325.21 743.749L3434.98 783.454L3464.45 644.486Z" fill="#C2BBC4"/>
<path d="M3167.07 697.156L3325.21 743.749L3293.54 648.335L3167.07 697.156Z" fill="#D2B8B9"/>
<path d="M3879.46 539.956L3775.1 412.332L3699.46 547.452L3879.46 539.956Z" fill="#A2AFC9"/>
<path d="M3559.49 409.699L3666.55 452.848L3723.28 294.027L3559.49 409.699Z" fill="#969FC0"/>
<path d="M3442.6 422.056L3520.44 529.422L3559.49 409.699L3442.6 422.056Z" fill="#9FA1BD"/>
<path d="M3442.6 422.056L3382.43 338.594L3321.78 417.802L3442.6 422.056Z" fill="#9FA1BD"/>
<path d="M3511.6 304.965L3723.28 294.026L3599.76 219.883L3511.6 304.965Z" fill="#8994BB"/>
<path d="M3520.44 529.421L3374.08 500.858L3464.45 644.485L3520.44 529.421Z" fill="#ACADC3"/>
<path d="M3126.79 486.881L3231.41 536.107L3208.32 414.763L3126.79 486.881Z" fill="#BDA6B1"/>
<path d="M3231.41 536.106L3092.91 581.484L3167.07 697.155L3231.41 536.106Z" fill="#BDACB8"/>
<path d="M3511.6 304.966L3382.43 338.594L3442.6 422.056L3511.6 304.966Z" fill="#8994BB"/>
<path d="M3404.04 209.754L3599.76 219.883L3531 123.456L3404.04 209.754Z" fill="#898FB6"/>
<path d="M3615.48 710.728L3599.51 608.832L3464.45 644.485L3615.48 710.728Z" fill="#C9C5CA"/>
<path d="M3442.6 422.056L3321.78 417.802L3374.08 500.859L3442.6 422.056Z" fill="#9FA1BD"/>
<path d="M3260.88 322.995L3321.78 417.802L3382.43 338.594L3260.88 322.995Z" fill="#A29AB3"/>
<path d="M3520.44 529.422L3442.6 422.056L3374.08 500.859L3520.44 529.422Z" fill="#ACADC3"/>
<path d="M3511.6 304.966L3442.6 422.056L3559.49 409.699L3511.6 304.966Z" fill="#8994BB"/>
<path d="M3723.28 294.027L3511.6 304.966L3559.49 409.699L3723.28 294.027Z" fill="#7B91C0"/>
<path d="M3664.1 102.388L3531 123.456L3599.76 219.883L3664.1 102.388Z" fill="#6C85BB"/>
<path d="M3233.37 114.949L3124.83 43.8438L3079.89 224.948L3233.37 114.949Z" fill="#968FAE"/>
<path d="M3260.88 322.995L3208.32 414.763L3321.78 417.802L3260.88 322.995Z" fill="#A29AB3"/>
<path d="M3624.81 -5.5848L3531 123.457L3664.1 102.389L3624.81 -5.5848Z" fill="#6C84BA"/>
<path d="M3249.82 -5.58443L3233.37 114.949L3374.82 81.9288L3249.82 -5.58443Z" fill="#928DAF"/>
<path d="M3499.81 -5.5848L3374.82 81.9284L3531 123.457L3499.81 -5.5848Z" fill="#7686B7"/>
<path d="M2971.35 175.721L2828.92 209.754L2891.05 320.97L2971.35 175.721Z" fill="#B696A3"/>
<path d="M3404.04 209.755L3382.43 338.594L3511.6 304.966L3404.04 209.755Z" fill="#898FB6"/>
<path d="M3097.33 326.034L3260.88 322.995L3203.41 233.456L3097.33 326.034Z" fill="#B19BAB"/>
<path d="M2841.2 475.536L2930.59 577.028L3023.16 437.857L2841.2 475.536Z" fill="#CC9FA0"/>
<path d="M2891.05 320.97L3097.33 326.034L3079.89 224.948L2891.05 320.97Z" fill="#C39AA0"/>
<path d="M3092.91 581.484L2930.59 577.027L3030.78 671.023L3092.91 581.484Z" fill="#C8ACB2"/>
<path d="M2930.59 577.027L2841.2 475.536L2776.61 591.41L2930.59 577.027Z" fill="#CDA6A8"/>
<path d="M2619.7 466.622L2776.61 591.41L2841.2 475.536L2619.7 466.622Z" fill="#D59993"/>
<path d="M2626.08 682.57L2776.61 591.41L2592.68 586.346L2626.08 682.57Z" fill="#D09896"/>
<path d="M2120.7 675.886L2036.22 590.195L2006.76 733.62L2120.7 675.886Z" fill="#CB8783"/>
<path d="M2084.36 408.483L2036.22 590.195L2211.32 437.249L2084.36 408.483Z" fill="#EC9580"/>
<path d="M2006.76 733.62L2227.28 742.533L2120.7 675.885L2006.76 733.62Z" fill="#BF8184"/>
<path d="M2227.28 742.533L2363.81 705.056L2247.66 628.887L2227.28 742.533Z" fill="#C38485"/>
<path d="M2271.97 527.599L2377.32 586.954L2365.29 458.722L2271.97 527.599Z" fill="#DD9184"/>
<path d="M2247.66 628.887L2271.97 527.599L2036.22 590.195L2247.66 628.887Z" fill="#D28B85"/>
<path d="M53.2588 1485.59L119.071 1371.33L-6.90527 1374.78L53.2588 1485.59Z" fill="#C3E8DC"/>
<path d="M268.377 1350.67L119.071 1371.33L195.443 1453.99L268.377 1350.67Z" fill="#AEDEE5"/>
<path d="M2619.7 466.623L2841.2 475.537L2802.89 384.377L2619.7 466.623Z" fill="#D59993"/>
<path d="M3023.16 437.857L2891.05 320.97L2841.2 475.537L3023.16 437.857Z" fill="#BFA1AA"/>
<path d="M2211.31 437.25L2323.79 334.543L2162.94 301.725L2211.31 437.25Z" fill="#E69482"/>
<path d="M2396.23 237.305L2483.9 368.98L2530.55 209.552L2396.23 237.305Z" fill="#E79887"/>
<path d="M2377.32 586.954L2488.81 659.679L2484.63 515.444L2377.32 586.954Z" fill="#D69089"/>
<path d="M2483.9 368.981L2323.79 334.543L2365.29 458.723L2483.9 368.981Z" fill="#DE978B"/>
<path d="M2036.22 590.195L2271.97 527.599L2211.32 437.249L2036.22 590.195Z" fill="#D78C82"/>
<path d="M2377.32 586.954L2271.97 527.599L2247.66 628.887L2377.32 586.954Z" fill="#D69089"/>
<path d="M2619.7 466.623L2484.63 515.444L2592.68 586.347L2619.7 466.623Z" fill="#D59993"/>
<path d="M2483.9 368.98L2365.29 458.722L2484.63 515.444L2483.9 368.98Z" fill="#DE978B"/>
<path d="M3520.44 529.422L3599.51 608.832L3699.46 547.451L3520.44 529.422Z" fill="#ACADC3"/>
<path d="M3771.41 703.436L3793.27 607.212L3599.51 608.832L3771.41 703.436Z" fill="#C3C4CC"/>
<path d="M3793.27 607.212L3879.46 539.956L3699.46 547.452L3793.27 607.212Z" fill="#B1B8CA"/>
<path d="M3771.41 703.436L3615.48 710.729L3680.8 802.901L3771.41 703.436Z" fill="#C3C4CC"/>
<path d="M3723.28 294.027L3666.55 452.848L3775.1 412.332L3723.28 294.027Z" fill="#7B91C0"/>
<path d="M3520.44 529.422L3666.55 452.848L3559.49 409.699L3520.44 529.422Z" fill="#ACADC3"/>
<path d="M3464.45 644.485L3599.51 608.832L3520.44 529.421L3464.45 644.485Z" fill="#C2BBC4"/>
<path d="M3771.41 703.435L3599.51 608.832L3615.48 710.728L3771.41 703.435Z" fill="#C3C4CC"/>
<path d="M3599.51 608.832L3793.27 607.212L3699.46 547.451L3599.51 608.832Z" fill="#B7B8C7"/>
<path d="M3203.41 233.456L3260.87 322.995L3404.04 209.754L3203.41 233.456Z" fill="#A095AF"/>
<path d="M3404.04 209.754L3511.6 304.965L3599.76 219.883L3404.04 209.754Z" fill="#898FB6"/>
<path d="M3404.04 209.755L3374.82 81.9284L3233.37 114.949L3404.04 209.755Z" fill="#898FB6"/>
<path d="M3124.83 43.8444L3233.37 114.949L3249.82 -5.58443L3124.83 43.8444Z" fill="#A190A9"/>
<path d="M3404.04 209.754L3233.37 114.948L3203.41 233.456L3404.04 209.754Z" fill="#898FB6"/>
<path d="M3249.82 -5.58558H2999.84L3124.83 43.8433L3249.82 -5.58558Z" fill="#928DAF"/>
<path d="M2971.35 175.722L2999.84 -5.58523L2861.83 83.9538L2971.35 175.722Z" fill="#B696A3"/>
<path d="M3097.33 326.035L3208.32 414.764L3260.88 322.996L3097.33 326.035Z" fill="#B19BAB"/>
<path d="M3023.16 437.856L3208.32 414.763L3097.33 326.033L3023.16 437.856Z" fill="#BFA1AA"/>
<path d="M3231.41 536.108L3126.79 486.881L3092.91 581.485L3231.41 536.108Z" fill="#BDACB8"/>
<path d="M3208.32 414.763L3023.16 437.856L3126.79 486.88L3208.32 414.763Z" fill="#B0A1B3"/>
<path d="M3079.89 224.948L3124.83 43.8438L2971.35 175.722L3079.89 224.948Z" fill="#AD96A9"/>
<path d="M3203.41 233.456L3079.89 224.948L3097.33 326.034L3203.41 233.456Z" fill="#A095AF"/>
<path d="M2749.85 -5.58551L2624.85 33.3093L2700.24 124.469L2749.85 -5.58551Z" fill="#CB9696"/>
<path d="M2891.05 320.969L3023.16 437.856L3097.33 326.033L2891.05 320.969Z" fill="#C39AA0"/>
<path d="M3079.89 224.948L3203.41 233.456L3233.37 114.948L3079.89 224.948Z" fill="#AD96A9"/>
<path d="M2891.05 320.97L3079.89 224.948L2971.35 175.721L2891.05 320.97Z" fill="#C39AA0"/>
<path d="M2861.83 83.9535L2749.85 -5.58551L2700.24 124.469L2861.83 83.9535Z" fill="#C0959C"/>
<path d="M2483.9 368.98L2484.63 515.444L2619.7 466.623L2483.9 368.98Z" fill="#DE978B"/>
<path d="M2483.9 368.98L2582.86 304.359L2530.55 209.552L2483.9 368.98Z" fill="#DE978B"/>
<path d="M2582.86 304.359L2719.89 259.589L2530.55 209.552L2582.86 304.359Z" fill="#DA988F"/>
<path d="M2841.2 475.537L2891.05 320.97L2802.89 384.377L2841.2 475.537Z" fill="#CC9FA0"/>
<path d="M2891.05 320.97L2828.92 209.754L2719.89 259.588L2891.05 320.97Z" fill="#C39AA0"/>
<path d="M2619.7 466.622L2592.68 586.346L2776.61 591.41L2619.7 466.622Z" fill="#D59993"/>
<path d="M2619.7 466.624L2689.93 359.662L2582.86 304.359L2619.7 466.624Z" fill="#D59993"/>
<path d="M2999.84 -5.58495H2749.85L2861.83 83.9541L2999.84 -5.58495Z" fill="#B093A3"/>
<path d="M2861.83 83.9542L2828.92 209.755L2971.35 175.722L2861.83 83.9542Z" fill="#C0959C"/>
<path d="M2719.89 259.589L2828.92 209.755L2700.24 124.47L2719.89 259.589Z" fill="#CF9896"/>
<path d="M2549.95 111.302L2374.86 84.5615L2530.55 209.552L2549.95 111.302Z" fill="#DD978C"/>
<path d="M2828.92 209.755L2861.83 83.9542L2700.24 124.47L2828.92 209.755Z" fill="#C5979B"/>
<path d="M2719.89 259.588L2689.93 359.661L2802.89 384.376L2719.89 259.588Z" fill="#CF9896"/>
<path d="M2719.89 259.588L2802.89 384.376L2891.05 320.969L2719.89 259.588Z" fill="#CF9896"/>
<path d="M2619.7 466.624L2802.89 384.377L2689.93 359.662L2619.7 466.624Z" fill="#D59993"/>
<path d="M2999.84 -5.58523L2971.35 175.722L3124.83 43.8436L2999.84 -5.58523Z" fill="#B093A3"/>
<path d="M2749.85 -5.58526H2499.86L2624.85 33.3096L2749.85 -5.58526Z" fill="#CB9696"/>
<path d="M2374.86 84.562L2262.39 207.526L2396.23 237.306L2374.86 84.562Z" fill="#EB9985"/>
<path d="M2700.24 124.469L2624.85 33.3093L2549.95 111.302L2700.24 124.469Z" fill="#D09794"/>
<path d="M2323.79 334.542L2396.23 237.305L2262.39 207.525L2323.79 334.542Z" fill="#E89684"/>
<path d="M2483.9 368.98L2396.23 237.305L2323.79 334.543L2483.9 368.98Z" fill="#DE978B"/>
<path d="M2374.86 84.561L2499.86 -5.58597H2249.87L2374.86 84.561Z" fill="#EB9985"/>
<path d="M2122.42 189.7L2124.88 22.5735L1985.15 160.731L2122.42 189.7Z" fill="#F69A80"/>
<path d="M2210.33 102.794L2374.86 84.5622L2249.87 -5.58483L2210.33 102.794Z" fill="#F49A81"/>
<path d="M2700.24 124.469L2549.95 111.302L2530.55 209.552L2700.24 124.469Z" fill="#D09794"/>
<path d="M2499.86 -5.58526L2549.95 111.302L2624.85 33.3096L2499.86 -5.58526Z" fill="#E2988A"/>
<path d="M2124.88 22.5735L2210.33 102.794L2249.87 -5.58483L2124.88 22.5735Z" fill="#F89C81"/>
<path d="M2374.86 84.562L2210.33 102.794L2262.39 207.526L2374.86 84.562Z" fill="#EB9985"/>
<path d="M2549.95 111.302L2499.86 -5.58526L2374.86 84.5617L2549.95 111.302Z" fill="#DD978C"/>
<path d="M2249.87 -5.58511H1999.88L2124.87 22.5732L2249.87 -5.58511Z" fill="#F39A82"/>
<path d="M1985.15 160.73L2124.88 22.5725L1999.88 -5.58586L1985.15 160.73Z" fill="#FA9D81"/>
<path d="M2619.7 466.624L2582.86 304.359L2483.9 368.981L2619.7 466.624Z" fill="#D59993"/>
<path d="M2719.89 259.589L2582.86 304.359L2689.93 359.662L2719.89 259.589Z" fill="#CF9896"/>
<path d="M179.727 412.332L-6.90527 274.984V412.332H179.727Z" fill="#ECEDEB"/>
<path d="M1407.08 335.961L1342.25 189.092L1291.66 280.252L1407.08 335.961Z" fill="#EAAEA0"/>
<path d="M1229.53 151.412L1012.94 109.478L1060.58 218.262L1229.53 151.412Z" fill="#F5BDAC"/>
<path d="M1869.48 75.6477L1866.54 203.474L1985.15 160.731L1869.48 75.6477Z" fill="#FEA184"/>
<path d="M1999.88 -5.58538H1749.89L1869.48 75.6479L1999.88 -5.58538Z" fill="#FC9E81"/>
<path d="M999.925 -5.58564L1012.94 109.479L1124.92 42.8306L999.925 -5.58564Z" fill="#F9CCBD"/>
<path d="M1342.25 189.093L1229.53 151.413L1291.66 280.252L1342.25 189.093Z" fill="#F4B6A4"/>
<path d="M1342.25 189.092L1458.16 157.895L1374.91 58.0243L1342.25 189.092Z" fill="#F4B6A4"/>
<path d="M1536 365.739L1499.17 259.994L1407.08 335.961L1536 365.739Z" fill="#EAA697"/>
<path d="M1587.08 146.752L1499.17 259.993L1628.58 248.243L1587.08 146.752Z" fill="#FAAA92"/>
<path d="M1499.9 -5.58483H1249.91L1374.91 58.0244L1499.9 -5.58483Z" fill="#FCAF97"/>
<path d="M1374.91 58.0241L1249.91 -5.58511L1229.53 151.413L1374.91 58.0241Z" fill="#FAB6A1"/>
<path d="M70.6943 687.432L174.079 562.037L-6.90527 549.882L70.6943 687.432Z" fill="#CDE8F5"/>
<path d="M427.996 732L275.253 673.049L339.838 801.484L427.996 732Z" fill="#BFDCEF"/>
<path d="M-6.90527 412.333L90.5853 484.855L179.727 412.333H-6.90527Z" fill="#ECEFED"/>
<path d="M-6.90527 549.882L174.079 562.037L90.5853 484.855L-6.90527 549.882Z" fill="#DDECF1"/>
<path d="M-6.90527 549.883V824.78L70.6943 687.433L-6.90527 549.883Z" fill="#DDECF1"/>
<path d="M203.793 772.92L-6.90527 824.779L173.833 886.161L203.793 772.92Z" fill="#C1E4F5"/>
<path d="M354.817 550.489L174.079 562.037L275.253 673.049L354.817 550.489Z" fill="#DAE5EC"/>
<path d="M70.6943 687.432L275.253 673.049L174.079 562.037L70.6943 687.432Z" fill="#CDE8F5"/>
<path d="M275.253 673.049L70.6943 687.432L203.793 772.92L275.253 673.049Z" fill="#CBE4F2"/>
<path d="M-6.90527 824.78L203.793 772.921L70.6943 687.433L-6.90527 824.78Z" fill="#BEE5F8"/>
<path d="M1587.08 146.754L1499.9 -5.58458L1458.16 157.896L1587.08 146.754Z" fill="#FAAA92"/>
<path d="M1628.58 248.245L1715.27 129.737L1587.08 146.754L1628.58 248.245Z" fill="#F5A690"/>
<path d="M1624.9 43.4387L1587.08 146.753L1715.27 129.737L1624.9 43.4387Z" fill="#FDAA90"/>
</g>
</g>
<defs>
<filter id="filter0_f_833_1268" x="-306.905" y="-305.586" width="4613.57" height="2736.59" filterUnits="userSpaceOnUse" color-interpolation-filters="sRGB">
<feFlood flood-opacity="0" result="BackgroundImageFix"/>
<feBlend mode="normal" in="SourceGraphic" in2="BackgroundImageFix" result="shape"/>
<feGaussianBlur stdDeviation="150" result="effect1_foregroundBlur_833_1268"/>
</filter>
<clipPath id="clip0_833_1268">
<rect width="4000" height="2272" fill="white"/>
</clipPath>
</defs>
</svg>
