<svg xmlns="http://www.w3.org/2000/svg" viewBox="0 0 30 30"><path d="M14.4,21.148A2.281,2.281,0,0,1,12.137,18.5a7.714,7.714,0,0,1,.46-1.633,11.187,11.187,0,0,1,2.63-3.5,20.3,20.3,0,0,0,2.491-2.714A4.754,4.754,0,0,0,18.524,8a4.06,4.06,0,0,0-.938-2.887,3.6,3.6,0,0,0-2.751-1,3.952,3.952,0,0,0-2.794.974,3.1,3.1,0,0,0-.78,1.115A2.427,2.427,0,0,1,9.025,7.73h0A2.416,2.416,0,0,1,6.793,4.349a6.754,6.754,0,0,1,1.72-2.271A9.289,9.289,0,0,1,14.835,0a9.067,9.067,0,0,1,6.319,2.056A7.381,7.381,0,0,1,23.423,7.81q0,3.29-3.064,6.477l-2.48,2.441a5.478,5.478,0,0,0-1.2,2.638A2.289,2.289,0,0,1,14.4,21.148Zm-2.81,6.262a2.572,2.572,0,0,1,.746-1.92,2.755,2.755,0,0,1,2.016-.732,2.736,2.736,0,0,1,2.036.754,2.587,2.587,0,0,1,.746,1.9,2.535,2.535,0,0,1-.726,1.846A2.741,2.741,0,0,1,14.351,30a2.709,2.709,0,0,1-2.047-.744A2.555,2.555,0,0,1,11.589,27.41Z"/><title></title></svg>
