<svg xmlns="http://www.w3.org/2000/svg" viewBox="0 0 30 30"><g id="Слой_60" data-name="Слой 60"><path d="M15.21,19.81a3.36,3.36,0,0,0,.7-2.28,3.59,3.59,0,0,0-.68-2.33,2.3,2.3,0,0,0-1.86-.82,2.35,2.35,0,0,0-1.88.86,3.44,3.44,0,0,0-.73,2.27,3.44,3.44,0,0,0,.71,2.26,2.26,2.26,0,0,0,1.84.85A2.37,2.37,0,0,0,15.21,19.81Z"/><path d="M3.79,14.48H2.62v6H3.73A3.11,3.11,0,0,0,6,19.71a3,3,0,0,0,.82-2.28Q6.84,14.48,3.79,14.48Z"/><path d="M23.62,0H7.71C6,0,5,1,5,3H5v7H0V25H5v2c0,2,.25,3,2.71,3h19.6a2.88,2.88,0,0,0,2.69-3V7.79ZM3.56,21.7H1.23V13.3H3.66q4.64,0,4.64,4.09A4,4,0,0,1,7,20.52,4.88,4.88,0,0,1,3.56,21.7ZM28,26.92c0,.61-.36,1-.69,1H7.71c-.32,0-.68-.43-.68-1V25H26V10H7V3H7v.12c0-.61.36-1,.68-1h15L28,8.51ZM9.3,17.6a4.57,4.57,0,0,1,1.11-3.23,3.91,3.91,0,0,1,3-1.21,3.69,3.69,0,0,1,2.85,1.17,4.33,4.33,0,0,1,1.08,3.06,4.6,4.6,0,0,1-1.11,3.26,3.86,3.86,0,0,1-3,1.19,3.77,3.77,0,0,1-2.91-1.18A4.29,4.29,0,0,1,9.3,17.6Zm11.33,2.2a2.73,2.73,0,0,0,2.08.82,3.68,3.68,0,0,0,2.06-.56v1.29a5.06,5.06,0,0,1-2.36.49,3.85,3.85,0,0,1-2.93-1.15,4.18,4.18,0,0,1-1.1-3,4.39,4.39,0,0,1,1.24-3.26,4.22,4.22,0,0,1,3.13-1.24,5.16,5.16,0,0,1,2,.34v1.39a3.58,3.58,0,0,0-1.88-.51,2.92,2.92,0,0,0-2.21.88,3.22,3.22,0,0,0-.85,2.33A3.06,3.06,0,0,0,20.63,19.8Z"/></g></svg>