<svg xmlns="http://www.w3.org/2000/svg" viewBox="0 0 30 30"><path d="M19.681 11.518h4.938v1.282h-6.881v-1.041l4.78-6.906h-4.748v-1.295h6.7v1.015zM23.344 22.647h-3.58l-.75 2.153h-1.669l3.491-9.242h1.441l3.5 9.242h-1.677zm-3.13-1.294h2.679l-1.34-3.834zM14.805 18.689a1.249 1.249 0 0 0-1.767 0l-2.156 2.156v-16.029a1.25 1.25 0 0 0-2.5 0v16.018l-2.12-2.12a1.248 1.248 0 0 0-1.766 0l-.013.013a1.248 1.248 0 0 0 0 1.766l4.276 4.276a1.249 1.249 0 0 0 1.765 0l.013-.013a.893.893 0 0 0 .06-.091l4.208-4.208a1.249 1.249 0 0 0 0-1.768z"/><title></title></svg>
