<svg xmlns="http://www.w3.org/2000/svg" viewBox="0 0 30 30"><path d="M23.605.036h-15.905a2.884 2.884 0 0 0-2.682 3.046v6.882h-5.018v15h5.018v1.954a2.884 2.884 0 0 0 2.682 3.046h19.6a2.884 2.884 0 0 0 2.682-3.046v-19.127zm-17.812 18.749l-2.081 3.539h-1.948l2.989-4.864-2.922-4.784h1.934l2.028 3.485 2.028-3.485h1.934l-2.915 4.784 2.982 4.864h-1.955zm22.189 8.133c0 .616-.359 1.046-.682 1.046h-19.6c-.323 0-.682-.43-.682-1.046v-1.954h18.982v-15h-18.982v-6.882c0-.616.359-1.046.682-1.046h14.961l5.321 6.472zm-11.543-5.933v1.339h-6.057v-9.648h1.677v8.309zm5.2-2.127a5.42 5.42 0 0 0-1.614-.7 7.831 7.831 0 0 1-1.855-.782 2.477 2.477 0 0 1-1.319-2.16 2.351 2.351 0 0 1 .949-1.916 3.847 3.847 0 0 1 2.468-.755 4.158 4.158 0 0 1 1.8.371 2.942 2.942 0 0 1 1.239 1.057 2.71 2.71 0 0 1 .451 1.52h-1.67a1.514 1.514 0 0 0-.474-1.183 1.959 1.959 0 0 0-1.355-.427 2.04 2.04 0 0 0-1.275.351 1.17 1.17 0 0 0-.454.981 1.055 1.055 0 0 0 .49.884 5.631 5.631 0 0 0 1.617.689 7.429 7.429 0 0 1 1.809.763 2.858 2.858 0 0 1 1 .981 2.55 2.55 0 0 1 .318 1.3 2.293 2.293 0 0 1-.924 1.917 4 4 0 0 1-2.508.713 4.735 4.735 0 0 1-1.925-.387 3.249 3.249 0 0 1-1.365-1.075 2.665 2.665 0 0 1-.487-1.591h1.677a1.56 1.56 0 0 0 .543 1.273 2.38 2.38 0 0 0 1.557.45 2.061 2.061 0 0 0 1.315-.355 1.143 1.143 0 0 0 .441-.937 1.166 1.166 0 0 0-.447-.982z"/><title></title></svg>
