<svg xmlns="http://www.w3.org/2000/svg" viewBox="0 0 30 30"><path d="M20.83,0a8.66,8.66,0,0,0-8.71,8.59,8.41,8.41,0,0,0,1.37,4.61L8.34,18.26a1.61,1.61,0,0,0-.47,1.14,1.59,1.59,0,0,0,.47,1.13,1.63,1.63,0,0,0,2.29,0l5.08-5a8.78,8.78,0,0,0,5.12,1.65,8.66,8.66,0,0,0,8.72-8.59A8.66,8.66,0,0,0,20.83,0Zm5.48,8.59a5.48,5.48,0,0,1-10.95,0,5.48,5.48,0,0,1,11,0Z"/><path d="M24,18a1.5,1.5,0,0,0-1.5,1.5v5.81A1.7,1.7,0,0,1,20.75,27H5.14a1.69,1.69,0,0,1-1.69-1.69V10.69A1.69,1.69,0,0,1,5.14,9H9.45a1.5,1.5,0,0,0,0-3H5.14A4.7,4.7,0,0,0,.45,10.69V25.31A4.7,4.7,0,0,0,5.14,30H20.75a4.71,4.71,0,0,0,4.7-4.69V19.5A1.5,1.5,0,0,0,24,18Z"/></svg>