<svg xmlns="http://www.w3.org/2000/svg" viewBox="0 0 30 30"><path d="M21.632 1h-17.358a3.278 3.278 0 0 0-3.274 3.274v21.452a3.278 3.278 0 0 0 3.274 3.274h21.452a3.278 3.278 0 0 0 3.274-3.274v-17.358zm-4.132 2v5.226a1.275 1.275 0 0 1-1.274 1.274h-3.452a1.275 1.275 0 0 1-1.274-1.274v-5.226zm-9.5 24v-6h14v6zm14-8h-14v-.726a1.275 1.275 0 0 1 1.274-1.274h11.452a1.275 1.275 0 0 1 1.274 1.274zm5 6.726a1.275 1.275 0 0 1-1.274 1.274h-1.726v-8.726a3.278 3.278 0 0 0-3.274-3.274h-11.452a3.278 3.278 0 0 0-3.274 3.274v8.726h-1.726a1.275 1.275 0 0 1-1.274-1.274v-21.452a1.275 1.275 0 0 1 1.274-1.274h5.226v5.226a3.278 3.278 0 0 0 3.274 3.274h3.452a3.278 3.278 0 0 0 3.274-3.274v-5.226h1.3l6.2 6.2z"/><title></title></svg>
