<svg xmlns="http://www.w3.org/2000/svg" viewBox="0 0 30 30"><path d="M21.331 16.061a1.5 1.5 0 0 0 0-2.122l-7.071-7.071a1.5 1.5 0 0 0-2.121 2.122l4.527 4.527h-14.457a1.48 1.48 0 0 0 0 2.96h14.464l-4.534 4.533a1.5 1.5 0 0 0 2.121 2.122l7.071-7.071zM26.19.5h-5.944a1.475 1.475 0 0 0-1.475 1.476v.048a1.475 1.475 0 0 0 1.475 1.476h5.944a.081.081 0 0 1 .081.081v22.838a.081.081 0 0 1-.081.081h-5.96a1.46 1.46 0 0 0-1.459 1.46v.08a1.46 1.46 0 0 0 1.459 1.46h5.96a3.081 3.081 0 0 0 3.081-3.081v-22.838a3.081 3.081 0 0 0-3.081-3.081z"/><title></title></svg>
