<svg xmlns="http://www.w3.org/2000/svg" viewBox="0 0 30 30"><path d="M25.726 4.5h-9.545a12.954 12.954 0 0 1-1.448-1.442c-1.233-1.353-1.919-2.058-2.733-2.058h-8.5a2.5 2.5 0 0 0-2.5 2.5v22.226a3.278 3.278 0 0 0 3.274 3.274h21.452a3.278 3.278 0 0 0 3.274-3.274v-17.952a3.278 3.278 0 0 0-3.274-3.274zm-22.226-1.5h8.352a13.424 13.424 0 0 1 1.406 1.407c1.221 1.337 1.954 2.093 2.782 2.093h9.686a1.275 1.275 0 0 1 1.274 1.274v2.9a5.222 5.222 0 0 0-3.274-1.174h-17.452a5.222 5.222 0 0 0-3.274 1.172v-7.172a.5.5 0 0 1 .5-.5zm23.5 22.726a1.275 1.275 0 0 1-1.274 1.274h-21.452a1.275 1.275 0 0 1-1.274-1.274v-10.952a3.278 3.278 0 0 1 3.274-3.274h17.452a3.278 3.278 0 0 1 3.274 3.274z"/><title></title></svg>
