<svg xmlns="http://www.w3.org/2000/svg" viewBox="0 0 30 30"><path d="M21.573 29h-17.396a3.178 3.178 0 0 1-3.177-3.177v-17.146a3.178 3.178 0 0 1 3.177-3.177h7.2a1.5 1.5 0 0 1 1.5 1.5 1.5 1.5 0 0 1-1.5 1.5h-7.2a.178.178 0 0 0-.177.177v17.146a.178.178 0 0 0 .177.177h17.4a.178.178 0 0 0 .177-.177v-7.073a1.5 1.5 0 0 1 1.5-1.5 1.5 1.5 0 0 1 1.5 1.5v7.073a3.178 3.178 0 0 1-3.181 3.177zM26.5 2h-10a1.5 1.5 0 0 0 0 3h6.412l-12.412 12.41a1.48 1.48 0 0 0 2.1 2.09l12.4-12.4v6.4a1.5 1.5 0 0 0 3 0v-10a1.5 1.5 0 0 0-1.5-1.5z"/><title></title></svg>
