<svg xmlns="http://www.w3.org/2000/svg" viewBox="0 0 30 30"><path d="M28.661 14.436a1.5 1.5 0 0 0-.33-.5l-7.071-7.068a1.5 1.5 0 0 0-2.121 2.122l4.527 4.527h-14.457a1.48 1.48 0 0 0 0 2.96h14.464l-4.534 4.533a1.5 1.5 0 0 0 2.121 2.122l7.071-7.071a1.5 1.5 0 0 0 .33-1.625zM9.811 26.5h-5.96a.08.08 0 0 1-.08-.081v-22.838a.08.08 0 0 1 .08-.081h5.949a1.476 1.476 0 0 0 1.476-1.476v-.048a1.476 1.476 0 0 0-1.476-1.476h-5.949a3.08 3.08 0 0 0-3.08 3.081v22.838a3.08 3.08 0 0 0 3.08 3.081h5.96a1.46 1.46 0 0 0 1.46-1.46v-.08a1.46 1.46 0 0 0-1.46-1.46z"/><title></title></svg>
