<svg xmlns="http://www.w3.org/2000/svg" viewBox="0 0 30 30"><path d="M27.88,15.09a8.22,8.22,0,0,0-.67-.73h0a7.06,7.06,0,0,0-.62-.52l-.15-.1a1.57,1.57,0,0,0-2.07.48,1.51,1.51,0,0,0,.29,2.09s.73.71.84.83a5.94,5.94,0,0,1-6,9.57,6,6,0,0,1-4.13-3.65,5.82,5.82,0,0,1,.79-5.6A1.57,1.57,0,0,0,17.54,19a1.55,1.55,0,0,0,1.15-.33,1.63,1.63,0,0,0,.59-1.05l.46-4a.9.9,0,0,0-.67-1l-4.19-1a1.57,1.57,0,1,0-.72,3.06l.19,0A9.14,9.14,0,0,0,11.9,21a8.94,8.94,0,0,0,3.24,6.91,9.22,9.22,0,0,0,11.64,0l.12-.11A9.15,9.15,0,0,0,27.88,15.09Z"/><path d="M9.6,23.89H3.76a.51.51,0,0,1-.18-.45l0-20.39h0a.59.59,0,0,1,.16-.45h13l4.48,5.25v2.82a1.33,1.33,0,1,0,2.65,0V6.92L18,0H3.75A2.68,2.68,0,0,0,1.69.72,2.71,2.71,0,0,0,.94,2.51l0,21a3.19,3.19,0,0,0,.63,2.37,2.75,2.75,0,0,0,2,.61h6a1.3,1.3,0,1,0,0-2.6Z"/></svg>