<svg xmlns="http://www.w3.org/2000/svg" viewBox="0 0 27 27"><g id="Слой_44" data-name="Слой 44"><path d="M23.67,0H3.33A3.34,3.34,0,0,0,0,3.33V23.67A3.34,3.34,0,0,0,3.33,27H23.67A3.34,3.34,0,0,0,27,23.67V3.33A3.34,3.34,0,0,0,23.67,0ZM24,23.67a.33.33,0,0,1-.33.33H3.33A.33.33,0,0,1,3,23.67V3.33A.33.33,0,0,1,3.33,3H23.67a.33.33,0,0,1,.33.33Z"/><path d="M20.22,6.78a1.84,1.84,0,0,0-2.59,0L13.5,10.92,9.37,6.78A1.83,1.83,0,0,0,6.78,9.37l4.14,4.13L6.78,17.63a1.83,1.83,0,0,0,2.59,2.59l4.13-4.14,4.13,4.14a1.83,1.83,0,0,0,2.59-2.59L16.08,13.5l4.14-4.13A1.84,1.84,0,0,0,20.22,6.78Z"/></g></svg>