<svg xmlns="http://www.w3.org/2000/svg" viewBox="0 0 27 27"><g id="Слой_23" data-name="Слой 23"><path d="M23.67,0H3.33A3.34,3.34,0,0,0,0,3.33V23.67A3.34,3.34,0,0,0,3.33,27H23.67A3.34,3.34,0,0,0,27,23.67V3.33A3.34,3.34,0,0,0,23.67,0ZM24,23.67a.33.33,0,0,1-.33.33H3.33A.33.33,0,0,1,3,23.67V3.33A.33.33,0,0,1,3.33,3H23.67a.33.33,0,0,1,.33.33Z"/><path d="M18,5.21H9A2.32,2.32,0,0,0,6.65,7.52V19.73a2.08,2.08,0,0,0,2.06,2.06A2.07,2.07,0,0,0,10,21.31l3.48-2.9L17,21.31a2.06,2.06,0,0,0,3.37-1.58V7.52A2.32,2.32,0,0,0,18,5.21Zm-.43,13.06-2.8-2.33a2,2,0,0,0-2.62,0l-2.8,2.33V8h8.22Z"/></g></svg>