<svg xmlns="http://www.w3.org/2000/svg" viewBox="0 0 30 30"><path d="M21.3,14.255l-2.294-.629a.692.692,0,0,1-.508-.666V7.224a2.354,2.354,0,0,0,2-2.324V3.6a2.352,2.352,0,0,0-2.35-2.35h-6.3A2.352,2.352,0,0,0,9.5,3.6V4.9a2.354,2.354,0,0,0,2,2.324V12.96a.692.692,0,0,1-.508.666L8.7,14.255A2.353,2.353,0,0,0,6.5,16.6v2.3a2.352,2.352,0,0,0,2.35,2.35H14v6.5a1,1,0,0,0,2,0v-6.5h5.15A2.352,2.352,0,0,0,23.5,18.9V16.6A2.353,2.353,0,0,0,21.3,14.255ZM11.5,3.6a.35.35,0,0,1,.35-.35h6.3a.35.35,0,0,1,.35.35V4.9a.35.35,0,0,1-.35.35h-6.3a.35.35,0,0,1-.35-.35Zm10,15.3a.35.35,0,0,1-.35.35H8.85a.35.35,0,0,1-.35-.35V16.6a.35.35,0,0,1,.35-.35l2.67-.694a2.7,2.7,0,0,0,1.98-2.6V7.25h3v5.71a2.7,2.7,0,0,0,1.98,2.6l2.406.659.264.035a.35.35,0,0,1,.35.35Z" style="fill:#fff"/><title></title></svg>
