<svg xmlns="http://www.w3.org/2000/svg" viewBox="0 0 27 27"><g id="Слой_44" data-name="Слой 44"><path d="M24.1,4h-4V2.6A2.61,2.61,0,0,0,17.46,0H9.54a2.61,2.61,0,0,0-2.6,2.6V4h-4a1.52,1.52,0,0,0,0,3H4.31l1.74,17.4A2.79,2.79,0,0,0,8.84,27h9.32A2.79,2.79,0,0,0,21,24.47l1.74-17.4H24.1a1.52,1.52,0,0,0,0-3ZM9,2.6A.58.58,0,0,1,9.54,2h7.92A.58.58,0,0,1,18,2.6V4H9Zm9.48,21.62a.28.28,0,0,1-.28.26H8.84a.28.28,0,0,1-.28-.26L6.84,7.07H20.16Z"/><path d="M13.5,23.21a.75.75,0,0,0,.76-.75V8.83a.76.76,0,1,0-1.52,0V22.46A.75.75,0,0,0,13.5,23.21Z"/><path d="M10.22,22.46a.76.76,0,0,0,1.51,0l-2-13.63A.75.75,0,0,0,9,8.07a.76.76,0,0,0-.76.76Z"/><path d="M16,23.21a.75.75,0,0,0,.76-.75l2-13.63A.76.76,0,0,0,18,8.07a.75.75,0,0,0-.75.76l-2,13.63A.75.75,0,0,0,16,23.21Z"/></g></svg>