<svg xmlns="http://www.w3.org/2000/svg" viewBox="0 0 30 30"><path d="M25.9,0H4.1A4.1,4.1,0,0,0,0,4.1V25.9A4.1,4.1,0,0,0,4.1,30H25.9A4.1,4.1,0,0,0,30,25.9V4.1A4.1,4.1,0,0,0,25.9,0ZM9.484,10.048,3,19.141V4.1A1.1,1.1,0,0,1,4.1,3H25.9A1.1,1.1,0,0,1,27,4.1V14.966l-2.724-2.725c-.011-.012-.015-.027-.026-.038a1.519,1.519,0,0,0-2.134,0c-.01.011-.013.025-.023.035l-5.077,5.077-5.082-7.259a1.5,1.5,0,0,0-2.45-.008ZM3,25.9V24.308l7.7-10.791L20.135,27H4.1A1.1,1.1,0,0,1,3,25.9ZM25.9,27H23.761a1.54,1.54,0,0,0-.146-.262L18.764,19.81l4.419-4.419L27,19.208V25.9A1.1,1.1,0,0,1,25.9,27Z" style="fill:#fff"/><circle cx="18.5" cy="7.5" r="2.5" style="fill:#fff"/><title></title></svg>
