<svg xmlns="http://www.w3.org/2000/svg" viewBox="0 0 30 30"><path d="M13.89,7.59,8.77,12.54a1.51,1.51,0,0,0-.47,1.09,1.56,1.56,0,0,0,.47,1.11,1.63,1.63,0,0,0,2.23,0l2.43-2.35v8.93a1.57,1.57,0,0,0,3.14,0V12.39L19,14.74a1.63,1.63,0,0,0,2.23,0,1.56,1.56,0,0,0,.47-1.11,1.51,1.51,0,0,0-.47-1.09L16.11,7.59A1.61,1.61,0,0,0,13.89,7.59Z"/><path d="M21.35,0H5.22A3,3,0,0,0,2.9.84a3.11,3.11,0,0,0-.85,2L2,26.6a3.63,3.63,0,0,0,.71,2.68A3.17,3.17,0,0,0,5,30H24.81A3.32,3.32,0,0,0,28,26.52V7.85ZM25,8.91V26.52a.67.67,0,0,1-.19.51H5.24S5,26.85,5,26.52l0-23H5A.68.68,0,0,1,5.21,3H19.94Z"/></svg>