<svg xmlns="http://www.w3.org/2000/svg" viewBox="0 0 30 30"><path d="M16.146 29h-2.292a2.358 2.358 0 0 1-2.354-2.354v-1.228a10.774 10.774 0 0 1-1.393-.576l-.867.867a2.414 2.414 0 0 1-3.33 0l-1.619-1.619a2.359 2.359 0 0 1 0-3.331l.866-.866a10.774 10.774 0 0 1-.575-1.393h-1.228a2.358 2.358 0 0 1-2.354-2.354v-2.292a2.358 2.358 0 0 1 2.354-2.354h1.228a10.774 10.774 0 0 1 .576-1.393l-.867-.867a2.359 2.359 0 0 1 0-3.33l1.619-1.619a2.414 2.414 0 0 1 3.331 0l.866.866a10.774 10.774 0 0 1 1.393-.575v-1.228a2.358 2.358 0 0 1 2.354-2.354h2.292a2.358 2.358 0 0 1 2.354 2.354v1.228a10.774 10.774 0 0 1 1.393.576l.867-.867a2.413 2.413 0 0 1 3.33 0l1.619 1.619a2.359 2.359 0 0 1 0 3.331l-.866.866a10.774 10.774 0 0 1 .576 1.393h1.228a2.358 2.358 0 0 1 2.353 2.354v2.292a2.358 2.358 0 0 1-2.354 2.354h-1.228a10.774 10.774 0 0 1-.576 1.393l.867.867a2.359 2.359 0 0 1 0 3.33l-1.619 1.619a2.414 2.414 0 0 1-3.331 0l-.866-.866a10.774 10.774 0 0 1-1.393.576v1.228a2.358 2.358 0 0 1-2.354 2.353zm-6.377-6.647l.668.393a8.885 8.885 0 0 0 2.312.957l.751.193v2.75a.359.359 0 0 0 .354.354h2.292a.359.359 0 0 0 .354-.354v-2.746l.751-.193a8.885 8.885 0 0 0 2.312-.957l.668-.393 1.943 1.943a.3.3 0 0 0 .5 0l1.626-1.624a.357.357 0 0 0 .1-.251.351.351 0 0 0-.1-.25l-1.943-1.944.393-.668a8.885 8.885 0 0 0 .957-2.312l.193-.751h2.75a.359.359 0 0 0 .35-.354v-2.292a.359.359 0 0 0-.354-.354h-2.746l-.193-.751a8.885 8.885 0 0 0-.957-2.312l-.393-.668 1.943-1.943a.352.352 0 0 0 .1-.251.357.357 0 0 0-.1-.251l-1.624-1.619a.3.3 0 0 0-.5 0l-1.945 1.942-.668-.393a8.885 8.885 0 0 0-2.312-.954l-.751-.2v-2.746a.359.359 0 0 0-.354-.354h-2.292a.359.359 0 0 0-.354.354v2.746l-.751.193a8.885 8.885 0 0 0-2.312.957l-.668.393-1.943-1.938a.3.3 0 0 0-.5 0l-1.621 1.619a.357.357 0 0 0-.1.251.351.351 0 0 0 .1.25l1.942 1.944-.393.668a8.885 8.885 0 0 0-.954 2.312l-.2.751h-2.746a.359.359 0 0 0-.354.354v2.292a.359.359 0 0 0 .354.354h2.746l.193.751a8.885 8.885 0 0 0 .957 2.312l.393.668-1.938 1.943a.352.352 0 0 0-.1.251.357.357 0 0 0 .1.251l1.619 1.624a.3.3 0 0 0 .5 0zM15 18.5a3.5 3.5 0 1 1 3.5-3.5 3.5 3.5 0 0 1-3.5 3.5zm0-5a1.5 1.5 0 1 0 1.5 1.5 1.5 1.5 0 0 0-1.5-1.5z"/><title></title></svg>
