<svg xmlns="http://www.w3.org/2000/svg" xmlns:xlink="http://www.w3.org/1999/xlink" width="1683.002" height="1019.994" viewBox="0 0 1683.002 1019.994"><defs><linearGradient id="a" x1="-0.304" y1="-0.645" x2="0.981" y2="1" gradientUnits="objectBoundingBox"><stop offset="0" stop-color="#f4d4f9"/><stop offset="1" stop-color="#6c63ff"/></linearGradient></defs><g transform="translate(1205.984 -788.535)"><path d="M6641.937-1620.2c-62.472,0-55.95,98.649-141.25,102.829-9.823.481-20.474.707-31.856.707-148.835,0-423.58-38.73-632.947-52.922-129.486-8.779-225.6,13.086-310.867,33.064v-972.5a1403.408,1403.408,0,0,1,156.945-21.107c193.605-14.454,526.875,93.2,706.712,100.944,172.106,7.417,132.769-70.861,252.343-70.861s89.7,65.036,225.954,70.861c48.563,2.08,175.257-48.386,341.048-79.835v972.5c-33.658,7.887-65.623,15.479-97.287,20.776a340.207,340.207,0,0,1-55.925,4.273C6896.083-1511.469,6708.207-1620.2,6641.937-1620.2Z" transform="translate(-6731.001 3320.003)" opacity="0.5" fill="url(#a)"/><path d="M6046.529-1540.2c-24.34,0-46.875-8.373-66.349-32.948-38.5-48.588-102.893-41.087-169.29-33.584-48.771,5.511-98.63,11.022-140.1-5.7-68.812-27.751-87.5-6.944-145.779,15.191v-933.811c82.229,6.437,107.267,84.894,214.982,88.163,47.322,1.431,78.693.458,103.024-.515,40.628-1.624,61.636-3.247,104.536,6.341,68.585,15.323,171.458,42.141,290.577,0s148.849-66.049,264.355-54.553c84.177,8.375,53.6,51.332,138.692,63.513s106.53,10.069,201.667-14.788c117.312-30.651,193.113-57.463,317.65-84.283,17.93-3.862,33.552-4.941,47.516-3.952v934.265c-24.508,9.243-55.988,18.666-100.978,24.845-78.475,10.78-105.654,23.125-129.909,23.126-23.16,0-43.65-11.254-103.6-45.875-102.148-58.992-189.845-66.741-232.347-34.024s-50.605,38.309-85.935,33.212c-25.267-3.648-52.911-7.295-80.683.81-72.189,21.073-148,37.9-236.43,18.749-35.108-7.6-72.466,4.558-108.938,16.723-28.608,9.545-56.663,19.089-82.655,19.091Z" transform="translate(-6730.999 3325.469)" opacity="0.5" fill="url(#a)"/><path d="M5732.273-1561.44c-68.215-72.651-145.144-83.118-207.257-42.729v-849.465c50.658-3.028,94.717-13.936,129.838-21.811,37.374-8.385,58.4,3.288,90.37,14.955,26.492,9.671,60.5,19.341,117.548,17.608,125.9-3.833,138.484-111.1,262.582-84.287S6325-2473.53,6441.9-2442.883c46.434,12.173,88.678-2.914,122.728-18,36.69-16.255,42.108-45.455,77.761-43.4v-.031c28.884,0,60.286,1.933,144.13-6.437,115.105-11.5,144.339-6.841,263.042,35.3,57.312,20.346,110.785,24.618,158.461,21.871v850.064c-16.124,10.651-31.226,24.74-44.91,42.071-17.508,22.171-42.719,30.1-71.958,30.106-36.784,0-79.952-12.551-122.243-25.1-51.875-15.392-102.42-30.79-138.2-23.01-81.658,17.749-110.408-41.529-191.479-50.609-22.066-3.253-155.331-15.427-260.515,45.532-122.3,70.871-218.392,44.151-371.264,23.083-60.461-8.336-102.639,4.3-136.873,16.94-26.577,9.812-48.373,19.625-70.222,19.625C5779.184-1524.875,5757.956-1534.086,5732.273-1561.44Z" transform="translate(-6731 3326.466)" opacity="0.5" fill="url(#a)"/></g></svg>