<svg xmlns="http://www.w3.org/2000/svg" viewBox="0 0 30 30"><path d="M23.879 5.1h-2.059v-1.144a1.178 1.178 0 1 0-2.355 0v1.144h-3.2v-1.144a1.178 1.178 0 1 0-2.355 0v1.144h-3.2v-1.144a1.178 1.178 0 1 0-2.355 0v1.144h-2.234a2.689 2.689 0 0 0-2.686 2.681v17.005a2.689 2.689 0 0 0 2.686 2.686h17.758a2.689 2.689 0 0 0 2.686-2.686v-17.005a2.689 2.689 0 0 0-2.686-2.681zm.186 19.69a.186.186 0 0 1-.186.186h-17.758a.186.186 0 0 1-.186-.186v-17.009a.185.185 0 0 1 .186-.181h2.235v1.14a1.178 1.178 0 0 0 2.355 0v-1.14h3.2v1.14a1.178 1.178 0 0 0 2.355 0v-1.14h3.2v1.14a1.178 1.178 0 0 0 2.355 0v-1.14h2.059a.185.185 0 0 1 .186.185zM9.534 11.325a1.529 1.529 0 1 0 1.566 1.528 1.546 1.546 0 0 0-1.566-1.528zM15.088 11.325a1.529 1.529 0 1 0 1.563 1.528 1.546 1.546 0 0 0-1.563-1.528zM20.642 11.325a1.529 1.529 0 1 0 1.563 1.528 1.545 1.545 0 0 0-1.563-1.528zM9.534 15.637a1.529 1.529 0 1 0 1.566 1.529 1.546 1.546 0 0 0-1.566-1.529zM15.088 15.637a1.529 1.529 0 1 0 1.563 1.529 1.546 1.546 0 0 0-1.563-1.529zM20.642 15.637a1.529 1.529 0 1 0 1.563 1.529 1.545 1.545 0 0 0-1.563-1.529zM9.534 19.949a1.529 1.529 0 1 0 1.566 1.529 1.547 1.547 0 0 0-1.566-1.529zM15.088 19.949a1.529 1.529 0 1 0 1.563 1.529 1.547 1.547 0 0 0-1.563-1.529zM20.642 19.949a1.529 1.529 0 1 0 1.563 1.529 1.546 1.546 0 0 0-1.563-1.529z"/><title></title></svg>
