<svg xmlns="http://www.w3.org/2000/svg" viewBox="0 0 30 30"><path d="M21.573 29h-17.396a3.178 3.178 0 0 1-3.177-3.177v-17.146a3.178 3.178 0 0 1 3.177-3.177h7.2a1.5 1.5 0 0 1 1.5 1.5 1.5 1.5 0 0 1-1.5 1.5h-7.2a.178.178 0 0 0-.177.177v17.146a.178.178 0 0 0 .177.177h17.4a.178.178 0 0 0 .178-.178v-7.072a1.5 1.5 0 0 1 1.5-1.5 1.5 1.5 0 0 1 1.5 1.5v7.073a3.178 3.178 0 0 1-3.182 3.177zM8.181 21.283l.619-3.473a.454.454 0 0 1 .768-.241l2.853 2.853a.453.453 0 0 1-.242.767l-3.472.621a.454.454 0 0 1-.526-.527z"/><rect x="15.405" y="3.585" width="5" height="17" rx=".48" transform="translate(13.79 -9.121) rotate(45)"/><path d="M24.9 2.531h2.241a1.379 1.379 0 0 1 1.375 1.379v.919a.589.589 0 0 1-.589.589h-3.827a.589.589 0 0 1-.589-.589v-.919a1.379 1.379 0 0 1 1.389-1.379z" transform="translate(10.43 -17.232) rotate(45)"/><path d="M0 30l30-30"/><title></title></svg>
