<svg xmlns="http://www.w3.org/2000/svg" viewBox="0 0 30 30"><path d="M23.587.071h-15.905a2.885 2.885 0 0 0-2.682 3.046v6.883h-5v15h5v1.954a2.884 2.884 0 0 0 2.682 3.046h19.6a2.884 2.884 0 0 0 2.682-3.046v-19.128zm-21.587 18.473v-1.644l7.151-3.178v2.078l-5.041 1.943 5.041 1.914v2.075zm25.964 8.41c0 .616-.359 1.046-.682 1.046h-19.6c-.323 0-.682-.43-.682-1.046v-1.954h19v-15h-19v-6.883c0-.616.359-1.046.682-1.046h14.961l5.321 6.472zm-18.464-2.754l4.9-13.508h1.632l-4.903 13.508zm7.121-8.441v-2.041l7.379 3.182v1.648l-7.381 3.178v-2.045l5.281-1.981z"/><title></title></svg>
