<svg xmlns="http://www.w3.org/2000/svg" viewBox="0 0 30 30"><path d="M23.242 17.737a.851.851 0 0 1-.689-.282 4.854 4.854 0 0 1-.559-3.1l.006-4.105a7.01 7.01 0 0 0-5.029-6.713 1.938 1.938 0 0 0 .029-.287 2 2 0 0 0-4 0 1.938 1.938 0 0 0 .029.287 7.01 7.01 0 0 0-5.029 6.713v4l.006.11a4.922 4.922 0 0 1-.567 3.063.937.937 0 0 1-.743.326 3.251 3.251 0 0 0 .055 6.5h16.561a3.193 3.193 0 0 0 3.188-3.187 3.336 3.336 0 0 0-3.258-3.325zm.07 4.513h-16.561a1.251 1.251 0 0 1 0-2.5 2.936 2.936 0 0 0 2.2-1.011c1.276-1.469 1.098-4.039 1.049-4.539v-3.95a5 5 0 0 1 10 0v3.95c-.051.513-.235 3.14 1.062 4.589a2.837 2.837 0 0 0 2.18.95 1.327 1.327 0 0 1 1.258 1.323 1.189 1.189 0 0 1-1.188 1.188zM15 29a4.007 4.007 0 0 1-3.8-2.738.978.978 0 0 1 .949-1.262.987.987 0 0 1 .953.631 2 2 0 0 0 3.8 0 .987.987 0 0 1 .949-.631.978.978 0 0 1 .945 1.262 4.006 4.006 0 0 1-3.796 2.738z"/><title></title></svg>
