<svg xmlns="http://www.w3.org/2000/svg" viewBox="0 0 30 30"><path d="M15.319 17.263a3.518 3.518 0 0 0-.673-2.321 2.4 2.4 0 0 0-1.953-.8h-1.157v6.733h1.079a2.509 2.509 0 0 0 2-.8 3.436 3.436 0 0 0 .708-2.293zM5.685 14.14h-2.032v3.26h1.986a1.983 1.983 0 0 0 1.346-.407 1.481 1.481 0 0 0 .464-1.176 1.607 1.607 0 0 0-.47-1.21 1.842 1.842 0 0 0-1.294-.467zM23.605.036h-15.905a2.884 2.884 0 0 0-2.682 3.046v6.882h-5.018v15h5.018v1.954a2.884 2.884 0 0 0 2.682 3.046h19.6a2.884 2.884 0 0 0 2.682-3.046v-19.127zm-17.985 18.664h-1.967v3.463h-1.653v-9.331h3.639a3.723 3.723 0 0 1 2.532.816 2.716 2.716 0 0 1 .938 2.157 2.625 2.625 0 0 1-.918 2.136 3.911 3.911 0 0 1-2.571.759zm22.362 8.213c0 .616-.359 1.046-.682 1.046h-19.6c-.323 0-.682-.43-.682-1.046v-1.949h18.982v-15h-18.982v-6.882c0-.616.359-1.046.682-1.046h14.961l5.321 6.472zm-18.1-4.75v-9.331h2.81a4.471 4.471 0 0 1 2.238.551 3.79 3.79 0 0 1 1.512 1.565 4.882 4.882 0 0 1 .536 2.321v.468a4.871 4.871 0 0 1-.539 2.334 3.746 3.746 0 0 1-1.535 1.552 4.689 4.689 0 0 1-2.284.545zm13.555-5.251v1.295h-3.828v3.956h-1.653v-9.331h6.044v1.308h-4.391v2.777z"/><title></title></svg>
