<svg xmlns="http://www.w3.org/2000/svg" viewBox="0 0 30 30"><path d="M1.444,26.363l7.364-7.5a11.393,11.393,0,0,1-2.055-6.536A11.24,11.24,0,0,1,17.877,1,11.24,11.24,0,0,1,29,12.328,11.24,11.24,0,0,1,17.877,23.656a10.947,10.947,0,0,1-7-2.533L3.589,28.548a1.5,1.5,0,0,1-2.145,0A1.566,1.566,0,0,1,1.444,26.363Zm16.433-5.8a8.174,8.174,0,0,0,8.089-8.239,8.091,8.091,0,1,0-16.179,0A8.175,8.175,0,0,0,17.877,20.567Z"/><path d="M22.846,11.346H19.154V7.654a1.154,1.154,0,1,0-2.308,0v3.692H13.154a1.154,1.154,0,0,0,0,2.308h3.692v3.692a1.154,1.154,0,1,0,2.308,0V13.654h3.692a1.154,1.154,0,1,0,0-2.308Z"/><title></title></svg>
