<svg xmlns="http://www.w3.org/2000/svg" viewBox="0 0 30 30"><path d="M23.26,15.25h0a5,5,0,0,0-.13-.74l-.05-.15a1.42,1.42,0,0,0-1.73-.88,1.39,1.39,0,0,0-1,1.64s.1.92.1,1.07a5.43,5.43,0,0,1-9.82,3.2,5.52,5.52,0,0,1-.76-5,5.31,5.31,0,0,1,3.84-3.47,1.44,1.44,0,0,0,.09,1.87,1.41,1.41,0,0,0,1,.44,1.44,1.44,0,0,0,1-.39L18,10.75a1.59,1.59,0,0,0,.17-2.06l-2-2.62a1.44,1.44,0,0,0-2.3,1.73l.11.14a8.39,8.39,0,0,0-5.43,3,8.19,8.19,0,0,0-1.78,6.75A8.42,8.42,0,0,0,15,24.5h.15a8.37,8.37,0,0,0,8.15-8.35A6.94,6.94,0,0,0,23.26,15.25Z"/><path d="M21.35,0H5.22A3,3,0,0,0,2.9.84a3.11,3.11,0,0,0-.85,2L2,26.6a3.63,3.63,0,0,0,.71,2.68A3.17,3.17,0,0,0,5,30H24.81A3.32,3.32,0,0,0,28,26.52V7.85ZM25,8.91V26.52a.67.67,0,0,1-.19.51H5.24S5,26.85,5,26.52l0-23H5A.68.68,0,0,1,5.21,3H19.94Z"/></svg>