<svg xmlns="http://www.w3.org/2000/svg" viewBox="0 0 27 27"><g id="Слой_23" data-name="Слой 23"><path d="M23.67,0H3.33A3.34,3.34,0,0,0,0,3.33V23.67A3.34,3.34,0,0,0,3.33,27H23.67A3.34,3.34,0,0,0,27,23.67V3.33A3.34,3.34,0,0,0,23.67,0ZM24,23.67a.33.33,0,0,1-.33.33H3.33A.33.33,0,0,1,3,23.67V3.33A.33.33,0,0,1,3.33,3H23.67a.33.33,0,0,1,.33.33Z"/><path d="M6.56,17.78a.46.46,0,0,0-.77.24l-.42,2.34a.46.46,0,0,0,.53.53l2.35-.42a.45.45,0,0,0,.24-.77Z"/><rect x="6.29" y="11.46" width="13.15" height="3.87" rx="0.48" transform="translate(-5.7 13.02) rotate(-45)"/><path d="M19.54,5.94a1.38,1.38,0,0,0-1.95,0l-.19.19a.59.59,0,0,0,0,.83l1.9,1.9a.6.6,0,0,0,.84,0l.19-.19a1.39,1.39,0,0,0,0-1.95Z"/></g></svg>