<svg xmlns="http://www.w3.org/2000/svg" viewBox="0 0 30 30"><path d="M23.132 12.659a1.5 1.5 0 0 0-2.122 0l-4.527 4.528v-14.457a1.48 1.48 0 0 0-2.96 0v14.463l-4.533-4.534a1.5 1.5 0 0 0-2.122 2.122l7.071 7.071a1.5 1.5 0 0 0 2.122 0l7.071-7.071a1.5 1.5 0 0 0 0-2.122zM26.419 28.75h-22.838a3.08 3.08 0 0 1-3.081-3.081v-5.959a1.46 1.46 0 0 1 1.46-1.46h.08a1.46 1.46 0 0 1 1.46 1.46v5.959a.081.081 0 0 0 .081.081h22.838a.081.081 0 0 0 .081-.081v-5.943a1.476 1.476 0 0 1 1.476-1.476h.048a1.476 1.476 0 0 1 1.476 1.476v5.943a3.08 3.08 0 0 1-3.081 3.081z"/><title></title></svg>
