<svg xmlns="http://www.w3.org/2000/svg"><symbol id="sprite-icon_add-column" viewBox="0 0 30 30"><title>icon_add-column</title><path d="M28.35 22.35h-3.7v-3.7a1.15 1.15 0 00-2.3 0v3.7h-3.7a1.15 1.15 0 000 2.3h3.7v3.7a1.15 1.15 0 002.3 0v-3.7h3.7a1.15 1.15 0 000-2.3z"/><path d="M16.5 26.5h-1v-20h11v10a1 1 0 002 0V3.77A3.28 3.28 0 0025.23.5H3.77A3.28 3.28 0 00.5 3.77v21.46a3.28 3.28 0 003.27 3.27H16.5a1 1 0 000-2zm-3 0H3.77a1.27 1.27 0 01-1.27-1.27V6.5h11z"/></symbol><symbol id="sprite-icon_add" viewBox="0 0 30 30"><path d="M14.5.5a14 14 0 1014 14 14 14 0 00-14-14zm7.6 15.9h-5.7v5.7a1.9 1.9 0 11-3.8 0v-5.7H6.9a1.9 1.9 0 110-3.8h5.7V6.9a1.9 1.9 0 113.8 0v5.7h5.7a1.9 1.9 0 010 3.8z"/><title/></symbol><symbol id="sprite-icon_arrow-down-sq" viewBox="0 0 30 30"><path d="M24.155 9.246a1.042 1.042 0 00-1.618 0l-7.069 8.165a.6.6 0 01-.936 0l-7.069-8.16a1.042 1.042 0 00-1.618 0 1.456 1.456 0 000 1.859l8.348 9.644a1.042 1.042 0 001.622 0l8.348-9.644a1.456 1.456 0 00-.008-1.864z"/><title/></symbol><symbol id="sprite-icon_arrow-down" viewBox="0 0 30 30"><path d="M3 8.436a1.5 1.5 0 012.121.006l9.265 9.314a.865.865 0 001.228 0l9.265-9.314A1.5 1.5 0 0127 8.436a1.5 1.5 0 01.006 2.121l-10.943 11a1.5 1.5 0 01-2.126 0l-10.943-11A1.5 1.5 0 013 8.436z"/><title/></symbol><symbol id="sprite-icon_arrow-left" viewBox="0 0 30 30"><path d="M21.564 27a1.5 1.5 0 00-.006-2.121l-9.314-9.265a.865.865 0 010-1.228l9.314-9.265A1.5 1.5 0 0021.564 3a1.5 1.5 0 00-2.121-.006l-11 10.943a1.5 1.5 0 000 2.126l11 10.943A1.5 1.5 0 0021.564 27z"/><title/></symbol><symbol id="sprite-icon_arrow-right" viewBox="0 0 30 30"><path d="M8.968 27a1.5 1.5 0 01.005-2.121l9.315-9.265a.867.867 0 000-1.228L8.973 5.121A1.5 1.5 0 018.968 3a1.5 1.5 0 012.121-.006l11 10.943a1.5 1.5 0 010 2.126l-11 10.943A1.5 1.5 0 018.968 27z"/><title/></symbol><symbol id="sprite-icon_arrow-top-sq" viewBox="0 0 30 30"><path d="M24.155 20.754a1.042 1.042 0 01-1.618-.005l-7.069-8.165a.6.6 0 00-.936 0l-7.069 8.165a1.042 1.042 0 01-1.618.005 1.456 1.456 0 010-1.859l8.348-9.644a1.042 1.042 0 011.622 0l8.344 9.649a1.456 1.456 0 01-.004 1.854z"/><title/></symbol><symbol id="sprite-icon_arrow-top" viewBox="0 0 30 30"><path d="M27 21.564a1.5 1.5 0 01-2.121-.006l-9.265-9.314a.865.865 0 00-1.228 0l-9.265 9.314A1.5 1.5 0 013 21.564a1.5 1.5 0 01-.006-2.121l10.943-11a1.5 1.5 0 012.126 0l10.943 11A1.5 1.5 0 0127 21.564z"/><title/></symbol><symbol id="sprite-icon_check" viewBox="0 0 30 30"><path d="M26 8a1.5 1.5 0 00-2.121 0L12.615 19.264a.869.869 0 01-1.23 0L6.121 14A1.5 1.5 0 004 16.121l6.939 6.94a1.5 1.5 0 002.122 0L26 10.121A1.5 1.5 0 0026 8z"/><title/></symbol><symbol id="sprite-icon_clone" viewBox="0 0 30 30"><path d="M26.791.75H9.322a3.2 3.2 0 00-3.209 3.177V5.75H3.177A3.18 3.18 0 000 8.927v17.146a3.18 3.18 0 003.177 3.177h17.5a3.2 3.2 0 003.209-3.177V24.25h2.9A3.2 3.2 0 0030 21.073V3.927A3.2 3.2 0 0026.791.75zM3.209 26.25A.2.2 0 013 26.073V8.927a.2.2 0 01.209-.177h17.364a.178.178 0 01.177.177v17.146a.178.178 0 01-.177.177zM27 21.073a.2.2 0 01-.209.177H23.75V8.927a3.18 3.18 0 00-3.177-3.177H9.113V3.927a.2.2 0 01.209-.177h17.469a.2.2 0 01.209.177zm-9.75-5.323h-3.5v-3.5a1.75 1.75 0 00-3.5 0v3.5h-3.5a1.75 1.75 0 000 3.5h3.5v3.5a1.75 1.75 0 003.5 0v-3.5h3.5a1.75 1.75 0 000-3.5z"/><title/></symbol><symbol id="sprite-icon_color_save-ok" viewBox="0 0 30 30"><title>icon_color_save-ok</title><path d="M.596 15.043a2.82 2.82 0 014.447-3.467l6.153 7.893L25.108 4.383a2.82 2.82 0 014.145 3.823l-16.056 17.41a2.82 2.82 0 01-3.984.162" fill="#092a3a"/></symbol><symbol id="sprite-icon_column" viewBox="0 0 30 30"><path d="M25.726 1H4.274A3.278 3.278 0 001 4.274v21.452A3.278 3.278 0 004.274 29h21.452A3.278 3.278 0 0029 25.726V4.274A3.278 3.278 0 0025.726 1zM3 25.726V7h11v20H4.274A1.275 1.275 0 013 25.726zM25.726 27H16V7h11v18.726A1.275 1.275 0 0125.726 27z"/><title/></symbol><symbol id="sprite-icon_copy" viewBox="0 0 30 30"><path d="M26.791.75H9.322a3.2 3.2 0 00-3.209 3.177V5.75H3.177A3.18 3.18 0 000 8.927v17.146a3.18 3.18 0 003.177 3.177h17.5a3.2 3.2 0 003.209-3.177V24.25h2.9A3.2 3.2 0 0030 21.073V3.927A3.2 3.2 0 0026.791.75zM3.209 26.25A.2.2 0 013 26.073V8.927a.2.2 0 01.209-.177h17.364a.178.178 0 01.177.177v17.146a.178.178 0 01-.177.177zM27 21.073a.2.2 0 01-.209.177H23.75V8.927a3.18 3.18 0 00-3.177-3.177H9.113V3.927a.2.2 0 01.209-.177h17.469a.2.2 0 01.209.177z"/><title/></symbol><symbol id="sprite-icon_cross" viewBox="0 0 30 30"><path d="M17.715 15L28.438 4.277a1.921 1.921 0 000-2.715 1.921 1.921 0 00-2.715 0L15 12.285 4.277 1.562a1.92 1.92 0 00-2.715 2.715L12.285 15 1.562 25.723a1.92 1.92 0 102.715 2.715L15 17.715l10.723 10.723a1.92 1.92 0 102.715-2.715z"/><title/></symbol><symbol id="sprite-icon_date-time" viewBox="0 0 30 30"><circle cx="7.5" cy="12.5" r="1.5"/><circle cx="12.5" cy="12.5" r="1.5"/><circle cx="17.5" cy="12.5" r="1.5"/><circle cx="22.5" cy="12.5" r="1.5"/><circle cx="7.5" cy="17.5" r="1.5"/><circle cx="12.5" cy="17.5" r="1.5"/><circle cx="7.5" cy="22.5" r="1.5"/><circle cx="12.5" cy="22.5" r="1.5"/><path d="M22.25 15.5A6.75 6.75 0 1029 22.25a6.758 6.758 0 00-6.75-6.75zm0 11.5A4.75 4.75 0 1127 22.25 4.756 4.756 0 0122.25 27zm2-5.5H23v-2.75a.75.75 0 00-1.5 0v3.79a.46.46 0 00.46.46h2.29a.75.75 0 000-1.5zm2.734-17.1H25V3a1 1 0 00-2 0v1.4h-4V3a1 1 0 00-2 0v1.4h-4V3a1 1 0 00-2 0v1.4H7V3a1 1 0 00-2 0v1.4H3.855a2.436 2.436 0 00-2.436 2.431V26.46a2.436 2.436 0 002.436 2.44h10.564a1 1 0 000-2H3.855a.436.436 0 01-.436-.436V6.831a.436.436 0 01.436-.431H5V8a1 1 0 002 0V6.4h4V8a1 1 0 002 0V6.4h4V8a1 1 0 002 0V6.4h4V8a1 1 0 002 0V6.4h1.984a.435.435 0 01.435.435v8.915a1 1 0 002 0V6.831A2.435 2.435 0 0026.984 4.4z"/><title/></symbol><symbol id="sprite-icon_date" viewBox="0 0 30 30"><path d="M23.879 5.1H21.82V3.956a1.178 1.178 0 10-2.355 0V5.1h-3.2V3.956a1.178 1.178 0 10-2.355 0V5.1h-3.2V3.956a1.178 1.178 0 10-2.355 0V5.1H6.121a2.689 2.689 0 00-2.686 2.681v17.005a2.689 2.689 0 002.686 2.686h17.758a2.689 2.689 0 002.686-2.686V7.781A2.689 2.689 0 0023.879 5.1zm.186 19.69a.186.186 0 01-.186.186H6.121a.186.186 0 01-.186-.186V7.781a.185.185 0 01.186-.181h2.235v1.14a1.178 1.178 0 002.355 0V7.6h3.2v1.14a1.178 1.178 0 002.355 0V7.6h3.2v1.14a1.178 1.178 0 002.355 0V7.6h2.059a.185.185 0 01.186.185zM9.534 11.325a1.529 1.529 0 101.566 1.528 1.546 1.546 0 00-1.566-1.528zm5.554 0a1.529 1.529 0 101.563 1.528 1.546 1.546 0 00-1.563-1.528zm5.554 0a1.529 1.529 0 101.563 1.528 1.545 1.545 0 00-1.563-1.528zM9.534 15.637a1.529 1.529 0 101.566 1.529 1.546 1.546 0 00-1.566-1.529zm5.554 0a1.529 1.529 0 101.563 1.529 1.546 1.546 0 00-1.563-1.529zm5.554 0a1.529 1.529 0 101.563 1.529 1.545 1.545 0 00-1.563-1.529zM9.534 19.949a1.529 1.529 0 101.566 1.529 1.547 1.547 0 00-1.566-1.529zm5.554 0a1.529 1.529 0 101.563 1.529 1.547 1.547 0 00-1.563-1.529zm5.554 0a1.529 1.529 0 101.563 1.529 1.546 1.546 0 00-1.563-1.529z"/><title/></symbol><symbol id="sprite-icon_delete" viewBox="0 0 30 30"><path d="M15 1a14 14 0 1014 14A14 14 0 0015 1zm7 16H8a2.278 2.278 0 01-2-2 2.278 2.278 0 012-2h14a2.278 2.278 0 012 2 2.278 2.278 0 01-2 2z"/><title/></symbol><symbol id="sprite-icon_download" viewBox="0 0 30 30"><path d="M23.132 12.659a1.5 1.5 0 00-2.122 0l-4.527 4.528V2.73a1.48 1.48 0 00-2.96 0v14.463L8.99 12.659a1.5 1.5 0 00-2.122 2.122l7.071 7.071a1.5 1.5 0 002.122 0l7.071-7.071a1.5 1.5 0 000-2.122zm3.287 16.091H3.581A3.08 3.08 0 01.5 25.669V19.71a1.46 1.46 0 011.46-1.46h.08a1.46 1.46 0 011.46 1.46v5.959a.081.081 0 00.081.081h22.838a.081.081 0 00.081-.081v-5.943a1.476 1.476 0 011.476-1.476h.048a1.476 1.476 0 011.476 1.476v5.943a3.08 3.08 0 01-3.081 3.081z"/><title/></symbol><symbol id="sprite-icon_edit" viewBox="0 0 30 30"><path d="M21.573 29H4.177A3.178 3.178 0 011 25.823V8.677A3.178 3.178 0 014.177 5.5h7.2a1.5 1.5 0 011.5 1.5 1.5 1.5 0 01-1.5 1.5h-7.2A.178.178 0 004 8.677v17.146a.178.178 0 00.177.177h17.4a.178.178 0 00.178-.178V18.75a1.5 1.5 0 011.5-1.5 1.5 1.5 0 011.5 1.5v7.073A3.178 3.178 0 0121.573 29zM8.181 21.283L8.8 17.81a.454.454 0 01.768-.241l2.853 2.853a.453.453 0 01-.242.767l-3.472.621a.454.454 0 01-.526-.527z"/><rect x="15.405" y="3.585" width="5" height="17" rx=".48" transform="rotate(45 17.905 12.086)"/><path d="M26.247 2.165l1.585 1.584a1.379 1.379 0 01-.003 1.948l-.65.65a.589.589 0 01-.833 0L23.64 3.64a.589.589 0 010-.833l.65-.65a1.379 1.379 0 011.957.008zM0 30L30 0"/><title/></symbol><symbol id="sprite-icon_el-bac-15" viewBox="0 0 30 30"><circle cx="15" cy="15" r="14" fill="#092a3a" opacity=".15"/><title/></symbol><symbol id="sprite-icon_el-bac-25" viewBox="0 0 30 30"><circle cx="15" cy="15" r="14" fill="#092a3a" opacity=".25"/><title/></symbol><symbol id="sprite-icon_element" viewBox="0 0 30 30"><title>icon_element</title><path d="M26 0H4a4 4 0 00-4 4v22a4 4 0 004 4h22a4 4 0 004-4V4a4 4 0 00-4-4zm1 26a1 1 0 01-1 1H4a1 1 0 01-1-1V4a1 1 0 011-1h22a1 1 0 011 1z"/><path d="M6.5 9.5h17a1.5 1.5 0 000-3h-17a1.5 1.5 0 000 3zm17 4h-17a1.5 1.5 0 000 3h17a1.5 1.5 0 000-3zm0 7h-17a1.5 1.5 0 000 3h17a1.5 1.5 0 000-3z"/></symbol><symbol id="sprite-icon_enter" viewBox="0 0 30 30"><path d="M21.331 16.061a1.5 1.5 0 000-2.122L14.26 6.868a1.5 1.5 0 00-2.121 2.122l4.527 4.527H2.209a1.48 1.48 0 000 2.96h14.464l-4.534 4.533a1.5 1.5 0 002.121 2.122l7.071-7.071zM26.19.5h-5.944a1.475 1.475 0 00-1.475 1.476v.048A1.475 1.475 0 0020.246 3.5h5.944a.081.081 0 01.081.081v22.838a.081.081 0 01-.081.081h-5.96a1.46 1.46 0 00-1.459 1.46v.08a1.46 1.46 0 001.459 1.46h5.96a3.081 3.081 0 003.081-3.081V3.581A3.081 3.081 0 0026.19.5z"/><title/></symbol><symbol id="sprite-icon_equal" viewBox="0 0 30 30"><path d="M26.3 7.531a1.883 1.883 0 001.88-1.882V1.883A1.883 1.883 0 0026.3 0H3.7a1.883 1.883 0 00-1.88 1.883 1.862 1.862 0 00.139.7v.011a1.887 1.887 0 00.411.62L14.157 15 2.387 26.77v.006A1.882 1.882 0 003.7 30h22.6a1.883 1.883 0 001.883-1.883v-3.766a1.883 1.883 0 00-3.766 0v1.883H8.249l9.9-9.9a1.881 1.881 0 000-2.662l-.008-.006v-.008L8.249 3.766h16.165v1.883A1.883 1.883 0 0026.3 7.531z"/><title/></symbol><symbol id="sprite-icon_external-link" viewBox="0 0 30 30"><path d="M21.573 29H4.177A3.178 3.178 0 011 25.823V8.677A3.178 3.178 0 014.177 5.5h7.2a1.5 1.5 0 011.5 1.5 1.5 1.5 0 01-1.5 1.5h-7.2A.178.178 0 004 8.677v17.146a.178.178 0 00.177.177h17.4a.178.178 0 00.177-.177V18.75a1.5 1.5 0 011.5-1.5 1.5 1.5 0 011.5 1.5v7.073A3.178 3.178 0 0121.573 29zM26.5 2h-10a1.5 1.5 0 000 3h6.412L10.5 17.41a1.48 1.48 0 002.1 2.09L25 7.1v6.4a1.5 1.5 0 003 0v-10A1.5 1.5 0 0026.5 2z"/><title/></symbol><symbol id="sprite-icon_file-not-ready" viewBox="0 0 30 30"><title>icon_file-not-ready</title><path d="M23.26 15.25a5 5 0 00-.13-.74l-.05-.15a1.42 1.42 0 00-1.73-.88 1.39 1.39 0 00-1 1.64s.1.92.1 1.07a5.43 5.43 0 01-9.82 3.2 5.52 5.52 0 01-.76-5 5.31 5.31 0 013.84-3.47 1.44 1.44 0 00.09 1.87 1.41 1.41 0 001 .44 1.44 1.44 0 001-.39l2.2-2.09a1.59 1.59 0 00.17-2.06l-2-2.62a1.44 1.44 0 00-2.3 1.73l.11.14a8.39 8.39 0 00-5.43 3 8.19 8.19 0 00-1.78 6.75A8.42 8.42 0 0015 24.5h.15a8.37 8.37 0 008.15-8.35 6.94 6.94 0 00-.04-.9z"/><path d="M21.35 0H5.22A3 3 0 002.9.84a3.11 3.11 0 00-.85 2L2 26.6a3.63 3.63 0 00.71 2.68A3.17 3.17 0 005 30h19.81A3.32 3.32 0 0028 26.52V7.85zM25 8.91v17.61a.67.67 0 01-.19.51H5.24S5 26.85 5 26.52v-23A.68.68 0 015.21 3h14.73z"/></symbol><symbol id="sprite-icon_file-ready" viewBox="0 0 30 30"><title>icon_file-ready</title><path d="M23.62 0H7.71C6 0 5 1 5 3v7H0v15h5v2c0 2 .25 3 2.71 3h19.6A2.88 2.88 0 0030 27V7.79zM3.72 22.29H2.17v-9.58h5v1.35H3.72v2.88h3.21v1.34H3.72zM28 26.92c0 .61-.36 1-.69 1H7.71c-.32 0-.68-.43-.68-1V25H26V10H7V3v.12c0-.61.36-1 .68-1h15L28 8.51zM8.85 22.29v-9.58h1.6v9.58zm9-1.35v1.35h-5.11v-9.58h1.55v8.23zM24 16.77v1.34h-3.21v2.83h3.69v1.35h-5.23v-9.58h5v1.35h-3.46v2.71z"/></symbol><symbol id="sprite-icon_file-update" viewBox="0 0 30 30"><title>icon_file-update</title><path d="M27.88 15.09a8.22 8.22 0 00-.67-.73 7.06 7.06 0 00-.62-.52l-.15-.1a1.57 1.57 0 00-2.07.48 1.51 1.51 0 00.29 2.09s.73.71.84.83a5.94 5.94 0 01-6 9.57 6 6 0 01-4.13-3.65 5.82 5.82 0 01.79-5.6A1.57 1.57 0 0017.54 19a1.55 1.55 0 001.15-.33 1.63 1.63 0 00.59-1.05l.46-4a.9.9 0 00-.67-1l-4.19-1a1.57 1.57 0 10-.72 3.06h.19A9.14 9.14 0 0011.9 21a8.94 8.94 0 003.24 6.91 9.22 9.22 0 0011.64 0l.12-.11a9.15 9.15 0 00.98-12.71z"/><path d="M9.6 23.89H3.76a.51.51 0 01-.18-.45V3.05a.59.59 0 01.16-.45h13l4.48 5.25v2.82a1.33 1.33 0 102.65 0V6.92L18 0H3.75a2.68 2.68 0 00-2.06.72 2.71 2.71 0 00-.75 1.79v21a3.19 3.19 0 00.63 2.37 2.75 2.75 0 002 .61h6a1.3 1.3 0 100-2.6z"/></symbol><symbol id="sprite-icon_file-upload" viewBox="0 0 30 30"><title>icon_file-upload</title><path d="M13.89 7.59l-5.12 4.95a1.51 1.51 0 00-.47 1.09 1.56 1.56 0 00.47 1.11 1.63 1.63 0 002.23 0l2.43-2.35v8.93a1.57 1.57 0 003.14 0v-8.93L19 14.74a1.63 1.63 0 002.23 0 1.56 1.56 0 00.47-1.11 1.51 1.51 0 00-.47-1.09l-5.12-4.95a1.61 1.61 0 00-2.22 0z"/><path d="M21.35 0H5.22A3 3 0 002.9.84a3.11 3.11 0 00-.85 2L2 26.6a3.63 3.63 0 00.71 2.68A3.17 3.17 0 005 30h19.81A3.32 3.32 0 0028 26.52V7.85zM25 8.91v17.61a.67.67 0 01-.19.51H5.24S5 26.85 5 26.52v-23A.68.68 0 015.21 3h14.73z"/></symbol><symbol id="sprite-icon_filter" viewBox="0 0 30 30"><path d="M13.06 29.188a2.02 2.02 0 01-1.12-.333 2.126 2.126 0 01-.94-1.826v-9.272a2.015 2.015 0 00-.281-.835L1.4 4.681a1.994 1.994 0 01-.281-2.119A2 2 0 012.971 1.5h24.058a2.014 2.014 0 011.854 1.047 2.013 2.013 0 01-.229 2.116L19.911 16.87a2.193 2.193 0 00-.285.887v6.822a3.1 3.1 0 01-1.791 2.734l-3.846 1.675a2.321 2.321 0 01-.929.2zM5.028 4.5l8.077 10.6A4.871 4.871 0 0114 17.757v7.954l2.637-1.149-.011-6.8a5.058 5.058 0 01.846-2.634L25.081 4.5z"/><title/></symbol><symbol id="sprite-icon_folder" viewBox="0 0 30 30"><path d="M25.726 4.5h-9.545a12.954 12.954 0 01-1.448-1.442C13.5 1.705 12.814 1 12 1H3.5A2.5 2.5 0 001 3.5v22.226A3.278 3.278 0 004.274 29h21.452A3.278 3.278 0 0029 25.726V7.774A3.278 3.278 0 0025.726 4.5zM3.5 3h8.352a13.424 13.424 0 011.406 1.407C14.479 5.744 15.212 6.5 16.04 6.5h9.686A1.275 1.275 0 0127 7.774v2.9A5.222 5.222 0 0023.726 9.5H6.274A5.222 5.222 0 003 10.672V3.5a.5.5 0 01.5-.5zM27 25.726A1.275 1.275 0 0125.726 27H4.274A1.275 1.275 0 013 25.726V14.774A3.278 3.278 0 016.274 11.5h17.452A3.278 3.278 0 0127 14.774z"/><title/></symbol><symbol id="sprite-icon_hint-i" viewBox="0 0 30 30"><path d="M13.61 6.988a1.406 1.406 0 01.348-.965 1.32 1.32 0 011.036-.392 1.337 1.337 0 011.041.392 1.388 1.388 0 01.355.965 1.341 1.341 0 01-.355.953 1.357 1.357 0 01-1.041.381 1.339 1.339 0 01-1.036-.381 1.358 1.358 0 01-.348-.953zm2.539 17.381H13.8V10.633h2.349z"/><title/></symbol><symbol id="sprite-icon_hint" viewBox="0 0 30 30"><path d="M14.4 21.148a2.281 2.281 0 01-2.263-2.648 7.714 7.714 0 01.46-1.633 11.187 11.187 0 012.63-3.5 20.3 20.3 0 002.491-2.714A4.754 4.754 0 0018.524 8a4.06 4.06 0 00-.938-2.887 3.6 3.6 0 00-2.751-1 3.952 3.952 0 00-2.794.974 3.1 3.1 0 00-.78 1.115A2.427 2.427 0 019.025 7.73a2.416 2.416 0 01-2.232-3.381 6.754 6.754 0 011.72-2.271A9.289 9.289 0 0114.835 0a9.067 9.067 0 016.319 2.056 7.381 7.381 0 012.269 5.754q0 3.29-3.064 6.477l-2.48 2.441a5.478 5.478 0 00-1.2 2.638 2.289 2.289 0 01-2.279 1.782zm-2.81 6.262a2.572 2.572 0 01.746-1.92 2.755 2.755 0 012.016-.732 2.736 2.736 0 012.036.754 2.587 2.587 0 01.746 1.9 2.535 2.535 0 01-.726 1.846 2.741 2.741 0 01-2.057.742 2.709 2.709 0 01-2.047-.744 2.555 2.555 0 01-.715-1.846z"/><title/></symbol><symbol id="sprite-icon_html" viewBox="0 0 30 30"><path d="M23.587.071H7.682A2.885 2.885 0 005 3.117V10H0v15h5v1.954A2.884 2.884 0 007.682 30h19.6a2.884 2.884 0 002.682-3.046V7.826zM2 18.544V16.9l7.151-3.178V15.8L4.11 17.743l5.041 1.914v2.075zm25.964 8.41c0 .616-.359 1.046-.682 1.046h-19.6C7.359 28 7 27.57 7 26.954V25h19V10H7V3.117c0-.616.359-1.046.682-1.046h14.961l5.321 6.472zM9.5 24.2l4.9-13.508h1.632L11.129 24.2zm7.121-8.441v-2.041L24 16.9v1.648l-7.381 3.178v-2.045L21.9 17.7z"/><title/></symbol><symbol id="sprite-icon_image-update" viewBox="0 0 30 30"><title>icon_image-update</title><path d="M28.32 21.27c-.08-.09-.21-.25-.39-.43-.18-.17-.35-.29-.37-.31l-.09-.05a.91.91 0 00-1.21.28.89.89 0 00.17 1.24s.43.41.49.48a3.48 3.48 0 01-.43 4.9A3.49 3.49 0 0121 25.94a3.38 3.38 0 01.46-3.28.9.9 0 00.81.87.91.91 0 001-.81l.27-2.36a.53.53 0 00-.39-.56l-2.46-.58a.92.92 0 00-.42 1.8h.11A5.35 5.35 0 0019 24.75a5.26 5.26 0 001.89 4 5.39 5.39 0 006.82 0l.07-.06a5.35 5.35 0 00.54-7.42z"/><path d="M9.84 11.88l5.44 7.77a1.32 1.32 0 002.4-.76 1.26 1.26 0 00-.24-.75l-.51-.73 3.89-3.88 3.35 3.35v1.37a1.32 1.32 0 002.64 0V3.6A3.61 3.61 0 0023.2 0H4A3.6 3.6 0 00.44 3.6v19.16A3.6 3.6 0 004 26.36h12.36a1.32 1.32 0 100-2.63H4a1 1 0 01-1-1v-1.4zM3.08 3.6a1 1 0 011-1H23.2a1 1 0 011 1v9.55l-2.39-2.39a1.31 1.31 0 00-.94-.38 1.35 1.35 0 00-.93.38l-4.54 4.46-4.47-6.38a1.39 1.39 0 00-1.06-.56 1.35 1.35 0 00-1.09.55l-5.7 8z"/><path d="M16.68 8.79a2.2 2.2 0 10-2.19-2.2 2.2 2.2 0 002.19 2.2z"/></symbol><symbol id="sprite-icon_image" viewBox="0 0 30 30"><path d="M25.9 0H4.1A4.1 4.1 0 000 4.1v21.8A4.1 4.1 0 004.1 30h21.8a4.1 4.1 0 004.1-4.1V4.1A4.1 4.1 0 0025.9 0zM9.484 10.048L3 19.141V4.1A1.1 1.1 0 014.1 3h21.8A1.1 1.1 0 0127 4.1v10.866l-2.724-2.725c-.011-.012-.015-.027-.026-.038a1.519 1.519 0 00-2.134 0c-.01.011-.013.025-.023.035l-5.077 5.077-5.082-7.259a1.5 1.5 0 00-2.45-.008zM3 25.9v-1.592l7.7-10.791L20.135 27H4.1A1.1 1.1 0 013 25.9zM25.9 27h-2.139a1.54 1.54 0 00-.146-.262l-4.851-6.928 4.419-4.419L27 19.208V25.9a1.1 1.1 0 01-1.1 1.1z"/><circle cx="18.5" cy="7.5" r="2.5"/><title/></symbol><symbol id="sprite-icon_long-arrow" viewBox="0 0 30 30"><path d="M26.954 14.436a1.489 1.489 0 00-.33-.5l-7.071-7.068a1.5 1.5 0 00-2.121 2.122l4.527 4.527H4.416a1.48 1.48 0 000 2.96h17.55l-4.534 4.533a1.5 1.5 0 002.121 2.122l7.071-7.071a1.5 1.5 0 00.33-1.625z"/><title/></symbol><symbol id="sprite-icon_minus-cl" viewBox="0 0 30 30"><title>icon_minus-cl</title><path d="M25.5 12.5h-21a2.5 2.5 0 000 5h21a2.5 2.5 0 000-5z" data-name="Слой 44"/></symbol><symbol id="sprite-icon_minus" viewBox="0 0 30 30"><path d="M27.376 0H2.624A2.624 2.624 0 000 2.624v24.752A2.624 2.624 0 002.624 30h24.752A2.624 2.624 0 0030 27.376V2.624A2.624 2.624 0 0027.376 0zm-5.453 16.731H8.077a1.731 1.731 0 110-3.462h13.846a1.731 1.731 0 110 3.462z"/><title/></symbol><symbol id="sprite-icon_more_sq" viewBox="0 0 30 30"><path d="M10.5 13.5h-6a3 3 0 01-3-3v-6a3 3 0 013-3h6a3 3 0 013 3v6a3 3 0 01-3 3zm-6-10a1 1 0 00-1 1v6a1 1 0 001 1h6a1 1 0 001-1v-6a1 1 0 00-1-1zm21 10h-6a3 3 0 01-3-3v-6a3 3 0 013-3h6a3 3 0 013 3v6a3 3 0 01-3 3zm-6-10a1 1 0 00-1 1v6a1 1 0 001 1h6a1 1 0 001-1v-6a1 1 0 00-1-1zm-9 25h-6a3 3 0 01-3-3v-6a3 3 0 013-3h6a3 3 0 013 3v6a3 3 0 01-3 3zm-6-10a1 1 0 00-1 1v6a1 1 0 001 1h6a1 1 0 001-1v-6a1 1 0 00-1-1zm21 10h-6a3 3 0 01-3-3v-6a3 3 0 013-3h6a3 3 0 013 3v6a3 3 0 01-3 3zm-6-10a1 1 0 00-1 1v6a1 1 0 001 1h6a1 1 0 001-1v-6a1 1 0 00-1-1z"/><title/></symbol><symbol id="sprite-icon_more" viewBox="0 0 30 30"><circle cx="15" cy="5" r="3"/><circle cx="15" cy="15" r="3"/><circle cx="15" cy="25" r="3"/><title/></symbol><symbol id="sprite-icon_new-user" viewBox="0 0 30 30"><path d="M14.434 15a7.5 7.5 0 10-7.5-7.5 7.509 7.509 0 007.5 7.5zm0-12.857A5.357 5.357 0 119.077 7.5a5.364 5.364 0 015.357-5.357zm3.022 16.581a1.082 1.082 0 00-.861-1.338 14.964 14.964 0 00-2.7-.243c-6.927 0-12.642 4.651-13.325 10.59a1.078 1.078 0 001.071 1.2 1.053 1.053 0 001.059-.925c.542-4.887 5.358-8.722 11.2-8.722a12.887 12.887 0 012.352.215 1.057 1.057 0 001.204-.777z"/><path d="M27.827 20.893h-4.286v-4.286a1.607 1.607 0 00-3.214 0v4.286h-4.286a1.607 1.607 0 000 3.214h4.286v4.286a1.607 1.607 0 003.214 0v-4.286h4.286a1.607 1.607 0 000-3.214z"/><title/></symbol><symbol id="sprite-icon_notification" viewBox="0 0 30 30"><path d="M23.242 17.737a.851.851 0 01-.689-.282 4.854 4.854 0 01-.559-3.1L22 10.25a7.01 7.01 0 00-5.029-6.713A1.938 1.938 0 0017 3.25a2 2 0 00-4 0 1.938 1.938 0 00.029.287A7.01 7.01 0 008 10.25v4l.006.11a4.922 4.922 0 01-.567 3.063.937.937 0 01-.743.326 3.251 3.251 0 00.055 6.5h16.561a3.193 3.193 0 003.188-3.187 3.336 3.336 0 00-3.258-3.325zm.07 4.513H6.751a1.251 1.251 0 010-2.5 2.936 2.936 0 002.2-1.011C10.227 17.27 10.049 14.7 10 14.2v-3.95a5 5 0 0110 0v3.95c-.051.513-.235 3.14 1.062 4.589a2.837 2.837 0 002.18.95 1.327 1.327 0 011.258 1.323 1.189 1.189 0 01-1.188 1.188zM15 29a4.007 4.007 0 01-3.8-2.738.978.978 0 01.949-1.262.987.987 0 01.953.631 2 2 0 003.8 0 .987.987 0 01.949-.631.978.978 0 01.945 1.262A4.006 4.006 0 0115 29z"/><title/></symbol><symbol id="sprite-icon_out" viewBox="0 0 30 30"><path d="M28.661 14.436a1.5 1.5 0 00-.33-.5L21.26 6.868a1.5 1.5 0 00-2.121 2.122l4.527 4.527H9.209a1.48 1.48 0 000 2.96h14.464l-4.534 4.533a1.5 1.5 0 002.121 2.122l7.071-7.071a1.5 1.5 0 00.33-1.625zM9.811 26.5h-5.96a.08.08 0 01-.08-.081V3.581a.08.08 0 01.08-.081H9.8a1.476 1.476 0 001.476-1.476v-.048A1.476 1.476 0 009.8.5H3.851a3.08 3.08 0 00-3.08 3.081v22.838a3.08 3.08 0 003.08 3.081h5.96a1.46 1.46 0 001.46-1.46v-.08a1.46 1.46 0 00-1.46-1.46z"/><title/></symbol><symbol id="sprite-icon_paste" viewBox="0 0 30 30"><path d="M3.209.75h17.469a3.2 3.2 0 013.209 3.177V5.75h2.936A3.18 3.18 0 0130 8.927v17.146a3.18 3.18 0 01-3.177 3.177H9.322a3.2 3.2 0 01-3.209-3.177V24.25h-2.9A3.2 3.2 0 010 21.073V3.927A3.2 3.2 0 013.209.75zm23.582 25.5a.2.2 0 00.209-.177V8.927a.2.2 0 00-.209-.177H9.427a.178.178 0 00-.177.177v17.146a.178.178 0 00.177.177zM3 21.073a.2.2 0 00.209.177H6.25V8.927A3.18 3.18 0 019.427 5.75h11.46V3.927a.2.2 0 00-.209-.177H3.209A.2.2 0 003 3.927z" fill="#092a3a"/><rect x="11.5" y="10.823" width="13" height="3" rx="1.5" transform="rotate(-180 18 12.322)"/><rect x="11.5" y="15.823" width="13" height="3" rx="1.5" transform="rotate(180 18 17.323)" fill="#092a3a"/><rect x="11.5" y="20.823" width="13" height="3" rx="1.5" transform="rotate(180 18 22.323)"/><title/></symbol><symbol id="sprite-icon_pdf" viewBox="0 0 30 30"><path d="M15.319 17.263a3.518 3.518 0 00-.673-2.321 2.4 2.4 0 00-1.953-.8h-1.157v6.733h1.079a2.509 2.509 0 002-.8 3.436 3.436 0 00.708-2.293zM5.685 14.14H3.653v3.26h1.986a1.983 1.983 0 001.346-.407 1.481 1.481 0 00.464-1.176 1.607 1.607 0 00-.47-1.21 1.842 1.842 0 00-1.294-.467zM23.605.036H7.7a2.884 2.884 0 00-2.682 3.046v6.882H0v15h5.018v1.954A2.884 2.884 0 007.7 29.964h19.6a2.884 2.884 0 002.682-3.046V7.791zM5.62 18.7H3.653v3.463H2v-9.331h3.639a3.723 3.723 0 012.532.816 2.716 2.716 0 01.938 2.157 2.625 2.625 0 01-.918 2.136 3.911 3.911 0 01-2.571.759zm22.362 8.213c0 .616-.359 1.046-.682 1.046H7.7c-.323 0-.682-.43-.682-1.046v-1.949H26v-15H7.018V3.082c0-.616.359-1.046.682-1.046h14.961l5.321 6.472zm-18.1-4.75v-9.331h2.81a4.471 4.471 0 012.238.551 3.79 3.79 0 011.512 1.565 4.882 4.882 0 01.536 2.321v.468a4.871 4.871 0 01-.539 2.334 3.746 3.746 0 01-1.535 1.552 4.689 4.689 0 01-2.284.545zm13.555-5.251v1.295h-3.828v3.956h-1.653v-9.331H24v1.308h-4.391v2.777z"/><title/></symbol><symbol id="sprite-icon_plus-cl" viewBox="0 0 30 30"><path d="M25.5 12.5h-8v-8a2.5 2.5 0 00-5 0v8h-8a2.5 2.5 0 000 5h8v8a2.5 2.5 0 005 0v-8h8a2.5 2.5 0 000-5z"/><title/></symbol><symbol id="sprite-icon_plus" viewBox="0 0 30 30"><path d="M27.376 0H2.624A2.624 2.624 0 000 2.624v24.752A2.624 2.624 0 002.624 30h24.752A2.624 2.624 0 0030 27.376V2.624A2.624 2.624 0 0027.376 0zm-5.453 16.731h-5.192v5.192a1.731 1.731 0 01-3.462 0v-5.192H8.077a1.731 1.731 0 110-3.462h5.192V8.077a1.731 1.731 0 013.462 0v5.192h5.192a1.731 1.731 0 110 3.462z"/><title/></symbol><symbol id="sprite-icon_preview" viewBox="0 0 30 30"><title>icon_preview</title><path d="M20.83 0a8.66 8.66 0 00-8.71 8.59 8.41 8.41 0 001.37 4.61l-5.15 5.06a1.61 1.61 0 00-.47 1.14 1.59 1.59 0 00.47 1.13 1.63 1.63 0 002.29 0l5.08-5a8.78 8.78 0 005.12 1.65 8.66 8.66 0 008.72-8.59A8.66 8.66 0 0020.83 0zm5.48 8.59a5.48 5.48 0 01-10.95 0 5.48 5.48 0 0111 0z"/><path d="M24 18a1.5 1.5 0 00-1.5 1.5v5.81A1.7 1.7 0 0120.75 27H5.14a1.69 1.69 0 01-1.69-1.69V10.69A1.69 1.69 0 015.14 9h4.31a1.5 1.5 0 000-3H5.14a4.7 4.7 0 00-4.69 4.69v14.62A4.7 4.7 0 005.14 30h15.61a4.71 4.71 0 004.7-4.69V19.5A1.5 1.5 0 0024 18z"/></symbol><symbol id="sprite-icon_refresh" viewBox="0 0 30 30"><path d="M27.432 15.585a10.316 10.316 0 00-.176-1.039l-.067-.2a1.5 1.5 0 00-2.881.747l.021.107s.171 1.6.171 1.8A9.511 9.511 0 116 13.887 9.4 9.4 0 0115 7.5h.011l.131.007L13.684 8.9a1.5 1.5 0 002.066 2.17l3.533-3.358a1.733 1.733 0 00.188-2.234l-3.139-4.192a1.5 1.5 0 10-2.4 1.8l1.06 1.414A12.615 12.615 0 002.71 19.246 12.647 12.647 0 0015.234 29.5 12.53 12.53 0 0027.5 16.934a10.648 10.648 0 00-.068-1.349z"/><title/></symbol><symbol id="sprite-icon_save-ok" viewBox="0 0 30 30"><path d="M15 1a14 14 0 1014 14A14 14 0 0015 1zm8.914 9.269L13.428 21.587a1.153 1.153 0 01-1.718 0l-5.624-6.07a1.387 1.387 0 010-1.856 1.154 1.154 0 011.719 0l4.266 4.6a.668.668 0 001 0L22.2 8.413a1.154 1.154 0 011.719 0 1.387 1.387 0 01-.005 1.856z"/><title/></symbol><symbol id="sprite-icon_save" viewBox="0 0 30 30"><path d="M21.632 1H4.274A3.278 3.278 0 001 4.274v21.452A3.278 3.278 0 004.274 29h21.452A3.278 3.278 0 0029 25.726V8.368zM17.5 3v5.226A1.275 1.275 0 0116.226 9.5h-3.452A1.275 1.275 0 0111.5 8.226V3zM8 27v-6h14v6zm14-8H8v-.726A1.275 1.275 0 019.274 17h11.452A1.275 1.275 0 0122 18.274zm5 6.726A1.275 1.275 0 0125.726 27H24v-8.726A3.278 3.278 0 0020.726 15H9.274A3.278 3.278 0 006 18.274V27H4.274A1.275 1.275 0 013 25.726V4.274A1.275 1.275 0 014.274 3H9.5v5.226a3.278 3.278 0 003.274 3.274h3.452A3.278 3.278 0 0019.5 8.226V3h1.3L27 9.2z"/><title/></symbol><symbol id="sprite-icon_search" viewBox="0 0 30 30"><path d="M28.25 25.629l-7.282-7.282a10.987 10.987 0 10-2.049 2.193l7.21 7.21a1.5 1.5 0 102.121-2.121zM12 20a8 8 0 118-8 8.009 8.009 0 01-8 8z"/><title/></symbol><symbol id="sprite-icon_settings" viewBox="0 0 30 30"><path d="M16.146 29h-2.292a2.358 2.358 0 01-2.354-2.354v-1.228a10.774 10.774 0 01-1.393-.576l-.867.867a2.414 2.414 0 01-3.33 0L4.291 24.09a2.359 2.359 0 010-3.331l.866-.866a10.774 10.774 0 01-.575-1.393H3.354A2.358 2.358 0 011 16.146v-2.292A2.358 2.358 0 013.354 11.5h1.228a10.774 10.774 0 01.576-1.393l-.867-.867a2.359 2.359 0 010-3.33L5.91 4.291a2.414 2.414 0 013.331 0l.866.866a10.774 10.774 0 011.393-.575V3.354A2.358 2.358 0 0113.854 1h2.292A2.358 2.358 0 0118.5 3.354v1.228a10.774 10.774 0 011.393.576l.867-.867a2.413 2.413 0 013.33 0l1.619 1.619a2.359 2.359 0 010 3.331l-.866.866a10.774 10.774 0 01.576 1.393h1.228A2.358 2.358 0 0129 13.854v2.292a2.358 2.358 0 01-2.354 2.354h-1.228a10.774 10.774 0 01-.576 1.393l.867.867a2.359 2.359 0 010 3.33l-1.619 1.619a2.414 2.414 0 01-3.331 0l-.866-.866a10.774 10.774 0 01-1.393.576v1.228A2.358 2.358 0 0116.146 29zm-6.377-6.647l.668.393a8.885 8.885 0 002.312.957l.751.193v2.75a.359.359 0 00.354.354h2.292a.359.359 0 00.354-.354V23.9l.751-.193a8.885 8.885 0 002.312-.957l.668-.393 1.943 1.943a.3.3 0 00.5 0l1.626-1.624a.357.357 0 00.1-.251.351.351 0 00-.1-.25l-1.943-1.944.393-.668a8.885 8.885 0 00.957-2.312l.193-.751h2.75a.359.359 0 00.35-.354v-2.292a.359.359 0 00-.354-.354H23.9l-.193-.751a8.885 8.885 0 00-.957-2.312l-.393-.668L24.3 7.826a.352.352 0 00.1-.251.357.357 0 00-.1-.251l-1.624-1.619a.3.3 0 00-.5 0l-1.945 1.942-.668-.393a8.885 8.885 0 00-2.312-.954l-.751-.2V3.354A.359.359 0 0016.146 3h-2.292a.359.359 0 00-.354.354V6.1l-.751.193a8.885 8.885 0 00-2.312.957l-.668.393-1.943-1.938a.3.3 0 00-.5 0L5.705 7.324a.357.357 0 00-.1.251.351.351 0 00.1.25l1.942 1.944-.393.668a8.885 8.885 0 00-.954 2.312l-.2.751H3.354a.359.359 0 00-.354.354v2.292a.359.359 0 00.354.354H6.1l.193.751a8.885 8.885 0 00.957 2.312l.393.668-1.938 1.943a.352.352 0 00-.1.251.357.357 0 00.1.251L7.324 24.3a.3.3 0 00.5 0zM15 18.5a3.5 3.5 0 113.5-3.5 3.5 3.5 0 01-3.5 3.5zm0-5a1.5 1.5 0 101.5 1.5 1.5 1.5 0 00-1.5-1.5z"/><title/></symbol><symbol id="sprite-icon_sort-down" viewBox="0 0 30 30"><path d="M19.681 11.518h4.938V12.8h-6.881v-1.041l4.78-6.906H17.77V3.558h6.7v1.015zm3.663 11.129h-3.58l-.75 2.153h-1.669l3.491-9.242h1.441l3.5 9.242H24.1zm-3.13-1.294h2.679l-1.34-3.834zm-5.409-2.664a1.249 1.249 0 00-1.767 0l-2.156 2.156V4.816a1.25 1.25 0 00-2.5 0v16.018l-2.12-2.12a1.248 1.248 0 00-1.766 0l-.013.013a1.248 1.248 0 000 1.766l4.276 4.276a1.249 1.249 0 001.765 0l.013-.013a.893.893 0 00.06-.091l4.208-4.208a1.249 1.249 0 000-1.768z"/><title/></symbol><symbol id="sprite-icon_sort-up" viewBox="0 0 30 30"><path d="M23.344 10.647h-3.58l-.75 2.153h-1.669l3.491-9.242h1.441l3.5 9.242H24.1zm-3.13-1.294h2.679l-1.34-3.834zm-.533 14.165h4.938V24.8h-6.881v-1.041l4.78-6.906H17.77v-1.3h6.7v1.015zm-4.876-4.828a1.249 1.249 0 00-1.767 0l-2.156 2.155V4.816a1.25 1.25 0 00-2.5 0v16.019l-2.12-2.121a1.25 1.25 0 00-1.766 0l-.013.013a1.248 1.248 0 000 1.766l4.276 4.276a1.249 1.249 0 001.765 0l.013-.013a1 1 0 00.06-.09l4.208-4.209a1.248 1.248 0 000-1.767z"/><title/></symbol><symbol id="sprite-icon_sort" viewBox="0 0 24 24"><title>icon_sort</title><path d="M9 0c-.3 0-.5.1-.7.3l-8 8c-.2.2-.3.4-.3.7 0 .3.1.5.3.7l1.4 1.4c.2.2.5.3.7.3.3 0 .5-.1.7-.3l2-2c.3-.3.9-.1.9.4V23c0 .5.5 1 1 1h2c.5 0 1-.5 1-1V1c0-.3-.1-.5-.3-.7C9.5.1 9.3 0 9 0zm14.7 14.3l-1.4-1.4c-.2-.2-.5-.3-.7-.3-.3 0-.5.1-.7.3l-2 2c-.3.3-.9.1-.9-.4V1c0-.5-.5-1-1-1h-2c-.5 0-1 .5-1 1v22c0 .3.1.5.3.7s.5.3.7.3c.3 0 .5-.1.7-.3l8-8c.2-.2.3-.4.3-.7 0-.3-.1-.5-.3-.7z"/></symbol><symbol id="sprite-icon_sq-bac-15" viewBox="0 0 30 30"><rect width="30" height="30" rx="2.274" fill="#092a3a" opacity=".15"/><title/></symbol><symbol id="sprite-icon_sq-bac-25" viewBox="0 0 30 30"><rect width="30" height="30" rx="2.274" fill="#092a3a" opacity=".25"/><title/></symbol><symbol id="sprite-icon_table" viewBox="0 0 30 30"><path d="M25.726 1H4.274A3.278 3.278 0 001 4.274v21.452A3.278 3.278 0 004.274 29h21.452A3.278 3.278 0 0029 25.726V4.274A3.278 3.278 0 0025.726 1zM18 19.5h-7V14h7zm0-7.5h-7V7h7zm-9 7.5H3V14h6zM9 12H3V7h6zm11 2h7v5.5h-7zm0-2V7h7v5zM3 25.726V21.5h6V27H4.274A1.275 1.275 0 013 25.726zM11 27v-5.5h7V27zm14.726 0H20v-5.5h7v4.226A1.275 1.275 0 0125.726 27z"/><title/></symbol><symbol id="sprite-icon_thumbtack" viewBox="0 0 30 30"><path d="M21.3 14.255l-2.294-.629a.692.692 0 01-.508-.666V7.224a2.354 2.354 0 002-2.324V3.6a2.352 2.352 0 00-2.35-2.35h-6.3A2.352 2.352 0 009.5 3.6v1.3a2.354 2.354 0 002 2.324v5.736a.692.692 0 01-.508.666l-2.292.629A2.353 2.353 0 006.5 16.6v2.3a2.352 2.352 0 002.35 2.35H14v6.5a1 1 0 002 0v-6.5h5.15a2.352 2.352 0 002.35-2.35v-2.3a2.353 2.353 0 00-2.2-2.345zM11.5 3.6a.35.35 0 01.35-.35h6.3a.35.35 0 01.35.35v1.3a.35.35 0 01-.35.35h-6.3a.35.35 0 01-.35-.35zm10 15.3a.35.35 0 01-.35.35H8.85a.35.35 0 01-.35-.35v-2.3a.35.35 0 01.35-.35l2.67-.694a2.7 2.7 0 001.98-2.6V7.25h3v5.71a2.7 2.7 0 001.98 2.6l2.406.659.264.035a.35.35 0 01.35.35z"/><title/></symbol><symbol id="sprite-icon_time" viewBox="0 0 30 30"><path d="M15 28.5A13.5 13.5 0 1128.5 15 13.515 13.515 0 0115 28.5zm0-25A11.5 11.5 0 1026.5 15 11.513 11.513 0 0015 3.5zm5.637 12.557h-5.448a.826.826 0 01-.826-.827V6.943a1 1 0 011-1 1 1 0 011 1v6.642a.472.472 0 00.472.472h3.8a1 1 0 011 1 1 1 0 01-.998 1z"/><title/></symbol><symbol id="sprite-icon_tree-end" viewBox="0 0 27 27"><title>icon_tree-end</title><rect x="24" y="12" width="3" height="3" rx="1.5" fill="#c1272d"/><path d="M27 13.5a1.51 1.51 0 00-1.49-1.5c-5.22 0-8.37 0-9.43-1.06S15 6.68 15 1.4V0h-3v1.4c0 6.46 0 9.71 1.94 11.66S18.73 15 24.42 15h1.08a1.5 1.5 0 001.5-1.5z"/></symbol><symbol id="sprite-icon_tree-right" viewBox="0 0 27 27"><title>icon_tree-right</title><path d="M26.75 14.34v-.05a1 1 0 00.11-.21.49.49 0 000-.11 1.09 1.09 0 000-.17 1.51 1.51 0 000-.6 1.09 1.09 0 000-.17.49.49 0 000-.11 1 1 0 00-.11-.21v-.05a1.51 1.51 0 00-1.24-.66h-2.2c-3.92 0-6.34-.15-7.25-1.06S15 7.51 15 3.45V0h-3v27h3v-3.45c0-4.06.14-6.56 1.06-7.49s3.33-1 7.25-1.06h2.2a1.51 1.51 0 001.24-.66z"/></symbol><symbol id="sprite-icon_upload" viewBox="0 0 30 30"><path d="M23.132 8.24l-7.071-7.071a1.5 1.5 0 00-2.122 0L6.868 8.24a1.5 1.5 0 002.122 2.121l4.533-4.534v14.464a1.48 1.48 0 002.96 0V5.834l4.527 4.527a1.5 1.5 0 002.122-2.121zm3.287 21.031H3.581A3.081 3.081 0 01.5 26.19v-5.96a1.46 1.46 0 011.46-1.459h.08A1.46 1.46 0 013.5 20.23v5.96a.081.081 0 00.081.081h22.838a.081.081 0 00.081-.081v-5.944a1.475 1.475 0 011.476-1.475h.048a1.475 1.475 0 011.476 1.475v5.944a3.081 3.081 0 01-3.081 3.081z"/><title/></symbol><symbol id="sprite-icon_user" viewBox="0 0 30 30"><path d="M15 15.586a7.793 7.793 0 10-7.793-7.793A7.8 7.8 0 0015 15.586zm0-12.469a4.676 4.676 0 11-4.676 4.676A4.681 4.681 0 0115 3.117zM28.3 30h-.168a1.437 1.437 0 01-1.386-1.253C25.965 24.071 20.9 20.329 15 20.329S4.035 24.071 3.255 28.747A1.437 1.437 0 011.869 30H1.7a1.419 1.419 0 01-1.392-1.619C1.237 22.126 7.471 17.275 15 17.275s13.763 4.851 14.692 11.106A1.419 1.419 0 0128.3 30z"/><title/></symbol><symbol id="sprite-icon_w_image" viewBox="0 0 30 30"><path d="M25.9 0H4.1A4.1 4.1 0 000 4.1v21.8A4.1 4.1 0 004.1 30h21.8a4.1 4.1 0 004.1-4.1V4.1A4.1 4.1 0 0025.9 0zM9.484 10.048L3 19.141V4.1A1.1 1.1 0 014.1 3h21.8A1.1 1.1 0 0127 4.1v10.866l-2.724-2.725c-.011-.012-.015-.027-.026-.038a1.519 1.519 0 00-2.134 0c-.01.011-.013.025-.023.035l-5.077 5.077-5.082-7.259a1.5 1.5 0 00-2.45-.008zM3 25.9v-1.592l7.7-10.791L20.135 27H4.1A1.1 1.1 0 013 25.9zM25.9 27h-2.139a1.54 1.54 0 00-.146-.262l-4.851-6.928 4.419-4.419L27 19.208V25.9a1.1 1.1 0 01-1.1 1.1z" fill="#fff"/><circle cx="18.5" cy="7.5" r="2.5" fill="#fff"/><title/></symbol><symbol id="sprite-icon_w_paste" viewBox="0 0 30 30"><path d="M3.209.75h17.469a3.2 3.2 0 013.209 3.177V5.75h2.936A3.18 3.18 0 0130 8.927v17.146a3.18 3.18 0 01-3.177 3.177H9.322a3.2 3.2 0 01-3.209-3.177V24.25h-2.9A3.2 3.2 0 010 21.073V3.927A3.2 3.2 0 013.209.75zm23.582 25.5a.2.2 0 00.209-.177V8.927a.2.2 0 00-.209-.177H9.427a.178.178 0 00-.177.177v17.146a.178.178 0 00.177.177zM3 21.073a.2.2 0 00.209.177H6.25V8.927A3.18 3.18 0 019.427 5.75h11.46V3.927a.2.2 0 00-.209-.177H3.209A.2.2 0 003 3.927z"/><rect x="11.5" y="10.823" width="13" height="3" rx="1.5" transform="rotate(-180 18 12.322)"/><rect x="11.5" y="15.823" width="13" height="3" rx="1.5" transform="rotate(180 18 17.323)"/><rect x="11.5" y="20.823" width="13" height="3" rx="1.5" transform="rotate(180 18 22.323)"/><title/></symbol><symbol id="sprite-icon_w_thumbtack" viewBox="0 0 30 30"><path d="M21.3 14.255l-2.294-.629a.692.692 0 01-.508-.666V7.224a2.354 2.354 0 002-2.324V3.6a2.352 2.352 0 00-2.35-2.35h-6.3A2.352 2.352 0 009.5 3.6v1.3a2.354 2.354 0 002 2.324v5.736a.692.692 0 01-.508.666l-2.292.629A2.353 2.353 0 006.5 16.6v2.3a2.352 2.352 0 002.35 2.35H14v6.5a1 1 0 002 0v-6.5h5.15a2.352 2.352 0 002.35-2.35v-2.3a2.353 2.353 0 00-2.2-2.345zM11.5 3.6a.35.35 0 01.35-.35h6.3a.35.35 0 01.35.35v1.3a.35.35 0 01-.35.35h-6.3a.35.35 0 01-.35-.35zm10 15.3a.35.35 0 01-.35.35H8.85a.35.35 0 01-.35-.35v-2.3a.35.35 0 01.35-.35l2.67-.694a2.7 2.7 0 001.98-2.6V7.25h3v5.71a2.7 2.7 0 001.98 2.6l2.406.659.264.035a.35.35 0 01.35.35z" fill="#fff"/><title/></symbol><symbol id="sprite-icon_xls" viewBox="0 0 30 30"><path d="M23.605.036H7.7a2.884 2.884 0 00-2.682 3.046v6.882H0v15h5.018v1.954A2.884 2.884 0 007.7 29.964h19.6a2.884 2.884 0 002.682-3.046V7.791zM5.793 18.785l-2.081 3.539H1.764l2.989-4.864-2.922-4.784h1.934l2.028 3.485 2.028-3.485h1.934L6.84 17.46l2.982 4.864H7.867zm22.189 8.133c0 .616-.359 1.046-.682 1.046H7.7c-.323 0-.682-.43-.682-1.046v-1.954H26v-15H7.018V3.082c0-.616.359-1.046.682-1.046h14.961l5.321 6.472zm-11.543-5.933v1.339h-6.057v-9.648h1.677v8.309zm5.2-2.127a5.42 5.42 0 00-1.614-.7 7.831 7.831 0 01-1.855-.782 2.477 2.477 0 01-1.319-2.16A2.351 2.351 0 0117.8 13.3a3.847 3.847 0 012.468-.755 4.158 4.158 0 011.8.371 2.942 2.942 0 011.239 1.057 2.71 2.71 0 01.451 1.52h-1.67a1.514 1.514 0 00-.474-1.183 1.959 1.959 0 00-1.355-.427 2.04 2.04 0 00-1.275.351 1.17 1.17 0 00-.454.981 1.055 1.055 0 00.49.884 5.631 5.631 0 001.617.689 7.429 7.429 0 011.809.763 2.858 2.858 0 011 .981 2.55 2.55 0 01.318 1.3 2.293 2.293 0 01-.924 1.917 4 4 0 01-2.508.713 4.735 4.735 0 01-1.925-.387A3.249 3.249 0 0117.042 21a2.665 2.665 0 01-.487-1.591h1.677a1.56 1.56 0 00.543 1.273 2.38 2.38 0 001.557.45 2.061 2.061 0 001.315-.355 1.143 1.143 0 00.441-.937 1.166 1.166 0 00-.447-.982z"/><title/></symbol><symbol id="sprite-icon_zoom" viewBox="0 0 30 30"><path d="M1.444 26.363l7.364-7.5a11.393 11.393 0 01-2.055-6.536A11.24 11.24 0 0117.877 1 11.24 11.24 0 0129 12.328a11.24 11.24 0 01-11.123 11.328 10.947 10.947 0 01-7-2.533l-7.288 7.425a1.5 1.5 0 01-2.145 0 1.566 1.566 0 010-2.185zm16.433-5.8a8.174 8.174 0 008.089-8.239 8.091 8.091 0 10-16.179 0 8.175 8.175 0 008.09 8.243z"/><path d="M22.846 11.346h-3.692V7.654a1.154 1.154 0 10-2.308 0v3.692h-3.692a1.154 1.154 0 000 2.308h3.692v3.692a1.154 1.154 0 102.308 0v-3.692h3.692a1.154 1.154 0 100-2.308z"/><title/></symbol></svg>