<svg xmlns="http://www.w3.org/2000/svg" xmlns:xlink="http://www.w3.org/1999/xlink" width="455.5" height="368.706" viewBox="0 0 455.5 368.706"><defs><linearGradient id="a" x1="0.16" y1="0.791" x2="0.944" y2="0.216" gradientUnits="objectBoundingBox"><stop offset="0" stop-color="#f5d4f9"/><stop offset="1" stop-color="#7469ff" stop-opacity="0.647"/></linearGradient></defs><g transform="translate(-85.08 -60.436)"><path d="M202.111,333.354C239.037,281.587,244,240.108,244,180.01c0-62.84,4.7-110.911-12.485-148.076-17.391-36.873-54.449-55.309-91.714-75.5C102.53-63.468,65.265-85.708,29.034-78.1-6.989-70.2-41.977-32.74-63.3,17.009s-29.191,111.789-17.8,163c11.594,51.212,42.441,91.6,74.531,125.25,32.09,33.946,65.422,61.162,103.308,68.478C134.62,381.347,176.854,368.763,202.111,333.354Z" transform="translate(460.951 184.56) rotate(90)" opacity="0.4" fill="url(#a)"/><path d="M512.081,668.73a5.759,5.759,0,0,0,4.524,3.065c.487.048.348.794-.136.747a6.453,6.453,0,0,1-5.013-3.379.392.392,0,0,1,.1-.528.381.381,0,0,1,.528.1Z" transform="translate(-283.831 -294.588)" fill="#fff"/><path d="M419.866,309.66H326.98a10.839,10.839,0,0,1-10.826-10.827v-50.59a10.838,10.838,0,0,1,10.826-10.826h92.886a10.838,10.838,0,0,1,10.826,10.826v50.59a10.839,10.839,0,0,1-10.826,10.827Z" transform="translate(-230.574 -176.981)" fill="#bdb3ff"/><path d="M614.866,309.66H521.98a10.839,10.839,0,0,1-10.826-10.827v-50.59a10.838,10.838,0,0,1,10.826-10.826h92.886a10.838,10.838,0,0,1,10.826,10.826v50.59a10.839,10.839,0,0,1-10.826,10.827Z" transform="translate(-283.765 -176.981)" fill="#6c63ff"/><path d="M809.866,309.66H716.98a10.839,10.839,0,0,1-10.826-10.827v-50.59a10.838,10.838,0,0,1,10.826-10.826h92.886a10.838,10.838,0,0,1,10.826,10.826v50.59a10.839,10.839,0,0,1-10.826,10.827Z" transform="translate(-336.956 -176.981)" fill="#bdb3ff"/><path d="M419.866,464.659H326.98a10.839,10.839,0,0,1-10.826-10.827v-50.59a10.838,10.838,0,0,1,10.826-10.826h92.886a10.838,10.838,0,0,1,10.826,10.826v50.59a10.839,10.839,0,0,1-10.826,10.827Z" transform="translate(-230.574 -219.261)" fill="#bdb3ff"/><path d="M614.866,464.659H521.98a10.839,10.839,0,0,1-10.826-10.827v-50.59a10.838,10.838,0,0,1,10.826-10.826h92.886a10.838,10.838,0,0,1,10.826,10.826v50.59A10.839,10.839,0,0,1,614.866,464.659Z" transform="translate(-283.765 -219.261)" fill="#bdb3ff"/><g transform="translate(321.07 221.528)"><circle cx="16.59" cy="16.59" r="16.59" fill="#6c63ff"/><path d="M666.533,477.216h-5.64v-5.64a1.327,1.327,0,0,0-1.327-1.327h0a1.327,1.327,0,0,0-1.327,1.327v5.64H652.6a1.327,1.327,0,0,0-1.327,1.327h0a1.327,1.327,0,0,0,1.327,1.327h5.641v5.64a1.327,1.327,0,0,0,1.327,1.327h0a1.327,1.327,0,0,0,1.327-1.327v-5.641h5.64a1.327,1.327,0,0,0,1.327-1.327h0a1.327,1.327,0,0,0-1.327-1.327h0Z" transform="translate(-643.055 -462.02)" fill="#fff"/></g><g transform="translate(465.06 111.717)"><circle cx="16.59" cy="16.59" r="16.59" fill="#6c63ff"/><path d="M864.533,326.216h-5.64v-5.64a1.327,1.327,0,0,0-1.327-1.327h0a1.327,1.327,0,0,0-1.327,1.327v5.64H850.6a1.327,1.327,0,0,0-1.327,1.327h0a1.327,1.327,0,0,0,1.327,1.327h5.64v5.64a1.327,1.327,0,0,0,1.327,1.327h0a1.327,1.327,0,0,0,1.327-1.327v-5.641h5.64a1.327,1.327,0,0,0,1.327-1.327h0a1.327,1.327,0,0,0-1.327-1.327h0Z" transform="translate(-841.055 -311.02)" fill="#fff"/></g><g transform="translate(179.261 110.262)"><circle cx="16.59" cy="16.59" r="16.59" fill="#6c63ff"/><path d="M471.533,324.216h-5.64v-5.64a1.327,1.327,0,0,0-1.327-1.327h0a1.327,1.327,0,0,0-1.327,1.327h0v5.64H457.6a1.327,1.327,0,0,0-1.327,1.327h0a1.327,1.327,0,0,0,1.327,1.327h5.64v5.64a1.327,1.327,0,0,0,1.327,1.327h0a1.327,1.327,0,0,0,1.327-1.327v-5.641h5.64a1.327,1.327,0,0,0,1.327-1.327h0a1.327,1.327,0,0,0-1.327-1.327h0Z" transform="translate(-448.055 -309.02)" fill="#fff"/></g><path d="M628.982,295.51a6.6,6.6,0,0,1-5.324,8.6l-7.671,52.361L603.4,350.324l12.656-52.266a6.631,6.631,0,0,1,12.922-2.548Z" transform="translate(-308.929 -191.575)" fill="#9e616a"/><path d="M508.067,503.269a6.6,6.6,0,0,0-2.539-9.79l5.175-55.7-10.839,5.556-3.384,53.67a6.631,6.631,0,0,0,11.588,6.259Z" transform="translate(-279.635 -231.636)" fill="#9e616a"/><path d="M322.62,316l46.514-1.789,2.683-48.3h-53.67Z" transform="translate(-86.783 -72.532)" fill="#9e616a"/><path d="M312.426,557.855h7.949l3.781-30.658H312.425Z" transform="translate(-85.222 -143.806)" fill="#9e616a"/><path d="M507.6,717.995l12.565-.75v5.383l11.946,8.25a3.363,3.363,0,0,1-1.911,6.13H515.237l-2.578-5.325-1.007,5.325h-5.64Z" transform="translate(-282.362 -307.866)" fill="#2f2e41"/><path d="M361.04,557.855h7.949L372.77,527.2H361.039Z" transform="translate(-98.482 -143.806)" fill="#9e616a"/><path d="M518.325,472.417s-13.917,11.236-6.373,51.363c-1.149.137.152,2.4.152,2.4l1.089,32.7.841,3.747-2.8,6.047,1.153,6.57-3.555,59.626,13.132,1.7,12.567-61.918,2.393-6.961,2.4-6.1-1.295-6.507,1.062-10.1,7.245-34.055,1.773,59.064-2.475,5.639,1.377,6.19-3.068,3.286-1.213,55.262,14,.655,11.586-55.708-.9-7.109,1.541-5.256V560.666l2.64-5.795,5.755-31.6s1.736-24.7-10.932-53.756Z" transform="translate(-283.133 -240.293)" fill="#2f2e41"/><path d="M520.088,365.013s-17.578,3.476-20.607,18.468S494.5,432.4,494.5,432.4l.663,4.724,17,3.943,10.853-47.533Z" transform="translate(-279.223 -211.786)" fill="#3f3d56"/><path d="M584.847,361.781s1.782-2.5,11.76-2.882c.411-.016-.1-.831-.1-.831l4.8-23.455,15.992,8.854-2.7,24.59-26.279,29.89Z" transform="translate(-303.867 -203.494)" fill="#3f3d56"/><path d="M556.337,439.951c-7.529,0-21.605,4.218-38.666,1.686-2.256-.34-4.13-10.236-4.476-12.49a3.945,3.945,0,0,1-.663-4.48l.016-.031-.386-.456a4.218,4.218,0,0,1-.281-5.1l-5.283-37.8a15.923,15.923,0,0,1,11.074-17.469l1.95-.607L527,353.56l.145,0,23.679.315,7.684,9.758,12.422,2.929.032.189,2.884,16.664c1.5,8.667-1.94,12.076-6.331,19.7L568.8,424.52c0,4.885-.633,12.574-1.289,13.072C566.33,438.49,566,439.951,556.337,439.951Z" transform="translate(-282.478 -208.662)" fill="#3f3d56"/><path d="M556.21,717.995l12.565-.75v5.383l11.946,8.25a3.363,3.363,0,0,1-1.911,6.13H563.851l-2.578-5.325-1.007,5.325h-5.64Z" transform="translate(-295.623 -307.866)" fill="#2f2e41"/><path d="M18.564,0a18.564,18.564,0,0,1,0,37.127A21.042,21.042,0,0,1,5.519,32.664c-3.719-2.9-7.855-1.53-9.958-4.106-.41-2.524-2.82-8.7-2.3-15.551A22.247,22.247,0,0,0,.984,10.431C6.7,6.745,12.531,0,18.564,0Z" transform="translate(234.162 136.25) rotate(-80.783)" fill="#9e616a"/><path d="M538.182,288.215c-6.8-4.679-12.8-5.392-17.717-4.065a6.471,6.471,0,0,0-2.588-2.3c-3.839-9.672-15.52-15.481-25.545-12.657-10.09,2.842-17.052,14.019-15.153,24.328,1.177,6.39,5.2,11.924,6.816,18.216,3.131,12.182-4.507,26.137-16.457,30.063,11.314,2.272,23.768-4.639,27.827-15.442,1.971-5.247,2.09-10.976,2.341-16.575a54.951,54.951,0,0,1,1.413-11.478,24.523,24.523,0,0,1,1.827-4.887,16.724,16.724,0,0,1,8-7.765,6.384,6.384,0,0,0,.932,5.747c-2.653,3.324-4.1,6.918-4.1,9.071-5.512,10.074,2.37,18.727,12.444,24.239a20.639,20.639,0,0,0,13.187,2.3l.422-1.8.571,1.621,1.906,5.433q3.3,1.6,6.54,3.5c-.821-3.855-1.485-7.7-1.942-11.466-.633-5.121,1.573-12.745,3.164-17.381a27.366,27.366,0,0,0,1.5-8.881V297.9l1.549,4.976,5.64-2.406C549.713,294.456,550.762,287.623,538.182,288.215Z" transform="translate(-271.868 -185.455)" fill="#2f2e41"/><circle cx="16.59" cy="16.59" r="16.59" transform="translate(177.364 223.708)" fill="#9086ff"/><path d="M784.044,454.658H725.856a6.79,6.79,0,0,1-6.782-6.782V416.184a6.789,6.789,0,0,1,6.782-6.782h58.187a6.79,6.79,0,0,1,6.782,6.782v31.692a6.79,6.79,0,0,1-6.782,6.782Z" transform="translate(-340.48 -223.895)" fill="#bdb3ff"/><g transform="translate(435.61 200.27)"><circle cx="8.81" cy="8.81" r="8.81" fill="#6c63ff"/><path d="M811.582,439.411h-3v-3a.7.7,0,0,0-.7-.7h0a.7.7,0,0,0-.7.7v3h-3a.7.7,0,0,0-.7.7h0a.7.7,0,0,0,.7.7h3v3a.7.7,0,0,0,.7.7h0a.7.7,0,0,0,.7-.7v-3h3a.7.7,0,0,0,.7-.7h0a.7.7,0,0,0-.7-.7Z" transform="translate(-799.114 -431.341)" fill="#fff"/></g><path d="M820.145,445.12H772.193a7.685,7.685,0,0,1-7.677-7.676V408.819a1.414,1.414,0,1,1,2.828,0v7.666l55.7,5.063a4.248,4.248,0,0,1,4.172,4.242,1.419,1.419,0,0,1-.024.261l-2.807,14.97a4.248,4.248,0,0,1-4.24,4.1Zm-52.8-25.794v18.117a4.853,4.853,0,0,0,4.848,4.848h47.952a1.416,1.416,0,0,0,1.414-1.414,1.42,1.42,0,0,1,.024-.261l2.8-14.934a1.416,1.416,0,0,0-1.41-1.305c-.043,0-.085,0-.128-.006Z" transform="translate(-352.876 -223.35)" fill="#6c63ff"/><circle cx="2.357" cy="2.357" r="2.357" transform="translate(404.218 230.255)" fill="#6c63ff"/><circle cx="2.357" cy="2.357" r="2.357" transform="translate(463.026 230.255)" fill="#6c63ff"/><path d="M817.479,469.873H754.427a1.414,1.414,0,1,1,0-2.829h63.051a1.414,1.414,0,1,1,0,2.829Z" transform="translate(-349.738 -239.618)" fill="#6c63ff"/><path d="M766.52,409.586H754.263a1.414,1.414,0,0,1,0-2.829H766.52a1.414,1.414,0,0,1,0,2.829Z" transform="translate(-349.693 -223.173)" fill="#6c63ff"/><path d="M781.152,465.887a1.409,1.409,0,0,1-.921-.342l-9.3-7.988a1.414,1.414,0,1,1,1.843-2.145l9.3,7.988a1.414,1.414,0,0,1-.922,2.487Z" transform="translate(-354.492 -236.351)" fill="#6c63ff"/><path d="M787.331,448.494a1.414,1.414,0,0,1-1.414-1.414v-22.7a1.414,1.414,0,1,1,2.828,0v22.7a1.414,1.414,0,0,1-1.414,1.414Z" transform="translate(-358.714 -227.594)" fill="#6c63ff"/><path d="M828.413,449.2A1.414,1.414,0,0,1,827,447.788V426.971a1.414,1.414,0,1,1,2.829,0v20.817a1.414,1.414,0,0,1-1.414,1.414Z" transform="translate(-369.92 -228.301)" fill="#6c63ff"/></g></svg>