<svg width="433" height="307" viewBox="0 0 433 307" fill="none" xmlns="http://www.w3.org/2000/svg">
<g filter="url(#filter0_d_31_209)">
<path d="M373.885 127.262L370.621 133.939L385.188 141.061L388.453 134.384L373.885 127.262Z" fill="#CCCCCC"/>
</g>
<g filter="url(#filter1_d_31_209)">
<path d="M359.526 156.282L356.262 162.959L370.829 170.081L374.093 163.404L359.526 156.282Z" fill="#CCCCCC"/>
</g>
<g filter="url(#filter2_d_31_209)">
<path d="M196.023 209.129C196.699 209.518 197.344 209.96 197.951 210.451L264.742 189.666L268.508 173.095L294.259 175.51L290.442 205.493C290.133 207.915 289.048 210.172 287.347 211.925C285.647 213.677 283.424 214.831 281.013 215.213L202.413 227.657C201.266 230.436 199.3 232.801 196.777 234.436C194.254 236.071 191.292 236.899 188.287 236.809C185.281 236.72 182.374 235.718 179.953 233.937C177.531 232.155 175.708 229.678 174.728 226.836C173.748 223.993 173.657 220.92 174.467 218.024C175.276 215.128 176.948 212.548 179.26 210.625C181.572 208.703 184.414 207.53 187.409 207.263C190.404 206.995 193.409 207.646 196.025 209.128L196.023 209.129Z" fill="#FFB8B8"/>
</g>
<g filter="url(#filter3_d_31_209)">
<path d="M306.162 185.456L305.719 177.894V177.886L305.599 175.815L304.294 153.549C304.684 148.907 303.22 144.3 300.221 140.736C297.222 137.172 292.934 134.94 288.294 134.531C286.959 134.41 285.615 134.443 284.288 134.631C280.346 135.188 276.708 137.061 273.964 139.945C271.22 142.83 269.531 146.556 269.171 150.521L266.462 161.794L261.73 181.499C261.394 182.878 261.533 184.329 262.124 185.62C262.715 186.91 263.723 187.964 264.986 188.611C265.715 188.994 266.513 189.229 267.334 189.301L275.226 190.006L282.826 190.681L291.596 191.461L292.226 191.514L293.846 191.664L299.27 192.144H299.285C300.528 192.25 301.775 191.988 302.87 191.39C303.965 190.793 304.86 189.886 305.444 188.783C305.991 187.762 306.24 186.608 306.164 185.452L306.162 185.456Z" fill="#6C63FF"/>
</g>
<g filter="url(#filter4_d_31_209)">
<path d="M379.454 93.754C379.454 119.43 355.712 115.547 326.425 115.547C297.138 115.547 273.396 119.431 273.396 93.754C273.396 68.077 284.996 22.564 326.425 22.564C369.284 22.564 379.454 68.078 379.454 93.754Z" fill="#2F2E41"/>
</g>
<g filter="url(#filter5_d_31_209)">
<path d="M313.587 111.571L340.15 110.193V130.158C340.15 130.158 334.893 136.518 326.722 137.402C321.82 137.932 316.861 137.327 312.23 135.634L313.587 111.571Z" fill="#FFB8B8"/>
</g>
<g filter="url(#filter6_d_31_209)">
<path d="M351.486 105.051C365.421 91.1156 365.421 68.5224 351.486 54.5873C337.551 40.6522 314.958 40.6522 301.023 54.5873C287.088 68.5224 287.088 91.1156 301.023 105.051C314.958 118.986 337.551 118.986 351.486 105.051Z" fill="#FFB8B8"/>
</g>
<g filter="url(#filter7_d_31_209)">
<path d="M376.482 130.509C375.795 129.847 375.066 129.23 374.299 128.663C369.447 124.998 363.351 123.384 357.321 124.169L291.565 132.489C285.542 133.237 280.047 136.301 276.245 141.032C272.442 145.762 270.632 151.788 271.197 157.831C271.385 159.931 271.597 162.145 271.827 164.448C272.127 167.336 272.465 170.367 272.855 173.503C273.5 178.777 274.288 184.344 275.226 190.003C276.044 194.879 276.974 199.823 278.039 204.703C278.347 206.114 278.667 207.519 278.999 208.919C278.999 208.923 278.999 208.927 279 208.931C279.002 208.935 279.004 208.939 279.007 208.942C279.044 209.115 279.082 209.287 279.127 209.452C279.125 209.465 279.128 209.479 279.135 209.49C279.602 211.441 280.09 213.369 280.598 215.274C280.793 215.979 280.98 216.674 281.175 217.367C281.7 219.243 282.256 221.081 282.826 222.889C287.11 236.34 292.774 247.796 300.253 253.889C300.353 253.979 300.453 254.054 300.553 254.137L300.853 254.37L301.288 254.235L303.134 253.687L304.71 253.207L325.236 247.033L330.345 245.495L346.76 240.551H346.767L361.779 236.035L363.609 235.48L376.509 231.601L376.921 226.785L377.476 220.393L377.806 216.552L380.417 186.258L381.94 168.583L383.582 149.399C383.889 145.92 383.411 142.416 382.182 139.146C380.953 135.876 379.005 132.925 376.482 130.509V130.509Z" fill="#2F2E41"/>
</g>
<g filter="url(#filter8_d_31_209)">
<path d="M413.256 277.091C413.083 276.591 412.918 276.086 412.746 275.591C405.034 253.085 393.661 236.062 376.923 226.791C376.916 226.791 376.916 226.783 376.908 226.783L376.623 226.625L362.039 231.674L360.239 232.297L358.364 232.95L358.341 232.958L344.687 237.684L344.664 237.692L333.951 241.398H333.943L324.033 244.826H324.022L321.722 245.626L304.4 251.62L302.389 252.32L300.589 252.943L300.311 253.043L300.259 253.898L299.021 275.598L298.939 277.098L296.502 297.341C296.484 297.632 419.815 297.341 419.815 297.341C419.815 297.341 418.139 291.818 413.256 277.091Z" fill="#2F2E41"/>
</g>
<g filter="url(#filter9_d_31_209)">
<path d="M285.018 76.321H299.132L305.358 58.887L306.603 76.321H313.349L316.981 66.151L317.707 76.321H367.83C367.83 66.3027 363.85 56.6947 356.766 49.6107C349.682 42.5267 340.074 38.547 330.056 38.547H322.792C312.773 38.547 303.165 42.5267 296.081 49.6107C288.997 56.6947 285.018 66.3027 285.018 76.321Z" fill="#2F2E41"/>
</g>
<g filter="url(#filter10_d_31_209)">
<path d="M198.212 265.378C195.908 266.345 193.42 266.795 190.923 266.697C188.426 266.599 185.981 265.955 183.759 264.81C181.538 263.665 179.595 262.047 178.066 260.07C176.538 258.094 175.461 255.806 174.912 253.368L114.545 246.531L134.781 222.299L189.004 232.506C193.161 231.856 197.413 232.754 200.952 235.029C204.492 237.304 207.074 240.799 208.209 244.851C209.345 248.903 208.954 253.23 207.111 257.013C205.269 260.797 202.103 263.772 198.213 265.377L198.212 265.378Z" fill="#A0616A"/>
</g>
<g filter="url(#filter11_d_31_209)">
<path d="M165.67 220.531L140.155 215.97L138.302 215.64C136.822 215.375 135.414 214.801 134.171 213.953C132.928 213.106 131.879 212.005 131.091 210.724C130.304 209.442 129.797 208.008 129.603 206.517C129.41 205.025 129.534 203.509 129.967 202.069L142.495 160.439L142.87 159.201C143.805 156.104 144.11 152.852 143.767 149.635C143.424 146.419 142.44 143.304 140.873 140.474C139.306 137.644 137.188 135.157 134.644 133.16C132.1 131.162 129.181 129.695 126.061 128.844C122.94 127.993 119.68 127.776 116.474 128.206C113.268 128.636 110.181 129.704 107.395 131.348C104.608 132.991 102.18 135.175 100.252 137.773C98.324 140.37 96.9361 143.327 96.1702 146.47L80.1912 211.686L79.5982 214.102C78.4821 218.653 78.3604 223.39 79.2414 227.992C80.1224 232.594 81.9854 236.952 84.7033 240.769C87.4212 244.585 90.9302 247.771 94.991 250.109C99.0517 252.446 103.569 253.88 108.234 254.314C108.286 254.321 108.334 254.321 108.384 254.329L117.949 255.177L130.357 256.277L145.957 257.665L160.519 258.965C162.427 259.138 164.329 258.587 165.849 257.423C167.37 256.258 168.397 254.564 168.726 252.678C168.748 252.573 168.763 252.468 168.778 252.363L171.869 229.286L171.899 229.076C172.166 227.122 171.665 225.141 170.503 223.548C169.341 221.955 167.607 220.874 165.665 220.531H165.67Z" fill="#CCCCCC"/>
</g>
<g filter="url(#filter12_d_31_209)">
<path d="M157.646 297.642L151.799 277.088L151.68 276.713L151.319 275.588L149.301 269.331C148.648 267.298 148.025 265.257 147.448 263.209C146.915 261.364 146.417 259.513 145.955 257.657C145.295 255.076 144.695 252.486 144.155 249.885C142.325 241.145 141.104 232.289 140.501 223.38C140.336 220.913 140.218 218.44 140.148 215.96C139.709 200.77 141.077 185.582 144.222 170.715C146.961 157.859 145.498 144.463 140.05 132.5C134.601 120.538 125.455 110.642 113.958 104.269C106.415 100.099 98.0648 97.5949 89.4715 96.9239C88.8785 96.8789 88.2865 96.8409 87.6865 96.8039C78.609 96.2302 69.5185 97.7026 61.0862 101.112C52.6538 104.522 45.0949 109.782 38.9675 116.504C35.6855 120.079 32.835 124.027 30.4745 128.267C23.9252 140.066 21.4666 153.702 23.4825 167.046L31.9145 223.665L29.9945 247.499L27.7285 275.587L27.6085 277.087L25.3185 297.641L157.646 297.642Z" fill="#FED66B"/>
</g>
<g filter="url(#filter13_d_31_209)">
<path d="M126.352 45.677C116.166 65.702 108.139 86.357 85.6722 86.357C74.8832 86.357 64.5361 82.0711 56.9071 74.4421C49.2781 66.8131 44.9922 56.466 44.9922 45.677C44.9922 23.21 63.2072 5.27699 85.6722 4.99699C108.505 4.70899 145.31 8.40298 126.352 45.677Z" fill="#2F2E41"/>
</g>
<g filter="url(#filter14_d_31_209)">
<path d="M73.6012 82.809L102.695 81.749L106.228 106.699C100.435 108.435 94.4313 109.373 88.3842 109.487C82.0519 109.324 75.7632 108.388 69.6582 106.699L73.6012 82.809Z" fill="#FFB8B8"/>
</g>
<g filter="url(#filter15_d_31_209)">
<path d="M112.908 76.6907C126.843 62.7556 126.843 40.1624 112.908 26.2273C98.9729 12.2922 76.3797 12.2922 62.4446 26.2273C48.5095 40.1624 48.5095 62.7556 62.4446 76.6907C76.3797 90.6258 98.9729 90.6258 112.908 76.6907Z" fill="#FFB8B8"/>
</g>
<g filter="url(#filter16_d_31_209)">
<path d="M125.542 31.299C117.388 36.9193 107.71 39.9105 97.8064 39.871C101.339 42.3206 105.361 43.9753 109.594 44.721C96.4271 47.5456 82.8186 47.6222 69.6204 44.946C66.6867 44.4756 63.856 43.5034 61.2524 42.072C59.955 41.3474 58.8246 40.3578 57.9347 39.1677C57.0449 37.9775 56.4154 36.6134 56.0874 35.164C55.2104 30.154 59.1144 25.602 63.1714 22.534C69.3831 17.9087 76.5453 14.7219 84.1398 13.2043C91.7342 11.6867 99.5711 11.8762 107.083 13.759C111.988 15.027 116.902 17.169 120.088 21.108C123.274 25.047 124.218 31.12 121.182 35.177L125.542 31.299Z" fill="#2F2E41"/>
</g>
<g filter="url(#filter17_d_31_209)">
<path d="M127.365 257.959C125.082 258.976 122.604 259.48 120.106 259.437C117.607 259.393 115.149 258.802 112.903 257.706C110.657 256.61 108.679 255.034 107.108 253.091C105.537 251.148 104.411 248.884 103.809 246.459L43.3086 240.931L63.0156 216.259L117.447 225.29C121.589 224.55 125.859 225.355 129.447 227.553C133.036 229.751 135.693 233.189 136.916 237.216C138.139 241.242 137.842 245.577 136.082 249.4C134.321 253.222 131.22 256.266 127.366 257.954L127.365 257.959Z" fill="#FFB8B8"/>
</g>
<g filter="url(#filter18_d_31_209)">
<path d="M93.8634 213.819L80.1874 211.681L66.3875 209.52C64.9015 209.288 63.4815 208.744 62.2206 207.924C60.9598 207.104 59.8867 206.027 59.0718 204.763C58.2569 203.499 57.7187 202.077 57.4925 200.59C57.2663 199.103 57.3573 197.585 57.7594 196.136L69.7325 152.999C71.1814 147.675 70.78 142.017 68.594 136.951C66.408 131.885 62.5669 127.711 57.6994 125.113C54.4062 123.374 50.7562 122.419 47.0335 122.322C43.3108 122.224 39.6158 122.987 36.236 124.55C32.8562 126.114 29.8828 128.436 27.5471 131.337C25.2114 134.237 23.5764 137.637 22.7694 141.273L7.67145 209.249C6.65344 213.835 6.63821 218.586 7.6268 223.178C8.61539 227.77 10.5844 232.094 13.3992 235.855C16.214 239.615 19.808 242.723 23.9353 244.966C28.0626 247.209 32.6258 248.533 37.3124 248.849L89.5494 252.349C91.4594 252.479 93.3488 251.888 94.8436 250.692C96.3384 249.496 97.3297 247.782 97.6214 245.89C97.6444 245.785 97.6514 245.68 97.6664 245.575L100.251 222.439L100.273 222.229C100.497 220.271 99.9544 218.302 98.7597 216.735C97.5651 215.168 95.8107 214.123 93.8634 213.819V213.819Z" fill="#FED66B"/>
</g>
<g filter="url(#filter19_d_31_209)">
<path d="M325.288 177.959L322.157 179.667L283.587 200.711L280.457 202.419C278.938 203.25 277.811 204.649 277.322 206.31C276.834 207.971 277.024 209.758 277.851 211.279L306.574 263.92C307.405 265.438 308.805 266.565 310.466 267.052C312.128 267.539 313.914 267.348 315.434 266.52H315.442L360.257 242.068H360.265C361.784 241.236 362.91 239.836 363.397 238.175C363.885 236.514 363.694 234.727 362.866 233.207L334.144 180.566C333.312 179.047 331.911 177.921 330.25 177.434C328.589 176.946 326.802 177.138 325.282 177.966L325.288 177.959Z" fill="#E6E6E6"/>
</g>
<g filter="url(#filter20_d_31_209)">
<path d="M326.185 179.605L322.477 181.628L285.061 202.042L281.353 204.065C280.271 204.657 279.468 205.653 279.121 206.836C278.773 208.019 278.909 209.292 279.498 210.375L308.22 263.016C308.812 264.098 309.808 264.9 310.991 265.248C312.174 265.596 313.447 265.46 314.53 264.871H314.538L359.353 240.419H359.361C360.443 239.827 361.245 238.83 361.593 237.647C361.941 236.465 361.805 235.192 361.216 234.109L332.494 181.468C331.902 180.386 330.905 179.583 329.722 179.236C328.54 178.888 327.267 179.024 326.184 179.613L326.185 179.605Z" fill="white"/>
</g>
<g filter="url(#filter21_d_31_209)">
<path d="M327.242 194.475C327.101 194.223 326.868 194.037 326.592 193.955C326.315 193.874 326.018 193.904 325.764 194.04L324.271 194.858L309.049 203.158C308.923 203.226 308.812 203.319 308.722 203.43C308.632 203.541 308.565 203.669 308.525 203.806C308.484 203.944 308.471 204.088 308.487 204.23C308.502 204.372 308.545 204.51 308.613 204.635C308.682 204.761 308.774 204.872 308.885 204.962C308.997 205.052 309.125 205.119 309.262 205.159C309.399 205.2 309.543 205.213 309.685 205.198C309.827 205.182 309.965 205.139 310.091 205.071L326.806 195.948C327.057 195.808 327.244 195.574 327.325 195.298C327.406 195.021 327.376 194.724 327.241 194.47L327.242 194.475Z" fill="#E6E6E6"/>
</g>
<g filter="url(#filter22_d_31_209)">
<path d="M332.937 195.549C332.869 195.424 332.777 195.313 332.666 195.224C332.555 195.134 332.428 195.068 332.291 195.028C332.154 194.988 332.011 194.976 331.869 194.992C331.727 195.008 331.59 195.052 331.466 195.121L310.813 206.387C310.568 206.529 310.388 206.761 310.312 207.034C310.235 207.306 310.269 207.598 310.404 207.847C310.54 208.095 310.767 208.281 311.038 208.364C311.308 208.448 311.601 208.422 311.853 208.293L312.813 207.768L318.822 204.489H318.83L332.499 197.024C332.625 196.956 332.737 196.864 332.828 196.753C332.918 196.642 332.986 196.514 333.026 196.376C333.067 196.239 333.079 196.094 333.064 195.952C333.048 195.809 333.004 195.671 332.934 195.546L332.937 195.549Z" fill="#E6E6E6"/>
</g>
<g filter="url(#filter23_d_31_209)">
<path d="M310.49 213.501L303.933 201.475C303.864 201.355 303.751 201.266 303.617 201.229C303.484 201.191 303.341 201.208 303.22 201.275L300.039 203.008L298.389 203.908L289.529 208.739L287.811 209.677C287.69 209.746 287.602 209.859 287.565 209.992C287.527 210.126 287.544 210.269 287.611 210.39L288.031 211.163L294.168 222.416C294.235 222.536 294.347 222.624 294.479 222.661C294.611 222.699 294.753 222.682 294.873 222.616L305.451 216.847L307.102 215.947L310.283 214.214C310.344 214.181 310.397 214.137 310.441 214.083C310.485 214.029 310.517 213.968 310.537 213.901C310.556 213.835 310.562 213.765 310.555 213.697C310.547 213.628 310.526 213.561 310.493 213.501H310.49Z" fill="#E6E6E6"/>
</g>
<g filter="url(#filter24_d_31_209)">
<path d="M335.524 209.735C335.386 209.483 335.154 209.295 334.879 209.214C334.603 209.132 334.306 209.163 334.054 209.3L311.382 221.671C311.182 221.781 311.021 221.951 310.923 222.157C310.824 222.363 310.793 222.594 310.834 222.819C310.85 222.935 310.888 223.047 310.947 223.149C311.004 223.253 311.078 223.347 311.165 223.427L311.172 223.435C311.34 223.586 311.55 223.681 311.775 223.708C311.999 223.734 312.226 223.692 312.425 223.585L335.097 211.214C335.222 211.145 335.333 211.052 335.422 210.941C335.511 210.829 335.577 210.701 335.617 210.564C335.657 210.426 335.669 210.283 335.653 210.141C335.637 209.998 335.593 209.861 335.524 209.736V209.735Z" fill="#E6E6E6"/>
</g>
<g filter="url(#filter25_d_31_209)">
<path d="M341.23 210.806C341.161 210.681 341.068 210.571 340.957 210.481C340.845 210.392 340.717 210.326 340.58 210.286C340.442 210.246 340.299 210.234 340.157 210.25C340.015 210.265 339.877 210.309 339.752 210.378L313.142 224.895C312.942 225.001 312.781 225.168 312.682 225.372C312.584 225.575 312.553 225.805 312.594 226.028V226.036C312.61 226.152 312.648 226.264 312.706 226.366C312.764 226.473 312.84 226.57 312.931 226.651C313.097 226.805 313.308 226.903 313.533 226.93C313.758 226.957 313.986 226.912 314.184 226.801L340.794 212.284C341.047 212.145 341.235 211.912 341.316 211.635C341.398 211.358 341.366 211.06 341.229 210.806H341.23Z" fill="#E6E6E6"/>
</g>
<g filter="url(#filter26_d_31_209)">
<path d="M303.796 233.707C306.344 233.707 308.41 231.641 308.41 229.093C308.41 226.545 306.344 224.479 303.796 224.479C301.247 224.479 299.182 226.545 299.182 229.093C299.182 231.641 301.247 233.707 303.796 233.707Z" fill="#E6E6E6"/>
</g>
<g filter="url(#filter27_d_31_209)">
<path d="M338.788 157.699L335.657 159.407L297.087 180.451L293.957 182.159C292.438 182.99 291.311 184.389 290.822 186.05C290.334 187.711 290.524 189.498 291.351 191.019L320.074 243.66C320.904 245.179 322.304 246.306 323.965 246.795C325.626 247.283 327.414 247.093 328.934 246.265H328.942L373.757 221.813H373.765C375.285 220.982 376.412 219.582 376.9 217.921C377.389 216.26 377.198 214.473 376.371 212.952L347.648 160.311C346.817 158.792 345.416 157.666 343.755 157.179C342.094 156.691 340.307 156.883 338.786 157.711L338.788 157.699Z" fill="#CCCCCC"/>
</g>
<g filter="url(#filter28_d_31_209)">
<path d="M339.695 159.355L335.987 161.378L298.571 181.792L294.863 183.815C293.781 184.407 292.978 185.403 292.63 186.586C292.283 187.769 292.418 189.042 293.008 190.125L321.73 242.766C322.321 243.848 323.318 244.65 324.501 244.998C325.684 245.346 326.957 245.21 328.04 244.621H328.048L372.863 220.169H372.871C373.952 219.577 374.755 218.58 375.103 217.397C375.451 216.215 375.315 214.942 374.726 213.859L346.004 161.218C345.412 160.136 344.415 159.333 343.232 158.986C342.049 158.638 340.777 158.774 339.694 159.363L339.695 159.355Z" fill="white"/>
</g>
<g filter="url(#filter29_d_31_209)">
<path d="M340.742 174.215C340.602 173.963 340.369 173.777 340.092 173.695C339.816 173.614 339.519 173.644 339.264 173.78L331.564 177.98L329.418 179.15L322.546 182.901C322.421 182.969 322.31 183.062 322.22 183.173C322.13 183.285 322.063 183.413 322.023 183.55C321.982 183.687 321.969 183.831 321.985 183.973C322 184.115 322.043 184.253 322.111 184.379C322.18 184.505 322.273 184.615 322.384 184.705C322.495 184.795 322.623 184.862 322.76 184.903C322.898 184.943 323.041 184.956 323.184 184.941C323.326 184.925 323.464 184.882 323.589 184.814L331.689 180.395L333.389 179.465L340.306 175.691C340.558 175.551 340.744 175.318 340.826 175.042C340.907 174.766 340.877 174.469 340.742 174.215V174.215Z" fill="#CCCCCC"/>
</g>
<g filter="url(#filter30_d_31_209)">
<path d="M346.437 175.289C346.369 175.164 346.277 175.053 346.166 174.964C346.055 174.875 345.928 174.808 345.791 174.768C345.654 174.728 345.511 174.716 345.37 174.732C345.228 174.748 345.091 174.792 344.967 174.861L334.231 180.72L332.58 181.62L324.313 186.129C324.181 186.193 324.063 186.284 323.966 186.395C323.87 186.506 323.797 186.635 323.753 186.775C323.708 186.915 323.692 187.063 323.706 187.209C323.72 187.355 323.764 187.497 323.834 187.626C323.905 187.755 324 187.869 324.116 187.96C324.232 188.05 324.364 188.117 324.506 188.155C324.648 188.193 324.797 188.202 324.942 188.181C325.087 188.16 325.227 188.109 325.353 188.033L333.62 183.524L335.271 182.624L345.999 176.765C346.125 176.697 346.237 176.605 346.328 176.494C346.418 176.383 346.486 176.255 346.526 176.117C346.567 175.98 346.579 175.835 346.563 175.693C346.548 175.55 346.503 175.412 346.434 175.287L346.437 175.289Z" fill="#CCCCCC"/>
</g>
<g filter="url(#filter31_d_31_209)">
<path d="M323.991 193.251L318.762 183.663L317.862 182.013L317.434 181.225C317.365 181.105 317.252 181.016 317.119 180.979C316.986 180.941 316.843 180.958 316.722 181.025L306.107 186.817L301.313 189.428C301.192 189.497 301.104 189.61 301.066 189.743C301.029 189.877 301.046 190.02 301.113 190.141L301.54 190.921L302.005 191.784L302.44 192.572V192.58L307.669 202.168C307.736 202.288 307.848 202.376 307.98 202.413C308.112 202.451 308.254 202.434 308.374 202.368L323.783 193.968C323.844 193.935 323.897 193.891 323.941 193.837C323.984 193.783 324.017 193.722 324.036 193.655C324.056 193.589 324.062 193.519 324.055 193.451C324.047 193.382 324.026 193.315 323.993 193.255L323.991 193.251Z" fill="#6C63FF"/>
</g>
<g filter="url(#filter32_d_31_209)">
<path d="M349.033 189.476C348.895 189.224 348.663 189.036 348.388 188.955C348.112 188.873 347.816 188.904 347.563 189.041L340.788 192.741L339.138 193.641L332.596 197.205L324.896 201.414C324.642 201.552 324.454 201.786 324.372 202.063C324.291 202.34 324.323 202.638 324.461 202.892C324.599 203.146 324.833 203.334 325.11 203.416C325.387 203.497 325.685 203.465 325.939 203.327L340.186 195.555L341.836 194.655L348.611 190.955C348.736 190.886 348.847 190.793 348.936 190.682C349.026 190.57 349.092 190.442 349.132 190.305C349.172 190.168 349.184 190.024 349.168 189.882C349.152 189.74 349.108 189.602 349.039 189.477L349.033 189.476Z" fill="#CCCCCC"/>
</g>
<g filter="url(#filter33_d_31_209)">
<path d="M354.729 190.547C354.66 190.422 354.567 190.311 354.456 190.222C354.344 190.133 354.216 190.067 354.079 190.027C353.941 189.987 353.798 189.975 353.656 189.991C353.514 190.006 353.376 190.05 353.251 190.119L342.545 195.963L340.895 196.863L326.641 204.635C326.516 204.703 326.405 204.796 326.316 204.907C326.227 205.018 326.16 205.146 326.12 205.283C326.08 205.42 326.067 205.563 326.082 205.705C326.098 205.847 326.141 205.984 326.21 206.109C326.278 206.235 326.37 206.345 326.482 206.434C326.593 206.524 326.72 206.591 326.857 206.631C326.994 206.671 327.138 206.683 327.28 206.668C327.421 206.653 327.559 206.609 327.684 206.541L341.931 198.769L343.582 197.869L354.295 192.025C354.548 191.886 354.735 191.652 354.817 191.375C354.898 191.099 354.866 190.801 354.729 190.547V190.547Z" fill="#CCCCCC"/>
</g>
<g filter="url(#filter34_d_31_209)">
<path d="M317.296 213.457C319.844 213.457 321.91 211.391 321.91 208.843C321.91 206.295 319.844 204.229 317.296 204.229C314.747 204.229 312.682 206.295 312.682 208.843C312.682 211.391 314.747 213.457 317.296 213.457Z" fill="#CCCCCC"/>
</g>
<g filter="url(#filter35_d_31_209)">
<path d="M320.399 234.775C321.176 234.852 321.945 234.989 322.7 235.187L375.028 188.767L371.643 172.114L396.109 163.723L404.963 192.623C405.678 194.958 405.616 197.462 404.787 199.759C403.958 202.056 402.405 204.021 400.364 205.361L333.838 249.038C333.937 252.043 333.117 255.007 331.49 257.535C329.863 260.063 327.504 262.036 324.728 263.191C321.952 264.346 318.89 264.628 315.95 264.001C313.009 263.373 310.33 261.865 308.267 259.678C306.205 257.49 304.857 254.726 304.404 251.754C303.95 248.782 304.412 245.742 305.729 243.039C307.045 240.335 309.153 238.097 311.773 236.621C314.393 235.145 317.399 234.502 320.393 234.777L320.399 234.775Z" fill="#FFB8B8"/>
</g>
<g filter="url(#filter36_d_31_209)">
<path d="M411.044 167.88L396.222 139.567C394.696 135.261 391.557 131.716 387.467 129.681C383.377 127.645 378.656 127.279 374.301 128.659C374.136 128.704 373.978 128.759 373.813 128.817C369.399 130.36 365.778 133.59 363.744 137.8C361.71 142.01 361.43 146.855 362.964 151.271L368.913 182.562C369.083 183.458 369.445 184.306 369.973 185.049C370.502 185.792 371.184 186.413 371.974 186.868C372.837 187.373 373.811 187.661 374.81 187.708C375.632 187.76 376.456 187.645 377.233 187.37L380.414 186.26L400.835 179.148L407.512 176.822C408.373 176.521 409.159 176.038 409.817 175.405C410.475 174.773 410.989 174.007 411.324 173.158C411.659 172.31 411.808 171.399 411.759 170.488C411.711 169.577 411.468 168.687 411.045 167.879L411.044 167.88Z" fill="#6C63FF"/>
</g>
<g filter="url(#filter37_d_31_209)">
<path d="M425.377 298H7.6401C7.28722 298 7 292.904 7 286.607C7 280.31 7.2862 275.214 7.6401 275.214H425.377C425.73 275.214 426.017 280.318 426.017 286.607C426.017 292.896 425.735 298 425.377 298Z" fill="url(#paint0_linear_31_209)"/>
<path d="M425.377 298H7.6401C7.28722 298 7 292.904 7 286.607C7 280.31 7.2862 275.214 7.6401 275.214H425.377C425.73 275.214 426.017 280.318 426.017 286.607C426.017 292.896 425.735 298 425.377 298Z" fill="url(#paint1_linear_31_209)"/>
</g>
<g filter="url(#filter38_d_31_209)">
<path d="M61.5098 263.214V263.589C61.5131 266.132 62.2541 268.619 63.6431 270.749C65.032 272.879 67.0092 274.56 69.3348 275.589C71.0022 276.334 72.8085 276.718 74.6348 276.714H195.795V263.214H61.5098Z" fill="#3F3D56"/>
</g>
<g filter="url(#filter39_d_31_209)">
<path d="M280.396 174.215C278.474 170.247 275.515 166.873 271.831 164.449C270.161 163.343 268.359 162.451 266.467 161.793C263.889 160.893 261.178 160.434 258.447 160.435H142.161C135.697 160.442 129.5 163.014 124.929 167.585C120.358 172.155 117.787 178.353 117.779 184.817V252.336C117.777 253.284 117.832 254.231 117.944 255.172C118.109 256.579 118.395 257.97 118.799 259.328C119.2 260.666 119.717 261.966 120.344 263.214C122.365 267.271 125.477 270.684 129.331 273.069C133.185 275.454 137.628 276.716 142.16 276.714H258.445C261.648 276.716 264.819 276.086 267.778 274.862C270.737 273.637 273.426 271.842 275.69 269.578C277.955 267.314 279.751 264.626 280.977 261.667C282.202 258.708 282.832 255.537 282.831 252.335V184.816C282.836 181.143 282.003 177.518 280.396 174.215V174.215Z" fill="#3F3D56"/>
</g>
<g filter="url(#filter40_d_31_209)">
<path d="M206.674 224.583C209.989 224.583 212.676 221.896 212.676 218.581C212.676 215.266 209.989 212.579 206.674 212.579C203.359 212.579 200.672 215.266 200.672 218.581C200.672 221.896 203.359 224.583 206.674 224.583Z" fill="white"/>
</g>
<defs>
<filter id="filter0_d_31_209" x="364.621" y="124.262" width="29.8318" height="25.7989" filterUnits="userSpaceOnUse" color-interpolation-filters="sRGB">
<feFlood flood-opacity="0" result="BackgroundImageFix"/>
<feColorMatrix in="SourceAlpha" type="matrix" values="0 0 0 0 0 0 0 0 0 0 0 0 0 0 0 0 0 0 127 0" result="hardAlpha"/>
<feOffset dy="3"/>
<feGaussianBlur stdDeviation="3"/>
<feColorMatrix type="matrix" values="0 0 0 0 0 0 0 0 0 0 0 0 0 0 0 0 0 0 0.161 0"/>
<feBlend mode="normal" in2="BackgroundImageFix" result="effect1_dropShadow_31_209"/>
<feBlend mode="normal" in="SourceGraphic" in2="effect1_dropShadow_31_209" result="shape"/>
</filter>
<filter id="filter1_d_31_209" x="350.262" y="153.282" width="29.8318" height="25.7989" filterUnits="userSpaceOnUse" color-interpolation-filters="sRGB">
<feFlood flood-opacity="0" result="BackgroundImageFix"/>
<feColorMatrix in="SourceAlpha" type="matrix" values="0 0 0 0 0 0 0 0 0 0 0 0 0 0 0 0 0 0 127 0" result="hardAlpha"/>
<feOffset dy="3"/>
<feGaussianBlur stdDeviation="3"/>
<feColorMatrix type="matrix" values="0 0 0 0 0 0 0 0 0 0 0 0 0 0 0 0 0 0 0.161 0"/>
<feBlend mode="normal" in2="BackgroundImageFix" result="effect1_dropShadow_31_209"/>
<feBlend mode="normal" in="SourceGraphic" in2="effect1_dropShadow_31_209" result="shape"/>
</filter>
<filter id="filter2_d_31_209" x="167.92" y="170.095" width="132.339" height="75.721" filterUnits="userSpaceOnUse" color-interpolation-filters="sRGB">
<feFlood flood-opacity="0" result="BackgroundImageFix"/>
<feColorMatrix in="SourceAlpha" type="matrix" values="0 0 0 0 0 0 0 0 0 0 0 0 0 0 0 0 0 0 127 0" result="hardAlpha"/>
<feOffset dy="3"/>
<feGaussianBlur stdDeviation="3"/>
<feColorMatrix type="matrix" values="0 0 0 0 0 0 0 0 0 0 0 0 0 0 0 0 0 0 0.161 0"/>
<feBlend mode="normal" in2="BackgroundImageFix" result="effect1_dropShadow_31_209"/>
<feBlend mode="normal" in="SourceGraphic" in2="effect1_dropShadow_31_209" result="shape"/>
</filter>
<filter id="filter3_d_31_209" x="255.551" y="131.46" width="56.6263" height="69.7074" filterUnits="userSpaceOnUse" color-interpolation-filters="sRGB">
<feFlood flood-opacity="0" result="BackgroundImageFix"/>
<feColorMatrix in="SourceAlpha" type="matrix" values="0 0 0 0 0 0 0 0 0 0 0 0 0 0 0 0 0 0 127 0" result="hardAlpha"/>
<feOffset dy="3"/>
<feGaussianBlur stdDeviation="3"/>
<feColorMatrix type="matrix" values="0 0 0 0 0 0 0 0 0 0 0 0 0 0 0 0 0 0 0.161 0"/>
<feBlend mode="normal" in2="BackgroundImageFix" result="effect1_dropShadow_31_209"/>
<feBlend mode="normal" in="SourceGraphic" in2="effect1_dropShadow_31_209" result="shape"/>
</filter>
<filter id="filter4_d_31_209" x="267.396" y="19.564" width="118.058" height="105.193" filterUnits="userSpaceOnUse" color-interpolation-filters="sRGB">
<feFlood flood-opacity="0" result="BackgroundImageFix"/>
<feColorMatrix in="SourceAlpha" type="matrix" values="0 0 0 0 0 0 0 0 0 0 0 0 0 0 0 0 0 0 127 0" result="hardAlpha"/>
<feOffset dy="3"/>
<feGaussianBlur stdDeviation="3"/>
<feColorMatrix type="matrix" values="0 0 0 0 0 0 0 0 0 0 0 0 0 0 0 0 0 0 0.161 0"/>
<feBlend mode="normal" in2="BackgroundImageFix" result="effect1_dropShadow_31_209"/>
<feBlend mode="normal" in="SourceGraphic" in2="effect1_dropShadow_31_209" result="shape"/>
</filter>
<filter id="filter5_d_31_209" x="306.23" y="107.193" width="39.92" height="39.3955" filterUnits="userSpaceOnUse" color-interpolation-filters="sRGB">
<feFlood flood-opacity="0" result="BackgroundImageFix"/>
<feColorMatrix in="SourceAlpha" type="matrix" values="0 0 0 0 0 0 0 0 0 0 0 0 0 0 0 0 0 0 127 0" result="hardAlpha"/>
<feOffset dy="3"/>
<feGaussianBlur stdDeviation="3"/>
<feColorMatrix type="matrix" values="0 0 0 0 0 0 0 0 0 0 0 0 0 0 0 0 0 0 0.161 0"/>
<feBlend mode="normal" in2="BackgroundImageFix" result="effect1_dropShadow_31_209"/>
<feBlend mode="normal" in="SourceGraphic" in2="effect1_dropShadow_31_209" result="shape"/>
</filter>
<filter id="filter6_d_31_209" x="284.571" y="41.136" width="83.366" height="83.366" filterUnits="userSpaceOnUse" color-interpolation-filters="sRGB">
<feFlood flood-opacity="0" result="BackgroundImageFix"/>
<feColorMatrix in="SourceAlpha" type="matrix" values="0 0 0 0 0 0 0 0 0 0 0 0 0 0 0 0 0 0 127 0" result="hardAlpha"/>
<feOffset dy="3"/>
<feGaussianBlur stdDeviation="3"/>
<feColorMatrix type="matrix" values="0 0 0 0 0 0 0 0 0 0 0 0 0 0 0 0 0 0 0.161 0"/>
<feBlend mode="normal" in2="BackgroundImageFix" result="effect1_dropShadow_31_209"/>
<feBlend mode="normal" in="SourceGraphic" in2="effect1_dropShadow_31_209" result="shape"/>
</filter>
<filter id="filter7_d_31_209" x="265.096" y="120.975" width="124.577" height="142.395" filterUnits="userSpaceOnUse" color-interpolation-filters="sRGB">
<feFlood flood-opacity="0" result="BackgroundImageFix"/>
<feColorMatrix in="SourceAlpha" type="matrix" values="0 0 0 0 0 0 0 0 0 0 0 0 0 0 0 0 0 0 127 0" result="hardAlpha"/>
<feOffset dy="3"/>
<feGaussianBlur stdDeviation="3"/>
<feColorMatrix type="matrix" values="0 0 0 0 0 0 0 0 0 0 0 0 0 0 0 0 0 0 0.161 0"/>
<feBlend mode="normal" in2="BackgroundImageFix" result="effect1_dropShadow_31_209"/>
<feBlend mode="normal" in="SourceGraphic" in2="effect1_dropShadow_31_209" result="shape"/>
</filter>
<filter id="filter8_d_31_209" x="290.502" y="223.625" width="135.313" height="82.8453" filterUnits="userSpaceOnUse" color-interpolation-filters="sRGB">
<feFlood flood-opacity="0" result="BackgroundImageFix"/>
<feColorMatrix in="SourceAlpha" type="matrix" values="0 0 0 0 0 0 0 0 0 0 0 0 0 0 0 0 0 0 127 0" result="hardAlpha"/>
<feOffset dy="3"/>
<feGaussianBlur stdDeviation="3"/>
<feColorMatrix type="matrix" values="0 0 0 0 0 0 0 0 0 0 0 0 0 0 0 0 0 0 0.161 0"/>
<feBlend mode="normal" in2="BackgroundImageFix" result="effect1_dropShadow_31_209"/>
<feBlend mode="normal" in="SourceGraphic" in2="effect1_dropShadow_31_209" result="shape"/>
</filter>
<filter id="filter9_d_31_209" x="279.018" y="35.547" width="94.812" height="49.774" filterUnits="userSpaceOnUse" color-interpolation-filters="sRGB">
<feFlood flood-opacity="0" result="BackgroundImageFix"/>
<feColorMatrix in="SourceAlpha" type="matrix" values="0 0 0 0 0 0 0 0 0 0 0 0 0 0 0 0 0 0 127 0" result="hardAlpha"/>
<feOffset dy="3"/>
<feGaussianBlur stdDeviation="3"/>
<feColorMatrix type="matrix" values="0 0 0 0 0 0 0 0 0 0 0 0 0 0 0 0 0 0 0.161 0"/>
<feBlend mode="normal" in2="BackgroundImageFix" result="effect1_dropShadow_31_209"/>
<feBlend mode="normal" in="SourceGraphic" in2="effect1_dropShadow_31_209" result="shape"/>
</filter>
<filter id="filter10_d_31_209" x="108.545" y="219.299" width="106.302" height="56.4116" filterUnits="userSpaceOnUse" color-interpolation-filters="sRGB">
<feFlood flood-opacity="0" result="BackgroundImageFix"/>
<feColorMatrix in="SourceAlpha" type="matrix" values="0 0 0 0 0 0 0 0 0 0 0 0 0 0 0 0 0 0 127 0" result="hardAlpha"/>
<feOffset dy="3"/>
<feGaussianBlur stdDeviation="3"/>
<feColorMatrix type="matrix" values="0 0 0 0 0 0 0 0 0 0 0 0 0 0 0 0 0 0 0.161 0"/>
<feBlend mode="normal" in2="BackgroundImageFix" result="effect1_dropShadow_31_209"/>
<feBlend mode="normal" in="SourceGraphic" in2="effect1_dropShadow_31_209" result="shape"/>
</filter>
<filter id="filter11_d_31_209" x="72.6602" y="124.992" width="105.309" height="143.005" filterUnits="userSpaceOnUse" color-interpolation-filters="sRGB">
<feFlood flood-opacity="0" result="BackgroundImageFix"/>
<feColorMatrix in="SourceAlpha" type="matrix" values="0 0 0 0 0 0 0 0 0 0 0 0 0 0 0 0 0 0 127 0" result="hardAlpha"/>
<feOffset dy="3"/>
<feGaussianBlur stdDeviation="3"/>
<feColorMatrix type="matrix" values="0 0 0 0 0 0 0 0 0 0 0 0 0 0 0 0 0 0 0.161 0"/>
<feBlend mode="normal" in2="BackgroundImageFix" result="effect1_dropShadow_31_209"/>
<feBlend mode="normal" in="SourceGraphic" in2="effect1_dropShadow_31_209" result="shape"/>
</filter>
<filter id="filter12_d_31_209" x="16.7969" y="93.683" width="146.85" height="212.959" filterUnits="userSpaceOnUse" color-interpolation-filters="sRGB">
<feFlood flood-opacity="0" result="BackgroundImageFix"/>
<feColorMatrix in="SourceAlpha" type="matrix" values="0 0 0 0 0 0 0 0 0 0 0 0 0 0 0 0 0 0 127 0" result="hardAlpha"/>
<feOffset dy="3"/>
<feGaussianBlur stdDeviation="3"/>
<feColorMatrix type="matrix" values="0 0 0 0 0 0 0 0 0 0 0 0 0 0 0 0 0 0 0.161 0"/>
<feBlend mode="normal" in2="BackgroundImageFix" result="effect1_dropShadow_31_209"/>
<feBlend mode="normal" in="SourceGraphic" in2="effect1_dropShadow_31_209" result="shape"/>
</filter>
<filter id="filter13_d_31_209" x="38.9922" y="1.98254" width="98.6067" height="93.3744" filterUnits="userSpaceOnUse" color-interpolation-filters="sRGB">
<feFlood flood-opacity="0" result="BackgroundImageFix"/>
<feColorMatrix in="SourceAlpha" type="matrix" values="0 0 0 0 0 0 0 0 0 0 0 0 0 0 0 0 0 0 127 0" result="hardAlpha"/>
<feOffset dy="3"/>
<feGaussianBlur stdDeviation="3"/>
<feColorMatrix type="matrix" values="0 0 0 0 0 0 0 0 0 0 0 0 0 0 0 0 0 0 0.161 0"/>
<feBlend mode="normal" in2="BackgroundImageFix" result="effect1_dropShadow_31_209"/>
<feBlend mode="normal" in="SourceGraphic" in2="effect1_dropShadow_31_209" result="shape"/>
</filter>
<filter id="filter14_d_31_209" x="63.6582" y="78.749" width="48.57" height="39.738" filterUnits="userSpaceOnUse" color-interpolation-filters="sRGB">
<feFlood flood-opacity="0" result="BackgroundImageFix"/>
<feColorMatrix in="SourceAlpha" type="matrix" values="0 0 0 0 0 0 0 0 0 0 0 0 0 0 0 0 0 0 127 0" result="hardAlpha"/>
<feOffset dy="3"/>
<feGaussianBlur stdDeviation="3"/>
<feColorMatrix type="matrix" values="0 0 0 0 0 0 0 0 0 0 0 0 0 0 0 0 0 0 0.161 0"/>
<feBlend mode="normal" in2="BackgroundImageFix" result="effect1_dropShadow_31_209"/>
<feBlend mode="normal" in="SourceGraphic" in2="effect1_dropShadow_31_209" result="shape"/>
</filter>
<filter id="filter15_d_31_209" x="45.9933" y="12.776" width="83.366" height="83.366" filterUnits="userSpaceOnUse" color-interpolation-filters="sRGB">
<feFlood flood-opacity="0" result="BackgroundImageFix"/>
<feColorMatrix in="SourceAlpha" type="matrix" values="0 0 0 0 0 0 0 0 0 0 0 0 0 0 0 0 0 0 127 0" result="hardAlpha"/>
<feOffset dy="3"/>
<feGaussianBlur stdDeviation="3"/>
<feColorMatrix type="matrix" values="0 0 0 0 0 0 0 0 0 0 0 0 0 0 0 0 0 0 0.161 0"/>
<feBlend mode="normal" in2="BackgroundImageFix" result="effect1_dropShadow_31_209"/>
<feBlend mode="normal" in="SourceGraphic" in2="effect1_dropShadow_31_209" result="shape"/>
</filter>
<filter id="filter16_d_31_209" x="49.9629" y="9.19122" width="81.5795" height="46.7066" filterUnits="userSpaceOnUse" color-interpolation-filters="sRGB">
<feFlood flood-opacity="0" result="BackgroundImageFix"/>
<feColorMatrix in="SourceAlpha" type="matrix" values="0 0 0 0 0 0 0 0 0 0 0 0 0 0 0 0 0 0 127 0" result="hardAlpha"/>
<feOffset dy="3"/>
<feGaussianBlur stdDeviation="3"/>
<feColorMatrix type="matrix" values="0 0 0 0 0 0 0 0 0 0 0 0 0 0 0 0 0 0 0.161 0"/>
<feBlend mode="normal" in2="BackgroundImageFix" result="effect1_dropShadow_31_209"/>
<feBlend mode="normal" in="SourceGraphic" in2="effect1_dropShadow_31_209" result="shape"/>
</filter>
<filter id="filter17_d_31_209" x="37.3086" y="213.259" width="106.349" height="55.1804" filterUnits="userSpaceOnUse" color-interpolation-filters="sRGB">
<feFlood flood-opacity="0" result="BackgroundImageFix"/>
<feColorMatrix in="SourceAlpha" type="matrix" values="0 0 0 0 0 0 0 0 0 0 0 0 0 0 0 0 0 0 127 0" result="hardAlpha"/>
<feOffset dy="3"/>
<feGaussianBlur stdDeviation="3"/>
<feColorMatrix type="matrix" values="0 0 0 0 0 0 0 0 0 0 0 0 0 0 0 0 0 0 0.161 0"/>
<feBlend mode="normal" in2="BackgroundImageFix" result="effect1_dropShadow_31_209"/>
<feBlend mode="normal" in="SourceGraphic" in2="effect1_dropShadow_31_209" result="shape"/>
</filter>
<filter id="filter18_d_31_209" x="0.896484" y="119.313" width="105.426" height="142.053" filterUnits="userSpaceOnUse" color-interpolation-filters="sRGB">
<feFlood flood-opacity="0" result="BackgroundImageFix"/>
<feColorMatrix in="SourceAlpha" type="matrix" values="0 0 0 0 0 0 0 0 0 0 0 0 0 0 0 0 0 0 127 0" result="hardAlpha"/>
<feOffset dy="3"/>
<feGaussianBlur stdDeviation="3"/>
<feColorMatrix type="matrix" values="0 0 0 0 0 0 0 0 0 0 0 0 0 0 0 0 0 0 0.161 0"/>
<feBlend mode="normal" in2="BackgroundImageFix" result="effect1_dropShadow_31_209"/>
<feBlend mode="normal" in="SourceGraphic" in2="effect1_dropShadow_31_209" result="shape"/>
</filter>
<filter id="filter19_d_31_209" x="271.057" y="174.169" width="98.6053" height="102.147" filterUnits="userSpaceOnUse" color-interpolation-filters="sRGB">
<feFlood flood-opacity="0" result="BackgroundImageFix"/>
<feColorMatrix in="SourceAlpha" type="matrix" values="0 0 0 0 0 0 0 0 0 0 0 0 0 0 0 0 0 0 127 0" result="hardAlpha"/>
<feOffset dy="3"/>
<feGaussianBlur stdDeviation="3"/>
<feColorMatrix type="matrix" values="0 0 0 0 0 0 0 0 0 0 0 0 0 0 0 0 0 0 0.161 0"/>
<feBlend mode="normal" in2="BackgroundImageFix" result="effect1_dropShadow_31_209"/>
<feBlend mode="normal" in="SourceGraphic" in2="effect1_dropShadow_31_209" result="shape"/>
</filter>
<filter id="filter20_d_31_209" x="272.932" y="176.047" width="94.8505" height="98.3905" filterUnits="userSpaceOnUse" color-interpolation-filters="sRGB">
<feFlood flood-opacity="0" result="BackgroundImageFix"/>
<feColorMatrix in="SourceAlpha" type="matrix" values="0 0 0 0 0 0 0 0 0 0 0 0 0 0 0 0 0 0 127 0" result="hardAlpha"/>
<feOffset dy="3"/>
<feGaussianBlur stdDeviation="3"/>
<feColorMatrix type="matrix" values="0 0 0 0 0 0 0 0 0 0 0 0 0 0 0 0 0 0 0.161 0"/>
<feBlend mode="normal" in2="BackgroundImageFix" result="effect1_dropShadow_31_209"/>
<feBlend mode="normal" in="SourceGraphic" in2="effect1_dropShadow_31_209" result="shape"/>
</filter>
<filter id="filter21_d_31_209" x="302.48" y="190.911" width="30.8894" height="23.2929" filterUnits="userSpaceOnUse" color-interpolation-filters="sRGB">
<feFlood flood-opacity="0" result="BackgroundImageFix"/>
<feColorMatrix in="SourceAlpha" type="matrix" values="0 0 0 0 0 0 0 0 0 0 0 0 0 0 0 0 0 0 127 0" result="hardAlpha"/>
<feOffset dy="3"/>
<feGaussianBlur stdDeviation="3"/>
<feColorMatrix type="matrix" values="0 0 0 0 0 0 0 0 0 0 0 0 0 0 0 0 0 0 0.161 0"/>
<feBlend mode="normal" in2="BackgroundImageFix" result="effect1_dropShadow_31_209"/>
<feBlend mode="normal" in="SourceGraphic" in2="effect1_dropShadow_31_209" result="shape"/>
</filter>
<filter id="filter22_d_31_209" x="304.271" y="191.985" width="34.7987" height="25.4276" filterUnits="userSpaceOnUse" color-interpolation-filters="sRGB">
<feFlood flood-opacity="0" result="BackgroundImageFix"/>
<feColorMatrix in="SourceAlpha" type="matrix" values="0 0 0 0 0 0 0 0 0 0 0 0 0 0 0 0 0 0 127 0" result="hardAlpha"/>
<feOffset dy="3"/>
<feGaussianBlur stdDeviation="3"/>
<feColorMatrix type="matrix" values="0 0 0 0 0 0 0 0 0 0 0 0 0 0 0 0 0 0 0.161 0"/>
<feBlend mode="normal" in2="BackgroundImageFix" result="effect1_dropShadow_31_209"/>
<feBlend mode="normal" in="SourceGraphic" in2="effect1_dropShadow_31_209" result="shape"/>
</filter>
<filter id="filter23_d_31_209" x="281.545" y="198.209" width="35.013" height="33.472" filterUnits="userSpaceOnUse" color-interpolation-filters="sRGB">
<feFlood flood-opacity="0" result="BackgroundImageFix"/>
<feColorMatrix in="SourceAlpha" type="matrix" values="0 0 0 0 0 0 0 0 0 0 0 0 0 0 0 0 0 0 127 0" result="hardAlpha"/>
<feOffset dy="3"/>
<feGaussianBlur stdDeviation="3"/>
<feColorMatrix type="matrix" values="0 0 0 0 0 0 0 0 0 0 0 0 0 0 0 0 0 0 0.161 0"/>
<feBlend mode="normal" in2="BackgroundImageFix" result="effect1_dropShadow_31_209"/>
<feBlend mode="normal" in="SourceGraphic" in2="effect1_dropShadow_31_209" result="shape"/>
</filter>
<filter id="filter24_d_31_209" x="304.816" y="206.169" width="36.8434" height="26.5461" filterUnits="userSpaceOnUse" color-interpolation-filters="sRGB">
<feFlood flood-opacity="0" result="BackgroundImageFix"/>
<feColorMatrix in="SourceAlpha" type="matrix" values="0 0 0 0 0 0 0 0 0 0 0 0 0 0 0 0 0 0 127 0" result="hardAlpha"/>
<feOffset dy="3"/>
<feGaussianBlur stdDeviation="3"/>
<feColorMatrix type="matrix" values="0 0 0 0 0 0 0 0 0 0 0 0 0 0 0 0 0 0 0.161 0"/>
<feBlend mode="normal" in2="BackgroundImageFix" result="effect1_dropShadow_31_209"/>
<feBlend mode="normal" in="SourceGraphic" in2="effect1_dropShadow_31_209" result="shape"/>
</filter>
<filter id="filter25_d_31_209" x="306.576" y="207.243" width="40.7846" height="28.6946" filterUnits="userSpaceOnUse" color-interpolation-filters="sRGB">
<feFlood flood-opacity="0" result="BackgroundImageFix"/>
<feColorMatrix in="SourceAlpha" type="matrix" values="0 0 0 0 0 0 0 0 0 0 0 0 0 0 0 0 0 0 127 0" result="hardAlpha"/>
<feOffset dy="3"/>
<feGaussianBlur stdDeviation="3"/>
<feColorMatrix type="matrix" values="0 0 0 0 0 0 0 0 0 0 0 0 0 0 0 0 0 0 0.161 0"/>
<feBlend mode="normal" in2="BackgroundImageFix" result="effect1_dropShadow_31_209"/>
<feBlend mode="normal" in="SourceGraphic" in2="effect1_dropShadow_31_209" result="shape"/>
</filter>
<filter id="filter26_d_31_209" x="293.182" y="221.479" width="21.228" height="21.228" filterUnits="userSpaceOnUse" color-interpolation-filters="sRGB">
<feFlood flood-opacity="0" result="BackgroundImageFix"/>
<feColorMatrix in="SourceAlpha" type="matrix" values="0 0 0 0 0 0 0 0 0 0 0 0 0 0 0 0 0 0 127 0" result="hardAlpha"/>
<feOffset dy="3"/>
<feGaussianBlur stdDeviation="3"/>
<feColorMatrix type="matrix" values="0 0 0 0 0 0 0 0 0 0 0 0 0 0 0 0 0 0 0.161 0"/>
<feBlend mode="normal" in2="BackgroundImageFix" result="effect1_dropShadow_31_209"/>
<feBlend mode="normal" in="SourceGraphic" in2="effect1_dropShadow_31_209" result="shape"/>
</filter>
<filter id="filter27_d_31_209" x="284.557" y="153.914" width="98.6091" height="102.146" filterUnits="userSpaceOnUse" color-interpolation-filters="sRGB">
<feFlood flood-opacity="0" result="BackgroundImageFix"/>
<feColorMatrix in="SourceAlpha" type="matrix" values="0 0 0 0 0 0 0 0 0 0 0 0 0 0 0 0 0 0 127 0" result="hardAlpha"/>
<feOffset dy="3"/>
<feGaussianBlur stdDeviation="3"/>
<feColorMatrix type="matrix" values="0 0 0 0 0 0 0 0 0 0 0 0 0 0 0 0 0 0 0.161 0"/>
<feBlend mode="normal" in2="BackgroundImageFix" result="effect1_dropShadow_31_209"/>
<feBlend mode="normal" in="SourceGraphic" in2="effect1_dropShadow_31_209" result="shape"/>
</filter>
<filter id="filter28_d_31_209" x="286.441" y="155.797" width="94.8505" height="98.3905" filterUnits="userSpaceOnUse" color-interpolation-filters="sRGB">
<feFlood flood-opacity="0" result="BackgroundImageFix"/>
<feColorMatrix in="SourceAlpha" type="matrix" values="0 0 0 0 0 0 0 0 0 0 0 0 0 0 0 0 0 0 127 0" result="hardAlpha"/>
<feOffset dy="3"/>
<feGaussianBlur stdDeviation="3"/>
<feColorMatrix type="matrix" values="0 0 0 0 0 0 0 0 0 0 0 0 0 0 0 0 0 0 0.161 0"/>
<feBlend mode="normal" in2="BackgroundImageFix" result="effect1_dropShadow_31_209"/>
<feBlend mode="normal" in="SourceGraphic" in2="effect1_dropShadow_31_209" result="shape"/>
</filter>
<filter id="filter29_d_31_209" x="315.979" y="170.651" width="30.8921" height="23.2962" filterUnits="userSpaceOnUse" color-interpolation-filters="sRGB">
<feFlood flood-opacity="0" result="BackgroundImageFix"/>
<feColorMatrix in="SourceAlpha" type="matrix" values="0 0 0 0 0 0 0 0 0 0 0 0 0 0 0 0 0 0 127 0" result="hardAlpha"/>
<feOffset dy="3"/>
<feGaussianBlur stdDeviation="3"/>
<feColorMatrix type="matrix" values="0 0 0 0 0 0 0 0 0 0 0 0 0 0 0 0 0 0 0.161 0"/>
<feBlend mode="normal" in2="BackgroundImageFix" result="effect1_dropShadow_31_209"/>
<feBlend mode="normal" in="SourceGraphic" in2="effect1_dropShadow_31_209" result="shape"/>
</filter>
<filter id="filter30_d_31_209" x="317.701" y="171.725" width="34.8689" height="25.4665" filterUnits="userSpaceOnUse" color-interpolation-filters="sRGB">
<feFlood flood-opacity="0" result="BackgroundImageFix"/>
<feColorMatrix in="SourceAlpha" type="matrix" values="0 0 0 0 0 0 0 0 0 0 0 0 0 0 0 0 0 0 127 0" result="hardAlpha"/>
<feOffset dy="3"/>
<feGaussianBlur stdDeviation="3"/>
<feColorMatrix type="matrix" values="0 0 0 0 0 0 0 0 0 0 0 0 0 0 0 0 0 0 0.161 0"/>
<feBlend mode="normal" in2="BackgroundImageFix" result="effect1_dropShadow_31_209"/>
<feBlend mode="normal" in="SourceGraphic" in2="effect1_dropShadow_31_209" result="shape"/>
</filter>
<filter id="filter31_d_31_209" x="295.047" y="177.959" width="35.0109" height="33.4739" filterUnits="userSpaceOnUse" color-interpolation-filters="sRGB">
<feFlood flood-opacity="0" result="BackgroundImageFix"/>
<feColorMatrix in="SourceAlpha" type="matrix" values="0 0 0 0 0 0 0 0 0 0 0 0 0 0 0 0 0 0 127 0" result="hardAlpha"/>
<feOffset dy="3"/>
<feGaussianBlur stdDeviation="3"/>
<feColorMatrix type="matrix" values="0 0 0 0 0 0 0 0 0 0 0 0 0 0 0 0 0 0 0.161 0"/>
<feBlend mode="normal" in2="BackgroundImageFix" result="effect1_dropShadow_31_209"/>
<feBlend mode="normal" in="SourceGraphic" in2="effect1_dropShadow_31_209" result="shape"/>
</filter>
<filter id="filter32_d_31_209" x="318.328" y="185.91" width="36.8467" height="26.5497" filterUnits="userSpaceOnUse" color-interpolation-filters="sRGB">
<feFlood flood-opacity="0" result="BackgroundImageFix"/>
<feColorMatrix in="SourceAlpha" type="matrix" values="0 0 0 0 0 0 0 0 0 0 0 0 0 0 0 0 0 0 127 0" result="hardAlpha"/>
<feOffset dy="3"/>
<feGaussianBlur stdDeviation="3"/>
<feColorMatrix type="matrix" values="0 0 0 0 0 0 0 0 0 0 0 0 0 0 0 0 0 0 0.161 0"/>
<feBlend mode="normal" in2="BackgroundImageFix" result="effect1_dropShadow_31_209"/>
<feBlend mode="normal" in="SourceGraphic" in2="effect1_dropShadow_31_209" result="shape"/>
</filter>
<filter id="filter33_d_31_209" x="320.076" y="186.984" width="40.7847" height="28.6904" filterUnits="userSpaceOnUse" color-interpolation-filters="sRGB">
<feFlood flood-opacity="0" result="BackgroundImageFix"/>
<feColorMatrix in="SourceAlpha" type="matrix" values="0 0 0 0 0 0 0 0 0 0 0 0 0 0 0 0 0 0 127 0" result="hardAlpha"/>
<feOffset dy="3"/>
<feGaussianBlur stdDeviation="3"/>
<feColorMatrix type="matrix" values="0 0 0 0 0 0 0 0 0 0 0 0 0 0 0 0 0 0 0.161 0"/>
<feBlend mode="normal" in2="BackgroundImageFix" result="effect1_dropShadow_31_209"/>
<feBlend mode="normal" in="SourceGraphic" in2="effect1_dropShadow_31_209" result="shape"/>
</filter>
<filter id="filter34_d_31_209" x="306.682" y="201.229" width="21.228" height="21.228" filterUnits="userSpaceOnUse" color-interpolation-filters="sRGB">
<feFlood flood-opacity="0" result="BackgroundImageFix"/>
<feColorMatrix in="SourceAlpha" type="matrix" values="0 0 0 0 0 0 0 0 0 0 0 0 0 0 0 0 0 0 127 0" result="hardAlpha"/>
<feOffset dy="3"/>
<feGaussianBlur stdDeviation="3"/>
<feColorMatrix type="matrix" values="0 0 0 0 0 0 0 0 0 0 0 0 0 0 0 0 0 0 0.161 0"/>
<feBlend mode="normal" in2="BackgroundImageFix" result="effect1_dropShadow_31_209"/>
<feBlend mode="normal" in="SourceGraphic" in2="effect1_dropShadow_31_209" result="shape"/>
</filter>
<filter id="filter35_d_31_209" x="298.234" y="160.723" width="113.223" height="112.604" filterUnits="userSpaceOnUse" color-interpolation-filters="sRGB">
<feFlood flood-opacity="0" result="BackgroundImageFix"/>
<feColorMatrix in="SourceAlpha" type="matrix" values="0 0 0 0 0 0 0 0 0 0 0 0 0 0 0 0 0 0 127 0" result="hardAlpha"/>
<feOffset dy="3"/>
<feGaussianBlur stdDeviation="3"/>
<feColorMatrix type="matrix" values="0 0 0 0 0 0 0 0 0 0 0 0 0 0 0 0 0 0 0.161 0"/>
<feBlend mode="normal" in2="BackgroundImageFix" result="effect1_dropShadow_31_209"/>
<feBlend mode="normal" in="SourceGraphic" in2="effect1_dropShadow_31_209" result="shape"/>
</filter>
<filter id="filter36_d_31_209" x="355.986" y="124.836" width="61.7819" height="71.8839" filterUnits="userSpaceOnUse" color-interpolation-filters="sRGB">
<feFlood flood-opacity="0" result="BackgroundImageFix"/>
<feColorMatrix in="SourceAlpha" type="matrix" values="0 0 0 0 0 0 0 0 0 0 0 0 0 0 0 0 0 0 127 0" result="hardAlpha"/>
<feOffset dy="3"/>
<feGaussianBlur stdDeviation="3"/>
<feColorMatrix type="matrix" values="0 0 0 0 0 0 0 0 0 0 0 0 0 0 0 0 0 0 0.161 0"/>
<feBlend mode="normal" in2="BackgroundImageFix" result="effect1_dropShadow_31_209"/>
<feBlend mode="normal" in="SourceGraphic" in2="effect1_dropShadow_31_209" result="shape"/>
</filter>
<filter id="filter37_d_31_209" x="1" y="272.214" width="431.017" height="34.786" filterUnits="userSpaceOnUse" color-interpolation-filters="sRGB">
<feFlood flood-opacity="0" result="BackgroundImageFix"/>
<feColorMatrix in="SourceAlpha" type="matrix" values="0 0 0 0 0 0 0 0 0 0 0 0 0 0 0 0 0 0 127 0" result="hardAlpha"/>
<feOffset dy="3"/>
<feGaussianBlur stdDeviation="3"/>
<feColorMatrix type="matrix" values="0 0 0 0 0 0 0 0 0 0 0 0 0 0 0 0 0 0 0.161 0"/>
<feBlend mode="normal" in2="BackgroundImageFix" result="effect1_dropShadow_31_209"/>
<feBlend mode="normal" in="SourceGraphic" in2="effect1_dropShadow_31_209" result="shape"/>
</filter>
<filter id="filter38_d_31_209" x="55.5098" y="260.214" width="146.285" height="25.5" filterUnits="userSpaceOnUse" color-interpolation-filters="sRGB">
<feFlood flood-opacity="0" result="BackgroundImageFix"/>
<feColorMatrix in="SourceAlpha" type="matrix" values="0 0 0 0 0 0 0 0 0 0 0 0 0 0 0 0 0 0 127 0" result="hardAlpha"/>
<feOffset dy="3"/>
<feGaussianBlur stdDeviation="3"/>
<feColorMatrix type="matrix" values="0 0 0 0 0 0 0 0 0 0 0 0 0 0 0 0 0 0 0.161 0"/>
<feBlend mode="normal" in2="BackgroundImageFix" result="effect1_dropShadow_31_209"/>
<feBlend mode="normal" in="SourceGraphic" in2="effect1_dropShadow_31_209" result="shape"/>
</filter>
<filter id="filter39_d_31_209" x="111.779" y="157.435" width="177.052" height="128.279" filterUnits="userSpaceOnUse" color-interpolation-filters="sRGB">
<feFlood flood-opacity="0" result="BackgroundImageFix"/>
<feColorMatrix in="SourceAlpha" type="matrix" values="0 0 0 0 0 0 0 0 0 0 0 0 0 0 0 0 0 0 127 0" result="hardAlpha"/>
<feOffset dy="3"/>
<feGaussianBlur stdDeviation="3"/>
<feColorMatrix type="matrix" values="0 0 0 0 0 0 0 0 0 0 0 0 0 0 0 0 0 0 0.161 0"/>
<feBlend mode="normal" in2="BackgroundImageFix" result="effect1_dropShadow_31_209"/>
<feBlend mode="normal" in="SourceGraphic" in2="effect1_dropShadow_31_209" result="shape"/>
</filter>
<filter id="filter40_d_31_209" x="194.672" y="209.579" width="24.004" height="24.004" filterUnits="userSpaceOnUse" color-interpolation-filters="sRGB">
<feFlood flood-opacity="0" result="BackgroundImageFix"/>
<feColorMatrix in="SourceAlpha" type="matrix" values="0 0 0 0 0 0 0 0 0 0 0 0 0 0 0 0 0 0 127 0" result="hardAlpha"/>
<feOffset dy="3"/>
<feGaussianBlur stdDeviation="3"/>
<feColorMatrix type="matrix" values="0 0 0 0 0 0 0 0 0 0 0 0 0 0 0 0 0 0 0.161 0"/>
<feBlend mode="normal" in2="BackgroundImageFix" result="effect1_dropShadow_31_209"/>
<feBlend mode="normal" in="SourceGraphic" in2="effect1_dropShadow_31_209" result="shape"/>
</filter>
<linearGradient id="paint0_linear_31_209" x1="216.508" y1="290.5" x2="216.508" y2="298" gradientUnits="userSpaceOnUse">
<stop stop-color="#263769"/>
<stop offset="1" stop-color="#263769" stop-opacity="0"/>
</linearGradient>
<linearGradient id="paint1_linear_31_209" x1="217" y1="298" x2="217" y2="279.5" gradientUnits="userSpaceOnUse">
<stop stop-color="#0C1738"/>
<stop offset="1" stop-color="#263769" stop-opacity="0"/>
</linearGradient>
</defs>
</svg>
