<svg width="24" height="29" viewBox="0 0 24 29" fill="none" xmlns="http://www.w3.org/2000/svg">
<g clip-path="url(#clip0_29_1869)">
<path d="M0.0350637 24.851C-0.0461122 22.9994 -0.0127395 21.1445 0.135039 19.297C1.43504 21.228 5.73504 22.98 11.515 22.98C17.295 22.98 21.002 21.724 22.979 19.465C23.357 20.504 23.1631 23.174 23.1631 25.05C20.6911 27.75 17.4101 29 11.6291 29C5.84806 29 1.82506 27.686 0.0350637 24.851ZM0.0350637 17.603C0.0350637 16.236 -0.0769412 12.968 0.280059 12.118C1.75006 13.993 5.73111 15.733 11.5121 15.733C17.2931 15.733 21.1561 14.322 22.8931 12.117C23.3531 13.151 23.1601 15.927 23.1601 17.803C20.6881 20.503 17.407 21.753 11.626 21.753C5.84501 21.753 1.82506 20.437 0.0350637 17.603V17.603ZM0.0350637 10.47C-0.0461122 8.61835 -0.0127395 6.76348 0.135039 4.91598C0.943039 7.05798 5.73504 8.59898 11.515 8.59898C17.295 8.59898 21.53 7.46697 22.979 5.08397C23.357 6.12297 23.1631 8.79298 23.1631 10.669C20.6911 13.369 17.4101 14.619 11.6291 14.619C5.84806 14.619 1.82506 13.304 0.0350637 10.47ZM0.380034 3.73997C0.380034 1.67497 5.40208 0.000976562 11.5971 0.000976562C17.7921 0.000976562 22.8111 1.67497 22.8111 3.73997C22.8111 5.80498 17.789 7.47898 11.594 7.47898C5.39902 7.47898 0.380034 5.80498 0.380034 3.73997Z" fill="#263769"/>
</g>
<defs>
<clipPath id="clip0_29_1869">
<rect width="23.209" height="29" fill="white"/>
</clipPath>
</defs>
</svg>
