<svg xmlns="http://www.w3.org/2000/svg" width="23.209" height="29" viewBox="0 0 23.209 29"><path d="M-1202.776-2.846a44.96,44.96,0,0,1,.1-5.554c1.3,1.931,5.6,3.683,11.38,3.683s9.487-1.256,11.464-3.515c.378,1.039.184,3.709.184,5.585-2.472,2.7-5.753,3.95-11.534,3.95S-1200.986-.011-1202.776-2.846Zm0-7.248c0-1.367-.112-4.635.245-5.485,1.47,1.875,5.451,3.615,11.232,3.615s9.644-1.411,11.381-3.616c.46,1.034.267,3.81.267,5.686-2.472,2.7-5.753,3.95-11.534,3.95S-1200.986-7.26-1202.776-10.094Zm0-7.133a44.96,44.96,0,0,1,.1-5.554c.808,2.142,5.6,3.683,11.38,3.683s10.015-1.132,11.464-3.515c.378,1.039.184,3.709.184,5.585-2.472,2.7-5.753,3.95-11.534,3.95S-1200.986-14.393-1202.776-17.227Zm.345-6.73c0-2.065,5.022-3.739,11.217-3.739S-1180-26.022-1180-23.957s-5.022,3.739-11.217,3.739S-1202.431-21.892-1202.431-23.957Z" transform="translate(1202.811 27.697)" fill="#7469ff"/></svg>