<svg xmlns="http://www.w3.org/2000/svg" width="26.363" height="30" viewBox="0 0 26.363 30"><path d="M26.3,7.531a1.883,1.883,0,0,0,1.88-1.882V1.883A1.883,1.883,0,0,0,26.3,0H3.7A1.883,1.883,0,0,0,1.82,1.883a1.862,1.862,0,0,0,.139.7v.011a1.887,1.887,0,0,0,.411.62h0L14.157,15,2.387,26.77v.006A1.882,1.882,0,0,0,3.7,30H26.3a1.883,1.883,0,0,0,1.883-1.883V24.351a1.883,1.883,0,0,0-3.766,0v1.883H8.249l9.9-9.9a1.881,1.881,0,0,0,0-2.662l-.008-.006v-.008L8.249,3.766H24.414V5.649A1.883,1.883,0,0,0,26.3,7.531Z" transform="translate(-1.82)" fill="#7469ff"/></svg>