<svg width="30" height="30" viewBox="0 0 30 30" fill="none" xmlns="http://www.w3.org/2000/svg">
<g clip-path="url(#clip0_29_1873)">
<path d="M21.573 29H4.177C3.33449 28.9997 2.52656 28.6649 1.93081 28.0692C1.33507 27.4734 1.00027 26.6655 1 25.823V8.677C1.00027 7.83449 1.33507 7.02656 1.93081 6.43081C2.52656 5.83507 3.33449 5.50027 4.177 5.5H11.377C11.574 5.5 11.769 5.5388 11.951 5.61418C12.133 5.68956 12.2984 5.80005 12.4377 5.93934C12.5769 6.07863 12.6874 6.24399 12.7628 6.42597C12.8382 6.60796 12.877 6.80302 12.877 7C12.877 7.19698 12.8382 7.39204 12.7628 7.57403C12.6874 7.75601 12.5769 7.92137 12.4377 8.06066C12.2984 8.19995 12.133 8.31044 11.951 8.38582C11.769 8.4612 11.574 8.5 11.377 8.5H4.177C4.13014 8.50026 4.08527 8.519 4.05213 8.55213C4.01899 8.58527 4.00026 8.63014 4 8.677V25.823C4.00026 25.8699 4.01899 25.9147 4.05213 25.9479C4.08527 25.981 4.13014 25.9997 4.177 26H21.577C21.6242 26 21.6695 25.9812 21.7029 25.9479C21.7362 25.9145 21.755 25.8692 21.755 25.822V18.75C21.755 18.3522 21.913 17.9706 22.1943 17.6893C22.4756 17.408 22.8572 17.25 23.255 17.25C23.6528 17.25 24.0344 17.408 24.3157 17.6893C24.597 17.9706 24.755 18.3522 24.755 18.75V25.823C24.7549 26.2406 24.6724 26.6541 24.5124 27.0398C24.3524 27.4255 24.1179 27.7759 23.8224 28.071C23.5269 28.366 23.1761 28.5999 22.7902 28.7593C22.4042 28.9187 21.9906 29.0005 21.573 29V29ZM8.181 21.283L8.8 17.81C8.81461 17.7283 8.85132 17.6522 8.90615 17.59C8.96097 17.5277 9.03181 17.4816 9.11097 17.4568C9.19013 17.4319 9.27459 17.4293 9.35516 17.4491C9.43574 17.4688 9.50935 17.5103 9.568 17.569L12.421 20.422C12.4798 20.4806 12.5213 20.5542 12.5411 20.6348C12.5608 20.7154 12.5581 20.7999 12.5331 20.8791C12.5081 20.9582 12.4619 21.029 12.3995 21.0836C12.337 21.1383 12.2608 21.1747 12.179 21.189L8.707 21.81C8.63502 21.8227 8.56102 21.8179 8.49131 21.7959C8.42159 21.7739 8.35822 21.7354 8.30657 21.6837C8.25493 21.6319 8.21655 21.5685 8.19469 21.4987C8.17282 21.429 8.16813 21.355 8.181 21.283V21.283Z" fill="#263769"/>
<path d="M25.3441 7.50313L22.4874 4.64642C22.3 4.45897 21.9961 4.45897 21.8086 4.64642L10.4666 15.9884C10.2792 16.1759 10.2792 16.4798 10.4666 16.6672L13.3233 19.5239C13.5108 19.7114 13.8147 19.7114 14.0021 19.5239L25.3441 8.18195C25.5316 7.9945 25.5316 7.69058 25.3441 7.50313Z" fill="#263769"/>
<path d="M26.2473 2.16463L27.8319 3.74926C28.0893 4.00813 28.2335 4.35849 28.233 4.72353C28.2325 5.08857 28.0872 5.43851 27.8291 5.69663L27.1792 6.34646C27.1246 6.40115 27.0596 6.44454 26.9882 6.47414C26.9167 6.50374 26.8401 6.51898 26.7628 6.51898C26.6854 6.51898 26.6088 6.50374 26.5374 6.47414C26.4659 6.44454 26.401 6.40115 26.3463 6.34646L23.6402 3.64036C23.5297 3.5299 23.4677 3.38009 23.4677 3.22388C23.4677 3.06766 23.5297 2.91785 23.6402 2.80739L24.29 2.15756C24.4187 2.02891 24.5715 1.92698 24.7397 1.85766C24.9079 1.78834 25.0882 1.75299 25.2701 1.75364C25.4521 1.7543 25.6321 1.79095 25.7998 1.86149C25.9675 1.93203 26.1196 2.03505 26.2473 2.16463V2.16463Z" fill="#263769"/>
<path d="M0 30L30 0Z" fill="#263769"/>
</g>
<defs>
<clipPath id="clip0_29_1873">
<rect width="30" height="30" fill="white"/>
</clipPath>
</defs>
</svg>
