<svg width="27" height="30" viewBox="0 0 27 30" fill="none" xmlns="http://www.w3.org/2000/svg">
<g clip-path="url(#clip0_29_1878)">
<path d="M24.48 7.531C24.9787 7.53021 25.4567 7.33161 25.8092 6.97878C26.1616 6.62595 26.3597 6.14771 26.36 5.649V1.883C26.36 1.38412 26.162 0.905622 25.8095 0.552577C25.4571 0.199533 24.9789 0.000794822 24.48 0L1.88 0C1.38112 0.000794822 0.902939 0.199533 0.550457 0.552577C0.197974 0.905622 -6.33155e-07 1.38412 0 1.883C0.000765659 2.12311 0.0479657 2.36081 0.139 2.583V2.594C0.233505 2.82589 0.373219 3.03665 0.55 3.214V3.214L12.337 15L0.567 26.77V26.776C0.300997 27.0375 0.118716 27.3722 0.0433025 27.7375C-0.0321109 28.1029 0.00274582 28.4824 0.143446 28.8279C0.284147 29.1733 0.524344 29.4692 0.833536 29.6779C1.14273 29.8866 1.50697 29.9987 1.88 30H24.48C24.9794 30 25.4584 29.8016 25.8115 29.4485C26.1646 29.0954 26.363 28.6164 26.363 28.117V24.351C26.363 23.8516 26.1646 23.3726 25.8115 23.0195C25.4584 22.6664 24.9794 22.468 24.48 22.468C23.9806 22.468 23.5016 22.6664 23.1485 23.0195C22.7954 23.3726 22.597 23.8516 22.597 24.351V26.234H6.429L16.329 16.334C16.5039 16.1593 16.6427 15.9518 16.7374 15.7234C16.8321 15.4951 16.8809 15.2502 16.8809 15.003C16.8809 14.7558 16.8321 14.5109 16.7374 14.2826C16.6427 14.0542 16.5039 13.8467 16.329 13.672L16.321 13.666V13.658L6.429 3.766H22.594V5.649C22.5941 5.89645 22.643 6.14144 22.7379 6.36998C22.8328 6.59852 22.9718 6.80611 23.1469 6.9809C23.3221 7.15568 23.53 7.29423 23.7587 7.38862C23.9875 7.48301 24.2326 7.53139 24.48 7.531V7.531Z" fill="#263769"/>
</g>
<defs>
<clipPath id="clip0_29_1878">
<rect width="26.363" height="30" fill="white"/>
</clipPath>
</defs>
</svg>
