<svg width="28" height="28" viewBox="0 0 28 28" fill="none" xmlns="http://www.w3.org/2000/svg">
<g clip-path="url(#clip0_29_1889)">
<path d="M24.726 0H3.274C2.40601 0.00105853 1.57387 0.346337 0.960101 0.960101C0.346337 1.57387 0.00105853 2.40601 0 3.274V24.726C0.00105853 25.594 0.346337 26.4261 0.960101 27.0399C1.57387 27.6537 2.40601 27.9989 3.274 28H24.726C25.594 27.9989 26.4261 27.6537 27.0399 27.0399C27.6537 26.4261 27.9989 25.594 28 24.726V3.274C27.9989 2.40601 27.6537 1.57387 27.0399 0.960101C26.4261 0.346337 25.594 0.00105853 24.726 0V0ZM17 18.5H10V13H17V18.5ZM17 11H10V6H17V11ZM8 18.5H2V13H8V18.5ZM8 11H2V6H8V11ZM19 13H26V18.5H19V13ZM19 11V6H26V11H19ZM2 24.726V20.5H8V26H3.274C2.9362 25.9997 2.6123 25.8654 2.37344 25.6266C2.13457 25.3877 2.00026 25.0638 2 24.726V24.726ZM10 26V20.5H17V26H10ZM24.726 26H19V20.5H26V24.726C25.9997 25.0638 25.8654 25.3877 25.6266 25.6266C25.3877 25.8654 25.0638 25.9997 24.726 26Z" fill="#263769"/>
</g>
<defs>
<clipPath id="clip0_29_1889">
<rect width="28" height="28" fill="white"/>
</clipPath>
</defs>
</svg>
