<svg width="27" height="27" viewBox="0 0 27 27" fill="none" xmlns="http://www.w3.org/2000/svg">
<g clip-path="url(#clip0_29_1891)">
<path d="M20.57 27H3.18C2.33661 27 1.52777 26.665 0.9314 26.0686C0.335035 25.4722 0 24.6634 0 23.82V6.68C0 5.83661 0.335035 5.02777 0.9314 4.4314C1.52777 3.83503 2.33661 3.5 3.18 3.5H10.38C10.7778 3.5 11.1594 3.65804 11.4407 3.93934C11.722 4.22064 11.88 4.60218 11.88 5V5C11.88 5.39782 11.722 5.77936 11.4407 6.06066C11.1594 6.34196 10.7778 6.5 10.38 6.5H3.18C3.13226 6.5 3.08648 6.51896 3.05272 6.55272C3.01896 6.58648 3 6.63226 3 6.68V23.82C3 23.8677 3.01896 23.9135 3.05272 23.9473C3.08648 23.981 3.13226 24 3.18 24H20.57C20.6177 24 20.6635 23.981 20.6973 23.9473C20.731 23.9135 20.75 23.8677 20.75 23.82V16.75C20.75 16.3522 20.908 15.9706 21.1893 15.6893C21.4706 15.408 21.8522 15.25 22.25 15.25C22.6478 15.25 23.0294 15.408 23.3107 15.6893C23.592 15.9706 23.75 16.3522 23.75 16.75V23.82C23.75 24.6634 23.415 25.4722 22.8186 26.0686C22.2222 26.665 21.4134 27 20.57 27Z" fill="#263769"/>
<path d="M25.5 0H15.5C15.303 -2.93527e-09 15.108 0.0387987 14.926 0.114181C14.744 0.189563 14.5786 0.300052 14.4393 0.43934C14.3001 0.578628 14.1896 0.743986 14.1142 0.925975C14.0388 1.10796 14 1.30302 14 1.5C14 1.69698 14.0388 1.89204 14.1142 2.07403C14.1896 2.25601 14.3001 2.42137 14.4393 2.56066C14.5786 2.69995 14.744 2.81044 14.926 2.88582C15.108 2.9612 15.303 3 15.5 3H21.91L9.50001 15.41C9.24701 15.6918 9.11169 16.0599 9.12189 16.4385C9.13209 16.8171 9.28704 17.1774 9.55483 17.4452C9.82263 17.713 10.1829 17.8679 10.5615 17.8781C10.9401 17.8883 11.3082 17.753 11.59 17.5L24 5.1V11.5C24 11.8978 24.158 12.2794 24.4393 12.5607C24.7207 12.842 25.1022 13 25.5 13C25.8978 13 26.2794 12.842 26.5607 12.5607C26.842 12.2794 27 11.8978 27 11.5V1.5C27 1.10218 26.842 0.720644 26.5607 0.43934C26.2794 0.158035 25.8978 0 25.5 0V0Z" fill="#263769"/>
</g>
<defs>
<clipPath id="clip0_29_1891">
<rect width="27" height="27" fill="white"/>
</clipPath>
</defs>
</svg>
