<svg xmlns="http://www.w3.org/2000/svg" width="28.148" height="27.69" viewBox="0 0 28.148 27.69"><path d="M13.06,29.188a2.02,2.02,0,0,1-1.12-.333A2.126,2.126,0,0,1,11,27.029V17.757a2.015,2.015,0,0,0-.281-.835L1.4,4.681a1.994,1.994,0,0,1-.281-2.119A2,2,0,0,1,2.971,1.5H27.029a2.014,2.014,0,0,1,1.854,1.047,2.013,2.013,0,0,1-.229,2.116L19.911,16.87a2.193,2.193,0,0,0-.285.887v6.822a3.1,3.1,0,0,1-1.791,2.734l-3.846,1.675a2.321,2.321,0,0,1-.929.2ZM5.028,4.5l8.077,10.6a4.871,4.871,0,0,1,.9,2.657v7.954l2.637-1.149-.011-6.8a5.058,5.058,0,0,1,.846-2.634L25.081,4.5Z" transform="translate(-0.934 -1.498)" fill="#7469ff"/></svg>