<svg xmlns="http://www.w3.org/2000/svg" width="21.66" height="21.576" viewBox="0 0 21.66 21.576"><path d="M19.681,11.518h4.938V12.8H17.738V11.759l4.78-6.906H17.77v-1.3h6.7V4.573Zm3.663,11.129h-3.58l-.75,2.153H17.345l3.491-9.242h1.441l3.5,9.242H24.1Zm-3.13-1.294h2.679l-1.34-3.834Zm-5.409-2.664a1.249,1.249,0,0,0-1.767,0l-2.156,2.156V4.816a1.25,1.25,0,0,0-2.5,0V20.834l-2.12-2.12a1.248,1.248,0,0,0-1.766,0l-.013.013a1.248,1.248,0,0,0,0,1.766l4.276,4.276a1.249,1.249,0,0,0,1.765,0l.013-.013a.893.893,0,0,0,.06-.091l4.208-4.208a1.249,1.249,0,0,0,0-1.768Z" transform="translate(-4.117 -3.558)" fill="#7469ff"/></svg>