<svg width="216" height="216" viewBox="0 0 216 216" fill="none" xmlns="http://www.w3.org/2000/svg">
<rect x="110.634" width="105.366" height="105.366" rx="4" fill="#263769"/>
<path d="M140.34 82.24V62.8L135.18 70.24V82.24H122.04L135.18 63.28L140.34 55.96V55H136.14L117 82.24V86.98H135.18V97H140.34V86.98H146.04V82.24H140.34ZM155.279 92.02C155.159 92.02 155.039 92.02 154.919 92.02C152.639 92.02 150.659 91.54 149.039 90.7V96.22C150.899 96.76 152.999 97 155.399 97C159.479 97 162.719 96.22 165.239 94.72C167.699 93.16 169.439 91.12 170.399 88.66C170.759 87.64 171.059 86.5 171.299 85.24C167.219 89.38 161.579 92.02 155.339 92.02C155.279 92.02 155.279 92.02 155.279 92.02ZM166.259 54.28V78.52L166.319 82.54C166.319 82.54 170.879 80.02 171.839 76.48V54.28H166.259ZM184.166 60.34C185.726 59.08 188.126 58.48 191.486 58.48C194.726 58.48 197.186 59.14 198.806 60.52C200.306 61.78 201.206 63.52 201.626 65.86H207.026C206.906 63.52 206.246 61.36 204.986 59.5C203.726 57.58 201.926 56.08 199.526 55.12C197.126 54.1 194.426 53.62 191.306 53.62C189.446 53.62 187.646 53.8 186.026 54.22C185.066 54.46 184.226 55.06 183.626 55.84C182.906 56.8 182.546 57.82 182.546 58.96C182.546 59.86 182.786 60.64 183.146 61.36C183.446 61 183.746 60.64 184.166 60.34ZM206.606 78.46C205.406 76.72 203.606 75.34 201.146 74.2C199.946 73.66 197.906 73 195.206 72.28C195.026 72.28 194.846 72.22 194.666 72.16C193.766 71.98 192.866 71.74 191.846 71.5C190.106 71.14 188.606 70.72 187.346 70.3C185.606 69.82 184.166 69.28 183.206 68.8C181.046 67.72 179.426 66.34 178.406 64.72C177.746 63.82 177.326 62.8 177.086 61.72C176.726 62.8 176.486 64 176.486 65.14C176.486 67.12 176.966 68.86 177.986 70.42C178.946 71.98 180.446 73.24 182.486 74.32C183.986 75.1 186.686 76 190.586 76.9C194.426 77.86 196.946 78.52 198.026 79C199.826 79.66 201.086 80.44 201.806 81.46C202.586 82.42 202.946 83.56 202.946 84.88C202.946 86.2 202.586 87.4 201.806 88.48C200.966 89.62 199.766 90.46 198.146 91.12C196.526 91.72 194.666 92.02 192.566 92.02C190.166 92.02 188.006 91.6 186.086 90.82C184.166 89.98 182.786 88.9 181.886 87.52C181.046 86.26 180.506 84.7 180.206 82.84H174.926C174.986 85.6 175.766 88.12 177.206 90.34C178.646 92.56 180.686 94.24 183.266 95.38C185.786 96.46 189.026 97 192.806 97C195.806 97 198.506 96.46 200.906 95.38C203.306 94.3 205.106 92.74 206.426 90.76C207.686 88.78 208.346 86.68 208.346 84.46C208.346 82.18 207.746 80.2 206.606 78.46Z" fill="#FED66B"/>
<rect x="1" y="1" width="103" height="48" rx="3" stroke="#263769" stroke-width="2"/>
<rect x="1" y="56" width="103" height="48" rx="3" stroke="#263769" stroke-width="2"/>
<rect y="111" width="50" height="50" rx="4" fill="#FED66B"/>
<rect x="55" y="111" width="50" height="50" rx="4" fill="#FED66B"/>
<rect y="166" width="50" height="50" rx="4" fill="#FED66B"/>
<rect x="55" y="165" width="50" height="50" rx="4" fill="#FED66B"/>
<rect x="112" y="112" width="103" height="48" rx="3" stroke="#263769" stroke-width="2"/>
<rect x="112" y="167" width="103" height="48" rx="3" stroke="#263769" stroke-width="2"/>
<path d="M88.4213 152.869H67.037C66.0013 152.868 65.0081 152.457 64.2758 151.724C63.5435 150.992 63.1319 149.999 63.1316 148.963V127.886C63.1319 126.85 63.5435 125.857 64.2758 125.125C65.0081 124.393 66.0013 123.981 67.037 123.981H75.8877C76.1299 123.981 76.3696 124.028 76.5933 124.121C76.817 124.214 77.0204 124.35 77.1916 124.521C77.3627 124.692 77.4985 124.895 77.5912 125.119C77.6839 125.343 77.7316 125.582 77.7316 125.825C77.7316 126.067 77.6839 126.307 77.5912 126.53C77.4985 126.754 77.3627 126.957 77.1916 127.128C77.0204 127.3 76.817 127.435 76.5933 127.528C76.3696 127.621 76.1299 127.669 75.8877 127.669H67.037C66.9794 127.669 66.9242 127.692 66.8835 127.733C66.8427 127.773 66.8197 127.828 66.8194 127.886V148.963C66.8197 149.021 66.8427 149.076 66.8835 149.117C66.9242 149.157 66.9794 149.18 67.037 149.181H88.4262C88.4843 149.181 88.54 149.158 88.581 149.117C88.6219 149.076 88.6451 149.02 88.6451 148.962V140.269C88.6451 139.78 88.8393 139.31 89.1851 138.965C89.5309 138.619 90 138.425 90.489 138.425C90.978 138.425 91.4471 138.619 91.7928 138.965C92.1386 139.31 92.3329 139.78 92.3329 140.269V148.963C92.3327 149.476 92.2313 149.985 92.0346 150.459C91.838 150.933 91.5497 151.364 91.1864 151.727C90.8232 152.089 90.392 152.377 89.9176 152.573C89.4431 152.769 88.9347 152.869 88.4213 152.869ZM71.959 143.382L72.7199 139.113C72.7378 139.013 72.783 138.919 72.8504 138.843C72.9178 138.766 73.0048 138.709 73.1021 138.679C73.1995 138.648 73.3033 138.645 73.4023 138.669C73.5014 138.694 73.5919 138.745 73.664 138.817L77.1711 142.324C77.2433 142.396 77.2944 142.486 77.3187 142.585C77.3429 142.685 77.3396 142.788 77.3089 142.886C77.2781 142.983 77.2213 143.07 77.1446 143.137C77.0678 143.204 76.9741 143.249 76.8736 143.267L72.6056 144.03C72.5171 144.046 72.4261 144.04 72.3404 144.013C72.2547 143.986 72.1768 143.938 72.1133 143.875C72.0498 143.811 72.0027 143.733 71.9758 143.647C71.9489 143.562 71.9431 143.471 71.959 143.382Z" fill="#263769"/>
<path d="M93.0573 126.443L89.5456 122.931C89.3153 122.701 88.9417 122.701 88.7112 122.931L74.7688 136.874C74.5385 137.104 74.5385 137.478 74.7688 137.708L78.2805 141.22C78.511 141.45 78.8846 141.45 79.1149 141.22L93.0573 127.277C93.2878 127.047 93.2878 126.673 93.0573 126.443Z" fill="#263769"/>
<path d="M94.1674 119.881L96.1153 121.829C96.4317 122.147 96.6089 122.578 96.6083 123.026C96.6077 123.475 96.4291 123.905 96.1118 124.222L95.3129 125.021C95.2458 125.089 95.1659 125.142 95.0781 125.178C94.9902 125.215 94.8961 125.233 94.8011 125.233C94.7059 125.233 94.6117 125.215 94.524 125.178C94.4361 125.142 94.3563 125.089 94.2891 125.021L90.9625 121.695C90.8267 121.559 90.7505 121.375 90.7505 121.183C90.7505 120.991 90.8267 120.807 90.9625 120.671L91.7613 119.872C91.9195 119.714 92.1074 119.589 92.3141 119.503C92.5209 119.418 92.7425 119.375 92.9661 119.375C93.1898 119.376 93.4111 119.421 93.6173 119.508C93.8234 119.595 94.0104 119.721 94.1674 119.881Z" fill="#263769"/>
<path d="M61.9025 154.098L98.7805 117.219L61.9025 154.098Z" fill="#263769"/>
<g clip-path="url(#clip0_64_129)">
<path d="M38.92 181.539C39.5295 181.538 40.1137 181.287 40.5446 180.84C40.9753 180.393 41.2174 179.787 41.2178 179.155V174.385C41.2178 173.753 40.9758 173.147 40.5449 172.7C40.1142 172.253 39.5298 172.001 38.92 172H11.2978C10.688 172.001 10.1036 172.253 9.67278 172.7C9.24197 173.147 9 173.753 9 174.385C9.00094 174.689 9.05862 174.99 9.16989 175.272V175.286C9.2854 175.579 9.45616 175.846 9.67222 176.071L24.0786 191L9.693 205.909V205.916C9.36789 206.247 9.1451 206.671 9.05293 207.134C8.96075 207.597 9.00336 208.078 9.17532 208.515C9.34729 208.953 9.64086 209.328 10.0188 209.592C10.3967 209.856 10.8419 209.998 11.2978 210H38.92C39.5304 210 40.1158 209.749 40.5474 209.301C40.979 208.854 41.2214 208.247 41.2214 207.615V202.845C41.2214 202.212 40.979 201.605 40.5474 201.158C40.1158 200.711 39.5304 200.459 38.92 200.459C38.3096 200.459 37.7242 200.711 37.2926 201.158C36.861 201.605 36.6186 202.212 36.6186 202.845V205.23H16.8577L28.9577 192.69C29.1714 192.468 29.3411 192.206 29.4568 191.916C29.5726 191.627 29.6322 191.317 29.6322 191.004C29.6322 190.691 29.5726 190.38 29.4568 190.091C29.3411 189.802 29.1714 189.539 28.9577 189.318L28.9479 189.31V189.3L16.8577 176.77H36.6149V179.155C36.615 179.469 36.6748 179.779 36.7908 180.069C36.9068 180.358 37.0766 180.621 37.2907 180.842C37.5048 181.064 37.7589 181.239 38.0384 181.359C38.3181 181.478 38.6176 181.54 38.92 181.539Z" fill="#263769"/>
</g>
<path d="M21.3073 153.59C20.772 153.592 20.2481 153.439 19.8011 153.15C19.4 152.886 19.0739 152.526 18.8528 152.104C18.6317 151.682 18.5231 151.212 18.5369 150.737V138.485C18.4954 138.094 18.3663 137.717 18.159 137.382L5.62658 121.206C5.2996 120.823 5.09044 120.356 5.02352 119.86C4.9566 119.364 5.0347 118.86 5.24868 118.406C5.48653 117.965 5.8467 117.599 6.28749 117.35C6.72827 117.102 7.23164 116.981 7.7393 117.002H40.0932C40.5988 116.981 41.1004 117.099 41.5411 117.344C41.9818 117.589 42.3439 117.95 42.5865 118.386C42.8062 118.834 42.8938 119.333 42.8393 119.827C42.7848 120.322 42.5907 120.791 42.2785 121.182L30.5207 137.313C30.309 137.672 30.1783 138.072 30.1374 138.485V147.5C30.1182 148.263 29.8826 149.005 29.4571 149.643C29.0314 150.282 28.4328 150.79 27.7288 151.113L22.5566 153.326C22.1631 153.498 21.7378 153.588 21.3073 153.59ZM10.5056 120.967L21.3678 134.974C22.113 136.002 22.5338 137.223 22.5781 138.485V148.996L26.1244 147.477L26.1097 138.492C26.1523 137.25 26.5463 136.045 27.2474 135.011L37.4734 120.967H10.5056Z" fill="#263769"/>
<g clip-path="url(#clip1_64_129)">
<path d="M88.1757 184.387H96.4805V186.543H84.9079V184.792L92.947 173.178H84.9617V170.991H96.2299V172.707L88.1757 184.387ZM94.3362 203.104H88.3153L87.0539 206.725H84.2469L90.1182 191.182H92.5417L98.428 206.725H95.6076L94.3362 203.104ZM89.0721 200.928H93.5777L91.324 194.48L89.0721 200.928ZM79.9751 196.447C79.78 196.252 79.5485 196.097 79.2935 195.992C79.0385 195.886 78.7652 195.832 78.4892 195.832C78.2133 195.832 77.94 195.886 77.685 195.992C77.4301 196.097 77.1984 196.252 77.0034 196.447L73.3774 200.073V173.116C73.3774 172.558 73.1559 172.023 72.7616 171.629C72.3674 171.235 71.8326 171.013 71.2751 171.013C70.7175 171.013 70.1828 171.235 69.7886 171.629C69.3943 172.023 69.1728 172.558 69.1728 173.116V200.055L65.6074 196.49C65.4124 196.294 65.1809 196.14 64.9261 196.034C64.6713 195.928 64.3982 195.874 64.1223 195.874C63.8465 195.874 63.5733 195.928 63.3185 196.034C63.0637 196.14 62.8322 196.294 62.6373 196.49L62.6154 196.511C62.4202 196.706 62.2654 196.938 62.1598 197.193C62.0541 197.447 61.9998 197.721 61.9998 197.996C61.9998 198.272 62.0541 198.545 62.1598 198.8C62.2654 199.055 62.4202 199.287 62.6154 199.481L69.8069 206.673C70.2007 207.066 70.7345 207.287 71.2911 207.287C71.8476 207.287 72.3814 207.066 72.7753 206.673L72.7971 206.651C72.8338 206.602 72.8675 206.551 72.898 206.498L79.9751 199.421C80.1706 199.226 80.3256 198.994 80.4316 198.739C80.5374 198.484 80.5917 198.21 80.5917 197.934C80.5917 197.658 80.5374 197.385 80.4316 197.129C80.3256 196.874 80.1706 196.643 79.9751 196.447Z" fill="#263769"/>
</g>
<path d="M19.92 39V17.64H16.2V39H19.92ZM7 11.04V14.32H29.16V11.04H7ZM48.6109 36.64C48.4509 35.8 48.3709 33.76 48.3709 30.56V26C48.3709 24.48 48.3309 23.4 48.2109 22.84C48.0109 21.88 47.6509 21.08 47.1309 20.48C46.6509 19.88 45.8509 19.36 44.7709 18.96C43.6909 18.52 42.2509 18.32 40.5309 18.32C38.7709 18.32 37.2509 18.56 35.9309 19.04C34.6109 19.52 33.6109 20.2 32.8909 21.08C32.2109 21.96 31.6909 23.12 31.4109 24.52H34.8909C35.2509 23.36 35.7709 22.52 36.4509 22.04C37.2109 21.48 38.4109 21.16 40.0509 21.16C41.7709 21.16 43.0909 21.56 43.9709 22.36C44.6109 22.92 44.9309 23.92 44.9309 25.32C44.9309 25.44 44.9309 25.72 44.8909 26.2C43.6109 26.68 41.5709 27.04 38.7709 27.4C37.4109 27.56 36.4109 27.72 35.7309 27.92C34.8109 28.16 33.9709 28.52 33.2509 29.04C32.5309 29.52 31.9309 30.2 31.4509 31C31.0109 31.84 30.8109 32.72 30.8109 33.72C30.8109 35.44 31.3709 36.8 32.5709 37.92C33.7709 39 35.4909 39.52 37.7309 39.52C38.8909 39.52 40.8509 39.2 42.1309 38.8C41.9309 38.4 41.6909 37.76 41.5309 36.24C40.6109 36.64 39.6509 36.84 38.5309 36.84C37.2109 36.84 36.2109 36.52 35.4909 35.92C34.8109 35.32 34.4509 34.56 34.4509 33.64C34.4509 33.04 34.6109 32.48 34.9309 32C35.2509 31.52 35.6909 31.12 36.2909 30.88C36.8909 30.64 37.8909 30.4 39.2909 30.2C41.7709 29.84 43.6509 29.4 44.8909 28.88C44.8909 28.88 44.3709 37.16 45.8909 39.08H49.4509C49.0509 38.28 48.7309 37.48 48.6109 36.64ZM68.0663 24.56C67.6663 23.28 67.1063 22.2 66.3863 21.28C65.6663 20.36 64.7463 19.68 63.6263 19.16C62.5063 18.68 61.3463 18.4 60.0663 18.4C57.8263 18.4 55.9863 18.88 54.5063 20.72V11.16H51.1063V28.08C51.1063 28.08 52.1463 26.72 52.8263 25.92C54.6663 23.72 57.2663 21.24 59.7863 21.24C61.2663 21.24 62.5463 21.88 63.5863 23.12C64.6263 24.4 65.1463 26.36 65.1463 29C65.1463 31.56 64.6263 33.52 63.5063 34.84C62.4263 36.12 61.1463 36.8 59.6263 36.8C57.7863 36.8 56.2663 35.92 55.2263 34.12C53.8663 31.68 54.0263 29.2 54.0263 29.2C54.0263 29.2 51.7863 31.76 51.1063 32.68V39.16H54.2663V36.6C55.6263 38.6 57.5063 39.6 59.9063 39.6C62.3063 39.6 64.3863 38.68 66.1063 36.76C67.8263 34.88 68.6663 32.2 68.6663 28.72C68.6663 27.24 68.4663 25.88 68.0663 24.56ZM70.3078 30.24C70.3078 30.24 69.7078 37.32 77.1878 39.04V35.36C75.9878 34.8 73.9078 34.36 70.3078 30.24ZM71.8678 27.8C72.3078 28.2 73.6278 29.36 73.6278 29.36V10.52H70.3078V26.2C70.5878 26.48 71.5078 27.44 71.8678 27.8ZM91.7253 35.2C90.8453 35.84 89.7653 36.2 88.5253 36.2C86.8053 36.2 85.4053 35.6 84.2853 34.4C83.7653 33.88 83.3653 33.24 83.0853 32.48H79.4053C79.8053 33.96 80.4453 35.24 81.4453 36.28C83.1653 38.08 85.5253 39 88.4853 39C90.8453 39 92.7653 38.44 94.2853 37.28C95.8053 36.16 96.8453 34.56 97.4053 32.48H93.6453C93.1653 33.68 92.5253 34.6 91.7253 35.2ZM94.9253 20.6C93.2053 18.72 91.0053 17.8 88.2853 17.8C85.4853 17.8 83.2053 18.76 81.4453 20.64C79.6853 22.52 78.8453 25.16 78.8453 28.6C78.8453 28.84 78.8853 29.04 78.8853 29.28H97.5253C97.5253 28.88 97.5253 28.56 97.5253 28.36C97.5253 25.04 96.6453 22.44 94.9253 20.6ZM82.5653 26.48C82.6853 24.68 83.2853 23.28 84.3653 22.24C85.4453 21.16 86.7653 20.64 88.3253 20.64C90.0853 20.64 91.4853 21.28 92.6053 22.64C93.3253 23.48 93.7253 24.76 93.8853 26.48H82.5653Z" fill="#263769"/>
<defs>
<clipPath id="clip0_64_129">
<rect width="33" height="38" fill="white" transform="translate(9 172)"/>
</clipPath>
<clipPath id="clip1_64_129">
<rect width="37" height="37" fill="white" transform="translate(62 171)"/>
</clipPath>
</defs>
</svg>
