<svg xmlns="http://www.w3.org/2000/svg" width="30.401" height="30.401" viewBox="0 0 30.401 30.401"><path d="M0,19.5a1.994,1.994,0,0,1-1.414-.586,2,2,0,0,1,0-2.828h0l.006-.006a10.4,10.4,0,0,0,2.9-7.318A10.364,10.364,0,0,0-1.405,1.423,2,2,0,0,1,1.423-1.405l.008.008,0,0a10.341,10.341,0,0,0,7.294,2.85,10.409,10.409,0,0,0,7.356-2.868,2,2,0,0,1,2.828,0A1.994,1.994,0,0,1,19.5,0a1.994,1.994,0,0,1-.586,1.414c-3.77,3.77-3.8,10.868-.064,14.6a2,2,0,0,1-2.828,2.828A10.247,10.247,0,0,0,8.78,16.012a10.43,10.43,0,0,0-7.366,2.9A1.994,1.994,0,0,1,0,19.5ZM5.023,5a15.08,15.08,0,0,1,.464,3.763,15.113,15.113,0,0,1-.465,3.716,15.285,15.285,0,0,1,7.469-.014,15.311,15.311,0,0,1-.441-3.782,15.467,15.467,0,0,1,.474-3.707,15.356,15.356,0,0,1-3.8.475A15.238,15.238,0,0,1,5.023,5Z" transform="translate(27.573 15.201) rotate(135)" fill="#fed66b"/></svg>