<svg width="144" height="154" viewBox="0 0 144 154" fill="none" xmlns="http://www.w3.org/2000/svg">
<path d="M2 20H142V150C142 151.105 141.105 152 140 152H4C2.89543 152 2 151.105 2 150V20Z" fill="#E5EAF8" stroke="#263769" stroke-width="4"/>
<path d="M0 4C0 1.79086 1.79086 0 4 0H140C142.209 0 144 1.79086 144 4V20.7904H0V4Z" fill="#263769"/>
<line x1="49" y1="21" x2="49" y2="152" stroke="#263769" stroke-width="4"/>
<line x1="95" y1="153" x2="95" y2="108" stroke="#263769" stroke-width="4"/>
<line x1="1" y1="64" x2="50" y2="64" stroke="#263769" stroke-width="4"/>
<line x1="4" y1="108" x2="143.846" y2="108" stroke="#263769" stroke-width="4"/>
<rect x="51" y="22" width="89" height="84" fill="#FED66B"/>
<path d="M69.656 81.96C69.528 81.96 69.4 81.96 69.272 81.96C66.84 81.96 64.728 81.448 63 80.552V86.44C64.984 87.016 67.224 87.272 69.784 87.272C74.136 87.272 77.592 86.44 80.28 84.84C82.904 83.176 84.76 81 85.784 78.376C86.168 77.288 86.488 76.072 86.744 74.728C82.392 79.144 76.376 81.96 69.72 81.96C69.656 81.96 69.656 81.96 69.656 81.96ZM81.368 41.704V67.56L81.432 71.848C81.432 71.848 86.296 69.16 87.32 65.384V41.704H81.368Z" fill="#263769"/>
<path d="M103.668 48.168C105.332 46.824 107.892 46.184 111.476 46.184C114.932 46.184 117.557 46.888 119.285 48.36C120.884 49.704 121.844 51.56 122.292 54.056H128.053C127.924 51.56 127.221 49.256 125.876 47.272C124.533 45.224 122.613 43.624 120.053 42.6C117.493 41.512 114.613 41 111.285 41C109.3 41 107.381 41.192 105.653 41.64C104.629 41.896 103.732 42.536 103.092 43.368C102.325 44.392 101.94 45.48 101.94 46.696C101.94 47.656 102.197 48.488 102.581 49.256C102.901 48.872 103.22 48.488 103.668 48.168ZM127.605 67.496C126.325 65.64 124.404 64.168 121.78 62.952C120.5 62.376 118.325 61.672 115.444 60.904C115.253 60.904 115.061 60.84 114.868 60.776C113.909 60.584 112.949 60.328 111.861 60.072C110.005 59.688 108.404 59.24 107.06 58.792C105.204 58.28 103.669 57.704 102.645 57.192C100.34 56.04 98.6125 54.568 97.5245 52.84C96.8205 51.88 96.3725 50.792 96.1165 49.64C95.7325 50.792 95.4765 52.072 95.4765 53.288C95.4765 55.4 95.9885 57.256 97.0765 58.92C98.1005 60.584 99.7005 61.928 101.876 63.08C103.476 63.912 106.356 64.872 110.516 65.832C114.612 66.856 117.301 67.56 118.453 68.072C120.373 68.776 121.716 69.608 122.485 70.696C123.317 71.72 123.701 72.936 123.701 74.344C123.701 75.752 123.317 77.032 122.485 78.184C121.589 79.4 120.309 80.296 118.581 81C116.853 81.64 114.868 81.96 112.628 81.96C110.068 81.96 107.764 81.512 105.716 80.68C103.668 79.784 102.196 78.632 101.236 77.16C100.34 75.816 99.7645 74.152 99.4445 72.168H93.8125C93.8765 75.112 94.7085 77.8 96.2445 80.168C97.7805 82.536 99.9565 84.328 102.708 85.544C105.396 86.696 108.853 87.272 112.885 87.272C116.085 87.272 118.965 86.696 121.525 85.544C124.085 84.392 126.005 82.728 127.413 80.616C128.757 78.504 129.461 76.264 129.461 73.896C129.461 71.464 128.821 69.352 127.605 67.496Z" fill="#263769"/>
<path d="M22.9921 56.6677C22.5657 56.6695 22.1483 56.5455 21.7921 56.3109C21.4726 56.0964 21.2128 55.8045 21.0366 55.4624C20.8605 55.1203 20.7739 54.7392 20.785 54.3545V44.4202C20.7519 44.1034 20.649 43.7979 20.4839 43.5256L10.4992 30.4102C10.2387 30.0994 10.0721 29.7208 10.0188 29.3188C9.96547 28.9167 10.0277 28.5078 10.1982 28.1398C10.3877 27.7821 10.6746 27.4854 11.0258 27.284C11.377 27.0826 11.778 26.9848 12.1825 27.002H37.9589C38.3617 26.9847 38.7614 27.0806 39.1125 27.2789C39.4636 27.4772 39.752 27.7699 39.9453 28.1238C40.1204 28.4868 40.1901 28.8917 40.1467 29.2924C40.1034 29.6931 39.9486 30.0737 39.7 30.3909L30.3325 43.4699C30.1638 43.7611 30.0597 44.0852 30.0271 44.4202V51.7295C30.0118 52.348 29.8241 52.95 29.4851 53.4676C29.146 53.9851 28.6691 54.3977 28.1082 54.6588L23.9875 56.4534C23.674 56.5927 23.3351 56.6657 22.9921 56.6677ZM14.3864 30.2163L23.0403 41.5734C23.634 42.4072 23.9693 43.3972 24.0046 44.4202V52.9424L26.83 51.7113L26.8182 44.4256C26.8521 43.4189 27.1661 42.4416 27.7246 41.6034L35.8717 30.2163H14.3864Z" fill="#263769"/>
<path d="M32.573 100H15.177C14.3345 99.9997 13.5266 99.6649 12.9308 99.0692C12.3351 98.4734 12.0003 97.6655 12 96.823V79.677C12.0003 78.8345 12.3351 78.0266 12.9308 77.4308C13.5266 76.8351 14.3345 76.5003 15.177 76.5H22.377C22.574 76.5 22.769 76.5388 22.951 76.6142C23.133 76.6896 23.2984 76.8001 23.4377 76.9393C23.5769 77.0786 23.6874 77.244 23.7628 77.426C23.8382 77.608 23.877 77.803 23.877 78C23.877 78.197 23.8382 78.392 23.7628 78.574C23.6874 78.756 23.5769 78.9214 23.4377 79.0607C23.2984 79.2 23.133 79.3104 22.951 79.3858C22.769 79.4612 22.574 79.5 22.377 79.5H15.177C15.1301 79.5003 15.0853 79.519 15.0521 79.5521C15.019 79.5853 15.0003 79.6301 15 79.677V96.823C15.0003 96.8699 15.019 96.9147 15.0521 96.9479C15.0853 96.981 15.1301 96.9997 15.177 97H32.577C32.6242 97 32.6695 96.9812 32.7029 96.9479C32.7362 96.9145 32.755 96.8692 32.755 96.822V89.75C32.755 89.3522 32.913 88.9706 33.1943 88.6893C33.4756 88.408 33.8572 88.25 34.255 88.25C34.6528 88.25 35.0344 88.408 35.3157 88.6893C35.597 88.9706 35.755 89.3522 35.755 89.75V96.823C35.7549 97.2406 35.6724 97.6541 35.5124 98.0398C35.3524 98.4255 35.1179 98.7759 34.8224 99.071C34.5269 99.366 34.1761 99.5999 33.7902 99.7593C33.4042 99.9187 32.9906 100 32.573 100ZM19.181 92.283L19.8 88.81C19.8146 88.7283 19.8513 88.6522 19.9061 88.59C19.961 88.5277 20.0318 88.4816 20.111 88.4568C20.1901 88.4319 20.2746 88.4293 20.3552 88.4491C20.4357 88.4688 20.5093 88.5103 20.568 88.569L23.421 91.422C23.4798 91.4806 23.5213 91.5542 23.5411 91.6348C23.5608 91.7154 23.5581 91.7999 23.5331 91.8791C23.5081 91.9582 23.4619 92.029 23.3995 92.0836C23.337 92.1383 23.2608 92.1747 23.179 92.189L19.707 92.81C19.635 92.8227 19.561 92.8179 19.4913 92.7959C19.4216 92.7739 19.3582 92.7354 19.3066 92.6837C19.2549 92.6319 19.2165 92.5685 19.1947 92.4987C19.1728 92.429 19.1681 92.355 19.181 92.283Z" fill="#263769"/>
<path d="M36.3442 78.5032L33.4875 75.6464C33.3001 75.459 32.9962 75.459 32.8087 75.6464L21.4667 86.9884C21.2793 87.1759 21.2793 87.4798 21.4667 87.6672L24.3234 90.5239C24.5109 90.7114 24.8148 90.7114 25.0022 90.5239L36.3442 79.182C36.5317 78.9945 36.5317 78.6906 36.3442 78.5032Z" fill="#263769"/>
<path d="M37.2474 73.1647L38.832 74.7493C39.0894 75.0082 39.2336 75.3585 39.2331 75.7236C39.2326 76.0886 39.0873 76.4385 38.8292 76.6967L38.1793 77.3465C38.1247 77.4012 38.0597 77.4446 37.9883 77.4742C37.9168 77.5038 37.8402 77.519 37.7629 77.519C37.6855 77.519 37.6089 77.5038 37.5375 77.4742C37.466 77.4446 37.4011 77.4012 37.3464 77.3465L34.6403 74.6404C34.5298 74.5299 34.4678 74.3801 34.4678 74.2239C34.4678 74.0677 34.5298 73.9179 34.6403 73.8074L35.2901 73.1576C35.4188 73.0289 35.5716 72.927 35.7398 72.8577C35.908 72.7884 36.0883 72.753 36.2702 72.7537C36.4522 72.7543 36.6322 72.791 36.7999 72.8615C36.9676 72.9321 37.1197 73.0351 37.2474 73.1647Z" fill="#263769"/>
<path d="M11 101L41 71L11 101Z" fill="#263769"/>
<g clip-path="url(#clip0_64_161)">
<path d="M78.2235 125.855H84.9571V127.603H75.5739V126.183L82.0921 116.766H75.6176V114.993H84.7539V116.384L78.2235 125.855ZM83.2185 141.03H78.3367L77.3139 143.966H75.038L79.7985 131.364H81.7635L86.5362 143.966H84.2494L83.2185 141.03ZM78.9503 139.266H82.6035L80.7762 134.038L78.9503 139.266ZM71.5744 135.633C71.4162 135.475 71.2284 135.349 71.0217 135.264C70.815 135.178 70.5934 135.134 70.3696 135.134C70.1458 135.134 69.9243 135.178 69.7175 135.264C69.5108 135.349 69.323 135.475 69.1648 135.633L66.2248 138.573V116.715C66.2248 116.263 66.0452 115.83 65.7256 115.51C65.4059 115.19 64.9724 115.011 64.5203 115.011C64.0682 115.011 63.6347 115.19 63.315 115.51C62.9953 115.83 62.8157 116.263 62.8157 116.715V138.558L59.9248 135.667C59.7668 135.509 59.5791 135.383 59.3725 135.298C59.1659 135.212 58.9444 135.168 58.7207 135.168C58.4971 135.168 58.2756 135.212 58.069 135.298C57.8624 135.383 57.6747 135.509 57.5167 135.667L57.4989 135.685C57.3407 135.843 57.2151 136.031 57.1295 136.237C57.0438 136.444 56.9998 136.665 56.9998 136.889C56.9998 137.113 57.0438 137.334 57.1295 137.541C57.2151 137.747 57.3407 137.935 57.4989 138.093L63.3298 143.924C63.6492 144.243 64.082 144.422 64.5332 144.422C64.9845 144.422 65.4173 144.243 65.7367 143.924L65.7544 143.906C65.7842 143.867 65.8115 143.825 65.8362 143.782L71.5744 138.044C71.7328 137.886 71.8586 137.698 71.9445 137.491C72.0302 137.284 72.0743 137.063 72.0743 136.839C72.0743 136.615 72.0302 136.393 71.9445 136.186C71.8586 135.979 71.7328 135.791 71.5744 135.633Z" fill="#263769"/>
</g>
<g clip-path="url(#clip1_64_161)">
<path d="M129.48 122.531C129.979 122.53 130.457 122.332 130.809 121.979C131.162 121.626 131.36 121.148 131.36 120.649V116.883C131.36 116.384 131.162 115.906 130.81 115.553C130.457 115.2 129.979 115.001 129.48 115H106.88C106.381 115.001 105.903 115.2 105.55 115.553C105.198 115.906 105 116.384 105 116.883C105.001 117.123 105.048 117.361 105.139 117.583V117.594C105.234 117.826 105.373 118.037 105.55 118.214L117.337 130L105.567 141.77V141.776C105.301 142.037 105.119 142.372 105.043 142.737C104.968 143.103 105.003 143.482 105.143 143.828C105.284 144.173 105.524 144.469 105.834 144.678C106.143 144.887 106.507 144.999 106.88 145H129.48C129.979 145 130.458 144.802 130.812 144.448C131.165 144.095 131.363 143.616 131.363 143.117V139.351C131.363 138.852 131.165 138.373 130.812 138.02C130.458 137.666 129.979 137.468 129.48 137.468C128.981 137.468 128.502 137.666 128.149 138.02C127.795 138.373 127.597 138.852 127.597 139.351V141.234H111.429L121.329 131.334C121.504 131.159 121.643 130.952 121.737 130.723C121.832 130.495 121.881 130.25 121.881 130.003C121.881 129.756 121.832 129.511 121.737 129.283C121.643 129.054 121.504 128.847 121.329 128.672L121.321 128.666V128.658L111.429 118.766H127.594V120.649C127.594 120.896 127.643 121.141 127.738 121.37C127.833 121.599 127.972 121.806 128.147 121.981C128.322 122.156 128.53 122.294 128.759 122.389C128.988 122.483 129.233 122.531 129.48 122.531Z" fill="#263769"/>
</g>
<path fill-rule="evenodd" clip-rule="evenodd" d="M16 115C14.8954 115 14 115.895 14 117V122C14 123.105 14.8954 124 16 124H36C37.1046 124 38 123.105 38 122V117C38 115.895 37.1046 115 36 115H16ZM14 127.5C14 126.395 14.8954 125.5 16 125.5H36C37.1046 125.5 38 126.395 38 127.5V132.5C38 133.605 37.1046 134.5 36 134.5H16C14.8954 134.5 14 133.605 14 132.5V127.5ZM14 138C14 136.895 14.8954 136 16 136H36C37.1046 136 38 136.895 38 138V143C38 144.105 37.1046 145 36 145H16C14.8954 145 14 144.105 14 143V138Z" fill="#263769"/>
<defs>
<clipPath id="clip0_64_161">
<rect width="30" height="30" fill="white" transform="translate(57 115)"/>
</clipPath>
<clipPath id="clip1_64_161">
<rect width="27" height="30" fill="white" transform="translate(105 115)"/>
</clipPath>
</defs>
</svg>
