<svg xmlns="http://www.w3.org/2000/svg" xmlns:xlink="http://www.w3.org/1999/xlink" width="2918.712" height="579" viewBox="0 0 2918.712 579"><defs><style>.a{fill:rgba(0,0,0,0);}.b{fill:#263769;}.c{fill:url(#a);}.d{fill:url(#b);}.e{fill:url(#c);}.f{fill:url(#l);}.g{fill:url(#o);}.h{fill:url(#r);}.i{fill:url(#u);}.j{fill:url(#v);}.k{fill:url(#w);}.l{fill:#fed66b;}.m{filter:url(#z);}.n{filter:url(#x);}.o{filter:url(#s);}.p{filter:url(#p);}.q{filter:url(#m);}.r{filter:url(#j);}.s{filter:url(#h);}.t{filter:url(#f);}.u{filter:url(#d);}</style><linearGradient id="a" x1="0.659" y1="0.649" x2="0.408" y2="0.381" gradientUnits="objectBoundingBox"><stop offset="0" stop-color="#fed66b"/><stop offset="1" stop-color="#fedf84"/></linearGradient><linearGradient id="b" x1="0.63" y1="0.627" x2="0.423" y2="0.422" gradientUnits="objectBoundingBox"><stop offset="0" stop-color="#fed66b"/><stop offset="1" stop-color="#fedd7e"/></linearGradient><linearGradient id="c" x1="0.625" y1="0.605" x2="0.325" y2="0.362" xlink:href="#a"/><filter id="d" x="525.22" y="0" width="213" height="83" filterUnits="userSpaceOnUse"><feOffset dy="3" input="SourceAlpha"/><feGaussianBlur stdDeviation="3" result="e"/><feFlood flood-opacity="0.161"/><feComposite operator="in" in2="e"/><feComposite in="SourceGraphic"/></filter><filter id="f" x="521.92" y="42.726" width="219.734" height="102.338" filterUnits="userSpaceOnUse"><feOffset dy="3" input="SourceAlpha"/><feGaussianBlur stdDeviation="3" result="g"/><feFlood flood-opacity="0.161"/><feComposite operator="in" in2="g"/><feComposite in="SourceGraphic"/></filter><filter id="h" x="521.92" y="167.726" width="219.734" height="102.338" filterUnits="userSpaceOnUse"><feOffset dy="3" input="SourceAlpha"/><feGaussianBlur stdDeviation="3" result="i"/><feFlood flood-opacity="0.161"/><feComposite operator="in" in2="i"/><feComposite in="SourceGraphic"/></filter><filter id="j" x="522.074" y="105.309" width="219.497" height="101.755" filterUnits="userSpaceOnUse"><feOffset dy="3" input="SourceAlpha"/><feGaussianBlur stdDeviation="3" result="k"/><feFlood flood-opacity="0.161"/><feComposite operator="in" in2="k"/><feComposite in="SourceGraphic"/></filter><linearGradient id="l" x1="0.898" y1="0.93" x2="0.153" y2="0.122" xlink:href="#a"/><filter id="m" x="292.22" y="287" width="198" height="168" filterUnits="userSpaceOnUse"><feOffset dy="3" input="SourceAlpha"/><feGaussianBlur stdDeviation="3" result="n"/><feFlood flood-opacity="0.161"/><feComposite operator="in" in2="n"/><feComposite in="SourceGraphic"/></filter><linearGradient id="o" x1="0.228" y1="0.244" x2="0.956" y2="0.874" gradientUnits="objectBoundingBox"><stop offset="0" stop-color="#fedf84"/><stop offset="1" stop-color="#fed66b"/></linearGradient><filter id="p" x="773.22" y="330" width="198" height="126" filterUnits="userSpaceOnUse"><feOffset dy="3" input="SourceAlpha"/><feGaussianBlur stdDeviation="3" result="q"/><feFlood flood-opacity="0.161"/><feComposite operator="in" in2="q"/><feComposite in="SourceGraphic"/></filter><linearGradient id="r" x1="0.319" y1="0.317" x2="0.956" y2="0.874" xlink:href="#o"/><filter id="s" x="773.22" y="288" width="198" height="52" filterUnits="userSpaceOnUse"><feOffset dy="3" input="SourceAlpha"/><feGaussianBlur stdDeviation="3" result="t"/><feFlood flood-opacity="0.161"/><feComposite operator="in" in2="t"/><feComposite in="SourceGraphic"/></filter><linearGradient id="u" x1="0.504" y1="0.786" x2="0.498" y2="0.281" xlink:href="#o"/><linearGradient id="v" x1="0.5" y1="0.23" x2="0.5" y2="0.749" xlink:href="#o"/><linearGradient id="w" x1="0.503" y1="0.782" x2="0.502" y2="0.393" xlink:href="#a"/><filter id="x" x="1594.12" y="156.382" width="934.419" height="338.636" filterUnits="userSpaceOnUse"><feOffset dy="3" input="SourceAlpha"/><feGaussianBlur stdDeviation="3" result="y"/><feFlood flood-opacity="0.278"/><feComposite operator="in" in2="y"/><feComposite in="SourceGraphic"/></filter><filter id="z" x="2557.12" y="145.44" width="361.592" height="349.559" filterUnits="userSpaceOnUse"><feOffset dy="3" input="SourceAlpha"/><feGaussianBlur stdDeviation="3" result="aa"/><feFlood flood-opacity="0.278"/><feComposite operator="in" in2="aa"/><feComposite in="SourceGraphic"/></filter></defs><g transform="translate(-600.78 -603)"><g transform="translate(0 6)"><path class="a" d="M-10363.867,464.751h0v0h0Zm-481-76.764v0Zm781.368-123.236v0Zm-541.068,86.374v0Zm-505.932-62.374v0Z" transform="translate(11837 673.749)"/><path class="b" d="M-9955,471.251h-1264a6.5,6.5,0,0,1-6.5-6.5,6.5,6.5,0,0,1,6.5-6.5h367.634V387.987a6.5,6.5,0,0,1,6.5-6.5,6.5,6.5,0,0,1,6.5,6.5v70.264h468V388.986a6.5,6.5,0,0,1,6.5-6.5,6.5,6.5,0,0,1,6.5,6.5v69.265H-9955a6.5,6.5,0,0,1,6.5,6.5A6.5,6.5,0,0,1-9955,471.251Zm-108.5-38a6.5,6.5,0,0,1-6.5-6.5v-162a6.5,6.5,0,0,1,6.5-6.5,6.5,6.5,0,0,1,6.5,6.5v162A6.5,6.5,0,0,1-10063.5,433.252Zm-541.068-.65a6.5,6.5,0,0,1-6.5-6.5V203a6.5,6.5,0,0,1,6.5-6.5,6.5,6.5,0,0,1,6.5,6.5V426.1A6.5,6.5,0,0,1-10604.567,432.6Zm-505.932-.349a6.5,6.5,0,0,1-6.5-6.5v-137a6.5,6.5,0,0,1,6.5-6.5,6.5,6.5,0,0,1,6.5,6.5v137A6.5,6.5,0,0,1-11110.5,432.252Z" transform="translate(11837 673.749)"/><circle class="c" cx="38" cy="38" r="38" transform="translate(1736 1100)"/><path class="b" d="M38,13A25,25,0,1,0,63,38,25.028,25.028,0,0,0,38,13M38,0A38,38,0,1,1,0,38,38,38,0,0,1,38,0Z" transform="translate(1736 1100)"/><circle class="d" cx="38" cy="38" r="38" transform="translate(1195 1100)"/><path class="b" d="M38,13A25,25,0,1,0,63,38,25.028,25.028,0,0,0,38,13M38,0A38,38,0,1,1,0,38,38,38,0,0,1,38,0Z" transform="translate(1195 1100)"/><circle class="e" cx="38" cy="38" r="38" transform="translate(688 1099)"/><path class="b" d="M38,13A25,25,0,1,0,63,38,25.028,25.028,0,0,0,38,13M38,0A38,38,0,1,1,0,38,38,38,0,0,1,38,0Z" transform="translate(688 1099)"/><g transform="translate(-56 290)"><g class="u" transform="matrix(1, 0, 0, 1, 656.78, 307)"><ellipse class="b" cx="97.5" cy="32.5" rx="97.5" ry="32.5" transform="translate(534.22 6)"/></g><g class="t" transform="matrix(1, 0, 0, 1, 656.78, 307)"><path class="b" d="M.841-1.274C7.868,17.341,49.51,30.741,99.76,30.741S186.812,20.9,199.4.186c3.285,9.034,1.6,32.241,1.6,48.545-21.488,23.451-50,34.333-100.25,34.333S15.561,71.637,0,47C0,35.121-1.075,6.847.841-1.274Z" transform="translate(531.22 50)"/></g><g class="s" transform="matrix(1, 0, 0, 1, 656.78, 307)"><path class="b" d="M.841-1.274C12.126,15.508,49.51,30.741,99.76,30.741S182.221,19.826,199.4.186c3.285,9.034,1.6,32.241,1.6,48.545-21.488,23.451-50,34.333-100.25,34.333S15.561,71.637,0,47C0,35.121-1.075,6.847.841-1.274Z" transform="translate(531.22 175)"/></g><g class="r" transform="matrix(1, 0, 0, 1, 656.78, 307)"><path class="b" d="M2.125-.677C14.907,15.615,49.51,30.741,99.76,30.741s83.83-12.269,98.921-31.431c4,8.984,2.319,33.118,2.319,49.422-21.488,23.451-50,34.333-100.25,34.333S15.561,71.637,0,47C0,35.121-.977,6.715,2.125-.677Z" transform="translate(531.22 112)"/></g></g><g transform="translate(-1270 300.884)"><g class="q" transform="matrix(1, 0, 0, 1, 1870.78, 296.12)"><rect class="f" width="180" height="150" rx="20" transform="translate(301.22 293)"/></g><g transform="translate(-10 5)"><path class="b" d="M0,76.5A7.5,7.5,0,0,1-7.5,69V0A7.5,7.5,0,0,1,0-7.5,7.5,7.5,0,0,1,7.5,0V69A7.5,7.5,0,0,1,0,76.5Z" transform="translate(2219.5 624.616)"/><path class="b" d="M0,47.715a7.5,7.5,0,0,1-7.5-7.5V0A7.5,7.5,0,0,1,0-7.5,7.5,7.5,0,0,1,7.5,0V40.215A7.5,7.5,0,0,1,0,47.715Z" transform="translate(2260.067 651.616)"/><path class="b" d="M0,55.777a7.5,7.5,0,0,1-7.5-7.5V0A7.5,7.5,0,0,1,0-7.5,7.5,7.5,0,0,1,7.5,0V48.277A7.5,7.5,0,0,1,0,55.777Z" transform="translate(2300.722 641.095)"/><path class="b" d="M105.481,7.5H0A7.5,7.5,0,0,1-7.5,0,7.5,7.5,0,0,1,0-7.5H105.481a7.5,7.5,0,0,1,7.5,7.5A7.5,7.5,0,0,1,105.481,7.5Z" transform="translate(2220.019 694.184)"/></g></g><g transform="translate(-55 -18.05)"><g class="p" transform="matrix(1, 0, 0, 1, 655.78, 615.05)"><path class="g" d="M0,0H180a0,0,0,0,1,0,0V88a20,20,0,0,1-20,20H20A20,20,0,0,1,0,88V0A0,0,0,0,1,0,0Z" transform="translate(782.22 336)"/></g><g class="o" transform="matrix(1, 0, 0, 1, 655.78, 615.05)"><path class="h" d="M20,0H160a20,20,0,0,1,20,20V34a0,0,0,0,1,0,0H0a0,0,0,0,1,0,0V20A20,20,0,0,1,20,0Z" transform="translate(782.22 294)"/></g><path class="b" d="M7651.426,1042.744a5.971,5.971,0,0,1-3.161-.9L7613.6,1020.3a6,6,0,0,1-.093-10.134l34.668-22.433a6,6,0,1,1,6.519,10.075l-26.724,17.292,26.631,16.547a6,6,0,0,1-3.172,11.1Z" transform="translate(-6157.182 -8.903)"/><path class="b" d="M7657.167,1055.873a6,6,0,0,1-5.634-8.062l26.384-72.141a6,6,0,1,1,11.27,4.122l-26.384,72.141A6,6,0,0,1,7657.167,1055.873Z" transform="translate(-6143.434 -8.361)"/><path class="b" d="M7616.769,1042.744a6,6,0,0,1-3.172-11.1l26.631-16.547L7613.5,997.808a6,6,0,1,1,6.519-10.075l34.668,22.433a6,6,0,0,1-.093,10.134l-34.668,21.541A5.974,5.974,0,0,1,7616.769,1042.744Z" transform="translate(-6055.86 -8.809)"/><circle class="b" cx="6" cy="6" r="6" transform="translate(1453 920.05)"/><circle class="b" cx="6" cy="6" r="6" transform="translate(1475 920.05)"/></g><path class="b" d="M8106.57,344.895H7963.125c-33.583,0-53.217-19.923-55.284-56.1a40.673,40.673,0,0,1,12.174-30.888c9.3-9.309,22.469-14.489,37.518-14.87,7.6-44.845,34.755-71.7,75.185-73.978,19.544-1.1,39.925,6.932,55.908,22.039,15.306,14.468,24.444,33.71,24.444,51.47q0,.3-.027.6c.792-.029,1.576-.043,2.346-.043,10.258,0,20.5,4.845,28.848,13.643,10.146,10.7,16,25.888,15.268,39.644C8158.112,322.691,8133.871,344.895,8106.57,344.895Zm-147.236-88.88c-12.32,0-22.924,3.878-30.125,11.082a27.307,27.307,0,0,0-8.39,20.956c1.663,29.091,15.9,43.841,42.306,43.841H8106.57c20.618,0,38.914-16.565,39.953-36.172.546-10.314-3.944-21.813-11.719-30.01-5.865-6.184-12.76-9.589-19.416-9.589-17.947,0-44.647,9.385-44.647,35.24a6.5,6.5,0,0,1-13,0c0-28.292,22.028-42.178,42.7-46.61a6.5,6.5,0,0,1-.376-2.184c0-14.254-7.617-29.963-20.375-42.023-13.4-12.663-30.253-19.408-46.247-18.507-35.275,1.987-58.558,26.922-63.877,68.411a6.513,6.513,0,0,1-6.814,5.663Q7961.026,256.015,7959.334,256.015Z" transform="translate(-7307 595.848)"/><g transform="translate(7 32)"><path class="i" d="M13041.368,492.46l61.668,37.054,63.82-34.279L13105,458.07Z" transform="translate(7966.705 12366.32) rotate(-121)"/><path class="b" d="M13105,452.07a5.994,5.994,0,0,1,3.09.857l61.854,37.165a6,6,0,0,1-.251,10.429l-63.82,34.279a6,6,0,0,1-5.929-.143l-61.668-37.054a6,6,0,0,1,.237-10.422l63.635-34.39A6,6,0,0,1,13105,452.07Zm49.718,42.873-49.875-29.968-51.368,27.761,49.725,29.878Z" transform="translate(7966.705 12366.32) rotate(-121)"/><path class="b" d="M63.635,77.443a6,6,0,0,1-2.844-.717L-2.631,42.578A6,6,0,0,1-2.9,32.166l61.454-37.3a6,6,0,0,1,5.952-.156l63.82,34.278a6,6,0,0,1,.251,10.429L66.725,76.586A6,6,0,0,1,63.635,77.443ZM12.292,36.984l51.18,27.557,49.88-29.971L61.85,6.908Z" transform="translate(1639.915 914.966) rotate(-59)"/><path class="b" d="M61.668,80.771a6,6,0,0,1-3.1-.865L-3.209,42.561a6,6,0,0,1-2.9-5.132,6,6,0,0,1,2.891-5.135L58.559-5.131a6,6,0,0,1,6.206-.008l62.115,37.426a6,6,0,0,1,0,10.281L64.76,79.913A6,6,0,0,1,61.668,80.771ZM11.483,37.421,61.677,67.765l50.471-30.344L61.677,7.01Z" transform="translate(1733.594 862.303) rotate(-180)"/><path class="b" d="M13105,452.07a5.994,5.994,0,0,1,3.09.857l61.854,37.165a6,6,0,0,1-.251,10.429l-63.82,34.279a6,6,0,0,1-5.929-.143l-61.668-37.054a6,6,0,0,1,.237-10.422l63.635-34.39A6,6,0,0,1,13105,452.07Zm49.718,42.873-49.875-29.968-51.368,27.761,49.725,29.878Z" transform="translate(8060.705 12310.32) rotate(-121)"/><path class="b" d="M63.635,77.443a6,6,0,0,1-2.844-.717L-2.631,42.578A6,6,0,0,1-2.9,32.166l61.454-37.3a6,6,0,0,1,5.952-.156l63.82,34.278a6,6,0,0,1,.251,10.429L66.725,76.586A6,6,0,0,1,63.635,77.443ZM12.292,36.984l51.18,27.557,49.88-29.971L61.85,6.908Z" transform="translate(1733.915 858.966) rotate(-59)"/><path class="j" d="M-.105,37.426,61.668,0l62.115,37.426L61.668,74.771Z" transform="translate(1827.594 806.303) rotate(-180)"/><path class="b" d="M61.668,80.771a6,6,0,0,1-3.1-.865L-3.209,42.561a6,6,0,0,1-2.9-5.132,6,6,0,0,1,2.891-5.135L58.559-5.131a6,6,0,0,1,6.206-.008l62.115,37.426a6,6,0,0,1,0,10.281L64.76,79.913A6,6,0,0,1,61.668,80.771ZM11.483,37.421,61.677,67.765l50.471-30.344L61.677,7.01Z" transform="translate(1827.594 806.303) rotate(-180)"/><path class="b" d="M13105,452.07a5.994,5.994,0,0,1,3.09.857l61.854,37.165a6,6,0,0,1-.251,10.429l-63.82,34.279a6,6,0,0,1-5.929-.143l-61.668-37.054a6,6,0,0,1,.237-10.422l63.635-34.39A6,6,0,0,1,13105,452.07Zm49.718,42.873-49.875-29.968-51.368,27.761,49.725,29.878Z" transform="translate(8154.705 12366.32) rotate(-121)"/><path class="k" d="M.214,37.3,61.668,0l63.82,34.278L63.635,71.443Z" transform="translate(1827.915 914.966) rotate(-59)"/><path class="b" d="M63.635,77.443a6,6,0,0,1-2.844-.717L-2.631,42.578A6,6,0,0,1-2.9,32.166l61.454-37.3a6,6,0,0,1,5.952-.156l63.82,34.278a6,6,0,0,1,.251,10.429L66.725,76.586A6,6,0,0,1,63.635,77.443ZM12.292,36.984l51.18,27.557,49.88-29.971L61.85,6.908Z" transform="translate(1827.915 914.966) rotate(-59)"/><path class="b" d="M61.668,80.771a6,6,0,0,1-3.1-.865L-3.209,42.561a6,6,0,0,1-2.9-5.132,6,6,0,0,1,2.891-5.135L58.559-5.131a6,6,0,0,1,6.206-.008l62.115,37.426a6,6,0,0,1,0,10.281L64.76,79.913A6,6,0,0,1,61.668,80.771ZM11.483,37.421,61.677,67.765l50.471-30.344L61.677,7.01Z" transform="translate(1921.594 862.303) rotate(-180)"/></g></g><g class="n" transform="matrix(1, 0, 0, 1, 600.78, 603)"><path class="b" d="M191.731-320.6H146.024L60.3-97.4H283.088Zm-23.825,37.823,56.2,151.119H115.4ZM22.9,0H67.96L87.88-54.964H44ZM300.457-54.964h-47L274.613,0h48.335ZM595.15-141.5q-15.626-20.568-44.717-29.081,22.511-11.17,33.671-29.291a72.646,72.646,0,0,0,11.16-38.718q0-22.054-12.589-42.317A75.821,75.821,0,0,0,547.9-310.867q-22.2-9.741-58.943-9.732H368.69v172.545H485.262q30.624,0,46.907,5.352A48.607,48.607,0,0,1,557.651-124.1q9.17,13.227,9.18,31.176,0,15.283-6.342,27.005c-4.228,7.789-9.618,13.75-16.188,17.826-6.551,4.095-14.722,6.989-24.491,8.742Q511.5-37.8,490.938-37.8H411.122v-67.818H368.69V.018H490.938q30.624,0,51.725-5.352t35.1-15.864q14-10.484,23.5-29.843a93.575,93.575,0,0,0,9.522-41.86q0-28.081-15.636-48.6Zm-49.859-64.066q-8.2,11.17-24.377,15.959-12.255,3.742-40.47,3.714H411.122v-96.88h64.085q34.537,0,48.773,4.475a38.709,38.709,0,0,1,21.863,16.626q7.656,12.141,7.656,28.11,0,16.826-8.208,28ZM699.223,0V-100.233H656.791V0ZM883.575-87.264q-16.626-25.6-35.214-42.641-8.77-7.856-25.6-15.959Q868.9-152.206,891-175.612q22.082-23.4,22.092-57.534a90.958,90.958,0,0,0-13.35-48.316q-13.341-21.882-35.652-30.529-22.311-8.627-65.171-8.627H656.772v177.934l83.416.286h8.227q16.4,0,23.615,1.524a64.09,64.09,0,0,1,19.349,8.532q9.513,6.142,21.539,21.425,12.027,15.312,30.6,44.184L885.956-.039h53.363ZM790.408-179.1H699.223V-285.176h101.47q35.652,0,52.163,14.645,16.512,14.683,16.512,37.4a51.959,51.959,0,0,1-8.532,28.757q-8.513,13.255-24.93,19.254T790.408-179.1Z" transform="translate(1580.22 483)"/></g><g class="m" transform="matrix(1, 0, 0, 1, 600.78, 603)"><path class="l" d="M22.9-320.6V0H65.312V-320.6Zm159.164,40.537q17.594-14.118,56.087-14.116,36.94,0,55.876,15.522c11.409,9.371,18.32,23.005,21.2,40.51h41.444c-1.086-17.825-6.156-33.92-15.522-48.145q-14.661-22.314-41.879-33.787Q272.041-331.53,236.4-331.56a160.9,160.9,0,0,0-40.048,4.873,33.641,33.641,0,0,0-18.531,12.416,39.216,39.216,0,0,0-7.96,23.807,37.7,37.7,0,0,0,4.36,18,55.1,55.1,0,0,1,7.846-7.6ZM353.182-141.646q-13.342-19.772-41.33-32.7c-9.389-4.269-24.718-9.087-45.727-14.4-1.292-.321-2.624-.646-3.98-.989-6.609-1.64-13.557-3.311-21.251-5.047-13.484-3.046-24.892-6.073-34.359-9.064-13.671-4.04-24.549-7.96-31.881-11.711Q150-228.013,137.918-246.432a71.609,71.609,0,0,1-9.806-23.138,79.772,79.772,0,0,0-4.553,26.34,73.226,73.226,0,0,0,11.253,39.915q11.26,17.828,34.226,29.843,17.711,9.4,61.894,20.019,44.167,10.621,57.076,15.632,20.115,7.66,28.872,18.915a41.591,41.591,0,0,1,8.743,26.358A45.866,45.866,0,0,1,316.538-65.1q-9.082,12.565-27.672,19.786T246-38.1q-27.336,0-49.194-9.522T164.541-72.552c-6.4-9.5-10.548-21.558-12.645-35.958h-40.6q.859,32.138,17.6,57.612,16.715,25.481,46.148,38.165Q204.428-.05,247.98-.05q34.336,0,61.78-12.568,27.425-12.572,42.09-35.216t14.642-48.223Q366.519-121.819,353.182-141.646Z" transform="translate(2543.22 483)"/></g></g></svg>