<svg width="1360" height="214" viewBox="0 0 1360 214" fill="none" xmlns="http://www.w3.org/2000/svg">
<g filter="url(#filter0_d_62_246)">
<path d="M379 112H443V148C443 150.209 441.209 152 439 152H383C380.791 152 379 150.209 379 148V112Z" fill="#FED870"/>
<path d="M379 100C379 97.7909 380.791 96 383 96H439C441.209 96 443 97.7909 443 100V108H379V100Z" fill="#FED870"/>
<path d="M400.65 143.153C400.302 143.153 399.961 143.048 399.666 142.849L388.882 135.572C388.614 135.391 388.393 135.141 388.239 134.843C388.085 134.545 388.003 134.21 388 133.869C387.997 133.527 388.074 133.19 388.223 132.89C388.372 132.589 388.589 132.334 388.853 132.148L399.638 124.571C399.844 124.426 400.074 124.327 400.315 124.279C400.556 124.231 400.804 124.235 401.044 124.291C401.283 124.346 401.51 124.453 401.712 124.604C401.914 124.755 402.086 124.948 402.22 125.171C402.353 125.395 402.444 125.645 402.488 125.906C402.533 126.168 402.529 126.437 402.478 126.697C402.426 126.957 402.328 127.204 402.189 127.423C402.05 127.642 401.872 127.829 401.666 127.974L393.352 133.815L401.637 139.404C401.983 139.637 402.249 139.985 402.395 140.396C402.542 140.808 402.561 141.26 402.449 141.684C402.337 142.108 402.101 142.481 401.777 142.746C401.452 143.012 401.057 143.155 400.651 143.154L400.65 143.153Z" fill="#263769"/>
<path d="M406.713 146.429C406.413 146.429 406.117 146.35 405.85 146.2C405.584 146.049 405.355 145.831 405.183 145.563C405.011 145.296 404.901 144.988 404.862 144.664C404.823 144.341 404.857 144.012 404.96 143.706L413.169 119.337C413.339 118.833 413.686 118.422 414.135 118.195C414.584 117.969 415.098 117.946 415.563 118.13C416.028 118.315 416.406 118.692 416.615 119.18C416.823 119.667 416.845 120.225 416.675 120.73L408.466 145.098C408.335 145.488 408.096 145.825 407.783 146.063C407.469 146.302 407.096 146.429 406.713 146.429Z" fill="#263769"/>
<path d="M421.39 143.185C420.984 143.185 420.588 143.042 420.264 142.777C419.939 142.512 419.703 142.139 419.592 141.715C419.48 141.291 419.499 140.839 419.645 140.427C419.792 140.016 420.058 139.668 420.403 139.435L428.688 133.846L420.373 128.006C419.957 127.714 419.666 127.254 419.562 126.729C419.458 126.203 419.551 125.654 419.82 125.203C420.089 124.752 420.512 124.435 420.996 124.322C421.48 124.21 421.985 124.31 422.401 124.602L433.187 132.18C433.451 132.366 433.667 132.621 433.817 132.921C433.966 133.222 434.042 133.559 434.039 133.9C434.036 134.242 433.954 134.577 433.8 134.875C433.646 135.172 433.425 135.423 433.158 135.603L422.372 142.88C422.077 143.079 421.737 143.185 421.39 143.185Z" fill="#263769"/>
<path d="M385 104C386.105 104 387 103.105 387 102C387 100.895 386.105 100 385 100C383.895 100 383 100.895 383 102C383 103.105 383.895 104 385 104Z" fill="#263769"/>
<path d="M391 104C392.105 104 393 103.105 393 102C393 100.895 392.105 100 391 100C389.895 100 389 100.895 389 102C389 103.105 389.895 104 391 104Z" fill="#263769"/>
<path fill-rule="evenodd" clip-rule="evenodd" d="M31 60C28.7909 60 27 61.7909 27 64V80C27 82.2091 28.7909 84 31 84H87C89.2091 84 91 82.2091 91 80V64C91 61.7909 89.2091 60 87 60H31ZM27 92C27 89.7909 28.7909 88 31 88H87C89.2091 88 91 89.7909 91 92V108C91 110.209 89.2091 112 87 112H31C28.7909 112 27 110.209 27 108V92ZM27 120C27 117.791 28.7909 116 31 116H87C89.2091 116 91 117.791 91 120V136C91 138.209 89.2091 140 87 140H31C28.7909 140 27 138.209 27 136V120Z" fill="#263769"/>
<rect x="475" y="60" width="80" height="80" rx="4" fill="#263769"/>
<path d="M497.7 125.85C497.6 125.85 497.5 125.85 497.4 125.85C495.5 125.85 493.85 125.45 492.5 124.75V129.35C494.05 129.8 495.8 130 497.8 130C501.2 130 503.9 129.35 506 128.1C508.05 126.8 509.5 125.1 510.3 123.05C510.6 122.2 510.85 121.25 511.05 120.2C507.65 123.65 502.95 125.85 497.75 125.85C497.7 125.85 497.7 125.85 497.7 125.85ZM506.85 94.4V114.6L506.9 117.95C506.9 117.95 510.7 115.85 511.5 112.9V94.4H506.85ZM524.272 99.45C525.572 98.4 527.572 97.9 530.372 97.9C533.072 97.9 535.122 98.45 536.472 99.6C537.722 100.65 538.472 102.1 538.822 104.05H543.322C543.222 102.1 542.672 100.3 541.622 98.75C540.572 97.15 539.072 95.9 537.072 95.1C535.072 94.25 532.822 93.85 530.222 93.85C528.672 93.85 527.172 94 525.822 94.35C525.022 94.55 524.322 95.05 523.822 95.7C523.222 96.5 522.922 97.35 522.922 98.3C522.922 99.05 523.122 99.7 523.422 100.3C523.672 100 523.922 99.7 524.272 99.45ZM542.972 114.55C541.972 113.1 540.472 111.95 538.422 111C537.422 110.55 535.722 110 533.472 109.4C533.322 109.4 533.172 109.35 533.022 109.3C532.272 109.15 531.522 108.95 530.672 108.75C529.222 108.45 527.972 108.1 526.922 107.75C525.472 107.35 524.272 106.9 523.472 106.5C521.672 105.6 520.322 104.45 519.472 103.1C518.922 102.35 518.572 101.5 518.372 100.6C518.072 101.5 517.872 102.5 517.872 103.45C517.872 105.1 518.272 106.55 519.122 107.85C519.922 109.15 521.172 110.2 522.872 111.1C524.122 111.75 526.372 112.5 529.622 113.25C532.822 114.05 534.922 114.6 535.822 115C537.322 115.55 538.372 116.2 538.972 117.05C539.622 117.85 539.922 118.8 539.922 119.9C539.922 121 539.622 122 538.972 122.9C538.272 123.85 537.272 124.55 535.922 125.1C534.572 125.6 533.022 125.85 531.272 125.85C529.272 125.85 527.472 125.5 525.872 124.85C524.272 124.15 523.122 123.25 522.372 122.1C521.672 121.05 521.222 119.75 520.972 118.2H516.572C516.622 120.5 517.272 122.6 518.472 124.45C519.672 126.3 521.372 127.7 523.522 128.65C525.622 129.55 528.322 130 531.472 130C533.972 130 536.222 129.55 538.222 128.65C540.222 127.75 541.722 126.45 542.822 124.8C543.872 123.15 544.422 121.4 544.422 119.55C544.422 117.65 543.922 116 542.972 114.55Z" fill="#FED66B"/>
<path d="M213 24.1079H353V112C353 113.105 352.105 114 351 114H215C213.895 114 213 113.105 213 112V24.1079Z" fill="#E5EAF8" stroke="#263769" stroke-width="4"/>
<path d="M211 8C211 5.79086 212.791 4 215 4H351C353.209 4 355 5.79086 355 8V24.7904H211V8Z" fill="#263769"/>
<line x1="260.077" y1="24.7905" x2="260.077" y2="113.317" stroke="#263769" stroke-width="4"/>
<line y1="-2" x2="88.3985" y2="-2" transform="matrix(0 -1 0.999999 -0.00121641 307.923 113.189)" stroke="#263769" stroke-width="4"/>
<line x1="212.385" y1="68.3953" x2="352.231" y2="68.3953" stroke="#263769" stroke-width="4"/>
<line x1="212.385" y1="45.5928" x2="352.231" y2="45.5928" stroke="#263769" stroke-width="4"/>
<line x1="213.077" y1="91.1978" x2="352.923" y2="91.1978" stroke="#263769" stroke-width="4"/>
<rect x="123" y="96" width="30" height="26" rx="4" fill="#FED870"/>
<rect x="157" y="96" width="30" height="26" rx="4" fill="#FED870"/>
<rect x="123" y="126" width="30" height="26" rx="4" fill="#FED870"/>
<rect x="157" y="126" width="30" height="26" rx="4" fill="#FED870"/>
<path d="M142.382 118.333H130.785C130.223 118.333 129.684 118.11 129.287 117.713C128.89 117.316 128.667 116.777 128.667 116.215V104.785C128.667 104.223 128.89 103.684 129.287 103.287C129.684 102.89 130.223 102.667 130.785 102.667H135.585C135.716 102.667 135.846 102.693 135.967 102.743C136.089 102.793 136.199 102.867 136.292 102.96C136.385 103.053 136.458 103.163 136.509 103.284C136.559 103.405 136.585 103.535 136.585 103.667C136.585 103.798 136.559 103.928 136.509 104.049C136.458 104.171 136.385 104.281 136.292 104.374C136.199 104.467 136.089 104.54 135.967 104.591C135.846 104.641 135.716 104.667 135.585 104.667H130.785C130.753 104.667 130.724 104.679 130.701 104.702C130.679 104.724 130.667 104.754 130.667 104.785V116.215C130.667 116.247 130.679 116.277 130.701 116.299C130.724 116.321 130.753 116.333 130.785 116.333H142.385C142.416 116.333 142.446 116.321 142.469 116.299C142.491 116.276 142.503 116.246 142.503 116.215V111.5C142.503 111.235 142.609 110.98 142.796 110.793C142.984 110.605 143.238 110.5 143.503 110.5C143.769 110.5 144.023 110.605 144.21 110.793C144.398 110.98 144.503 111.235 144.503 111.5V116.215C144.503 116.494 144.448 116.769 144.342 117.027C144.235 117.284 144.079 117.517 143.882 117.714C143.685 117.911 143.451 118.067 143.193 118.173C142.936 118.279 142.66 118.334 142.382 118.333ZM133.454 113.189L133.867 110.873C133.876 110.819 133.901 110.768 133.937 110.727C133.974 110.685 134.021 110.654 134.074 110.638C134.127 110.621 134.183 110.62 134.237 110.633C134.29 110.646 134.34 110.674 134.379 110.713L136.281 112.615C136.32 112.654 136.348 112.703 136.361 112.757C136.374 112.81 136.372 112.867 136.355 112.919C136.339 112.972 136.308 113.019 136.266 113.056C136.225 113.092 136.174 113.117 136.119 113.126L133.805 113.54C133.757 113.549 133.707 113.545 133.661 113.531C133.614 113.516 133.572 113.49 133.538 113.456C133.503 113.421 133.478 113.379 133.463 113.333C133.449 113.286 133.445 113.237 133.454 113.189Z" fill="#263769"/>
<path d="M144.896 104.002L142.992 102.098C142.867 101.973 142.664 101.973 142.539 102.098L134.978 109.659C134.853 109.784 134.853 109.987 134.978 110.111L136.882 112.016C137.007 112.141 137.21 112.141 137.335 112.016L144.896 104.455C145.021 104.33 145.021 104.127 144.896 104.002Z" fill="#263769"/>
<path d="M145.498 100.443L146.555 101.5C146.726 101.672 146.822 101.906 146.822 102.149C146.822 102.392 146.725 102.626 146.553 102.798L146.119 103.231C146.083 103.268 146.04 103.296 145.992 103.316C145.944 103.336 145.893 103.346 145.842 103.346C145.79 103.346 145.739 103.336 145.692 103.316C145.644 103.296 145.601 103.268 145.564 103.231L143.76 101.427C143.686 101.353 143.645 101.253 143.645 101.149C143.645 101.045 143.686 100.945 143.76 100.872L144.193 100.438C144.279 100.353 144.381 100.285 144.493 100.239C144.605 100.192 144.725 100.169 144.847 100.169C144.968 100.17 145.088 100.194 145.2 100.241C145.312 100.288 145.413 100.357 145.498 100.443Z" fill="#263769"/>
<path d="M128 119L148 99L128 119Z" fill="#263769"/>
<g clip-path="url(#clip0_62_246)">
<path d="M145.32 134.021C145.652 134.02 145.971 133.888 146.206 133.653C146.441 133.417 146.573 133.098 146.573 132.766V130.255C146.573 129.923 146.441 129.604 146.206 129.368C145.971 129.133 145.653 129.001 145.32 129H130.253C129.921 129.001 129.602 129.133 129.367 129.368C129.132 129.604 129 129.923 129 130.255C129.001 130.415 129.032 130.574 129.093 130.722V130.729C129.156 130.884 129.249 131.024 129.367 131.143L137.225 139L129.378 146.847V146.851C129.201 147.025 129.079 147.248 129.029 147.492C128.979 147.735 129.002 147.988 129.096 148.219C129.189 148.449 129.35 148.646 129.556 148.785C129.762 148.924 130.005 148.999 130.253 149H145.32C145.653 149 145.972 148.868 146.208 148.632C146.443 148.397 146.575 148.078 146.575 147.745V145.234C146.575 144.901 146.443 144.582 146.208 144.346C145.972 144.111 145.653 143.979 145.32 143.979C144.987 143.979 144.668 144.111 144.432 144.346C144.197 144.582 144.065 144.901 144.065 145.234V146.489H133.286L139.886 139.889C140.003 139.773 140.095 139.635 140.158 139.482C140.221 139.33 140.254 139.167 140.254 139.002C140.254 138.837 140.221 138.674 140.158 138.522C140.095 138.369 140.003 138.231 139.886 138.115L139.881 138.111V138.105L133.286 131.511H144.063V132.766C144.063 132.931 144.095 133.094 144.159 133.247C144.222 133.399 144.315 133.537 144.431 133.654C144.548 133.77 144.687 133.863 144.839 133.926C144.992 133.989 145.155 134.021 145.32 134.021Z" fill="#263769"/>
</g>
<g clip-path="url(#clip1_62_246)">
<path d="M170.661 118.778C170.377 118.78 170.099 118.697 169.861 118.541C169.648 118.398 169.475 118.203 169.358 117.975C169.24 117.747 169.183 117.493 169.19 117.236V110.613C169.168 110.402 169.099 110.199 168.989 110.017L162.333 101.273C162.159 101.066 162.048 100.814 162.013 100.546C161.977 100.278 162.019 100.005 162.132 99.7599C162.259 99.5214 162.45 99.3236 162.684 99.1893C162.918 99.0551 163.185 98.9899 163.455 99.0013H180.639C180.908 98.9898 181.174 99.0538 181.408 99.1859C181.642 99.3181 181.835 99.5132 181.964 99.7492C182.08 99.9912 182.127 100.261 182.098 100.528C182.069 100.795 181.966 101.049 181.8 101.261L175.555 109.98C175.443 110.174 175.373 110.39 175.351 110.613V115.486C175.341 115.899 175.216 116.3 174.99 116.645C174.764 116.99 174.446 117.265 174.072 117.439L171.325 118.636C171.116 118.728 170.89 118.777 170.661 118.778ZM164.924 101.144L170.694 108.716C171.089 109.271 171.313 109.931 171.336 110.613V116.295L173.22 115.474L173.212 110.617C173.235 109.946 173.444 109.294 173.816 108.736L179.248 101.144H164.924Z" fill="#263769"/>
</g>
<g clip-path="url(#clip2_62_246)">
<path d="M176.149 136.236H180.638V137.402H174.383V136.455L178.728 130.177H174.412V128.995H180.503V129.923L176.149 136.236ZM179.479 146.354H176.224L175.543 148.311H174.025L177.199 139.909H178.509L181.691 148.311H180.166L179.479 146.354ZM176.634 145.177H179.069L177.851 141.692L176.634 145.177ZM171.716 142.755C171.611 142.65 171.486 142.566 171.348 142.509C171.21 142.452 171.062 142.422 170.913 142.422C170.764 142.422 170.616 142.452 170.478 142.509C170.341 142.566 170.215 142.65 170.11 142.755L168.15 144.715V130.144C168.15 129.842 168.03 129.553 167.817 129.34C167.604 129.127 167.315 129.007 167.014 129.007C166.712 129.007 166.423 129.127 166.21 129.34C165.997 129.553 165.877 129.842 165.877 130.144V144.705L163.95 142.778C163.845 142.673 163.719 142.589 163.582 142.532C163.444 142.475 163.296 142.445 163.147 142.445C162.998 142.445 162.85 142.475 162.713 142.532C162.575 142.589 162.45 142.673 162.344 142.778L162.333 142.79C162.227 142.895 162.143 143.02 162.086 143.158C162.029 143.296 162 143.444 162 143.593C162 143.742 162.029 143.889 162.086 144.027C162.143 144.165 162.227 144.29 162.333 144.395L166.22 148.283C166.433 148.495 166.721 148.615 167.022 148.615C167.323 148.615 167.612 148.495 167.824 148.283L167.836 148.271C167.856 148.244 167.874 148.217 167.891 148.188L171.716 144.363C171.822 144.257 171.906 144.132 171.963 143.994C172.02 143.856 172.05 143.708 172.05 143.559C172.05 143.41 172.02 143.262 171.963 143.124C171.906 142.986 171.822 142.861 171.716 142.755Z" fill="#263769"/>
</g>
<rect x="281" y="124" width="4" height="72" rx="2" fill="#263769"/>
<rect x="409" y="160" width="4" height="36" rx="2" fill="#263769"/>
<rect x="153" y="160" width="4" height="36" rx="2" fill="#263769"/>
<rect x="513" y="148" width="4" height="48" rx="2" fill="#263769"/>
<rect x="57" y="148" width="4" height="48" rx="2" fill="#263769"/>
<rect x="6" y="192" width="555" height="4" rx="2" fill="#263769"/>
<rect x="505" y="184" width="20" height="20" rx="10" fill="#FED870" stroke="#263769" stroke-width="4"/>
<rect x="401" y="184" width="20" height="20" rx="10" fill="#FED870" stroke="#263769" stroke-width="4"/>
<rect x="273" y="184" width="20" height="20" rx="10" fill="#FED870" stroke="#263769" stroke-width="4"/>
<rect x="145" y="184" width="20" height="20" rx="10" fill="#FED870" stroke="#263769" stroke-width="4"/>
<rect x="49" y="184" width="20" height="20" rx="10" fill="#FED870" stroke="#263769" stroke-width="4"/>
<path d="M670.95 153.5V73.4H657V153.5H670.95ZM622.5 48.65V60.95H705.6V48.65H622.5ZM775.991 48.65H760.991L732.941 121.7H805.991L775.991 48.65ZM768.191 60.95L786.641 110.45H750.941L768.191 60.95ZM720.791 153.5H735.491L741.941 135.5H727.691L720.791 153.5ZM811.691 135.5H796.241L803.141 153.5H819.041L811.691 135.5ZM908.123 107.3C904.673 102.8 899.873 99.5 893.423 97.7C898.373 95.3 902.123 92 904.523 88.1C906.923 84.2 908.123 79.85 908.123 75.5C908.123 70.55 906.773 66.05 904.073 61.55C901.223 57.2 897.473 53.9 892.673 51.8C887.723 49.7 881.423 48.65 873.323 48.65H834.023V105.05H872.123C878.873 105.05 883.973 105.65 887.423 106.85C891.023 108.05 893.873 110 895.823 113C897.773 115.85 898.823 119.3 898.823 123.2C898.823 126.5 898.223 129.5 896.723 132.05C895.373 134.6 893.573 136.55 891.473 137.9C889.373 139.1 886.673 140.15 883.373 140.75C881.573 141.05 878.423 141.2 873.923 141.2H847.823V119H834.023V153.65H873.923C880.673 153.65 886.373 153.05 890.873 151.85C895.523 150.65 899.423 149 902.423 146.6C905.423 144.35 907.973 141.05 910.073 136.85C912.173 132.65 913.223 128 913.223 123.2C913.223 117.05 911.573 111.65 908.123 107.3ZM891.773 86.3C889.973 88.7 887.273 90.5 883.823 91.55C881.123 92.3 876.773 92.75 870.623 92.75H847.823V60.95H868.823C876.323 60.95 881.723 61.4 884.873 62.45C887.873 63.35 890.273 65.15 891.923 67.85C893.573 70.55 894.473 73.55 894.473 77.15C894.473 80.75 893.573 83.75 891.773 86.3ZM993.909 153.5V141.2H928.359V153.5H993.909ZM942.159 127.25V48.65H928.359V127.25H942.159ZM1080.78 105.5V93.05H1022.73V60.95H1084.83V48.65H1008.93V105.5H1080.78ZM1022.73 141.2V119.3H1008.93V153.5H1087.23V141.2H1022.73Z" fill="#263769"/>
<path d="M1160.85 116.6V68L1147.95 86.6V116.6H1115.1L1147.95 69.2L1160.85 50.9V48.5H1150.35L1102.5 116.6V128.45H1147.95V153.5H1160.85V128.45H1175.1V116.6H1160.85ZM1205.7 141.05C1205.4 141.05 1205.1 141.05 1204.8 141.05C1199.1 141.05 1194.15 139.85 1190.1 137.75V151.55C1194.75 152.9 1200 153.5 1206 153.5C1216.2 153.5 1224.3 151.55 1230.6 147.8C1236.75 143.9 1241.1 138.8 1243.5 132.65C1244.4 130.1 1245.15 127.25 1245.75 124.1C1235.55 134.45 1221.45 141.05 1205.85 141.05C1205.7 141.05 1205.7 141.05 1205.7 141.05ZM1233.15 46.7V107.3L1233.3 117.35C1233.3 117.35 1244.7 111.05 1247.1 102.2V46.7H1233.15ZM1285.41 61.85C1289.31 58.7 1295.31 57.2 1303.71 57.2C1311.81 57.2 1317.96 58.85 1322.01 62.3C1325.76 65.45 1328.01 69.8 1329.06 75.65H1342.56C1342.26 69.8 1340.61 64.4 1337.46 59.75C1334.31 54.95 1329.81 51.2 1323.81 48.8C1317.81 46.25 1311.06 45.05 1303.26 45.05C1298.61 45.05 1294.11 45.5 1290.06 46.55C1287.66 47.15 1285.56 48.65 1284.06 50.6C1282.26 53 1281.36 55.55 1281.36 58.4C1281.36 60.65 1281.96 62.6 1282.86 64.4C1283.61 63.5 1284.36 62.6 1285.41 61.85ZM1341.51 107.15C1338.51 102.8 1334.01 99.35 1327.86 96.5C1324.86 95.15 1319.76 93.5 1313.01 91.7C1312.56 91.7 1312.11 91.55 1311.66 91.4C1309.41 90.95 1307.16 90.35 1304.61 89.75C1300.26 88.85 1296.51 87.8 1293.36 86.75C1289.01 85.55 1285.41 84.2 1283.01 83C1277.61 80.3 1273.56 76.85 1271.01 72.8C1269.36 70.55 1268.31 68 1267.71 65.3C1266.81 68 1266.21 71 1266.21 73.85C1266.21 78.8 1267.41 83.15 1269.96 87.05C1272.36 90.95 1276.11 94.1 1281.21 96.8C1284.96 98.75 1291.71 101 1301.46 103.25C1311.06 105.65 1317.36 107.3 1320.06 108.5C1324.56 110.15 1327.71 112.1 1329.51 114.65C1331.46 117.05 1332.36 119.9 1332.36 123.2C1332.36 126.5 1331.46 129.5 1329.51 132.2C1327.41 135.05 1324.41 137.15 1320.36 138.8C1316.31 140.3 1311.66 141.05 1306.41 141.05C1300.41 141.05 1295.01 140 1290.21 138.05C1285.41 135.95 1281.96 133.25 1279.71 129.8C1277.61 126.65 1276.26 122.75 1275.51 118.1H1262.31C1262.46 125 1264.41 131.3 1268.01 136.85C1271.61 142.4 1276.71 146.6 1283.16 149.45C1289.46 152.15 1297.56 153.5 1307.01 153.5C1314.51 153.5 1321.26 152.15 1327.26 149.45C1333.26 146.75 1337.76 142.85 1341.06 137.9C1344.21 132.95 1345.86 127.7 1345.86 122.15C1345.86 116.45 1344.36 111.5 1341.51 107.15Z" fill="#FED66B"/>
</g>
<defs>
<filter id="filter0_d_62_246" x="0" y="0" width="1360" height="214" filterUnits="userSpaceOnUse" color-interpolation-filters="sRGB">
<feFlood flood-opacity="0" result="BackgroundImageFix"/>
<feColorMatrix in="SourceAlpha" type="matrix" values="0 0 0 0 0 0 0 0 0 0 0 0 0 0 0 0 0 0 127 0" result="hardAlpha"/>
<feOffset dy="2"/>
<feGaussianBlur stdDeviation="3"/>
<feComposite in2="hardAlpha" operator="out"/>
<feColorMatrix type="matrix" values="0 0 0 0 0 0 0 0 0 0 0 0 0 0 0 0 0 0 0.2 0"/>
<feBlend mode="normal" in2="BackgroundImageFix" result="effect1_dropShadow_62_246"/>
<feBlend mode="normal" in="SourceGraphic" in2="effect1_dropShadow_62_246" result="shape"/>
</filter>
<clipPath id="clip0_62_246">
<rect width="18" height="20" fill="white" transform="translate(129 129)"/>
</clipPath>
<clipPath id="clip1_62_246">
<rect width="20.7143" height="20" fill="white" transform="translate(162 99)"/>
</clipPath>
<clipPath id="clip2_62_246">
<rect width="20" height="20" fill="white" transform="translate(162 129)"/>
</clipPath>
</defs>
</svg>
