<svg xmlns="http://www.w3.org/2000/svg" xmlns:xlink="http://www.w3.org/1999/xlink" width="28.441" height="25" viewBox="0 0 28.441 25"><defs><filter id="a" x="15.593" y="4.037" width="12.849" height="18.987" filterUnits="userSpaceOnUse"><feOffset dy="1" input="SourceAlpha"/><feGaussianBlur stdDeviation="1" result="b"/><feFlood flood-opacity="0.161"/><feComposite operator="in" in2="b"/><feComposite in="SourceGraphic"/></filter><filter id="c" x="1.073" y="11.652" width="26.577" height="12.843" filterUnits="userSpaceOnUse"><feOffset dy="1" input="SourceAlpha"/><feGaussianBlur stdDeviation="1" result="d"/><feFlood flood-opacity="0.161"/><feComposite operator="in" in2="d"/><feComposite in="SourceGraphic"/></filter><filter id="e" x="0.598" y="2.505" width="27.091" height="16.303" filterUnits="userSpaceOnUse"><feOffset dy="1" input="SourceAlpha"/><feGaussianBlur stdDeviation="1" result="f"/><feFlood flood-opacity="0.161"/><feComposite operator="in" in2="f"/><feComposite in="SourceGraphic"/></filter><filter id="g" x="0" y="4.358" width="12.868" height="18.942" filterUnits="userSpaceOnUse"><feOffset dy="1" input="SourceAlpha"/><feGaussianBlur stdDeviation="1" result="h"/><feFlood flood-opacity="0.161"/><feComposite operator="in" in2="h"/><feComposite in="SourceGraphic"/></filter></defs><g transform="translate(3 -28.58)"><rect width="25" height="25" transform="translate(-1.279 28.58)" fill="rgba(229,236,243,0)"/><g transform="matrix(1, 0, 0, 1, -3, 28.58)" filter="url(#a)"><path d="M166.761,48.882c0-.026.018-.051.016-.076l-6.848,6.6,6.84,6.388c0-.046-.008-.092-.008-.138Z" transform="translate(-141.34 -42.77)" fill="#fff"/></g><g transform="matrix(1, 0, 0, 1, -3, 28.58)" filter="url(#c)"><path d="M24.484,126.9l-2.8,2.69a.731.731,0,0,1-1.006.008L17.895,127l-6.885,6.636a1.586,1.586,0,0,0,.535.107H30.818a1.585,1.585,0,0,0,.769-.212Z" transform="translate(-6.94 -113.25)" fill="#fff"/></g><g transform="matrix(1, 0, 0, 1, -3, 28.58)" filter="url(#e)"><path d="M16.769,43.388,27.221,33.32a1.584,1.584,0,0,0-.807-.235H7.141a1.588,1.588,0,0,0-1.011.377Z" transform="translate(-2.53 -28.58)" fill="#fff"/></g><g transform="matrix(1, 0, 0, 1, -3, 28.58)" filter="url(#g)"><path d="M0,52.1V64.627a1.59,1.59,0,0,0,.069.415l6.8-6.548Z" transform="translate(3 -45.74)" fill="#fff"/></g></g></svg>