<svg xmlns="http://www.w3.org/2000/svg" xmlns:xlink="http://www.w3.org/1999/xlink" width="25" height="31" viewBox="0 0 25 31"><defs><filter id="a" x="4.186" y="0" width="18.629" height="31" filterUnits="userSpaceOnUse"><feOffset dx="1" input="SourceAlpha"/><feGaussianBlur stdDeviation="1" result="b"/><feFlood flood-opacity="0.161"/><feComposite operator="in" in2="b"/><feComposite in="SourceGraphic"/></filter></defs><g transform="translate(-70.518 3)"><rect width="25" height="25" transform="translate(70.518)" fill="rgba(229,236,243,0)"/><g transform="matrix(1, 0, 0, 1, 70.52, -3)" filter="url(#a)"><path d="M77.106,13.315h2.74V24.6a.4.4,0,0,0,.4.4H84.9a.4.4,0,0,0,.4-.4V13.368h3.15a.4.4,0,0,0,.4-.357l.478-4.153a.4.4,0,0,0-.4-.449H85.3V5.8c0-.785.423-1.183,1.256-1.183h2.373a.4.4,0,0,0,.4-.4V.406a.4.4,0,0,0-.4-.4h-3.27c-.023,0-.074,0-.15,0a6.266,6.266,0,0,0-4.1,1.544,4.3,4.3,0,0,0-1.429,3.819V8.408H77.106a.4.4,0,0,0-.4.4v4.1A.4.4,0,0,0,77.106,13.315Z" transform="translate(-70.52 3)" fill="#fff"/></g></g></svg>