<svg xmlns="http://www.w3.org/2000/svg" xmlns:xlink="http://www.w3.org/1999/xlink" width="28.831" height="28.831" viewBox="0 0 28.831 28.831"><defs><filter id="a" x="8.024" y="18.353" width="6.482" height="6.36" filterUnits="userSpaceOnUse"><feOffset dx="1" input="SourceAlpha"/><feGaussianBlur stdDeviation="1" result="b"/><feFlood flood-opacity="0.161"/><feComposite operator="in" in2="b"/><feComposite in="SourceGraphic"/></filter><filter id="c" x="7.15" y="18.473" width="6.49" height="6.334" filterUnits="userSpaceOnUse"><feOffset dx="1" input="SourceAlpha"/><feGaussianBlur stdDeviation="1" result="d"/><feFlood flood-opacity="0.161"/><feComposite operator="in" in2="d"/><feComposite in="SourceGraphic"/></filter><filter id="e" x="6.217" y="18.312" width="6.494" height="6.372" filterUnits="userSpaceOnUse"><feOffset dx="1" input="SourceAlpha"/><feGaussianBlur stdDeviation="1" result="f"/><feFlood flood-opacity="0.161"/><feComposite operator="in" in2="f"/><feComposite in="SourceGraphic"/></filter><filter id="g" x="0" y="0" width="28.831" height="28.831" filterUnits="userSpaceOnUse"><feOffset dx="1" input="SourceAlpha"/><feGaussianBlur stdDeviation="1" result="h"/><feFlood flood-opacity="0.161"/><feComposite operator="in" in2="h"/><feComposite in="SourceGraphic"/></filter><filter id="i" x="4.474" y="16.582" width="6.358" height="6.361" filterUnits="userSpaceOnUse"><feOffset dx="1" input="SourceAlpha"/><feGaussianBlur stdDeviation="1" result="j"/><feFlood flood-opacity="0.161"/><feComposite operator="in" in2="j"/><feComposite in="SourceGraphic"/></filter><filter id="k" x="4.018" y="16.2" width="6.318" height="6.256" filterUnits="userSpaceOnUse"><feOffset dx="1" input="SourceAlpha"/><feGaussianBlur stdDeviation="1" result="l"/><feFlood flood-opacity="0.161"/><feComposite operator="in" in2="l"/><feComposite in="SourceGraphic"/></filter><filter id="m" x="4.912" y="17.161" width="6.387" height="6.437" filterUnits="userSpaceOnUse"><feOffset dx="1" input="SourceAlpha"/><feGaussianBlur stdDeviation="1" result="n"/><feFlood flood-opacity="0.161"/><feComposite operator="in" in2="n"/><feComposite in="SourceGraphic"/></filter><filter id="o" x="5.444" y="17.81" width="6.46" height="6.441" filterUnits="userSpaceOnUse"><feOffset dx="1" input="SourceAlpha"/><feGaussianBlur stdDeviation="1" result="p"/><feFlood flood-opacity="0.161"/><feComposite operator="in" in2="p"/><feComposite in="SourceGraphic"/></filter></defs><g transform="translate(2 3)"><rect width="25" height="25" transform="translate(-1.084 -1.084)" fill="rgba(229,236,243,0)"/><g transform="matrix(1, 0, 0, 1, -2, -3)" filter="url(#a)"><path d="M154.322,352.515q-.238.044-.208.223t.267.119q.238-.059.208-.208T154.322,352.515Z" transform="translate(-144.09 -331.16)" fill="#fff"/></g><g transform="matrix(1, 0, 0, 1, -2, -3)" filter="url(#c)"><path d="M137.568,354.812c-.159,0-.238.054-.238.163q0,.193.253.163.238,0,.238-.163Q137.821,354.783,137.568,354.812Z" transform="translate(-128.18 -333.34)" fill="#fff"/></g><g transform="matrix(1, 0, 0, 1, -2, -3)" filter="url(#e)"><path d="M119.423,351.839q-.059.164.193.223.223.089.282-.089t-.193-.238C119.557,351.7,119.463,351.73,119.423,351.839Z" transform="translate(-111.2 -330.41)" fill="#fff"/></g><g transform="matrix(1, 0, 0, 1, -2, -3)" filter="url(#g)"><path d="M21.575,1.256A4.123,4.123,0,0,0,18.55,0H4.281A4.124,4.124,0,0,0,1.256,1.256,4.124,4.124,0,0,0,0,4.281V18.55a4.123,4.123,0,0,0,1.256,3.025,4.123,4.123,0,0,0,3.025,1.256H7.61a4.02,4.02,0,0,0,.49-.022.575.575,0,0,0,.327-.194.692.692,0,0,0,.163-.5q0-.044-.007-1.011t-.007-1.531l-.342.06a4.375,4.375,0,0,1-.825.052,6.348,6.348,0,0,1-1.033-.1,2.316,2.316,0,0,1-1-.446,1.887,1.887,0,0,1-.654-.914l-.149-.342a3.713,3.713,0,0,0-.468-.758,1.794,1.794,0,0,0-.647-.565l-.1-.074a1.093,1.093,0,0,1-.193-.179.826.826,0,0,1-.134-.208q-.045-.1.074-.171a.966.966,0,0,1,.431-.067l.3.045a2.167,2.167,0,0,1,.736.357,2.4,2.4,0,0,1,.721.773,2.619,2.619,0,0,0,.825.929,1.749,1.749,0,0,0,.974.32,4.223,4.223,0,0,0,.847-.074,2.959,2.959,0,0,0,.669-.223,2.409,2.409,0,0,1,.728-1.531,10.179,10.179,0,0,1-1.524-.268,6.072,6.072,0,0,1-1.4-.58,4,4,0,0,1-1.2-1,4.788,4.788,0,0,1-.78-1.561,7.423,7.423,0,0,1-.3-2.23A4.336,4.336,0,0,1,5.306,7.758a4,4,0,0,1,.1-3.032,2.083,2.083,0,0,1,1.278.2A8.964,8.964,0,0,1,7.93,5.5q.394.238.632.4a10.732,10.732,0,0,1,5.708,0l.565-.357A8,8,0,0,1,16.2,4.89a1.947,1.947,0,0,1,1.2-.163,3.957,3.957,0,0,1,.119,3.032A4.336,4.336,0,0,1,18.7,10.82a7.494,7.494,0,0,1-.3,2.237,4.592,4.592,0,0,1-.788,1.561,4.157,4.157,0,0,1-1.2.988,6.064,6.064,0,0,1-1.4.58,10.171,10.171,0,0,1-1.523.268,2.648,2.648,0,0,1,.773,2.11v3.553a.957.957,0,0,0,.074.409.411.411,0,0,0,.238.216,1.317,1.317,0,0,0,.29.074,3.337,3.337,0,0,0,.364.015h3.33a4.288,4.288,0,0,0,4.281-4.281V4.281A4.124,4.124,0,0,0,21.575,1.256Z" transform="translate(2 3)" fill="#fff"/></g><g transform="matrix(1, 0, 0, 1, -2, -3)" filter="url(#i)"><path d="M85.965,318.543q-.1.074.03.238.149.149.238.044.1-.074-.03-.238Q86.054,318.454,85.965,318.543Z" transform="translate(-79.45 -298.92)" fill="#fff"/></g><g transform="matrix(1, 0, 0, 1, -2, -3)" filter="url(#k)"><path d="M77.187,311.207q-.045.1.1.178a.127.127,0,0,0,.193-.03q.045-.1-.1-.179Q77.232,311.133,77.187,311.207Z" transform="translate(-71.16 -291.96)" fill="#fff"/></g><g transform="matrix(1, 0, 0, 1, -2, -3)" filter="url(#m)"><path d="M94.427,329.666q-.134.074,0,.267t.253.1q.134-.1,0-.283C94.6,329.626,94.516,329.6,94.427,329.666Z" transform="translate(-87.45 -309.47)" fill="#fff"/></g><g transform="matrix(1, 0, 0, 1, -2, -3)" filter="url(#o)"><path d="M104.643,342.132c-.089.079-.07.173.059.283s.218.134.3.044.06-.173-.059-.282S104.722,342.043,104.643,342.132Z" transform="translate(-97.14 -321.27)" fill="#fff"/></g></g></svg>