<svg xmlns="http://www.w3.org/2000/svg" xmlns:xlink="http://www.w3.org/1999/xlink" width="352" height="338.398" viewBox="0 0 352 338.398"><defs><linearGradient id="a" x1="-0.03" y1="0.119" x2="0.938" y2="0.934" gradientUnits="objectBoundingBox"><stop offset="0" stop-color="#7469ff"/><stop offset="1" stop-color="#f4d4f9"/><stop offset="1" stop-color="#ba83c4" stop-opacity="0"/></linearGradient><filter id="b" x="85.114" y="41.641" width="109.825" height="108.329" filterUnits="userSpaceOnUse"><feOffset dx="1" dy="1" input="SourceAlpha"/><feGaussianBlur stdDeviation="3" result="c"/><feFlood flood-opacity="0.09"/><feComposite operator="in" in2="c"/><feComposite in="SourceGraphic"/></filter><filter id="d" x="91.338" y="191.272" width="97.378" height="108.329" filterUnits="userSpaceOnUse"><feOffset dx="1" dy="1" input="SourceAlpha"/><feGaussianBlur stdDeviation="3" result="e"/><feFlood flood-opacity="0.09"/><feComposite operator="in" in2="e"/><feComposite in="SourceGraphic"/></filter><filter id="f" x="234.287" y="40.611" width="109.825" height="109.469" filterUnits="userSpaceOnUse"><feOffset dx="1" dy="1" input="SourceAlpha"/><feGaussianBlur stdDeviation="3" result="g"/><feFlood flood-opacity="0.09"/><feComposite operator="in" in2="g"/><feComposite in="SourceGraphic"/></filter><filter id="h" x="232.495" y="188.273" width="113.409" height="113.409" filterUnits="userSpaceOnUse"><feOffset dx="1" dy="1" input="SourceAlpha"/><feGaussianBlur stdDeviation="3" result="i"/><feFlood flood-opacity="0.09"/><feComposite operator="in" in2="i"/><feComposite in="SourceGraphic"/></filter></defs><g transform="translate(540 -2720.225)"><path d="M294.742,32.038c25.811,26.9,34.061,71,39.562,114,5.5,43.22,8.039,85.118-9.52,113.123-17.771,27.785-55.641,41.677-93.722,56.892-38.081,14.995-76.162,31.754-113.186,26.02C81.065,336.124,45.311,307.9,23.52,270.412S-6.31,186.176,5.325,147.586C17.173,109,48.7,78.566,81.488,53.207,114.28,27.628,148.341,7.12,187.057,1.607,225.773-4.126,268.931,5.356,294.742,32.038Z" transform="translate(-196.77 2720.225) rotate(90)" opacity="0.61" fill="url(#a)"/><rect width="127.6" height="127.6" rx="13" transform="translate(-315.6 2751.23)" fill="#8b80fa"/><rect width="127.6" height="127.6" rx="13" transform="translate(-315.6 2900.862)" fill="#8b80fa"/><rect width="126.682" height="126.682" rx="13" transform="translate(-464.315 2751.23)" fill="#8b80fa"/><rect width="126.682" height="126.682" rx="13" transform="translate(-464.315 2900.862)" fill="#8b80fa"/><g transform="matrix(1, 0, 0, 1, -540, 2720.23)" filter="url(#b)"><path d="M39.556,90.329A6.589,6.589,0,0,1,35.9,89.242a6.935,6.935,0,0,1-3.066-5.957V53.039a6.573,6.573,0,0,0-.917-2.724L1.519,10.383A6.5,6.5,0,0,1,.6,3.47,6.524,6.524,0,0,1,6.644.006H85.125a6.57,6.57,0,0,1,6.048,3.415,6.567,6.567,0,0,1-.747,6.9L61.905,50.145a7.154,7.154,0,0,0-.93,2.894V75.293a10.113,10.113,0,0,1-5.843,8.919L42.587,89.676a7.572,7.572,0,0,1-3.031.652ZM13.354,9.793,39.7,44.371a15.89,15.89,0,0,1,2.92,8.668V78.986l8.6-3.748-.036-22.183a16.5,16.5,0,0,1,2.76-8.593L78.77,9.793Z" transform="translate(93.11 49.64)" fill="#fff"/></g><g transform="matrix(1, 0, 0, 1, -540, 2720.23)" filter="url(#d)"><path d="M75.528,22.676a5.67,5.67,0,0,0,5.661-5.667V5.67A5.67,5.67,0,0,0,75.528,0H7.481A5.67,5.67,0,0,0,1.82,5.67a5.606,5.606,0,0,0,.419,2.108V7.81A5.682,5.682,0,0,0,3.476,9.677h0l35.49,35.487L3.527,80.6v.018a5.667,5.667,0,0,0,3.953,9.707H75.528a5.67,5.67,0,0,0,5.67-5.67V73.32a5.67,5.67,0,1,0-11.339,0v5.67H21.177L50.986,49.181a5.664,5.664,0,0,0,0-8.015l-.024-.018v-.024L21.177,11.339H69.85v5.67a5.67,5.67,0,0,0,5.679,5.667Z" transform="translate(97.52 199.27)" fill="#fff"/></g><g transform="matrix(1, 0, 0, 1, -540, 2720.23)" filter="url(#f)"><path d="M85.627,33.611H70.45l-3.18,9.127H60.2l14.8-39.18H81.1l14.838,39.18H88.832ZM72.358,28.125H83.715L78.035,11.871ZM70.1,88.175H91.032V93.61H61.861V89.2L82.126,59.92H62V54.409H90.4v4.3ZM49.427,67.708a5.3,5.3,0,0,0-7.491,0L32.8,76.844V8.891a5.3,5.3,0,1,0-10.6,0V76.8L13.211,67.81a5.3,5.3,0,0,0-7.487,0l-.055.055a5.291,5.291,0,0,0,0,7.487L23.8,93.479a5.3,5.3,0,0,0,7.482,0l.055-.055a4.24,4.24,0,0,0,.254-.382L49.427,75.2a5.291,5.291,0,0,0,0-7.491Z" transform="translate(238.17 45.05)" fill="#fff"/></g><g transform="matrix(1, 0, 0, 1, -540, 2720.23)" filter="url(#h)"><path d="M33.3,43.9H12.1A10.6,10.6,0,0,1,1.5,33.3V12.1A10.6,10.6,0,0,1,12.1,1.5H33.3A10.6,10.6,0,0,1,43.9,12.1V33.3A10.6,10.6,0,0,1,33.3,43.9ZM12.1,8.567A3.534,3.534,0,0,0,8.567,12.1V33.3A3.534,3.534,0,0,0,12.1,36.837H33.3A3.534,3.534,0,0,0,36.837,33.3V12.1A3.534,3.534,0,0,0,33.3,8.567ZM86.308,43.9h-21.2a10.6,10.6,0,0,1-10.6-10.6V12.1a10.6,10.6,0,0,1,10.6-10.6h21.2a10.6,10.6,0,0,1,10.6,10.6V33.3A10.6,10.6,0,0,1,86.308,43.9ZM65.106,8.567A3.534,3.534,0,0,0,61.573,12.1V33.3a3.534,3.534,0,0,0,3.534,3.534h21.2A3.534,3.534,0,0,0,89.842,33.3V12.1a3.534,3.534,0,0,0-3.534-3.534ZM33.3,96.909H12.1a10.6,10.6,0,0,1-10.6-10.6v-21.2a10.6,10.6,0,0,1,10.6-10.6H33.3a10.6,10.6,0,0,1,10.6,10.6v21.2A10.6,10.6,0,0,1,33.3,96.909ZM12.1,61.573a3.534,3.534,0,0,0-3.534,3.534v21.2A3.534,3.534,0,0,0,12.1,89.842H33.3a3.534,3.534,0,0,0,3.534-3.534v-21.2A3.534,3.534,0,0,0,33.3,61.573ZM86.308,96.909h-21.2a10.6,10.6,0,0,1-10.6-10.6v-21.2a10.6,10.6,0,0,1,10.6-10.6h21.2a10.6,10.6,0,0,1,10.6,10.6v21.2A10.6,10.6,0,0,1,86.308,96.909Zm-21.2-35.337a3.534,3.534,0,0,0-3.534,3.534v21.2a3.534,3.534,0,0,0,3.534,3.534h21.2a3.534,3.534,0,0,0,3.534-3.534v-21.2a3.534,3.534,0,0,0-3.534-3.534Z" transform="translate(239 194.77)" fill="#fff"/></g></g></svg>