<svg width="4000" height="2667" viewBox="0 0 4000 2667" fill="none" xmlns="http://www.w3.org/2000/svg">
<g clip-path="url(#clip0_833_96)">
<g filter="url(#filter0_f_833_96)">
<path d="M4006.67 2500.21V2333.47L3926.86 2416.71L4006.67 2500.21Z" fill="#FFBA80"/>
<path d="M4006.67 333.557L3912.37 250.063L3871.85 390.528L4006.67 333.557Z" fill="#7490C2"/>
<path d="M3441.61 2471.72L3599.76 2400.02L3405.51 2348.69L3441.61 2471.72Z" fill="#E8A27C"/>
<path d="M649.745 1869.59L750.182 1705.3L643.115 1752.7L649.745 1869.59Z" fill="#9CC0C9"/>
<path d="M1991.53 1922.38L1968.69 1759.57L1803.92 1865.66L1991.53 1922.38Z" fill="#1E1E6D"/>
<path d="M1467.24 720.818L1397.01 541.062L1351.09 725.238L1467.24 720.818Z" fill="#C99D9F"/>
<path d="M1170.1 2258.57L966.037 2237.2L1097.42 2394.61L1170.1 2258.57Z" fill="#5D7095"/>
<path d="M2198.3 2296.63L1980.48 2268.15L2132.24 2426.78L2198.3 2296.63Z" fill="#241C65"/>
<path d="M-6.90527 166.815V333.557L72.9043 250.063L-6.90527 166.815Z" fill="#FDF4E7"/>
<path d="M188.322 250.063H72.9043L179.727 500.052L188.322 250.063Z" fill="#FBF1E6"/>
<path d="M3811.44 2416.71H3926.86L3820.03 2166.73L3811.44 2416.71Z" fill="#FDB982"/>
<path d="M374.954 -6.55631L303.248 142.013L448.378 129.489L374.954 -6.55631Z" fill="#FFEEDF"/>
<path d="M874.931 108.37L749.936 -6.55598L674.301 113.527L874.931 108.37Z" fill="#F9D4C6"/>
<path d="M685.107 471.32L884.017 479.67L789.719 327.172L685.107 471.32Z" fill="#E7D9D8"/>
<path d="M3874.8 -6.5563L3812.42 173.937L3953.13 44.7676L3874.8 -6.5563Z" fill="#6283BE"/>
<path d="M3812.42 173.937L3664.1 124.332L3599.76 266.762L3812.42 173.937Z" fill="#6986BE"/>
<path d="M-0.766357 0.0742188L15.4413 -1.64486L-0.0293783 -6.55631L-0.766357 0.0742188Z" fill="#FEF4E5"/>
<path d="M794.63 972.525L696.894 843.847L676.511 960.983L794.63 972.525Z" fill="#A8C2DE"/>
<path d="M3624.81 2673.33L3696.51 2525.01L3551.38 2537.29L3624.81 2673.33Z" fill="#F6AC7C"/>
<path d="M2742.23 1641.45L2577.7 1731.33L2758.44 1784.38L2742.23 1641.45Z" fill="#A6808E"/>
<path d="M172.36 117.947L303.248 142.013L249.959 -6.55631L172.36 117.947Z" fill="#FEF3E5"/>
<path d="M3499.81 2673.33L3551.38 2537.29L3441.61 2471.72L3499.81 2673.33Z" fill="#EDA47A"/>
<path d="M3749.8 2673.33L3827.4 2549.08L3696.51 2525.01L3749.8 2673.33Z" fill="#FCB27D"/>
<path d="M2488.81 799.891L2363.81 854.898L2550.2 922.184L2488.81 799.891Z" fill="#D0928E"/>
<path d="M3715.18 2288.28L3599.76 2400.02L3811.44 2416.71L3715.18 2288.28Z" fill="#FBBA87"/>
<path d="M2831.62 2328.56L2792.33 2501.44L2939.18 2401.98L2831.62 2328.56Z" fill="#8C6174"/>
<path d="M-6.90527 166.815L72.9043 250.063L172.36 117.948L-6.90527 166.815Z" fill="#FDF4E7"/>
<path d="M3409.44 1466.36L3485.82 1375.01L3308.52 1414.3L3409.44 1466.36Z" fill="#FCDABE"/>
<path d="M2911.19 850.232L2872.14 1017.22L3060 935.444L2911.19 850.232Z" fill="#D2AAA9"/>
<path d="M3293.54 786.139L3325.21 901.802L3464.45 781.473L3293.54 786.139Z" fill="#C9B8BE"/>
<path d="M1715.27 157.483L1869.48 91.9163L1749.89 -6.55631L1715.27 157.483Z" fill="#FCA58A"/>
<path d="M4000.53 2667.44L4006.67 2646.08L3984.32 2668.91L4000.53 2667.44Z" fill="#FEB87E"/>
<path d="M519.348 2511.5L303.248 2525.01L374.954 2634.53L519.348 2511.5Z" fill="#DBDAAE"/>
<path d="M98.4437 2250.22L72.9043 2416.71H188.322L98.4437 2250.22Z" fill="#EDF4C0"/>
<path d="M284.585 378.495L399.756 266.761L188.322 250.063L284.585 378.495Z" fill="#F5EDE6"/>
<path d="M3115.74 2187.35L3210.04 2339.85L3314.65 2195.7L3115.74 2187.35Z" fill="#C28D82"/>
<path d="M3260.88 391.756L3382.43 410.665L3404.04 254.483L3260.88 391.756Z" fill="#A29AB3"/>
<path d="M3965.17 2631.83L4006.67 2583.45L3827.4 2549.08L3965.17 2631.83Z" fill="#FEB87E"/>
<path d="M3926.86 2416.71L3827.4 2549.08L4006.67 2500.21L3926.86 2416.71Z" fill="#FEBB83"/>
<path d="M3812.42 173.937L4006.67 166.815L3953.13 44.7676L3812.42 173.937Z" fill="#6986BE"/>
<path d="M-6.90527 83.5677L172.36 117.947L36.0693 36.4186L-6.90527 83.5677Z" fill="#FEF4E6"/>
<path d="M3937.42 2673.33H3968.6L3965.17 2631.83L3937.42 2673.33Z" fill="#FEB77E"/>
<path d="M4006.67 2583.45L3965.17 2631.83L4006.67 2625.2V2583.45Z" fill="#FFB87F"/>
<path d="M4006.67 333.557V166.815L3912.37 250.063L4006.67 333.557Z" fill="#7490C2"/>
<path d="M36.0693 36.4183L-6.90527 41.8206V83.5674L36.0693 36.4183Z" fill="#FEF4E5"/>
<path d="M3968.6 2673.33L3984.32 2668.91L3965.17 2631.83L3968.6 2673.33Z" fill="#FEB77E"/>
<path d="M3984.32 2668.91L4006.67 2646.08L3965.17 2631.83L3984.32 2668.91Z" fill="#FEB77E"/>
<path d="M4006.67 83.5674V41.8206L3953.13 44.7676L4006.67 83.5674Z" fill="#6384BF"/>
<path d="M3953.13 44.7676L4001.02 20.9473L3968.6 -6.55631L3953.13 44.7676Z" fill="#6283BF"/>
<path d="M3965.17 2631.83L4006.67 2646.08V2625.2L3965.17 2631.83Z" fill="#FEB87E"/>
<path d="M4000.04 -0.662759L3984.32 -6.55631L4001.02 20.9473L4000.04 -0.662759Z" fill="#6183BF"/>
<path d="M499.948 -6.55567L448.378 129.489L558.148 195.302L499.948 -6.55567Z" fill="#FFE9DA"/>
<path d="M3925.38 535.413L4006.67 333.556L3871.85 390.528L3925.38 535.413Z" fill="#90A3C7"/>
<path d="M1124.92 2673.33L1007.05 2519.61L999.925 2673.33H1124.92Z" fill="#697791"/>
<path d="M315.526 1984.27L123.246 2086.18L271.569 2123.75L315.526 1984.27Z" fill="#C8E2CD"/>
<path d="M558.148 195.301L399.756 266.761L594.247 318.085L558.148 195.301Z" fill="#FCE5D9"/>
<path d="M3953.13 44.7682L4006.67 166.815V83.568L3953.13 44.7682Z" fill="#6283BF"/>
<path d="M231.296 2270.6L399.756 2400.02L380.602 2241.13L231.296 2270.6Z" fill="#E9EFBD"/>
<path d="M188.322 2416.71L172.36 2549.08L303.248 2525.01L188.322 2416.71Z" fill="#F6F5B8"/>
<path d="M62.3451 -6.55567H31.158L36.0694 36.4189L62.3451 -6.55567Z" fill="#FEF4E5"/>
<path d="M4001.02 20.9473L3953.13 44.7676L4006.67 41.8206L4001.02 20.9473Z" fill="#6283BF"/>
<path d="M172.36 2549.08L249.959 2673.33L303.248 2525.01L172.36 2549.08Z" fill="#FBF7B4"/>
<path d="M172.36 2549.08L-6.90527 2583.45L62.345 2673.33L172.36 2549.08Z" fill="#FBF7B4"/>
<path d="M31.1579 -6.55567L15.4414 -1.64421L36.0693 36.4189L31.1579 -6.55567Z" fill="#FFF4E5"/>
<path d="M3968.6 -6.55631H3937.42L3953.13 44.7676L3968.6 -6.55631Z" fill="#6183BF"/>
<path d="M124.965 2673.33L172.36 2549.08L62.345 2673.33H124.965Z" fill="#FDF9B4"/>
<path d="M-6.90527 2625.2L62.345 2673.33L-6.90527 2583.46V2625.2Z" fill="#FEFBB5"/>
<path d="M36.0693 36.4189L15.4414 -1.6442L-6.90527 20.9479L36.0693 36.4189Z" fill="#FEF4E5"/>
<path d="M31.1579 2673.33H62.345L-6.90527 2625.2L31.1579 2673.33Z" fill="#FEFBB4"/>
<path d="M-6.90527 2646.08L31.1579 2673.33L-6.90527 2625.2V2646.08Z" fill="#FEFBB5"/>
<path d="M3968.6 -6.55631L4001.02 20.9473L3984.32 -6.55631H3968.6Z" fill="#6183BF"/>
<path d="M-0.766276 0.07422L-6.90527 20.9473L15.4414 -1.64486L-0.766276 0.07422Z" fill="#FEF4E5"/>
<path d="M15.4414 2673.33H31.1579L-6.90527 2646.08L15.4414 2673.33Z" fill="#FFFBB4"/>
<path d="M-6.90527 2646.08L-0.0292967 2666.7L15.4414 2673.33L-6.90527 2646.08Z" fill="#FEFBB5"/>
<path d="M36.0693 36.4189L-6.90527 20.9479V41.8213L36.0693 36.4189Z" fill="#FEF4E5"/>
<path d="M3827.4 2549.08L4006.67 2583.45V2500.21L3827.4 2549.08Z" fill="#FEB67E"/>
<path d="M3874.8 2673.33H3937.42L3965.17 2631.83L3874.8 2673.33Z" fill="#FEB67D"/>
<path d="M172.36 117.948L-6.90527 83.568V166.815L172.36 117.948Z" fill="#FEF3E5"/>
<path d="M124.965 -6.55567H62.3451L36.0693 36.4189L124.965 -6.55567Z" fill="#FFF4E5"/>
<path d="M3937.42 -6.55631H3874.8L3953.13 44.7676L3937.42 -6.55631Z" fill="#6283BE"/>
<path d="M3874.8 -6.5563H3749.8L3812.42 173.937L3874.8 -6.5563Z" fill="#6283BE"/>
<path d="M3664.1 124.332L3812.42 173.937L3749.8 -6.5563L3664.1 124.332Z" fill="#6C85BB"/>
<path d="M3723.28 356.64L3812.42 173.937L3599.76 266.761L3723.28 356.64Z" fill="#7B91C0"/>
<path d="M-6.90527 500.052V666.793L90.5853 587.965L-6.90527 500.052Z" fill="#ECEFED"/>
<path d="M303.248 142.013L188.322 250.063L399.756 266.762L303.248 142.013Z" fill="#FFF0E2"/>
<path d="M4006.67 2166.72V2000.23L3890.02 2057.45L4006.67 2166.72Z" fill="#FFC791"/>
<path d="M3696.51 2525.01L3811.44 2416.71L3599.76 2400.02L3696.51 2525.01Z" fill="#FAB17E"/>
<path d="M-6.90527 2333.47V2500.21L72.9043 2416.71L-6.90527 2333.47Z" fill="#F4F7BC"/>
<path d="M172.36 2549.08L72.9043 2416.71L-6.90527 2500.21L172.36 2549.08Z" fill="#FBF7B4"/>
<path d="M4006.67 166.815L3812.42 173.937L3912.37 250.063L4006.67 166.815Z" fill="#6686C0"/>
<path d="M3208.32 502.999L3231.41 650.095L3321.78 506.683L3208.32 502.999Z" fill="#B0A1B3"/>
<path d="M2972.09 1120.6L3060 935.445L2872.14 1017.22L2972.09 1120.6Z" fill="#DBB4AE"/>
<path d="M3485.82 1375.01L3316.13 1300.85L3308.52 1414.3L3485.82 1375.01Z" fill="#FDE0C5"/>
<path d="M3723.28 356.64L3912.37 250.063L3812.42 173.937L3723.28 356.64Z" fill="#7B91C0"/>
<path d="M3925.38 535.413L3871.85 390.528L3775.1 500.052L3925.38 535.413Z" fill="#90A3C7"/>
<path d="M179.727 500.052L72.9043 250.063L-6.90527 333.556L179.727 500.052Z" fill="#ECEDEB"/>
<path d="M72.9043 250.063H188.322L172.36 117.948L72.9043 250.063Z" fill="#FBF3E7"/>
<path d="M3820.03 2166.73L3926.86 2416.71L4006.67 2333.47L3820.03 2166.73Z" fill="#FEC490"/>
<path d="M3926.86 2416.71H3811.44L3827.4 2549.08L3926.86 2416.71Z" fill="#FEBB83"/>
<path d="M-6.90527 2500.21V2583.45L172.36 2549.08L-6.90527 2500.21Z" fill="#FCFAB7"/>
<path d="M98.4438 2250.22L188.322 2416.71L231.296 2270.6L98.4438 2250.22Z" fill="#EDF4C0"/>
<path d="M3775.1 500.052L3871.85 390.528L3723.28 356.64L3775.1 500.052Z" fill="#8D9FC4"/>
<path d="M3723.28 356.64L3871.85 390.528L3912.37 250.063L3723.28 356.64Z" fill="#7B91C0"/>
<path d="M3699.46 663.847L3775.1 500.052L3666.55 549.166L3699.46 663.847Z" fill="#A8B0C7"/>
<path d="M4006.67 333.557L3925.38 535.413L4006.67 666.793V333.557Z" fill="#7490C2"/>
<path d="M3499.81 -6.55598L3531 149.871L3624.81 -6.55598H3499.81Z" fill="#7686B7"/>
<path d="M3249.82 -6.55598L3374.82 99.5293L3499.81 -6.55598H3249.82Z" fill="#928DAF"/>
<path d="M144.365 1257.39L243.083 1394.66L313.07 1245.6L144.365 1257.39Z" fill="#AEE1F6"/>
<path d="M3664.1 124.332L3749.8 -6.55598H3624.81L3664.1 124.332Z" fill="#6C85BB"/>
<path d="M415.964 398.632L399.756 266.761L284.584 378.495L415.964 398.632Z" fill="#F3E9E3"/>
<path d="M448.378 129.489L303.248 142.013L399.756 266.762L448.378 129.489Z" fill="#FEEBDD"/>
<path d="M172.36 117.947L249.959 -6.55598H124.965L172.36 117.947Z" fill="#FEF3E5"/>
<path d="M399.756 266.761L415.964 398.632L594.247 318.085L399.756 266.761Z" fill="#FDECE1"/>
<path d="M303.248 142.013L374.954 -6.55631H249.959L303.248 142.013Z" fill="#FFF0E2"/>
<path d="M36.0693 36.4186L172.36 117.947L124.965 -6.55598L36.0693 36.4186Z" fill="#FEF4E5"/>
<path d="M188.322 250.063L303.248 142.013L172.36 117.948L188.322 250.063Z" fill="#FBF1E6"/>
<path d="M284.584 378.496L330.26 520.435L415.964 398.632L284.584 378.496Z" fill="#F5EDE6"/>
<path d="M742.324 589.438L884.017 479.67L685.107 471.32L742.324 589.438Z" fill="#D9D3D8"/>
<path d="M935.833 342.151L872.967 233.61L789.719 327.172L935.833 342.151Z" fill="#EDCCC5"/>
<path d="M448.378 129.489L499.948 -6.55567H374.954L448.378 129.489Z" fill="#FEEBDD"/>
<path d="M558.148 195.302L674.302 113.528L499.949 -6.55567L558.148 195.302Z" fill="#FCE5D9"/>
<path d="M3571.76 1457.03L3697.74 1483.31L3697.99 1354.63L3571.76 1457.03Z" fill="#FEE1C2"/>
<path d="M3583.8 2268.39L3599.76 2400.02L3715.18 2288.28L3583.8 2268.39Z" fill="#F5B487"/>
<path d="M3551.38 2537.29L3696.51 2525.01L3599.76 2400.02L3551.38 2537.29Z" fill="#F2A97C"/>
<path d="M3827.4 2549.08L3749.8 2673.33H3874.8L3827.4 2549.08Z" fill="#FEB67E"/>
<path d="M3599.76 2400.02L3583.8 2268.39L3405.51 2348.69L3599.76 2400.02Z" fill="#F7B081"/>
<path d="M3696.51 2525.01L3624.81 2673.33H3749.8L3696.51 2525.01Z" fill="#FAB17E"/>
<path d="M3965.17 2631.83L3827.4 2549.08L3874.8 2673.33L3965.17 2631.83Z" fill="#FEB87E"/>
<path d="M3811.44 2416.71L3696.51 2525.01L3827.4 2549.08L3811.44 2416.71Z" fill="#FDB982"/>
<path d="M3669.99 2144.38L3583.8 2268.39L3715.18 2288.28L3669.99 2144.38Z" fill="#FAC090"/>
<path d="M3257.44 2077.34L3115.74 2187.35L3314.65 2195.7L3257.44 2077.34Z" fill="#D9A48D"/>
<path d="M3210.04 2339.85L3063.93 2324.87L3092.42 2510.28L3210.04 2339.85Z" fill="#CC907E"/>
<path d="M3551.38 2537.29L3499.81 2673.33H3624.81L3551.38 2537.29Z" fill="#F2A97C"/>
<path d="M3441.61 2471.72L3325.46 2553.5L3499.81 2673.33L3441.61 2471.72Z" fill="#E8A27C"/>
<path d="M1589.04 2064.81L1612.13 2207.49L1751.61 2181.46L1589.04 2064.81Z" fill="#26367D"/>
<path d="M558.393 2018.16L448.87 1969.53L420.629 2085.93L558.393 2018.16Z" fill="#B3CCC3"/>
<path d="M374.954 2634.53L303.248 2525.01L249.959 2673.33L374.954 2634.53Z" fill="#EEE9B0"/>
<path d="M399.756 2400.02L188.322 2416.71L303.248 2525.01L399.756 2400.02Z" fill="#E8E7B4"/>
<path d="M72.9043 2416.71L172.36 2549.08L188.322 2416.71H72.9043Z" fill="#F8F8B9"/>
<path d="M249.959 2673.33L172.36 2549.08L124.965 2673.33H249.959Z" fill="#F9F4B2"/>
<path d="M249.959 2673.33H499.948L374.954 2634.53L249.959 2673.33Z" fill="#F9F4B2"/>
<path d="M374.954 2634.53L499.948 2673.33L519.348 2511.5L374.954 2634.53Z" fill="#EEE9B0"/>
<path d="M188.322 250.063L179.727 500.052L284.585 378.495L188.322 250.063Z" fill="#FBF1E6"/>
<path d="M484.969 639.043L427.997 887.559L576.32 736.288L484.969 639.043Z" fill="#DAE0E7"/>
<path d="M1702.74 426.136L1628.58 301.142L1536 443.571L1702.74 426.136Z" fill="#EFA08C"/>
<path d="M742.324 589.438L685.107 471.32L611.191 595.823L742.324 589.438Z" fill="#D9D3D8"/>
<path d="M789.719 327.172L594.247 318.085L685.107 471.32L789.719 327.172Z" fill="#F0D6CF"/>
<path d="M508.298 493.913L594.247 318.086L415.964 398.632L508.298 493.913Z" fill="#E9E2E2"/>
<path d="M179.727 500.052L174.079 681.527L330.26 520.434L179.727 500.052Z" fill="#ECEDEB"/>
<path d="M685.107 471.321L594.246 318.086L508.297 493.913L685.107 471.321Z" fill="#E7D9D8"/>
<path d="M789.719 327.172L695.175 253.992L594.247 318.085L789.719 327.172Z" fill="#F0D6CF"/>
<path d="M695.175 253.992L558.148 195.301L594.247 318.085L695.175 253.992Z" fill="#F6DDD3"/>
<path d="M508.297 493.912L611.191 595.823L685.107 471.32L508.297 493.912Z" fill="#E9E2E2"/>
<path d="M856.759 820.764L1071.63 784.911L972.913 704.61L856.759 820.764Z" fill="#BAC3D6"/>
<path d="M874.931 108.371L872.967 233.61L1012.94 132.927L874.931 108.371Z" fill="#F9D4C6"/>
<path d="M789.719 327.172L872.967 233.61L695.175 253.992L789.719 327.172Z" fill="#F0D6CF"/>
<path d="M695.175 253.992L674.302 113.527L558.148 195.301L695.175 253.992Z" fill="#F6DDD3"/>
<path d="M399.756 266.762L558.148 195.301L448.379 129.489L399.756 266.762Z" fill="#FDECE1"/>
<path d="M508.297 493.913L330.26 520.435L484.968 639.044L508.297 493.913Z" fill="#E9E2E2"/>
<path d="M972.913 704.61L855.286 656.479L856.759 820.764L972.913 704.61Z" fill="#C8BFCA"/>
<path d="M1820.37 2520.59L1749.89 2673.33L1874.89 2638.46L1820.37 2520.59Z" fill="#131C6B"/>
<path d="M1012.94 132.927L872.967 233.61L1060.58 264.797L1012.94 132.927Z" fill="#F7CBBD"/>
<path d="M704.507 713.942L742.324 589.439L611.191 595.824L704.507 713.942Z" fill="#CBD1DE"/>
<path d="M972.913 704.61L1037.74 595.332L855.286 656.479L972.913 704.61Z" fill="#C8BFCA"/>
<path d="M704.506 713.942L611.191 595.824L576.32 736.289L704.506 713.942Z" fill="#CBD1DE"/>
<path d="M742.324 589.439L855.285 656.479L884.017 479.67L742.324 589.439Z" fill="#D9D3D8"/>
<path d="M1037.74 595.333L884.017 479.67L855.286 656.479L1037.74 595.333Z" fill="#D4BEC2"/>
<path d="M789.719 327.172L884.017 479.67L935.833 342.151L789.719 327.172Z" fill="#F0D6CF"/>
<path d="M1149.23 536.15L1178.7 681.772L1272.02 566.11L1149.23 536.15Z" fill="#DBB9B8"/>
<path d="M935.832 342.151L884.017 479.67L1077.77 432.029L935.832 342.151Z" fill="#EDCCC5"/>
<path d="M1060.58 264.797L935.833 342.151L1077.77 432.029L1060.58 264.797Z" fill="#F1C6BA"/>
<path d="M1249.91 -6.55598L1124.92 52.1351L1229.53 183.76L1249.91 -6.55598Z" fill="#F9BDAA"/>
<path d="M855.286 656.479L704.506 713.941L856.759 820.764L855.286 656.479Z" fill="#CFC9D2"/>
<path d="M1071.63 784.911L1037.74 595.332L972.913 704.61L1071.63 784.911Z" fill="#BDB4C3"/>
<path d="M576.32 736.288L563.55 871.842L696.894 843.847L576.32 736.288Z" fill="#CCD9E5"/>
<path d="M1021.78 1079.84L1109.94 959.51L951.549 948.214L1021.78 1079.84Z" fill="#96ABCC"/>
<path d="M742.324 589.439L704.506 713.942L855.286 656.479L742.324 589.439Z" fill="#D9D3D8"/>
<path d="M856.759 820.764L794.631 972.525L951.549 948.214L856.759 820.764Z" fill="#BAC3D6"/>
<path d="M676.512 960.984L563.55 871.842L581.968 1032.94L676.512 960.984Z" fill="#ADCBE6"/>
<path d="M794.63 972.525L856.759 820.764L696.894 843.847L794.63 972.525Z" fill="#A8C2DE"/>
<path d="M576.32 736.289L696.894 843.848L704.506 713.942L576.32 736.289Z" fill="#CCD9E5"/>
<path d="M704.506 713.942L696.894 843.848L856.759 820.764L704.506 713.942Z" fill="#CBD1DE"/>
<path d="M460.411 1007.15L427.996 887.559L339.837 971.788L460.411 1007.15Z" fill="#B1D8F1"/>
<path d="M324.612 1503.69L465.077 1524.56L396.072 1387.78L324.612 1503.69Z" fill="#A5DAEB"/>
<path d="M581.968 1032.94L460.412 1007.15L521.313 1233.32L581.968 1032.94Z" fill="#A9D0EC"/>
<path d="M717.277 1306.99L835.395 1274.33L735.203 1135.09L717.277 1306.99Z" fill="#89BFE7"/>
<path d="M563.551 871.842L576.32 736.288L427.997 887.559L563.551 871.842Z" fill="#BCD5EA"/>
<path d="M735.203 1135.09L676.512 960.983L581.968 1032.93L735.203 1135.09Z" fill="#97C2E5"/>
<path d="M1272.02 566.11L1178.7 681.773L1351.09 725.238L1272.02 566.11Z" fill="#D9B0AE"/>
<path d="M1149.23 536.15L1164.21 338.714L1077.77 432.029L1149.23 536.15Z" fill="#DBB9B8"/>
<path d="M1077.77 432.03L884.017 479.67L1037.74 595.333L1077.77 432.03Z" fill="#E5C1BC"/>
<path d="M749.937 -6.55631L874.931 108.37L999.926 -6.55631H749.937Z" fill="#FCDCCE"/>
<path d="M1037.74 595.333L1149.23 536.151L1077.77 432.03L1037.74 595.333Z" fill="#D4BEC2"/>
<path d="M1164.21 338.714L1060.58 264.797L1077.77 432.029L1164.21 338.714Z" fill="#ECBEB3"/>
<path d="M674.301 113.527L695.175 253.992L872.966 233.61L674.301 113.527Z" fill="#FCE0D3"/>
<path d="M1458.16 191.618L1342.25 229.435L1499.17 315.384L1458.16 191.618Z" fill="#F8B09B"/>
<path d="M1037.74 595.332L1178.7 681.772L1149.23 536.15L1037.74 595.332Z" fill="#D4BEC2"/>
<path d="M1657.8 934.216L1491.55 834.516L1528.39 961.475L1657.8 934.216Z" fill="#AF8693"/>
<path d="M1178.7 681.772L1037.74 595.332L1071.63 784.911L1178.7 681.772Z" fill="#CAB1B8"/>
<path d="M1272.02 566.11L1397.01 541.062L1407.08 407.473L1272.02 566.11Z" fill="#D9B0AE"/>
<path d="M1273.24 887.312L1178.7 681.772L1071.63 784.911L1273.24 887.312Z" fill="#AFA0B2"/>
<path d="M1397.75 924.64L1351.09 725.238L1273.24 887.313L1397.75 924.64Z" fill="#AB95A7"/>
<path d="M1199.82 1189.61L1021.78 1079.84L1100.12 1292.01L1199.82 1189.61Z" fill="#8794BA"/>
<path d="M1991.53 1922.38L2162.45 1974.2L2107.44 1847.73L1991.53 1922.38Z" fill="#1E1E6D"/>
<path d="M1273.24 887.313L1109.94 959.51L1258.02 1058.97L1273.24 887.313Z" fill="#AFA0B2"/>
<path d="M1397.75 924.64L1491.55 834.516L1351.09 725.238L1397.75 924.64Z" fill="#AB95A7"/>
<path d="M1458.16 191.618L1499.9 -6.55567L1374.91 70.5527L1458.16 191.618Z" fill="#F8B09B"/>
<path d="M1249.91 -6.55631H999.925L1124.92 52.1348L1249.91 -6.55631Z" fill="#F9BDAA"/>
<path d="M1536 443.571L1407.08 407.472L1397.01 541.062L1536 443.571Z" fill="#EAA697"/>
<path d="M1229.53 183.76L1060.58 264.797L1164.21 338.714L1229.53 183.76Z" fill="#F5BDAC"/>
<path d="M1164.21 338.714L1149.23 536.15L1291.66 339.941L1164.21 338.714Z" fill="#ECBEB3"/>
<path d="M1491.55 834.516L1657.8 934.217L1655.1 740.218L1491.55 834.516Z" fill="#BA959E"/>
<path d="M1149.23 536.151L1272.02 566.11L1291.66 339.942L1149.23 536.151Z" fill="#DBB9B8"/>
<path d="M1499.17 315.384L1342.25 229.436L1407.08 407.473L1499.17 315.384Z" fill="#F2AB99"/>
<path d="M499.949 -6.55598L674.302 113.527L749.937 -6.55598H499.949Z" fill="#FFE9DA"/>
<path d="M1060.58 264.797L872.967 233.61L935.832 342.151L1060.58 264.797Z" fill="#F1C6BA"/>
<path d="M872.966 233.61L874.931 108.371L674.301 113.528L872.966 233.61Z" fill="#F4D2C8"/>
<path d="M1715.27 157.483L1866.54 246.87L1869.48 91.9164L1715.27 157.483Z" fill="#FCA58A"/>
<path d="M1610.41 544.5L1536 443.571L1503.83 610.312L1610.41 544.5Z" fill="#E29F92"/>
<path d="M1272.02 566.11L1407.08 407.473L1291.66 339.942L1272.02 566.11Z" fill="#D9B0AE"/>
<path d="M1846.4 503.244L1838.3 373.093L1702.74 426.135L1846.4 503.244Z" fill="#EC9984"/>
<path d="M1628.58 301.142L1702.74 426.136L1838.3 373.093L1628.58 301.142Z" fill="#F5A690"/>
<path d="M1397.01 541.062L1503.83 610.312L1536 443.571L1397.01 541.062Z" fill="#DDA9A3"/>
<path d="M1351.09 725.238L1397.01 541.062L1272.02 566.11L1351.09 725.238Z" fill="#C7A3A9"/>
<path d="M1866.54 246.87L1628.58 301.141L1838.3 373.093L1866.54 246.87Z" fill="#FA9F84"/>
<path d="M1164.21 338.714L1291.66 339.941L1229.53 183.76L1164.21 338.714Z" fill="#ECBEB3"/>
<path d="M1499.17 315.384L1536 443.571L1628.58 301.142L1499.17 315.384Z" fill="#F2AB99"/>
<path d="M999.925 -6.55631L874.931 108.37L1012.94 132.927L999.925 -6.55631Z" fill="#F9CCBD"/>
<path d="M1503.83 610.312L1467.24 720.817L1655.1 740.218L1503.83 610.312Z" fill="#D8A19B"/>
<path d="M1610.41 544.5L1702.74 426.135L1536 443.571L1610.41 544.5Z" fill="#E29F92"/>
<path d="M1229.53 183.76L1124.92 52.1351L1012.94 132.927L1229.53 183.76Z" fill="#F5BDAC"/>
<path d="M3811.44 2416.71L3820.03 2166.73L3715.18 2288.28L3811.44 2416.71Z" fill="#FDB982"/>
<path d="M3764.78 2023.07L3595.58 2013.25L3669.99 2144.38L3764.78 2023.07Z" fill="#FDCB9A"/>
<path d="M3873.81 1906.67L4006.67 2000.23V1833.49L3873.81 1906.67Z" fill="#FED4A4"/>
<path d="M2842.43 2128.91L2701.96 2341.82L2831.62 2328.56L2842.43 2128.91Z" fill="#966C7B"/>
<path d="M3210.04 2339.85L3405.52 2348.69L3314.65 2195.7L3210.04 2339.85Z" fill="#CC907E"/>
<path d="M3491.46 2173.11L3405.51 2348.69L3583.8 2268.39L3491.46 2173.11Z" fill="#EFB38B"/>
<path d="M3669.99 2144.38L3595.58 2013.25L3491.46 2173.11L3669.99 2144.38Z" fill="#FAC090"/>
<path d="M3314.65 2195.7L3405.51 2348.69L3491.46 2173.11L3314.65 2195.7Z" fill="#DDA287"/>
<path d="M3210.04 2339.85L3304.59 2413.03L3405.52 2348.69L3210.04 2339.85Z" fill="#CC907E"/>
<path d="M3304.59 2413.03L3441.61 2471.72L3405.51 2348.69L3304.59 2413.03Z" fill="#D8977D"/>
<path d="M3491.46 2173.11L3388.57 2071.2L3314.65 2195.7L3491.46 2173.11Z" fill="#EFB38B"/>
<path d="M3388.57 2071.2L3257.44 2077.34L3314.65 2195.7L3388.57 2071.2Z" fill="#E8B191"/>
<path d="M3092.42 2510.28L3124.83 2636.5L3325.46 2553.5L3092.42 2510.28Z" fill="#B77D76"/>
<path d="M3092.42 2510.28L3304.59 2413.03L3210.04 2339.85L3092.42 2510.28Z" fill="#B77D76"/>
<path d="M3304.59 2413.03L3325.46 2553.5L3441.61 2471.72L3304.59 2413.03Z" fill="#D8977D"/>
<path d="M3599.76 2400.02L3441.61 2471.72L3551.38 2537.29L3599.76 2400.02Z" fill="#F7B081"/>
<path d="M3595.58 2013.25L3388.57 2071.2L3491.46 2173.11L3595.58 2013.25Z" fill="#F8C499"/>
<path d="M3236.81 1864.18L3075.72 1801.57L3144.48 2010.3L3236.81 1864.18Z" fill="#E0B19B"/>
<path d="M3075.72 1801.56L2928.13 1881.87L3026.85 1962.17L3075.72 1801.56Z" fill="#CFA298"/>
<path d="M2928.13 1881.87L3075.72 1801.56L2950.72 1747.79L2928.13 1881.87Z" fill="#B3888C"/>
<path d="M3306.06 1965.11L3236.81 1864.18L3144.48 2010.3L3306.06 1965.11Z" fill="#E3B096"/>
<path d="M3026.85 1962.17L2962.02 2071.44L3144.48 2010.3L3026.85 1962.17Z" fill="#BE908C"/>
<path d="M3306.06 1965.11L3388.57 2071.2L3423.44 1930.73L3306.06 1965.11Z" fill="#E3B096"/>
<path d="M3257.44 2077.34L3144.48 2010.3L3115.74 2187.35L3257.44 2077.34Z" fill="#D9A48D"/>
<path d="M2962.02 2071.44L3115.74 2187.35L3144.48 2010.3L2962.02 2071.44Z" fill="#AE8083"/>
<path d="M3210.04 2339.85L3115.74 2187.35L3063.93 2324.87L3210.04 2339.85Z" fill="#CC907E"/>
<path d="M2728.73 1897.09L2713.75 2097.47L2810.75 1979.6L2728.73 1897.09Z" fill="#8F6B81"/>
<path d="M3063.93 2324.87L3115.74 2187.35L2921.99 2234.75L3063.93 2324.87Z" fill="#B5807B"/>
<path d="M2810.75 1979.6L2713.75 2097.48L2842.43 2128.91L2810.75 1979.6Z" fill="#987181"/>
<path d="M3124.83 2636.5L3092.42 2510.28L2999.84 2673.33L3124.83 2636.5Z" fill="#BB7F75"/>
<path d="M3075.72 1801.57L3236.81 1864.18L3205.13 1694.25L3075.72 1801.57Z" fill="#CFA298"/>
<path d="M2928.13 1881.87L2962.02 2071.44L3026.85 1962.17L2928.13 1881.87Z" fill="#B3888C"/>
<path d="M3308.52 1414.3L3328.16 1598.97L3409.44 1466.36L3308.52 1414.3Z" fill="#FAD6BE"/>
<path d="M2885.65 1628.44L2950.72 1747.79L3055.33 1613.46L2885.65 1628.44Z" fill="#BE9598"/>
<path d="M3144.48 2010.3L3075.72 1801.57L3026.85 1962.17L3144.48 2010.3Z" fill="#CD9B8D"/>
<path d="M2803.14 1514.5L2958.09 1482.08L2833.09 1376.98L2803.14 1514.5Z" fill="#BA9298"/>
<path d="M3306.06 1965.11L3144.48 2010.3L3257.44 2077.34L3306.06 1965.11Z" fill="#E3B096"/>
<path d="M3236.81 1864.18L3423.44 1930.73L3377.52 1764.24L3236.81 1864.18Z" fill="#E0B19B"/>
<path d="M2833.09 1376.98L2958.09 1482.08L2968.4 1342.84L2833.09 1376.98Z" fill="#C79E9F"/>
<path d="M1341.27 1209.74L1466.75 1175.12L1430.16 1050.37L1341.27 1209.74Z" fill="#8286AC"/>
<path d="M3075.72 1801.56L3055.33 1613.46L2950.72 1747.79L3075.72 1801.56Z" fill="#CFA298"/>
<path d="M2527.36 1837.17L2613.8 1916.49L2577.7 1731.33L2527.36 1837.17Z" fill="#70537A"/>
<path d="M3055.33 1613.46L3075.72 1801.56L3205.13 1694.25L3055.33 1613.46Z" fill="#D7AEA3"/>
<path d="M2613.8 1916.49L2728.73 1897.09L2758.44 1784.38L2613.8 1916.49Z" fill="#79597B"/>
<path d="M3166.33 1586.69L3055.33 1613.46L3205.13 1694.25L3166.33 1586.69Z" fill="#E7BDAC"/>
<path d="M2885.65 1628.44L3055.33 1613.46L2958.09 1482.08L2885.65 1628.44Z" fill="#BE9598"/>
<path d="M3377.52 1764.24L3328.16 1598.97L3205.13 1694.25L3377.52 1764.24Z" fill="#F1C6A7"/>
<path d="M3090.2 1421.92L3058.28 1236.02L2968.4 1342.84L3090.2 1421.92Z" fill="#E5BEB0"/>
<path d="M3090.21 1421.92L3055.33 1613.46L3166.33 1586.69L3090.21 1421.92Z" fill="#E5BEB0"/>
<path d="M3220.6 1486.25L3176.4 1311.41L3090.21 1421.92L3220.6 1486.25Z" fill="#F1CAB5"/>
<path d="M3328.16 1598.97L3166.33 1586.69L3205.13 1694.25L3328.16 1598.97Z" fill="#F4CDB2"/>
<path d="M3166.33 1586.69L3220.6 1486.25L3090.21 1421.92L3166.33 1586.69Z" fill="#E7BDAC"/>
<path d="M3058.28 1236.02L3196.29 1150.32L3134.16 1039.07L3058.28 1236.02Z" fill="#E4BEB4"/>
<path d="M1966.48 553.831L2084.36 495.386L2012.65 385.125L1966.48 553.831Z" fill="#EA9581"/>
<path d="M3090.21 1421.92L2968.4 1342.84L2958.09 1482.08L3090.21 1421.92Z" fill="#E5BEB0"/>
<path d="M2864.77 1216.38L2718.17 1143.69L2734.38 1280.71L2864.77 1216.38Z" fill="#D1A7A5"/>
<path d="M3090.21 1421.92L2958.09 1482.08L3055.33 1613.46L3090.21 1421.92Z" fill="#E5BEB0"/>
<path d="M3308.52 1414.3L3176.4 1311.41L3220.6 1486.25L3308.52 1414.3Z" fill="#FAD6BE"/>
<path d="M2478.74 2183.67L2324.52 2223.45L2461.55 2304.98L2478.74 2183.67Z" fill="#50396C"/>
<path d="M3063.93 2324.87L2921.99 2234.75L2939.18 2401.98L3063.93 2324.87Z" fill="#B5807B"/>
<path d="M2921.99 2234.75L3115.74 2187.35L2962.02 2071.44L2921.99 2234.75Z" fill="#A0717A"/>
<path d="M2939.18 2401.98L2921.99 2234.75L2831.62 2328.56L2939.18 2401.98Z" fill="#9E6D75"/>
<path d="M2962.02 2071.44L2842.43 2128.91L2921.99 2234.75L2962.02 2071.44Z" fill="#AE8083"/>
<path d="M2499.86 2673.33L2624.85 2634.29L2598.33 2506.1L2499.86 2673.33Z" fill="#4B3266"/>
<path d="M3092.42 2510.28L3325.46 2553.5L3304.59 2413.03L3092.42 2510.28Z" fill="#B77D76"/>
<path d="M2939.18 2401.98L3092.42 2510.28L3063.93 2324.87L2939.18 2401.98Z" fill="#9E6D75"/>
<path d="M2962.02 2071.44L2810.75 1979.6L2842.43 2128.91L2962.02 2071.44Z" fill="#AE8083"/>
<path d="M2589 2088.63L2478.74 2183.67L2597.59 2213.38L2589 2088.63Z" fill="#694B73"/>
<path d="M2810.75 1979.6L2962.02 2071.44L2928.13 1881.87L2810.75 1979.6Z" fill="#987181"/>
<path d="M2598.33 2506.1L2573.77 2375.7L2464.25 2463.86L2598.33 2506.1Z" fill="#5D3F69"/>
<path d="M2928.13 1881.87L2950.72 1747.79L2758.44 1784.38L2928.13 1881.87Z" fill="#B3888C"/>
<path d="M2613.8 1916.49L2466.71 2061.87L2589 2088.63L2613.8 1916.49Z" fill="#79597B"/>
<path d="M3499.81 2673.33L3325.46 2553.5L3249.82 2673.33H3499.81Z" fill="#EDA47A"/>
<path d="M3092.42 2510.28L2939.18 2401.98L2956.12 2540.73L3092.42 2510.28Z" fill="#B77D76"/>
<path d="M2928.13 1881.87L2758.44 1784.38L2728.73 1897.09L2928.13 1881.87Z" fill="#B3888C"/>
<path d="M2885.65 1628.44L2742.23 1641.45L2758.44 1784.38L2885.65 1628.44Z" fill="#BE9598"/>
<path d="M2950.72 1747.79L2885.65 1628.44L2758.44 1784.38L2950.72 1747.79Z" fill="#C09695"/>
<path d="M2803.14 1514.5L2630.5 1550.35L2742.23 1641.45L2803.14 1514.5Z" fill="#BA9298"/>
<path d="M2701.96 2341.82L2842.43 2128.91L2713.75 2097.48L2701.96 2341.82Z" fill="#734F6F"/>
<path d="M2842.43 2128.91L2831.62 2328.55L2921.99 2234.75L2842.43 2128.91Z" fill="#966C7B"/>
<path d="M3388.57 2071.2L3306.06 1965.11L3257.44 2077.34L3388.57 2071.2Z" fill="#E8B191"/>
<path d="M3423.44 1930.73L3236.81 1864.18L3306.06 1965.11L3423.44 1930.73Z" fill="#EFBD9C"/>
<path d="M3316.13 1300.85L3385.62 1129.69L3196.29 1150.32L3316.13 1300.85Z" fill="#FBDAC4"/>
<path d="M3058.28 1236.02L3090.21 1421.92L3176.4 1311.41L3058.28 1236.02Z" fill="#E4BEB4"/>
<path d="M3092.42 2510.28L2956.12 2540.73L2999.84 2673.33L3092.42 2510.28Z" fill="#B77D76"/>
<path d="M2792.33 2501.44L2598.33 2506.1L2624.85 2634.29L2792.33 2501.44Z" fill="#81576F"/>
<path d="M2713.75 2097.47L2728.73 1897.09L2613.8 1916.49L2713.75 2097.47Z" fill="#7F5C78"/>
<path d="M2928.13 1881.87L2728.73 1897.09L2810.75 1979.6L2928.13 1881.87Z" fill="#B3888C"/>
<path d="M2006.76 889.523L1876.11 1062.16L1971.89 1125.51L2006.76 889.523Z" fill="#BF8184"/>
<path d="M2613.8 1916.49L2758.44 1784.38L2577.7 1731.33L2613.8 1916.49Z" fill="#79597B"/>
<path d="M2598.33 2506.1L2792.33 2501.44L2701.96 2341.82L2598.33 2506.1Z" fill="#5D3F69"/>
<path d="M2701.96 2341.82L2792.33 2501.44L2831.62 2328.56L2701.96 2341.82Z" fill="#734F6F"/>
<path d="M2792.33 2501.44L2874.84 2641.16L2956.12 2540.73L2792.33 2501.44Z" fill="#81576F"/>
<path d="M2999.84 2673.33H3249.82L3124.83 2636.5L2999.84 2673.33Z" fill="#A67073"/>
<path d="M3325.46 2553.5L3124.83 2636.5L3249.82 2673.33L3325.46 2553.5Z" fill="#DA9679"/>
<path d="M2524.42 1617.63L2577.7 1731.33L2630.5 1550.35L2524.42 1617.63Z" fill="#856483"/>
<path d="M2527.36 1837.17L2466.71 2061.87L2613.8 1916.49L2527.36 1837.17Z" fill="#70537A"/>
<path d="M2803.14 1514.5L2742.23 1641.45L2885.65 1628.44L2803.14 1514.5Z" fill="#BA9298"/>
<path d="M2577.7 1731.33L2742.23 1641.45L2630.5 1550.35L2577.7 1731.33Z" fill="#826281"/>
<path d="M2958.09 1482.08L2803.14 1514.5L2885.65 1628.44L2958.09 1482.08Z" fill="#D2A9A4"/>
<path d="M2803.14 1514.5L2833.09 1376.98L2638.6 1399.08L2803.14 1514.5Z" fill="#BA9298"/>
<path d="M2939.18 2401.98L2792.33 2501.44L2956.12 2540.73L2939.18 2401.98Z" fill="#9E6D75"/>
<path d="M2874.84 2641.16L2792.33 2501.44L2749.85 2673.33L2874.84 2641.16Z" fill="#8F606F"/>
<path d="M2749.85 2673.33H2999.84L2874.84 2641.16L2749.85 2673.33Z" fill="#78506C"/>
<path d="M2999.84 2673.33L2956.12 2540.73L2874.84 2641.16L2999.84 2673.33Z" fill="#A67073"/>
<path d="M2701.96 2341.82L2597.59 2213.38L2573.77 2375.7L2701.96 2341.82Z" fill="#734F6F"/>
<path d="M2598.33 2506.1L2701.96 2341.82L2573.77 2375.7L2598.33 2506.1Z" fill="#5D3F69"/>
<path d="M2403.84 1582.27L2524.42 1617.63L2489.79 1370.59L2403.84 1582.27Z" fill="#785A7F"/>
<path d="M1991.53 1922.38L2107.44 1847.73L1968.69 1759.57L1991.53 1922.38Z" fill="#1E1E6D"/>
<path d="M2524.42 1617.63L2428.64 1720.28L2577.7 1731.33L2524.42 1617.63Z" fill="#856483"/>
<path d="M2162.45 1974.2L2182.34 2151.5L2312.98 2069.97L2162.45 1974.2Z" fill="#2B236B"/>
<path d="M2499.86 2673.33H2749.85L2624.85 2634.29L2499.86 2673.33Z" fill="#4B3266"/>
<path d="M2792.33 2501.44L2624.85 2634.29L2749.85 2673.33L2792.33 2501.44Z" fill="#81576F"/>
<path d="M2478.74 2183.67L2312.98 2069.97L2324.52 2223.45L2478.74 2183.67Z" fill="#50396C"/>
<path d="M2324.52 2223.45L2198.3 2296.63L2327.22 2386.75L2324.52 2223.45Z" fill="#362768"/>
<path d="M2734.38 1280.71L2833.09 1376.98L2864.77 1216.37L2734.38 1280.71Z" fill="#C1969B"/>
<path d="M2218.68 1766.45L2107.44 1847.73L2294.56 1932.45L2218.68 1766.45Z" fill="#473673"/>
<path d="M2428.64 1720.28L2527.36 1837.17L2577.7 1731.33L2428.64 1720.28Z" fill="#6B507B"/>
<path d="M2466.71 2061.87L2527.36 1837.17L2412.44 1859.76L2466.71 2061.87Z" fill="#543D6F"/>
<path d="M2597.59 2213.38L2701.96 2341.82L2713.75 2097.48L2597.59 2213.38Z" fill="#64466F"/>
<path d="M2327.22 2386.75L2461.55 2304.98L2324.52 2223.45L2327.22 2386.75Z" fill="#322465"/>
<path d="M2589 2088.63L2597.59 2213.38L2713.75 2097.47L2589 2088.63Z" fill="#694B73"/>
<path d="M2461.55 2304.98L2573.77 2375.7L2597.59 2213.38L2461.55 2304.98Z" fill="#493369"/>
<path d="M2613.8 1916.49L2589 2088.63L2713.75 2097.47L2613.8 1916.49Z" fill="#79597B"/>
<path d="M2478.74 2183.67L2589 2088.63L2466.71 2061.87L2478.74 2183.67Z" fill="#50396C"/>
<path d="M2312.98 2069.97L2182.34 2151.5L2324.52 2223.45L2312.98 2069.97Z" fill="#3A2B6B"/>
<path d="M2461.55 2304.98L2597.59 2213.38L2478.74 2183.67L2461.55 2304.98Z" fill="#493369"/>
<path d="M1803.92 1865.66L1878.08 1958.97L1991.53 1922.38L1803.92 1865.66Z" fill="#242A76"/>
<path d="M2464.25 2463.86L2461.55 2304.98L2327.22 2386.75L2464.25 2463.86Z" fill="#463067"/>
<path d="M2312.98 2069.97L2478.74 2183.67L2466.71 2061.87L2312.98 2069.97Z" fill="#3A2B6B"/>
<path d="M2198.3 2296.63L2324.52 2223.45L2182.34 2151.5L2198.3 2296.63Z" fill="#241C65"/>
<path d="M2412.44 1859.76L2294.56 1932.45L2466.71 2061.87L2412.44 1859.76Z" fill="#5A4375"/>
<path d="M2162.45 1974.2L1991.53 1922.38L2016.33 2097.47L2162.45 1974.2Z" fill="#2B236B"/>
<path d="M1980.48 2268.14L2182.34 2151.5L2016.33 2097.47L1980.48 2268.14Z" fill="#141767"/>
<path d="M2464.25 2463.86L2330.42 2541.46L2499.86 2673.33L2464.25 2463.86Z" fill="#463067"/>
<path d="M2312.98 2069.97L2294.56 1932.45L2162.45 1974.2L2312.98 2069.97Z" fill="#3A2B6B"/>
<path d="M2412.44 1859.76L2428.64 1720.28L2218.68 1766.45L2412.44 1859.76Z" fill="#5A4375"/>
<path d="M1842.72 2286.32L1843.7 2072.92L1751.61 2181.46L1842.72 2286.32Z" fill="#131B6C"/>
<path d="M2249.87 2673.33L2193.88 2548.83L2079.94 2584.68L2249.87 2673.33Z" fill="#271C63"/>
<path d="M2198.3 2296.63L2132.24 2426.78L2327.22 2386.75L2198.3 2296.63Z" fill="#241C65"/>
<path d="M2464.25 2463.86L2499.86 2673.33L2598.33 2506.1L2464.25 2463.86Z" fill="#463067"/>
<path d="M2461.55 2304.98L2464.25 2463.86L2573.77 2375.7L2461.55 2304.98Z" fill="#493369"/>
<path d="M2327.22 2386.75L2132.24 2426.78L2193.88 2548.83L2327.22 2386.75Z" fill="#322465"/>
<path d="M2489.79 1370.59L2524.42 1617.63L2630.5 1550.35L2489.79 1370.59Z" fill="#9D758A"/>
<path d="M2428.64 1720.28L2524.42 1617.63L2403.84 1582.27L2428.64 1720.28Z" fill="#6B507B"/>
<path d="M2403.84 1582.27L2183.81 1517.93L2170.8 1646.37L2403.84 1582.27Z" fill="#785A7F"/>
<path d="M2428.64 1720.28L2412.44 1859.76L2527.36 1837.17L2428.64 1720.28Z" fill="#6B507B"/>
<path d="M2403.84 1582.27L2218.68 1766.45L2428.64 1720.28L2403.84 1582.27Z" fill="#785A7F"/>
<path d="M2085.09 1730.1L2046.29 1611.99L1968.69 1759.57L2085.09 1730.1Z" fill="#3D3273"/>
<path d="M2466.71 2061.87L2294.56 1932.45L2312.98 2069.97L2466.71 2061.87Z" fill="#543D6F"/>
<path d="M2218.68 1766.45L2294.56 1932.45L2412.44 1859.76L2218.68 1766.45Z" fill="#473673"/>
<path d="M2499.86 2673.33L2330.42 2541.46L2374.86 2673.33H2499.86Z" fill="#4B3266"/>
<path d="M2327.22 2386.75L2193.88 2548.83L2330.42 2541.46L2327.22 2386.75Z" fill="#322465"/>
<path d="M2464.25 2463.86L2327.22 2386.75L2330.42 2541.46L2464.25 2463.86Z" fill="#463067"/>
<path d="M2132.24 2426.78L1988.09 2508.31L2079.94 2584.68L2132.24 2426.78Z" fill="#1C1864"/>
<path d="M2249.87 2673.33L2330.42 2541.46L2193.88 2548.83L2249.87 2673.33Z" fill="#271C63"/>
<path d="M2294.56 1932.45L2107.44 1847.73L2162.45 1974.2L2294.56 1932.45Z" fill="#40316E"/>
<path d="M2330.42 2541.46L2249.87 2673.33H2374.86L2330.42 2541.46Z" fill="#312364"/>
<path d="M1704.71 1460.47L1821.11 1401.04L1758.98 1286.36L1704.71 1460.47Z" fill="#5B558A"/>
<path d="M1758.98 1286.36L1625.39 1125.51L1631.53 1334.49L1758.98 1286.36Z" fill="#77638B"/>
<path d="M1582.66 1595.78L1704.71 1460.47L1551.96 1445.25L1582.66 1595.78Z" fill="#4B528E"/>
<path d="M2218.68 1766.45L2170.8 1646.37L2085.09 1730.1L2218.68 1766.45Z" fill="#473673"/>
<path d="M1617.04 1742.38L1841.73 1743.36L1728.53 1641.21L1617.04 1742.38Z" fill="#394386"/>
<path d="M1879.8 1621.32L1968.69 1759.57L2046.29 1611.99L1879.8 1621.32Z" fill="#433D7C"/>
<path d="M1968.69 1759.57L2107.44 1847.73L2085.09 1730.1L1968.69 1759.57Z" fill="#312D73"/>
<path d="M1803.92 1865.66L1841.73 1743.36L1617.04 1742.38L1803.92 1865.66Z" fill="#242A76"/>
<path d="M1617.04 1742.38L1492.78 1811.63L1609.43 1892.67L1617.04 1742.38Z" fill="#394386"/>
<path d="M2403.84 1582.27L2170.8 1646.37L2218.68 1766.45L2403.84 1582.27Z" fill="#785A7F"/>
<path d="M2183.81 1517.93L2046.29 1611.99L2170.8 1646.37L2183.81 1517.93Z" fill="#664D7B"/>
<path d="M1879.8 1621.32L1841.73 1743.36L1968.69 1759.57L1879.8 1621.32Z" fill="#433D7C"/>
<path d="M1843.7 2072.92L1878.08 1958.97L1721.9 1988.93L1843.7 2072.92Z" fill="#161E6E"/>
<path d="M2218.68 1766.45L2085.09 1730.1L2107.44 1847.73L2218.68 1766.45Z" fill="#473673"/>
<path d="M2046.29 1611.99L2085.09 1730.1L2170.8 1646.37L2046.29 1611.99Z" fill="#4C3D78"/>
<path d="M1841.73 1743.36L1879.8 1621.32L1728.53 1641.21L1841.73 1743.36Z" fill="#313278"/>
<path d="M1803.92 1865.66L1968.69 1759.57L1841.73 1743.36L1803.92 1865.66Z" fill="#242A76"/>
<path d="M1582.66 1595.78L1728.53 1641.21L1704.71 1460.47L1582.66 1595.78Z" fill="#4B528E"/>
<path d="M1427.71 1689.83L1252.62 1658.15L1350.84 1804.51L1427.71 1689.83Z" fill="#4A5C97"/>
<path d="M1821.11 1401.04L1879.8 1621.32L1958.13 1527.76L1821.11 1401.04Z" fill="#655685"/>
<path d="M1617.04 1742.38L1728.53 1641.21L1582.66 1595.78L1617.04 1742.38Z" fill="#394386"/>
<path d="M1958.13 1527.76L1879.8 1621.32L2046.29 1611.99L1958.13 1527.76Z" fill="#54457C"/>
<path d="M1846.4 503.244L1755.29 682.018L1860.4 729.904L1846.4 503.244Z" fill="#EC9984"/>
<path d="M1499.41 1301.1L1357.72 1391.71L1551.96 1445.25L1499.41 1301.1Z" fill="#74729D"/>
<path d="M1803.92 1865.66L1617.04 1742.38L1609.43 1892.67L1803.92 1865.66Z" fill="#242A76"/>
<path d="M1879.8 1621.32L1704.71 1460.47L1728.53 1641.21L1879.8 1621.32Z" fill="#433D7C"/>
<path d="M1625.39 1125.51L1499.41 1301.1L1631.53 1334.49L1625.39 1125.51Z" fill="#907895"/>
<path d="M2183.81 1517.93L1951.5 1406.2L1958.13 1527.76L2183.81 1517.93Z" fill="#664D7B"/>
<path d="M1876.11 1062.16L1763.89 1146.39L1926.7 1231.35L1876.11 1062.16Z" fill="#A07588"/>
<path d="M649.745 1869.59L732.747 2043.45L839.324 1992.13L649.745 1869.59Z" fill="#9CC0C9"/>
<path d="M999.926 2673.33L874.931 2590.33L749.937 2673.33H999.926Z" fill="#828D98"/>
<path d="M2183.81 1517.93L1958.13 1527.76L2046.29 1611.99L2183.81 1517.93Z" fill="#664D7B"/>
<path d="M1958.13 1527.76L1951.5 1406.2L1821.11 1401.04L1958.13 1527.76Z" fill="#54457C"/>
<path d="M1582.66 1595.78L1395.78 1555.51L1427.71 1689.83L1582.66 1595.78Z" fill="#4B528E"/>
<path d="M1294.61 2015.7L1473.87 2165.5L1457.17 1987.21L1294.61 2015.7Z" fill="#496095"/>
<path d="M1427.71 1689.83L1617.04 1742.38L1582.66 1595.78L1427.71 1689.83Z" fill="#4A5C97"/>
<path d="M1457.17 1987.21L1473.87 2165.5L1589.04 2064.81L1457.17 1987.21Z" fill="#364989"/>
<path d="M1492.78 1811.63L1457.17 1987.21L1609.43 1892.67L1492.78 1811.63Z" fill="#3C4D8D"/>
<path d="M1988.09 2508.31L1926.46 2390.19L1820.37 2520.59L1988.09 2508.31Z" fill="#141666"/>
<path d="M2198.3 2296.63L2182.34 2151.5L1980.48 2268.14L2198.3 2296.63Z" fill="#241C65"/>
<path d="M1980.48 2268.14L2016.33 2097.47L1843.7 2072.92L1980.48 2268.14Z" fill="#141767"/>
<path d="M1199.82 1189.61L1226.83 1347.26L1341.27 1209.74L1199.82 1189.61Z" fill="#8794BA"/>
<path d="M1582.66 1595.78L1551.96 1445.25L1395.78 1555.5L1582.66 1595.78Z" fill="#4B528E"/>
<path d="M1821.11 1401.04L1704.71 1460.47L1879.8 1621.32L1821.11 1401.04Z" fill="#655685"/>
<path d="M1926.7 1231.35L1821.11 1401.04L1951.5 1406.2L1926.7 1231.35Z" fill="#856585"/>
<path d="M1721.9 1988.93L1803.92 1865.66L1609.43 1892.67L1721.9 1988.93Z" fill="#1F2A77"/>
<path d="M1589.04 2064.81L1751.61 2181.46L1721.9 1988.93L1589.04 2064.81Z" fill="#26367D"/>
<path d="M1631.53 1334.49L1704.71 1460.47L1758.98 1286.36L1631.53 1334.49Z" fill="#6E6592"/>
<path d="M1551.96 1445.25L1357.72 1391.71L1395.78 1555.5L1551.96 1445.25Z" fill="#5F6195"/>
<path d="M1499.41 1301.1L1551.96 1445.25L1631.53 1334.49L1499.41 1301.1Z" fill="#74729D"/>
<path d="M1704.71 1460.47L1631.53 1334.49L1551.96 1445.25L1704.71 1460.47Z" fill="#5B558A"/>
<path d="M1762.91 835.744L1655.1 740.218L1657.8 934.217L1762.91 835.744Z" fill="#C1898C"/>
<path d="M1733.44 568.319L1610.41 544.5L1655.1 740.218L1733.44 568.319Z" fill="#E3998B"/>
<path d="M1217.99 1485.27L1395.78 1555.5L1357.72 1391.71L1217.99 1485.27Z" fill="#6881B2"/>
<path d="M1078.02 1791.01L1143.34 1695.97L1073.6 1603.88L1078.02 1791.01Z" fill="#6687B1"/>
<path d="M1252.62 1658.15L1395.78 1555.5L1217.99 1485.27L1252.62 1658.15Z" fill="#5A74A8"/>
<path d="M1492.78 1811.63L1427.71 1689.83L1350.84 1804.51L1492.78 1811.63Z" fill="#3C4D8D"/>
<path d="M1427.71 1689.83L1492.78 1811.63L1617.04 1742.38L1427.71 1689.83Z" fill="#4A5C97"/>
<path d="M1252.62 1658.15L1427.71 1689.83L1395.78 1555.51L1252.62 1658.15Z" fill="#5A74A8"/>
<path d="M1721.9 1988.93L1878.08 1958.97L1803.92 1865.66L1721.9 1988.93Z" fill="#1F2A77"/>
<path d="M2016.33 2097.47L1878.08 1958.97L1843.7 2072.92L2016.33 2097.47Z" fill="#181969"/>
<path d="M1609.43 1892.67L1457.17 1987.21L1589.04 2064.81L1609.43 1892.67Z" fill="#2C3A81"/>
<path d="M1820.37 2520.59L1624.9 2617.59L1749.89 2673.33L1820.37 2520.59Z" fill="#131C6B"/>
<path d="M1147.76 1940.31L1361.65 1920.42L1214.8 1789.78L1147.76 1940.31Z" fill="#5D78A4"/>
<path d="M1842.72 2286.32L1926.46 2390.19L1980.48 2268.15L1842.72 2286.32Z" fill="#131B6C"/>
<path d="M1350.84 1804.51L1361.65 1920.42L1492.78 1811.63L1350.84 1804.51Z" fill="#496099"/>
<path d="M1294.61 2015.7L1361.65 1920.42L1147.76 1940.31L1294.61 2015.7Z" fill="#496095"/>
<path d="M1341.27 1209.74L1499.41 1301.1L1466.75 1175.12L1341.27 1209.74Z" fill="#8286AC"/>
<path d="M1357.72 1391.71L1499.41 1301.1L1341.27 1209.74L1357.72 1391.71Z" fill="#6B78A7"/>
<path d="M1258.02 1058.97L1430.16 1050.37L1397.75 924.64L1258.02 1058.97Z" fill="#9797B5"/>
<path d="M1430.16 1050.37L1258.02 1058.97L1341.27 1209.74L1430.16 1050.37Z" fill="#998AA5"/>
<path d="M1073.6 1603.88L1252.62 1658.15L1217.99 1485.27L1073.6 1603.88Z" fill="#6A8DBB"/>
<path d="M1214.8 1789.78L1252.62 1658.15L1143.34 1695.97L1214.8 1789.78Z" fill="#5773A5"/>
<path d="M1706.92 2316.28L1612.13 2207.49L1575.05 2335.68L1706.92 2316.28Z" fill="#182571"/>
<path d="M1609.43 1892.67L1589.04 2064.81L1721.9 1988.93L1609.43 1892.67Z" fill="#2C3A81"/>
<path d="M1403.15 2292.46L1575.05 2335.68L1473.87 2165.5L1403.15 2292.46Z" fill="#394A84"/>
<path d="M1589.04 2064.81L1473.87 2165.5L1612.13 2207.49L1589.04 2064.81Z" fill="#26367D"/>
<path d="M1305.41 2184.9L1473.87 2165.5L1294.61 2015.7L1305.41 2184.9Z" fill="#475B8E"/>
<path d="M1751.61 2181.46L1612.13 2207.49L1706.92 2316.28L1751.61 2181.46Z" fill="#172271"/>
<path d="M1280.86 2315.54L1327.27 2457.72L1403.15 2292.46L1280.86 2315.54Z" fill="#4B5D8C"/>
<path d="M1842.72 2286.32L1751.61 2181.46L1706.92 2316.28L1842.72 2286.32Z" fill="#131B6C"/>
<path d="M1721.9 1988.93L1751.61 2181.46L1843.7 2072.92L1721.9 1988.93Z" fill="#1F2A77"/>
<path d="M1661.49 2465.83L1820.37 2520.59L1706.92 2316.28L1661.49 2465.83Z" fill="#1C2872"/>
<path d="M1843.7 2072.92L1842.72 2286.32L1980.48 2268.14L1843.7 2072.92Z" fill="#161E6E"/>
<path d="M1509.23 2544.41L1499.9 2673.33L1624.9 2617.59L1509.23 2544.41Z" fill="#2B3A7A"/>
<path d="M1820.37 2520.59L1874.89 2638.46L1988.09 2508.31L1820.37 2520.59Z" fill="#131C6B"/>
<path d="M1473.87 2165.5L1575.05 2335.68L1612.13 2207.49L1473.87 2165.5Z" fill="#304282"/>
<path d="M1509.24 2544.41L1661.49 2465.83L1471.91 2420.15L1509.24 2544.41Z" fill="#2B3A7A"/>
<path d="M1842.72 2286.32L1820.37 2520.59L1926.46 2390.19L1842.72 2286.32Z" fill="#131B6C"/>
<path d="M1661.49 2465.83L1575.05 2335.68L1471.91 2420.15L1661.49 2465.83Z" fill="#1C2872"/>
<path d="M1147.76 1940.31L1067.95 2027L1155.86 2105.09L1147.76 1940.31Z" fill="#5D78A4"/>
<path d="M1374.91 2599.42L1509.24 2544.41L1327.27 2457.72L1374.91 2599.42Z" fill="#3E4D81"/>
<path d="M1499.41 1301.1L1625.39 1125.51L1466.75 1175.12L1499.41 1301.1Z" fill="#74729D"/>
<path d="M1625.39 1125.51L1430.16 1050.37L1466.75 1175.12L1625.39 1125.51Z" fill="#907895"/>
<path d="M1109.94 959.51L1273.24 887.313L1071.63 784.911L1109.94 959.51Z" fill="#A5A9C3"/>
<path d="M1021.78 1079.84L951.549 948.214L887.701 1053.32L1021.78 1079.84Z" fill="#96ABCC"/>
<path d="M1226.83 1347.26L1065 1446.23L1217.99 1485.27L1226.83 1347.26Z" fill="#7488B5"/>
<path d="M982.245 1894.88L842.27 1873.76L839.324 1992.13L982.245 1894.88Z" fill="#7393B3"/>
<path d="M1147.76 1940.31L1214.8 1789.78L1078.02 1791.01L1147.76 1940.31Z" fill="#5D78A4"/>
<path d="M1350.84 1804.51L1252.62 1658.15L1214.8 1789.78L1350.84 1804.51Z" fill="#496099"/>
<path d="M982.244 1894.88L926.5 1701.13L842.27 1873.76L982.244 1894.88Z" fill="#7393B3"/>
<path d="M1147.76 1940.31L1155.86 2105.09L1294.61 2015.7L1147.76 1940.31Z" fill="#5D78A4"/>
<path d="M1078.02 1791.01L1073.6 1603.88L926.5 1701.13L1078.02 1791.01Z" fill="#6687B1"/>
<path d="M671.109 2540.48L788.491 2502.66L630.1 2391.42L671.109 2540.48Z" fill="#C2C5A8"/>
<path d="M1294.61 2015.7L1155.86 2105.09L1305.41 2184.9L1294.61 2015.7Z" fill="#496095"/>
<path d="M1361.65 1920.42L1294.61 2015.7L1457.17 1987.21L1361.65 1920.42Z" fill="#435993"/>
<path d="M1147.76 1940.31L982.245 1894.88L1067.95 2027L1147.76 1940.31Z" fill="#5D78A4"/>
<path d="M999.925 2673.33L1007.05 2519.61L874.931 2590.33L999.925 2673.33Z" fill="#828D98"/>
<path d="M1170.1 2258.57L1305.41 2184.9L1155.86 2105.09L1170.1 2258.57Z" fill="#5D7095"/>
<path d="M1575.05 2335.68L1403.15 2292.46L1471.91 2420.15L1575.05 2335.68Z" fill="#243378"/>
<path d="M1492.78 1811.63L1361.65 1920.42L1457.17 1987.21L1492.78 1811.63Z" fill="#3C4D8D"/>
<path d="M1214.8 1789.78L1361.65 1920.42L1350.84 1804.51L1214.8 1789.78Z" fill="#5773A5"/>
<path d="M982.245 1894.88L1147.76 1940.31L1078.02 1791.01L982.245 1894.88Z" fill="#7393B3"/>
<path d="M966.037 2237.2L1067.95 2027L950.321 2032.64L966.037 2237.2Z" fill="#8093A3"/>
<path d="M1155.86 2105.09L966.037 2237.2L1170.1 2258.57L1155.86 2105.09Z" fill="#5D749C"/>
<path d="M1124.92 2673.33H1249.91L1165.19 2538.76L1124.92 2673.33Z" fill="#697791"/>
<path d="M1473.87 2165.5L1305.41 2184.9L1403.15 2292.46L1473.87 2165.5Z" fill="#304282"/>
<path d="M1305.41 2184.9L1170.1 2258.57L1280.86 2315.54L1305.41 2184.9Z" fill="#475B8E"/>
<path d="M1155.86 2105.09L1067.95 2027L966.037 2237.2L1155.86 2105.09Z" fill="#5D749C"/>
<path d="M1007.05 2519.61L1165.19 2538.76L1097.42 2394.61L1007.05 2519.61Z" fill="#808C99"/>
<path d="M1471.91 2420.15L1327.27 2457.72L1509.24 2544.41L1471.91 2420.15Z" fill="#2F407D"/>
<path d="M1249.91 2673.33H1499.9L1374.91 2599.42L1249.91 2673.33Z" fill="#526189"/>
<path d="M839.323 1992.13L732.747 2043.45L878.123 2141.19L839.323 1992.13Z" fill="#8BA7B7"/>
<path d="M852.831 2397.8L778.669 2225.42L742.816 2342.8L852.831 2397.8Z" fill="#9BA6A3"/>
<path d="M1706.92 2316.28L1575.05 2335.68L1661.49 2465.83L1706.92 2316.28Z" fill="#182571"/>
<path d="M1509.23 2544.41L1624.9 2617.59L1661.49 2465.83L1509.23 2544.41Z" fill="#2B3A7A"/>
<path d="M1327.27 2457.72L1097.42 2394.61L1165.19 2538.76L1327.27 2457.72Z" fill="#455586"/>
<path d="M1499.9 2673.33H1749.89L1624.9 2617.59L1499.9 2673.33Z" fill="#2B3A7A"/>
<path d="M951.549 948.214L1071.63 784.911L856.759 820.764L951.549 948.214Z" fill="#A8B7D1"/>
<path d="M794.631 972.526L887.701 1053.32L951.549 948.214L794.631 972.526Z" fill="#A8C2DE"/>
<path d="M735.203 1135.09L906.61 1174.63L887.701 1053.32L735.203 1135.09Z" fill="#97C2E5"/>
<path d="M1071.63 784.911L951.549 948.214L1109.94 959.51L1071.63 784.911Z" fill="#BDB4C3"/>
<path d="M1065 1446.23L1073.6 1603.88L1217.99 1485.27L1065 1446.23Z" fill="#7295C2"/>
<path d="M1258.02 1058.97L1199.82 1189.61L1341.27 1209.74L1258.02 1058.97Z" fill="#9797B5"/>
<path d="M1021.78 1079.84L906.61 1174.63L1100.12 1292.01L1021.78 1079.84Z" fill="#96ABCC"/>
<path d="M1258.02 1058.97L1109.94 959.51L1021.78 1079.84L1258.02 1058.97Z" fill="#9797B5"/>
<path d="M887.701 1053.32L794.63 972.525L735.203 1135.09L887.701 1053.32Z" fill="#9CB8D8"/>
<path d="M1021.78 1079.84L887.701 1053.32L906.61 1174.63L1021.78 1079.84Z" fill="#96ABCC"/>
<path d="M676.511 960.983L735.202 1135.09L794.63 972.525L676.511 960.983Z" fill="#ADCBE6"/>
<path d="M641.15 1212.2L581.968 1032.94L521.312 1233.32L641.15 1212.2Z" fill="#94C7EB"/>
<path d="M940.744 1336.7L1065 1446.23L1100.12 1292.01L940.744 1336.7Z" fill="#7EA7D2"/>
<path d="M1226.83 1347.26L1217.99 1485.27L1357.72 1391.71L1226.83 1347.26Z" fill="#7488B5"/>
<path d="M1341.27 1209.74L1226.83 1347.26L1357.72 1391.71L1341.27 1209.74Z" fill="#8286AC"/>
<path d="M1065 1446.23L1226.83 1347.26L1100.12 1292.01L1065 1446.23Z" fill="#7295C2"/>
<path d="M1214.8 1789.78L1143.34 1695.97L1078.02 1791.01L1214.8 1789.78Z" fill="#5773A5"/>
<path d="M1252.62 1658.15L1073.6 1603.88L1143.34 1695.97L1252.62 1658.15Z" fill="#5A74A8"/>
<path d="M1065 1446.23L940.744 1336.7L891.875 1517.2L1065 1446.23Z" fill="#7295C2"/>
<path d="M836.377 1622.79L649.253 1513.27L750.182 1705.3L836.377 1622.79Z" fill="#7EABCE"/>
<path d="M1305.41 2184.9L1280.86 2315.54L1403.15 2292.46L1305.41 2184.9Z" fill="#475B8E"/>
<path d="M1097.42 2394.61L1280.86 2315.54L1170.1 2258.57L1097.42 2394.61Z" fill="#6C7C96"/>
<path d="M1374.91 2599.42L1499.9 2673.33L1509.23 2544.41L1374.91 2599.42Z" fill="#3E4D81"/>
<path d="M1471.91 2420.15L1403.15 2292.46L1327.27 2457.72L1471.91 2420.15Z" fill="#2F407D"/>
<path d="M940.744 1336.7L1100.12 1292.01L906.61 1174.63L940.744 1336.7Z" fill="#7EA7D2"/>
<path d="M1073.6 1603.88L891.875 1517.2L926.501 1701.13L1073.6 1603.88Z" fill="#6A8DBB"/>
<path d="M906.61 1174.63L835.395 1274.33L940.744 1336.7L906.61 1174.63Z" fill="#8DB1D8"/>
<path d="M891.875 1517.2L771.792 1439.35L836.377 1622.79L891.875 1517.2Z" fill="#79A7D0"/>
<path d="M735.203 1135.09L835.394 1274.33L906.61 1174.63L735.203 1135.09Z" fill="#97C2E5"/>
<path d="M835.395 1274.33L717.277 1306.99L771.793 1439.35L835.395 1274.33Z" fill="#86B4DD"/>
<path d="M1021.78 1079.84L1199.82 1189.61L1258.02 1058.97L1021.78 1079.84Z" fill="#96ABCC"/>
<path d="M1226.83 1347.26L1199.82 1189.61L1100.12 1292.01L1226.83 1347.26Z" fill="#7488B5"/>
<path d="M1073.6 1603.88L1065 1446.23L891.875 1517.2L1073.6 1603.88Z" fill="#6A8DBB"/>
<path d="M926.5 1701.13L750.182 1705.3L842.27 1873.76L926.5 1701.13Z" fill="#769EC2"/>
<path d="M940.743 1336.7L835.394 1274.33L771.792 1439.35L940.743 1336.7Z" fill="#7EA7D2"/>
<path d="M750.182 1705.3L926.5 1701.13L836.377 1622.79L750.182 1705.3Z" fill="#88B4CF"/>
<path d="M966.037 2237.2L974.632 2363.67L1097.42 2394.61L966.037 2237.2Z" fill="#8093A3"/>
<path d="M519.348 2511.5L671.11 2540.48L630.1 2391.42L519.348 2511.5Z" fill="#DBDAAE"/>
<path d="M788.491 2502.66L874.931 2590.33L852.83 2397.81L788.491 2502.66Z" fill="#ABB2A4"/>
<path d="M1007.05 2519.61L852.83 2397.81L874.931 2590.33L1007.05 2519.61Z" fill="#808C99"/>
<path d="M1097.42 2394.61L974.632 2363.67L1007.05 2519.61L1097.42 2394.61Z" fill="#6C7C96"/>
<path d="M630.1 2391.42L788.491 2502.66L742.815 2342.8L630.1 2391.42Z" fill="#C4CAAD"/>
<path d="M778.668 2225.42L966.037 2237.2L878.124 2141.19L778.668 2225.42Z" fill="#A1B1AE"/>
<path d="M852.83 2397.8L966.037 2237.2L778.668 2225.42L852.83 2397.8Z" fill="#9BA6A3"/>
<path d="M1374.91 2599.42L1165.19 2538.76L1249.91 2673.33L1374.91 2599.42Z" fill="#3E4D81"/>
<path d="M649.745 1869.59L842.27 1873.76L750.182 1705.3L649.745 1869.59Z" fill="#9CC0C9"/>
<path d="M1007.05 2519.61L1124.92 2673.33L1165.19 2538.76L1007.05 2519.61Z" fill="#808C99"/>
<path d="M839.324 1992.13L842.27 1873.76L649.745 1869.59L839.324 1992.13Z" fill="#8BA7B7"/>
<path d="M926.501 1701.13L891.875 1517.2L836.377 1622.79L926.501 1701.13Z" fill="#769EC2"/>
<path d="M836.377 1622.79L771.792 1439.35L649.253 1513.27L836.377 1622.79Z" fill="#7EABCE"/>
<path d="M717.276 1306.99L735.203 1135.09L641.15 1212.2L717.276 1306.99Z" fill="#89BFE7"/>
<path d="M119.071 1662.57L-6.90527 1500.01V1666.75L119.071 1662.57Z" fill="#B6E3E5"/>
<path d="M966.037 2237.2L852.83 2397.8L974.632 2363.67L966.037 2237.2Z" fill="#8093A3"/>
<path d="M1007.05 2519.61L974.632 2363.67L852.83 2397.81L1007.05 2519.61Z" fill="#808C99"/>
<path d="M663.006 2157.88L778.669 2225.42L732.747 2043.45L663.006 2157.88Z" fill="#B0C1B6"/>
<path d="M630.1 2391.42L742.815 2342.8L663.006 2157.88L630.1 2391.42Z" fill="#C4CAAD"/>
<path d="M1067.95 2027L982.245 1894.88L950.321 2032.64L1067.95 2027Z" fill="#6983A5"/>
<path d="M926.5 1701.13L982.245 1894.88L1078.02 1791.01L926.5 1701.13Z" fill="#769EC2"/>
<path d="M643.114 1752.7L649.253 1513.27L543.414 1691.55L643.114 1752.7Z" fill="#96C0D1"/>
<path d="M663.006 2157.88L558.394 2018.16L533.1 2190.79L663.006 2157.88Z" fill="#B0C1B6"/>
<path d="M878.123 2141.19L732.747 2043.45L778.668 2225.42L878.123 2141.19Z" fill="#8CA1AC"/>
<path d="M982.245 1894.88L839.324 1992.13L950.32 2032.64L982.245 1894.88Z" fill="#7393B3"/>
<path d="M966.037 2237.2L950.321 2032.64L878.124 2141.19L966.037 2237.2Z" fill="#8093A3"/>
<path d="M839.324 1992.13L878.124 2141.19L950.32 2032.64L839.324 1992.13Z" fill="#8BA7B7"/>
<path d="M732.748 2043.45L558.394 2018.16L663.006 2157.88L732.748 2043.45Z" fill="#9DB6BA"/>
<path d="M533.1 2190.79L420.63 2085.93L380.602 2241.13L533.1 2190.79Z" fill="#C6D3BA"/>
<path d="M268.377 1637.53L386.495 1615.18L324.612 1503.69L268.377 1637.53Z" fill="#AEDEE5"/>
<path d="M315.526 1984.27L420.629 2085.93L448.87 1969.53L315.526 1984.27Z" fill="#C8E2CD"/>
<path d="M533.1 2190.79L512.227 2324.63L630.1 2391.42L533.1 2190.79Z" fill="#C6D3BA"/>
<path d="M630.1 2391.42L512.227 2324.63L519.348 2511.5L630.1 2391.42Z" fill="#C4CAAD"/>
<path d="M558.394 2018.16L732.748 2043.45L649.745 1869.59L558.394 2018.16Z" fill="#B3CCC3"/>
<path d="M630.1 2391.42L663.006 2157.88L533.1 2190.79L630.1 2391.42Z" fill="#C4CAAD"/>
<path d="M649.745 1869.59L643.115 1752.7L524.014 1823.91L649.745 1869.59Z" fill="#9CC0C9"/>
<path d="M380.602 2241.13L420.63 2085.93L271.569 2123.75L380.602 2241.13Z" fill="#DCE4BB"/>
<path d="M649.254 1513.27L643.115 1752.7L750.182 1705.3L649.254 1513.27Z" fill="#8CC1E1"/>
<path d="M524.014 1823.91L643.115 1752.7L543.414 1691.55L524.014 1823.91Z" fill="#A7CDD2"/>
<path d="M663.006 2157.88L742.816 2342.8L778.669 2225.42L663.006 2157.88Z" fill="#B0C1B6"/>
<path d="M749.936 2673.33L671.109 2540.48L624.942 2673.33H749.936Z" fill="#B5B8A4"/>
<path d="M533.1 2190.79L558.393 2018.16L420.629 2085.93L533.1 2190.79Z" fill="#C6D3BA"/>
<path d="M448.87 1969.53L558.393 2018.16L524.014 1823.91L448.87 1969.53Z" fill="#BBD7CA"/>
<path d="M231.296 2270.6L380.602 2241.13L271.569 2123.75L231.296 2270.6Z" fill="#E9EFBD"/>
<path d="M380.602 2241.13L399.756 2400.02L512.227 2324.63L380.602 2241.13Z" fill="#DCE4BB"/>
<path d="M315.526 1984.27L139.699 1920.17L123.246 2086.18L315.526 1984.27Z" fill="#C8E2CD"/>
<path d="M271.569 2123.75L420.63 2085.93L315.526 1984.27L271.569 2123.75Z" fill="#D9E9C4"/>
<path d="M269.114 1866.15L315.526 1984.27L396.073 1861.97L269.114 1866.15Z" fill="#C0E2D6"/>
<path d="M399.756 2400.02L231.296 2270.6L188.322 2416.71L399.756 2400.02Z" fill="#E8E7B4"/>
<path d="M269.114 1866.15L416.946 1731.33L195.443 1762.76L269.114 1866.15Z" fill="#C0E2D6"/>
<path d="M123.246 2086.18L-6.90527 2000.23V2166.72L123.246 2086.18Z" fill="#DCEEC9"/>
<path d="M524.014 1823.91L558.394 2018.16L649.745 1869.59L524.014 1823.91Z" fill="#A7CDD2"/>
<path d="M315.526 1984.27L448.87 1969.53L396.072 1861.97L315.526 1984.27Z" fill="#C8E2CD"/>
<path d="M-6.90527 2166.73V2333.47L98.4437 2250.22L-6.90527 2166.73Z" fill="#E6F2C5"/>
<path d="M231.296 2270.6L123.246 2086.18L98.4438 2250.22L231.296 2270.6Z" fill="#E9EFBD"/>
<path d="M243.083 1394.66L105.811 1414.55L158.362 1542.98L243.083 1394.66Z" fill="#A8DEF1"/>
<path d="M119.071 1662.57L158.362 1542.98L-6.90527 1500.01L119.071 1662.57Z" fill="#B6E3E5"/>
<path d="M396.072 1861.97L524.014 1823.91L416.946 1731.33L396.072 1861.97Z" fill="#B6D9D3"/>
<path d="M195.443 1762.76L119.071 1662.57L53.2588 1801.07L195.443 1762.76Z" fill="#BBE3DE"/>
<path d="M465.078 1524.56L543.414 1691.55L649.254 1513.27L465.078 1524.56Z" fill="#9CD1E7"/>
<path d="M158.362 1542.98L268.377 1637.53L324.612 1503.69L158.362 1542.98Z" fill="#AFE1EB"/>
<path d="M72.9043 2416.71L98.4437 2250.22L-6.90527 2333.47L72.9043 2416.71Z" fill="#F8F8B9"/>
<path d="M158.362 1542.98L324.612 1503.69L243.083 1394.66L158.362 1542.98Z" fill="#AFE1EB"/>
<path d="M123.246 2086.18L231.296 2270.6L271.569 2123.75L123.246 2086.18Z" fill="#DCEEC9"/>
<path d="M611.191 595.824L484.968 639.044L576.32 736.289L611.191 595.824Z" fill="#DCDAE0"/>
<path d="M173.833 1074.44L-6.90527 1166.77L144.365 1257.38L173.833 1074.44Z" fill="#B7E2F7"/>
<path d="M563.551 871.842L427.997 887.559L460.412 1007.15L563.551 871.842Z" fill="#BCD5EA"/>
<path d="M676.512 960.983L696.894 843.847L563.55 871.842L676.512 960.983Z" fill="#ADCBE6"/>
<path d="M-6.90527 2000.23L139.699 1920.17L53.2588 1801.07L-6.90527 2000.23Z" fill="#D5EDCF"/>
<path d="M641.15 1212.2L549.062 1389.75L717.277 1306.99L641.15 1212.2Z" fill="#94C7EB"/>
<path d="M581.968 1032.94L641.15 1212.2L735.203 1135.09L581.968 1032.94Z" fill="#A9D0EC"/>
<path d="M549.062 1389.75L641.15 1212.2L521.312 1233.32L549.062 1389.75Z" fill="#94CBEB"/>
<path d="M1657.8 934.216L1528.39 961.475L1625.39 1125.51L1657.8 934.216Z" fill="#AF8693"/>
<path d="M1755.29 682.018L1733.44 568.319L1655.1 740.218L1755.29 682.018Z" fill="#D6938B"/>
<path d="M1273.24 887.312L1351.09 725.238L1178.7 681.772L1273.24 887.312Z" fill="#AFA0B2"/>
<path d="M1467.24 720.817L1351.09 725.238L1491.55 834.516L1467.24 720.817Z" fill="#C99D9F"/>
<path d="M1467.24 720.817L1491.55 834.516L1655.1 740.217L1467.24 720.817Z" fill="#C99D9F"/>
<path d="M1397.01 541.062L1467.24 720.817L1503.83 610.312L1397.01 541.062Z" fill="#DDA9A3"/>
<path d="M1374.91 70.5524L1229.53 183.76L1342.25 229.436L1374.91 70.5524Z" fill="#FAB6A1"/>
<path d="M1655.1 740.218L1610.41 544.5L1503.83 610.312L1655.1 740.218Z" fill="#CC9391"/>
<path d="M1610.41 544.5L1733.44 568.319L1702.74 426.135L1610.41 544.5Z" fill="#E29F92"/>
<path d="M1758.98 1286.36L1763.89 1146.39L1625.39 1125.51L1758.98 1286.36Z" fill="#77638B"/>
<path d="M1762.91 835.743L1657.8 934.216L1785.99 965.895L1762.91 835.743Z" fill="#C1898C"/>
<path d="M1755.29 682.018L1762.91 835.744L1860.4 729.904L1755.29 682.018Z" fill="#D6938B"/>
<path d="M2403.84 1582.27L2489.79 1370.59L2365.53 1443.53L2403.84 1582.27Z" fill="#785A7F"/>
<path d="M1397.75 924.639L1528.39 961.475L1491.55 834.516L1397.75 924.639Z" fill="#AB95A7"/>
<path d="M1625.39 1125.51L1528.39 961.475L1430.16 1050.37L1625.39 1125.51Z" fill="#907895"/>
<path d="M1762.91 835.744L1755.29 682.018L1655.1 740.218L1762.91 835.744Z" fill="#C1898C"/>
<path d="M1846.4 503.244L1860.4 729.904L1966.48 553.831L1846.4 503.244Z" fill="#EC9984"/>
<path d="M1625.39 1125.51L1763.89 1146.39L1785.99 965.895L1625.39 1125.51Z" fill="#907895"/>
<path d="M1821.11 1401.04L1926.7 1231.35L1758.98 1286.36L1821.11 1401.04Z" fill="#655685"/>
<path d="M1951.5 1406.2L2026.89 1306.5L1926.7 1231.35L1951.5 1406.2Z" fill="#685380"/>
<path d="M1785.99 965.895L2006.76 889.523L1762.91 835.743L1785.99 965.895Z" fill="#AD7F8B"/>
<path d="M1625.39 1125.51L1785.99 965.895L1657.8 934.216L1625.39 1125.51Z" fill="#907895"/>
<path d="M1785.99 965.895L1876.11 1062.16L2006.76 889.523L1785.99 965.895Z" fill="#AD7F8B"/>
<path d="M3388.57 2071.2L3595.58 2013.25L3423.44 1930.73L3388.57 2071.2Z" fill="#E8B191"/>
<path d="M3409.44 1466.36L3529.28 1613.95L3571.76 1457.03L3409.44 1466.36Z" fill="#FCDABE"/>
<path d="M2872.14 1017.22L2718.17 1143.69L2864.77 1216.38L2872.14 1017.22Z" fill="#D4AAA7"/>
<path d="M2081.9 1092.61L2159.99 1175.61L2196.09 1027.78L2081.9 1092.61Z" fill="#A37384"/>
<path d="M2162.45 1974.2L2016.33 2097.48L2182.34 2151.5L2162.45 1974.2Z" fill="#2B236B"/>
<path d="M1878.08 1958.97L2016.33 2097.47L1991.53 1922.38L1878.08 1958.97Z" fill="#1A2070"/>
<path d="M2079.94 2584.68L1988.09 2508.31L1999.88 2673.33L2079.94 2584.68Z" fill="#181664"/>
<path d="M1926.46 2390.19L2132.24 2426.78L1980.48 2268.15L1926.46 2390.19Z" fill="#121768"/>
<path d="M1706.92 2316.28L1820.37 2520.59L1842.72 2286.32L1706.92 2316.28Z" fill="#182571"/>
<path d="M2132.24 2426.78L1926.46 2390.19L1988.09 2508.31L2132.24 2426.78Z" fill="#1C1864"/>
<path d="M2249.87 2673.33L2079.94 2584.68L1999.88 2673.33H2249.87Z" fill="#271C63"/>
<path d="M2132.24 2426.78L2079.94 2584.68L2193.88 2548.83L2132.24 2426.78Z" fill="#1C1864"/>
<path d="M1820.37 2520.59L1661.49 2465.83L1624.9 2617.59L1820.37 2520.59Z" fill="#131C6B"/>
<path d="M1749.89 2673.33H1999.88L1874.89 2638.46L1749.89 2673.33Z" fill="#15206D"/>
<path d="M1988.09 2508.31L1874.89 2638.46L1999.88 2673.33L1988.09 2508.31Z" fill="#141666"/>
<path d="M1097.42 2394.61L1327.27 2457.72L1280.86 2315.54L1097.42 2394.61Z" fill="#6C7C96"/>
<path d="M1165.19 2538.76L1374.91 2599.42L1327.27 2457.72L1165.19 2538.76Z" fill="#61708F"/>
<path d="M771.792 1439.35L891.875 1517.2L940.743 1336.7L771.792 1439.35Z" fill="#82B6DD"/>
<path d="M717.276 1306.99L649.253 1513.27L771.792 1439.35L717.276 1306.99Z" fill="#89BFE7"/>
<path d="M380.602 2241.13L512.227 2324.63L533.1 2190.79L380.602 2241.13Z" fill="#DCE4BB"/>
<path d="M519.348 2511.5L512.227 2324.63L399.756 2400.02L519.348 2511.5Z" fill="#DBDAAE"/>
<path d="M519.348 2511.5L399.756 2400.02L303.248 2525.01L519.348 2511.5Z" fill="#DBDAAE"/>
<path d="M624.943 2673.33L519.348 2511.5L499.949 2673.33H624.943Z" fill="#CCCCA9"/>
<path d="M742.816 2342.8L788.492 2502.66L852.831 2397.81L742.816 2342.8Z" fill="#AEB8AA"/>
<path d="M788.491 2502.66L749.937 2673.33L874.931 2590.33L788.491 2502.66Z" fill="#ABB2A4"/>
<path d="M519.348 2511.5L624.943 2673.33L671.11 2540.48L519.348 2511.5Z" fill="#DBDAAE"/>
<path d="M749.937 2673.33L788.491 2502.66L671.109 2540.48L749.937 2673.33Z" fill="#B5B8A4"/>
<path d="M416.946 1731.33L524.014 1823.91L543.414 1691.55L416.946 1731.33Z" fill="#AAD6DC"/>
<path d="M448.869 1969.53L524.014 1823.91L396.072 1861.97L448.869 1969.53Z" fill="#BBD7CA"/>
<path d="M386.496 1615.18L543.414 1691.55L465.078 1524.56L386.496 1615.18Z" fill="#A6D7E4"/>
<path d="M53.2588 1801.07L139.699 1920.17L195.443 1762.76L53.2588 1801.07Z" fill="#C3E8DC"/>
<path d="M649.254 1513.27L549.062 1389.75L465.078 1524.56L649.254 1513.27Z" fill="#8CC1E1"/>
<path d="M313.071 1245.6L396.073 1387.78L521.313 1233.32L313.071 1245.6Z" fill="#A8DCF4"/>
<path d="M717.277 1306.99L549.062 1389.75L649.254 1513.27L717.277 1306.99Z" fill="#89BFE7"/>
<path d="M396.073 1387.78L243.083 1394.66L324.612 1503.69L396.073 1387.78Z" fill="#9FD6EF"/>
<path d="M465.077 1524.56L549.062 1389.75L396.072 1387.78L465.077 1524.56Z" fill="#9CD1E7"/>
<path d="M368.323 1090.4L339.838 971.789L173.833 1074.44L368.323 1090.4Z" fill="#AEDBF4"/>
<path d="M549.062 1389.75L521.312 1233.32L396.072 1387.78L549.062 1389.75Z" fill="#94CBEB"/>
<path d="M313.071 1245.6L521.313 1233.32L368.323 1090.4L313.071 1245.6Z" fill="#A8DCF4"/>
<path d="M416.946 1731.33L269.114 1866.15L396.073 1861.97L416.946 1731.33Z" fill="#AAD6DC"/>
<path d="M-6.90527 1500.01L158.362 1542.98L105.811 1414.55L-6.90527 1500.01Z" fill="#B0E3EE"/>
<path d="M203.792 937.164L339.837 971.789L275.253 816.098L203.792 937.164Z" fill="#C1E4F5"/>
<path d="M243.083 1394.66L396.073 1387.78L313.071 1245.6L243.083 1394.66Z" fill="#A8DEF1"/>
<path d="M144.365 1257.39L-6.90527 1166.77V1333.51L144.365 1257.39Z" fill="#AEE1F6"/>
<path d="M-6.90527 1666.75V2000.23L53.2588 1801.07L-6.90527 1666.75Z" fill="#B8E5E5"/>
<path d="M203.793 937.164L173.833 1074.44L339.838 971.789L203.793 937.164Z" fill="#C1E4F5"/>
<path d="M313.071 1245.6L368.323 1090.4L173.833 1074.44L313.071 1245.6Z" fill="#A8DCF4"/>
<path d="M368.323 1090.4L460.411 1007.15L339.837 971.789L368.323 1090.4Z" fill="#AEDBF4"/>
<path d="M-6.90527 1166.77L173.833 1074.44L-6.90527 1000.03V1166.77Z" fill="#B3E3F8"/>
<path d="M174.079 681.527L354.817 667.529L330.26 520.434L174.079 681.527Z" fill="#DBEAF0"/>
<path d="M1846.4 503.244L1702.74 426.135L1733.44 568.319L1846.4 503.244Z" fill="#EC9984"/>
<path d="M315.526 1984.27L269.114 1866.15L139.699 1920.17L315.526 1984.27Z" fill="#C8E2CD"/>
<path d="M98.4437 2250.22L123.246 2086.18L-6.90527 2166.73L98.4437 2250.22Z" fill="#EDF4C0"/>
<path d="M521.313 1233.32L460.412 1007.15L368.324 1090.4L521.313 1233.32Z" fill="#9BD0F0"/>
<path d="M563.551 871.842L460.412 1007.15L581.968 1032.94L563.551 871.842Z" fill="#BCD5EA"/>
<path d="M330.26 520.435L508.297 493.913L415.964 398.632L330.26 520.435Z" fill="#E9E9E9"/>
<path d="M179.727 500.052L90.5854 587.966L174.079 681.527L179.727 500.052Z" fill="#ECEDEB"/>
<path d="M179.727 500.052L330.261 520.435L284.585 378.496L179.727 500.052Z" fill="#ECEDEB"/>
<path d="M330.26 520.434L354.817 667.529L484.968 639.044L330.26 520.434Z" fill="#E9E9E9"/>
<path d="M508.297 493.913L484.968 639.044L611.191 595.824L508.297 493.913Z" fill="#E9E2E2"/>
<path d="M427.996 887.559L484.968 639.043L354.817 667.529L427.996 887.559Z" fill="#BFDCEF"/>
<path d="M1258.02 1058.97L1397.75 924.64L1273.24 887.313L1258.02 1058.97Z" fill="#9797B5"/>
<path d="M1528.39 961.475L1397.75 924.64L1430.16 1050.37L1528.39 961.475Z" fill="#A88A9C"/>
<path d="M1838.3 373.093L1846.4 503.244L2012.65 385.126L1838.3 373.093Z" fill="#F49D85"/>
<path d="M1866.54 246.871L2012.65 385.126L1985.15 195.056L1866.54 246.871Z" fill="#FA9F84"/>
<path d="M1926.7 1231.35L1763.89 1146.39L1758.98 1286.36L1926.7 1231.35Z" fill="#856585"/>
<path d="M1785.99 965.895L1763.89 1146.39L1876.11 1062.16L1785.99 965.895Z" fill="#AD7F8B"/>
<path d="M2183.81 1517.93L2230.22 1394.41L2026.89 1306.5L2183.81 1517.93Z" fill="#664D7B"/>
<path d="M1971.89 1125.51L2026.89 1306.5L2159.99 1175.61L1971.89 1125.51Z" fill="#996F85"/>
<path d="M2365.53 1443.53L2326.49 1304.04L2230.22 1394.41L2365.53 1443.53Z" fill="#856282"/>
<path d="M1926.7 1231.35L1971.89 1125.51L1876.11 1062.16L1926.7 1231.35Z" fill="#856585"/>
<path d="M2183.81 1517.93L2026.89 1306.5L1951.5 1406.2L2183.81 1517.93Z" fill="#664D7B"/>
<path d="M2026.89 1306.5L2150.66 1289.06L2159.99 1175.61L2026.89 1306.5Z" fill="#7D5E82"/>
<path d="M2267.3 1138.04L2196.09 1027.78L2159.99 1175.61L2267.3 1138.04Z" fill="#A67585"/>
<path d="M2458.11 1144.42L2367.5 998.801L2267.3 1138.04L2458.11 1144.42Z" fill="#B2818C"/>
<path d="M2026.89 1306.5L1971.89 1125.51L1926.7 1231.35L2026.89 1306.5Z" fill="#7D5E82"/>
<path d="M2006.76 889.523L1971.89 1125.51L2081.9 1092.61L2006.76 889.523Z" fill="#BF8184"/>
<path d="M3220.6 1486.25L3166.33 1586.69L3328.16 1598.97L3220.6 1486.25Z" fill="#F1CAB5"/>
<path d="M3778.78 1583.25L3665.33 1691.55L3848.27 1746.07L3778.78 1583.25Z" fill="#FFE2BC"/>
<path d="M3176.4 1311.41L3308.52 1414.3L3316.13 1300.85L3176.4 1311.41Z" fill="#F0CBBA"/>
<path d="M3328.16 1598.97L3308.52 1414.3L3220.6 1486.25L3328.16 1598.97Z" fill="#F4CDB2"/>
<path d="M3205.13 1694.25L3236.81 1864.18L3377.52 1764.24L3205.13 1694.25Z" fill="#E5BAA6"/>
<path d="M3409.44 1466.36L3328.16 1598.97L3424.67 1660.12L3409.44 1466.36Z" fill="#FCDABE"/>
<path d="M3879.46 654.759L3926.61 833.533L4006.67 666.792L3879.46 654.759Z" fill="#A2AFC9"/>
<path d="M3571.76 1457.03L3485.82 1375.01L3409.44 1466.36L3571.76 1457.03Z" fill="#FEE1C2"/>
<path d="M3595.58 2013.25L3615.72 1901.27L3423.44 1930.73L3595.58 2013.25Z" fill="#F8C499"/>
<path d="M3409.44 1466.36L3424.67 1660.12L3529.28 1613.95L3409.44 1466.36Z" fill="#FCDABE"/>
<path d="M4006.67 1333.51L3863.5 1431.74L3916.3 1560.66L4006.67 1333.51Z" fill="#F6E5CA"/>
<path d="M3697.99 1354.63L3516.51 1260.09L3485.82 1375.01L3697.99 1354.63Z" fill="#FAE4C8"/>
<path d="M3663.85 1198.94L3585.03 1060.44L3502.27 1143.44L3663.85 1198.94Z" fill="#F1DFCC"/>
<path d="M2972.09 1120.6L3058.28 1236.02L3134.16 1039.07L2972.09 1120.6Z" fill="#DBB4AE"/>
<path d="M3697.99 1354.63L3485.82 1375.01L3571.76 1457.03L3697.99 1354.63Z" fill="#FAE4C8"/>
<path d="M3316.13 1300.85L3485.82 1375.01L3516.51 1260.09L3316.13 1300.85Z" fill="#FBDAC4"/>
<path d="M3328.16 1598.97L3377.52 1764.24L3424.67 1660.12L3328.16 1598.97Z" fill="#F4CDB2"/>
<path d="M3556.29 1804.27L3424.67 1660.12L3377.52 1764.24L3556.29 1804.27Z" fill="#FACFA9"/>
<path d="M2489.79 1370.59L2638.6 1399.08L2599.31 1252.47L2489.79 1370.59Z" fill="#9D758A"/>
<path d="M2267.3 1138.04L2326.49 1304.04L2438.71 1262.54L2267.3 1138.04Z" fill="#A67585"/>
<path d="M105.811 1414.55L144.365 1257.39L-6.90527 1333.51L105.811 1414.55Z" fill="#ADE1F2"/>
<path d="M139.699 1920.17L-6.90527 2000.23L123.246 2086.18L139.699 1920.17Z" fill="#CBE9D4"/>
<path d="M275.253 816.098L427.996 887.559L354.817 667.529L275.253 816.098Z" fill="#CBE4F2"/>
<path d="M313.07 1245.6L173.833 1074.44L144.365 1257.38L313.07 1245.6Z" fill="#A8DCF4"/>
<path d="M2012.65 385.125L1846.4 503.244L1966.48 553.831L2012.65 385.125Z" fill="#F49980"/>
<path d="M1755.29 682.019L1846.4 503.244L1733.44 568.32L1755.29 682.019Z" fill="#D6938B"/>
<path d="M2006.76 889.523L2036.22 715.661L1860.4 729.904L2006.76 889.523Z" fill="#BF8184"/>
<path d="M2162.94 365.972L2122.42 230.172L2012.65 385.126L2162.94 365.972Z" fill="#F09880"/>
<path d="M1587.08 178.111L1624.9 52.8718L1499.9 -6.55598L1587.08 178.111Z" fill="#FAAA92"/>
<path d="M1458.16 191.618L1499.17 315.384L1587.08 178.111L1458.16 191.618Z" fill="#F8B09B"/>
<path d="M2326.49 1304.04L2267.3 1138.04L2150.66 1289.06L2326.49 1304.04Z" fill="#946B84"/>
<path d="M2227.28 900.328L2196.09 1027.78L2367.5 998.801L2227.28 900.328Z" fill="#C38485"/>
<path d="M2159.99 1175.61L2081.9 1092.61L1971.89 1125.51L2159.99 1175.61Z" fill="#9A6D83"/>
<path d="M2150.66 1289.06L2267.3 1138.04L2159.99 1175.61L2150.66 1289.06Z" fill="#886382"/>
<path d="M2230.22 1394.41L2326.49 1304.04L2150.66 1289.06L2230.22 1394.41Z" fill="#7D5C80"/>
<path d="M2438.71 1262.54L2326.49 1304.04L2489.79 1370.59L2438.71 1262.54Z" fill="#A3788A"/>
<path d="M2718.17 1143.69L2486.35 1025.81L2458.11 1144.42L2718.17 1143.69Z" fill="#C7999C"/>
<path d="M2365.29 556.287L2323.79 405.754L2211.31 530.257L2365.29 556.287Z" fill="#E09487"/>
<path d="M2026.89 1306.5L2230.22 1394.41L2150.66 1289.06L2026.89 1306.5Z" fill="#7D5E82"/>
<path d="M2365.53 1443.53L2183.81 1517.93L2403.84 1582.27L2365.53 1443.53Z" fill="#856282"/>
<path d="M2599.31 1252.47L2438.71 1262.54L2489.79 1370.59L2599.31 1252.47Z" fill="#B58893"/>
<path d="M2267.3 1138.04L2438.71 1262.54L2458.11 1144.42L2267.3 1138.04Z" fill="#A67585"/>
<path d="M2036.22 715.66L2120.7 819.536L2247.66 762.564L2036.22 715.66Z" fill="#D78C82"/>
<path d="M1860.4 729.904L1762.91 835.744L2006.76 889.523L1860.4 729.904Z" fill="#D38D86"/>
<path d="M2367.5 998.801L2196.09 1027.78L2267.3 1138.04L2367.5 998.801Z" fill="#BC8489"/>
<path d="M2006.76 889.523L2196.09 1027.78L2227.28 900.328L2006.76 889.523Z" fill="#BF8184"/>
<path d="M2675.68 1001.26L2486.35 1025.81L2718.17 1143.69L2675.68 1001.26Z" fill="#CB999A"/>
<path d="M2247.66 762.564L2363.81 854.898L2377.32 711.732L2247.66 762.564Z" fill="#D28B85"/>
<path d="M2740.52 867.667L2675.69 1001.26L2872.14 1017.22L2740.52 867.667Z" fill="#D09F9D"/>
<path d="M2488.81 799.891L2377.32 711.732L2363.81 854.898L2488.81 799.891Z" fill="#D0928E"/>
<path d="M2227.28 900.328L2367.5 998.801L2363.81 854.898L2227.28 900.328Z" fill="#C38485"/>
<path d="M2550.2 922.184L2363.81 854.898L2367.5 998.801L2550.2 922.184Z" fill="#C99292"/>
<path d="M2458.11 1144.42L2486.35 1025.81L2367.5 998.801L2458.11 1144.42Z" fill="#B2818C"/>
<path d="M2675.68 1001.26L2626.08 827.64L2550.2 922.184L2675.68 1001.26Z" fill="#CB999A"/>
<path d="M2458.11 1144.42L2438.71 1262.54L2599.31 1252.47L2458.11 1144.42Z" fill="#B2818C"/>
<path d="M2550.2 922.184L2367.5 998.801L2486.35 1025.81L2550.2 922.184Z" fill="#C99292"/>
<path d="M2833.09 1376.98L2968.4 1342.84L2864.77 1216.37L2833.09 1376.98Z" fill="#C79E9F"/>
<path d="M2675.68 1001.26L2740.52 867.668L2626.08 827.64L2675.68 1001.26Z" fill="#CB999A"/>
<path d="M2489.79 1370.59L2630.5 1550.35L2638.6 1399.08L2489.79 1370.59Z" fill="#9D758A"/>
<path d="M2458.11 1144.42L2599.31 1252.47L2718.17 1143.69L2458.11 1144.42Z" fill="#B2818C"/>
<path d="M2968.4 1342.84L3058.28 1236.02L2864.77 1216.38L2968.4 1342.84Z" fill="#D9B1AA"/>
<path d="M3058.28 1236.02L2972.09 1120.6L2864.77 1216.38L3058.28 1236.02Z" fill="#E4BEB4"/>
<path d="M2803.14 1514.49L2638.6 1399.08L2630.5 1550.35L2803.14 1514.49Z" fill="#BA9298"/>
<path d="M2734.38 1280.71L2638.6 1399.08L2833.09 1376.98L2734.38 1280.71Z" fill="#C1969B"/>
<path d="M2718.17 1143.69L2599.31 1252.47L2734.38 1280.71L2718.17 1143.69Z" fill="#C7999C"/>
<path d="M2638.6 1399.08L2734.38 1280.71L2599.31 1252.47L2638.6 1399.08Z" fill="#AC8491"/>
<path d="M2864.77 1216.38L2972.09 1120.6L2872.14 1017.22L2864.77 1216.38Z" fill="#D1A7A5"/>
<path d="M3060 935.444L3030.78 813.643L2911.19 850.232L3060 935.444Z" fill="#D9B7B4"/>
<path d="M2740.52 867.667L2872.14 1017.22L2911.19 850.232L2740.52 867.667Z" fill="#D09F9D"/>
<path d="M2124.88 27.5781L2122.42 230.172L2210.33 124.823L2124.88 27.5781Z" fill="#F89C81"/>
<path d="M2486.35 1025.81L2675.68 1001.26L2550.2 922.184L2486.35 1025.81Z" fill="#BF8A8F"/>
<path d="M2872.14 1017.22L2675.69 1001.26L2718.17 1143.69L2872.14 1017.22Z" fill="#D4AAA7"/>
<path d="M3196.29 1150.32L3058.28 1236.02L3176.4 1311.41L3196.29 1150.32Z" fill="#EBCBBE"/>
<path d="M3385.62 1129.69L3316.13 1300.85L3516.51 1260.09L3385.62 1129.69Z" fill="#EFD6C7"/>
<path d="M3434.98 949.934L3385.62 1129.69L3502.27 1143.44L3434.98 949.934Z" fill="#DACAC7"/>
<path d="M3374.08 607.366L3321.78 506.683L3231.41 650.095L3374.08 607.366Z" fill="#B0A9BD"/>
<path d="M3316.13 1300.85L3196.29 1150.32L3176.4 1311.41L3316.13 1300.85Z" fill="#FBDAC4"/>
<path d="M3196.29 1150.32L3254.98 999.046L3134.16 1039.07L3196.29 1150.32Z" fill="#EBCBBE"/>
<path d="M3434.98 949.934L3254.98 999.047L3385.62 1129.69L3434.98 949.934Z" fill="#DACAC7"/>
<path d="M2776.61 717.134L2911.19 850.232L2930.59 699.699L2776.61 717.134Z" fill="#D0A09E"/>
<path d="M3167.07 845.32L3134.16 1039.07L3254.98 999.046L3167.07 845.32Z" fill="#D2B8B9"/>
<path d="M2972.09 1120.6L3134.16 1039.07L3060 935.445L2972.09 1120.6Z" fill="#DBB4AE"/>
<path d="M2626.08 827.639L2488.81 799.891L2550.2 922.184L2626.08 827.639Z" fill="#D09896"/>
<path d="M2488.81 799.891L2592.68 710.995L2484.63 625.046L2488.81 799.891Z" fill="#D0928E"/>
<path d="M2776.61 717.134L2626.08 827.64L2740.52 867.668L2776.61 717.134Z" fill="#D0A09E"/>
<path d="M2488.81 799.891L2626.08 827.64L2592.68 710.995L2488.81 799.891Z" fill="#D0928E"/>
<path d="M3325.21 901.802L3254.98 999.047L3434.98 949.934L3325.21 901.802Z" fill="#D6C3C2"/>
<path d="M2930.59 699.699L2911.19 850.232L3030.78 813.643L2930.59 699.699Z" fill="#CDA6A8"/>
<path d="M3404.04 254.483L3531 149.871L3374.82 99.5296L3404.04 254.483Z" fill="#898FB6"/>
<path d="M2122.42 230.172L2262.39 251.782L2210.33 124.823L2122.42 230.172Z" fill="#F69A80"/>
<path d="M3254.98 999.047L3325.21 901.802L3167.07 845.321L3254.98 999.047Z" fill="#E1C7C0"/>
<path d="M2911.19 850.232L2776.61 717.134L2740.52 867.668L2911.19 850.232Z" fill="#D2AAA9"/>
<path d="M3167.07 845.321L3030.78 813.643L3060 935.444L3167.07 845.321Z" fill="#D2B8B9"/>
<path d="M3092.91 705.102L3023.16 530.993L2930.59 699.699L3092.91 705.102Z" fill="#C8ACB2"/>
<path d="M2196.09 1027.78L2006.76 889.523L2081.9 1092.61L2196.09 1027.78Z" fill="#B17A85"/>
<path d="M2227.28 900.328L2247.66 762.564L2120.7 819.536L2227.28 900.328Z" fill="#C38485"/>
<path d="M3845.08 1240.93L3697.99 1354.63L3863.5 1431.74L3845.08 1240.93Z" fill="#F1E2CC"/>
<path d="M3615.48 861.774L3548.19 953.126L3680.8 973.508L3615.48 861.774Z" fill="#C9C5CA"/>
<path d="M139.699 1920.17L269.114 1866.15L195.443 1762.76L139.699 1920.17Z" fill="#CBE9D4"/>
<path d="M158.362 1542.98L119.071 1662.57L268.377 1637.53L158.362 1542.98Z" fill="#AFE1EB"/>
<path d="M144.365 1257.39L105.811 1414.55L243.083 1394.66L144.365 1257.39Z" fill="#AEE1F6"/>
<path d="M-6.90527 1500.01L105.811 1414.55L-6.90527 1333.51V1500.01Z" fill="#B0E3EE"/>
<path d="M195.443 1762.76L416.946 1731.33L268.377 1637.53L195.443 1762.76Z" fill="#BBE3DE"/>
<path d="M386.495 1615.18L268.377 1637.52L416.946 1731.33L386.495 1615.18Z" fill="#A6D7E4"/>
<path d="M543.414 1691.55L386.496 1615.18L416.946 1731.33L543.414 1691.55Z" fill="#9DCADA"/>
<path d="M324.612 1503.69L386.495 1615.18L465.077 1524.56L324.612 1503.69Z" fill="#A5DAEB"/>
<path d="M2036.22 715.661L1966.48 553.831L1860.4 729.904L2036.22 715.661Z" fill="#D78C82"/>
<path d="M2012.65 385.125L2084.36 495.386L2162.94 365.971L2012.65 385.125Z" fill="#F49980"/>
<path d="M2377.32 711.731L2484.63 625.046L2365.29 556.287L2377.32 711.731Z" fill="#D69089"/>
<path d="M2211.31 530.256L2271.97 639.78L2365.29 556.287L2211.31 530.256Z" fill="#E69482"/>
<path d="M2374.86 102.722L2396.23 287.881L2530.55 254.238L2374.86 102.722Z" fill="#EB9985"/>
<path d="M1624.9 52.8714L1715.27 157.483L1749.89 -6.55631L1624.9 52.8714Z" fill="#FDAA90"/>
<path d="M2036.22 715.661L2084.36 495.386L1966.48 553.832L2036.22 715.661Z" fill="#D78C82"/>
<path d="M2323.79 405.754L2262.39 251.782L2162.94 365.971L2323.79 405.754Z" fill="#E89684"/>
<path d="M1985.15 195.056L1999.88 -6.5563L1869.48 91.9163L1985.15 195.056Z" fill="#FA9D81"/>
<path d="M2012.65 385.126L1866.54 246.871L1838.3 373.093L2012.65 385.126Z" fill="#F49980"/>
<path d="M2211.31 530.257L2162.94 365.972L2084.36 495.386L2211.31 530.257Z" fill="#E69482"/>
<path d="M2122.42 230.172L2162.94 365.972L2262.39 251.782L2122.42 230.172Z" fill="#F69A80"/>
<path d="M1749.89 -6.55567H1499.9L1624.9 52.8721L1749.89 -6.55567Z" fill="#FEA588"/>
<path d="M1866.54 246.871L1715.27 157.484L1628.58 301.142L1866.54 246.871Z" fill="#FA9F84"/>
<path d="M2530.55 254.238L2719.89 314.894L2700.24 151.099L2530.55 254.238Z" fill="#DE988C"/>
<path d="M3126.79 590.421L3023.16 530.993L3092.91 705.102L3126.79 590.421Z" fill="#BDA6B1"/>
<path d="M2012.65 385.126L2122.42 230.172L1985.15 195.056L2012.65 385.126Z" fill="#F49980"/>
<path d="M2326.49 1304.04L2365.53 1443.53L2489.79 1370.59L2326.49 1304.04Z" fill="#946B84"/>
<path d="M2183.81 1517.93L2365.53 1443.53L2230.22 1394.41L2183.81 1517.93Z" fill="#664D7B"/>
<path d="M3502.27 1143.44L3385.62 1129.69L3516.51 1260.09L3502.27 1143.44Z" fill="#EFDACA"/>
<path d="M3196.29 1150.32L3385.62 1129.69L3254.98 999.046L3196.29 1150.32Z" fill="#EBCBBE"/>
<path d="M3663.85 1198.94L3516.51 1260.09L3697.99 1354.63L3663.85 1198.94Z" fill="#F1DFCC"/>
<path d="M3548.19 953.126L3434.98 949.934L3585.03 1060.44L3548.19 953.126Z" fill="#D8CCCA"/>
<path d="M3663.85 1198.94L3502.27 1143.44L3516.51 1260.09L3663.85 1198.94Z" fill="#F1DFCC"/>
<path d="M3434.98 949.934L3502.27 1143.44L3585.03 1060.44L3434.98 949.934Z" fill="#DACAC7"/>
<path d="M3585.03 1060.44L3680.8 973.508L3548.19 953.126L3585.03 1060.44Z" fill="#E4D6CC"/>
<path d="M3030.78 813.643L3167.07 845.32L3092.91 705.101L3030.78 813.643Z" fill="#D1AFB0"/>
<path d="M3891.74 952.635L4006.67 1000.03V833.534L3891.74 952.635Z" fill="#D0CECF"/>
<path d="M3374.08 607.365L3293.54 786.139L3464.45 781.473L3374.08 607.365Z" fill="#B0A9BD"/>
<path d="M3434.98 949.933L3548.19 953.125L3464.45 781.473L3434.98 949.933Z" fill="#DACAC7"/>
<path d="M3293.54 786.139L3374.08 607.365L3231.41 650.094L3293.54 786.139Z" fill="#C9B8BE"/>
<path d="M3167.07 845.32L3060 935.444L3134.16 1039.07L3167.07 845.32Z" fill="#D2B8B9"/>
<path d="M3167.07 845.32L3293.54 786.139L3231.41 650.094L3167.07 845.32Z" fill="#D2B8B9"/>
<path d="M3585.03 1060.44L3663.85 1198.94L3771.17 1148.11L3585.03 1060.44Z" fill="#E4D6CC"/>
<path d="M3464.45 781.473L3548.19 953.125L3615.48 861.773L3464.45 781.473Z" fill="#C2BBC4"/>
<path d="M3925.38 535.413L3879.46 654.76L4006.67 666.793L3925.38 535.413Z" fill="#90A3C7"/>
<path d="M3520.44 641.991L3699.46 663.847L3666.55 549.166L3520.44 641.991Z" fill="#ACADC3"/>
<path d="M3775.1 500.052L3879.46 654.76L3925.38 535.413L3775.1 500.052Z" fill="#8D9FC4"/>
<path d="M4006.67 666.792L3926.61 833.533H4006.67V666.792Z" fill="#A3B0CA"/>
<path d="M3464.45 781.473L3325.21 901.802L3434.98 949.934L3464.45 781.473Z" fill="#C2BBC4"/>
<path d="M3167.07 845.321L3325.21 901.802L3293.54 786.139L3167.07 845.321Z" fill="#D2B8B9"/>
<path d="M3879.46 654.76L3775.1 500.052L3699.46 663.847L3879.46 654.76Z" fill="#A2AFC9"/>
<path d="M3559.49 496.859L3666.55 549.165L3723.28 356.64L3559.49 496.859Z" fill="#969FC0"/>
<path d="M3845.08 1240.93L3771.17 1148.11L3663.85 1198.94L3845.08 1240.93Z" fill="#F1E2CC"/>
<path d="M3887.57 1120.6L3795.97 1031.95L3771.17 1148.11L3887.57 1120.6Z" fill="#E5DCCE"/>
<path d="M3442.6 511.839L3520.44 641.99L3559.49 496.859L3442.6 511.839Z" fill="#9FA1BD"/>
<path d="M3442.6 511.839L3382.43 410.664L3321.78 506.682L3442.6 511.839Z" fill="#9FA1BD"/>
<path d="M3511.6 369.9L3723.28 356.64L3599.76 266.762L3511.6 369.9Z" fill="#8994BB"/>
<path d="M3520.44 641.99L3374.08 607.365L3464.45 781.473L3520.44 641.99Z" fill="#ACADC3"/>
<path d="M3126.79 590.422L3231.41 650.095L3208.32 502.999L3126.79 590.422Z" fill="#BDA6B1"/>
<path d="M3231.41 650.094L3092.91 705.101L3167.07 845.32L3231.41 650.094Z" fill="#BDACB8"/>
<path d="M3511.6 369.9L3382.43 410.664L3442.6 511.839L3511.6 369.9Z" fill="#8994BB"/>
<path d="M3404.04 254.483L3599.76 266.762L3531 149.871L3404.04 254.483Z" fill="#898FB6"/>
<path d="M3615.48 861.773L3599.51 738.253L3464.45 781.473L3615.48 861.773Z" fill="#C9C5CA"/>
<path d="M3771.41 852.934L3795.97 1031.95L3891.74 952.635L3771.41 852.934Z" fill="#C3C4CC"/>
<path d="M3442.6 511.839L3321.78 506.682L3374.08 607.365L3442.6 511.839Z" fill="#9FA1BD"/>
<path d="M3260.88 391.756L3321.78 506.683L3382.43 410.665L3260.88 391.756Z" fill="#A29AB3"/>
<path d="M3520.44 641.99L3442.6 511.839L3374.08 607.365L3520.44 641.99Z" fill="#ACADC3"/>
<path d="M3511.6 369.9L3442.6 511.839L3559.49 496.859L3511.6 369.9Z" fill="#8994BB"/>
<path d="M3723.28 356.64L3511.6 369.9L3559.49 496.859L3723.28 356.64Z" fill="#7B91C0"/>
<path d="M3664.1 124.332L3531 149.871L3599.76 266.762L3664.1 124.332Z" fill="#6C85BB"/>
<path d="M3233.37 139.558L3124.83 53.363L3079.89 272.901L3233.37 139.558Z" fill="#968FAE"/>
<path d="M3260.88 391.756L3208.32 502.999L3321.78 506.683L3260.88 391.756Z" fill="#A29AB3"/>
<path d="M3624.81 -6.55598L3531 149.871L3664.1 124.332L3624.81 -6.55598Z" fill="#6C84BA"/>
<path d="M3249.82 -6.55567L3233.37 139.558L3374.82 99.5296L3249.82 -6.55567Z" fill="#928DAF"/>
<path d="M3499.81 -6.55598L3374.82 99.5293L3531 149.871L3499.81 -6.55598Z" fill="#7686B7"/>
<path d="M2971.35 213.228L2828.92 254.483L2891.05 389.301L2971.35 213.228Z" fill="#B696A3"/>
<path d="M3404.04 254.483L3382.43 410.665L3511.6 369.901L3404.04 254.483Z" fill="#898FB6"/>
<path d="M3097.33 395.439L3260.88 391.756L3203.41 283.215L3097.33 395.439Z" fill="#B19BAB"/>
<path d="M2841.2 576.669L2930.59 699.699L3023.16 530.993L2841.2 576.669Z" fill="#CC9FA0"/>
<path d="M2891.05 389.301L3097.33 395.439L3079.89 272.901L2891.05 389.301Z" fill="#C39AA0"/>
<path d="M3092.91 705.101L2930.59 699.699L3030.78 813.643L3092.91 705.101Z" fill="#C8ACB2"/>
<path d="M2930.59 699.699L2841.2 576.669L2776.61 717.134L2930.59 699.699Z" fill="#CDA6A8"/>
<path d="M2619.7 565.864L2776.61 717.134L2841.2 576.669L2619.7 565.864Z" fill="#D59993"/>
<path d="M2626.08 827.64L2776.61 717.134L2592.68 710.995L2626.08 827.64Z" fill="#D09896"/>
<path d="M2120.7 819.536L2036.22 715.661L2006.76 889.523L2120.7 819.536Z" fill="#CB8783"/>
<path d="M2084.36 495.386L2036.22 715.661L2211.32 530.257L2084.36 495.386Z" fill="#EC9580"/>
<path d="M2006.76 889.523L2227.28 900.328L2120.7 819.536L2006.76 889.523Z" fill="#BF8184"/>
<path d="M2227.28 900.328L2363.81 854.898L2247.66 762.564L2227.28 900.328Z" fill="#C38485"/>
<path d="M2271.97 639.78L2377.32 711.731L2365.29 556.287L2271.97 639.78Z" fill="#DD9184"/>
<path d="M2247.66 762.564L2271.97 639.781L2036.22 715.661L2247.66 762.564Z" fill="#D28B85"/>
<path d="M53.2588 1801.07L119.071 1662.57L-6.90527 1666.75L53.2588 1801.07Z" fill="#C3E8DC"/>
<path d="M268.377 1637.53L119.071 1662.57L195.443 1762.76L268.377 1637.53Z" fill="#AEDEE5"/>
<path d="M2619.7 565.864L2841.2 576.669L2802.89 466.163L2619.7 565.864Z" fill="#D59993"/>
<path d="M3023.16 530.993L2891.05 389.3L2841.2 576.669L3023.16 530.993Z" fill="#BFA1AA"/>
<path d="M2211.31 530.257L2323.79 405.754L2162.94 365.972L2211.31 530.257Z" fill="#E69482"/>
<path d="M2396.23 287.881L2483.9 447.5L2530.55 254.238L2396.23 287.881Z" fill="#E79887"/>
<path d="M2377.32 711.731L2488.81 799.891L2484.63 625.046L2377.32 711.731Z" fill="#D69089"/>
<path d="M2483.9 447.5L2323.79 405.754L2365.29 556.287L2483.9 447.5Z" fill="#DE978B"/>
<path d="M2036.22 715.661L2271.97 639.781L2211.32 530.257L2036.22 715.661Z" fill="#D78C82"/>
<path d="M2377.32 711.732L2271.97 639.781L2247.66 762.564L2377.32 711.732Z" fill="#D69089"/>
<path d="M2619.7 565.864L2484.63 625.046L2592.68 710.995L2619.7 565.864Z" fill="#D59993"/>
<path d="M2483.9 447.5L2365.29 556.287L2484.63 625.046L2483.9 447.5Z" fill="#DE978B"/>
<path d="M3520.44 641.99L3599.51 738.253L3699.46 663.846L3520.44 641.99Z" fill="#ACADC3"/>
<path d="M3887.57 1120.6L4006.67 1000.03L3891.74 952.635L3887.57 1120.6Z" fill="#E5DCCE"/>
<path d="M3845.08 1240.93L4006.67 1166.77L3887.57 1120.6L3845.08 1240.93Z" fill="#F1E2CC"/>
<path d="M3771.41 852.934L3793.27 736.289L3599.51 738.253L3771.41 852.934Z" fill="#C3C4CC"/>
<path d="M3697.99 1354.63L3845.08 1240.93L3663.85 1198.94L3697.99 1354.63Z" fill="#FAE4C8"/>
<path d="M3793.27 736.289L3879.46 654.76L3699.46 663.846L3793.27 736.289Z" fill="#B1B8CA"/>
<path d="M3845.08 1240.93L4006.67 1333.51V1166.77L3845.08 1240.93Z" fill="#F1E2CC"/>
<path d="M4006.67 1000.03L3887.57 1120.6L4006.67 1166.77V1000.03Z" fill="#D6D2CF"/>
<path d="M3887.57 1120.6L3771.17 1148.11L3845.08 1240.93L3887.57 1120.6Z" fill="#E5DCCE"/>
<path d="M3771.17 1148.11L3795.97 1031.95L3680.8 973.508L3771.17 1148.11Z" fill="#EADDCE"/>
<path d="M3771.41 852.934L3891.74 952.635L3926.61 833.534L3771.41 852.934Z" fill="#C3C4CC"/>
<path d="M3887.57 1120.6L3891.74 952.635L3795.97 1031.95L3887.57 1120.6Z" fill="#E5DCCE"/>
<path d="M3926.61 833.533L3879.46 654.759L3793.27 736.288L3926.61 833.533Z" fill="#BEC2CD"/>
<path d="M3771.41 852.934L3615.48 861.774L3680.8 973.508L3771.41 852.934Z" fill="#C3C4CC"/>
<path d="M3771.17 1148.11L3680.8 973.508L3585.03 1060.44L3771.17 1148.11Z" fill="#EADDCE"/>
<path d="M3771.41 852.934L3680.8 973.508L3795.97 1031.95L3771.41 852.934Z" fill="#C3C4CC"/>
<path d="M3723.28 356.64L3666.55 549.165L3775.1 500.052L3723.28 356.64Z" fill="#7B91C0"/>
<path d="M3520.44 641.99L3666.55 549.165L3559.49 496.859L3520.44 641.99Z" fill="#ACADC3"/>
<path d="M3464.45 781.473L3599.51 738.253L3520.44 641.99L3464.45 781.473Z" fill="#C2BBC4"/>
<path d="M3771.41 852.933L3599.51 738.253L3615.48 861.773L3771.41 852.933Z" fill="#C3C4CC"/>
<path d="M3599.51 738.253L3793.27 736.289L3699.46 663.846L3599.51 738.253Z" fill="#B7B8C7"/>
<path d="M3926.61 833.534L3793.27 736.289L3771.41 852.934L3926.61 833.534Z" fill="#BEC2CD"/>
<path d="M3203.41 283.215L3260.87 391.756L3404.04 254.483L3203.41 283.215Z" fill="#A095AF"/>
<path d="M3404.04 254.483L3511.6 369.9L3599.76 266.762L3404.04 254.483Z" fill="#898FB6"/>
<path d="M3404.04 254.483L3374.82 99.5296L3233.37 139.558L3404.04 254.483Z" fill="#898FB6"/>
<path d="M3124.83 53.363L3233.37 139.558L3249.82 -6.55567L3124.83 53.363Z" fill="#A190A9"/>
<path d="M3404.04 254.483L3233.37 139.557L3203.41 283.215L3404.04 254.483Z" fill="#898FB6"/>
<path d="M3249.82 -6.55631H2999.84L3124.83 53.3623L3249.82 -6.55631Z" fill="#928DAF"/>
<path d="M2971.35 213.228L2999.84 -6.5563L2861.83 101.985L2971.35 213.228Z" fill="#B696A3"/>
<path d="M3097.33 395.44L3208.32 502.999L3260.88 391.756L3097.33 395.44Z" fill="#B19BAB"/>
<path d="M3023.16 530.993L3208.32 502.998L3097.33 395.439L3023.16 530.993Z" fill="#BFA1AA"/>
<path d="M3231.41 650.094L3126.79 590.421L3092.91 705.102L3231.41 650.094Z" fill="#BDACB8"/>
<path d="M3208.32 502.998L3023.16 530.993L3126.79 590.421L3208.32 502.998Z" fill="#B0A1B3"/>
<path d="M3079.89 272.901L3124.83 53.363L2971.35 213.228L3079.89 272.901Z" fill="#AD96A9"/>
<path d="M3203.41 283.215L3079.89 272.901L3097.33 395.439L3203.41 283.215Z" fill="#A095AF"/>
<path d="M2749.85 -6.55631L2624.85 40.5928L2700.24 151.099L2749.85 -6.55631Z" fill="#CB9696"/>
<path d="M2891.05 389.3L3023.16 530.993L3097.33 395.439L2891.05 389.3Z" fill="#C39AA0"/>
<path d="M3079.89 272.901L3203.41 283.215L3233.37 139.557L3079.89 272.901Z" fill="#AD96A9"/>
<path d="M2891.05 389.301L3079.89 272.901L2971.35 213.228L2891.05 389.301Z" fill="#C39AA0"/>
<path d="M2861.83 101.985L2749.85 -6.55631L2700.24 151.099L2861.83 101.985Z" fill="#C0959C"/>
<path d="M2483.9 447.5L2484.63 625.046L2619.7 565.864L2483.9 447.5Z" fill="#DE978B"/>
<path d="M2483.9 447.5L2582.86 369.164L2530.55 254.238L2483.9 447.5Z" fill="#DE978B"/>
<path d="M2582.86 369.164L2719.89 314.893L2530.55 254.238L2582.86 369.164Z" fill="#DA988F"/>
<path d="M2841.2 576.669L2891.05 389.3L2802.89 466.163L2841.2 576.669Z" fill="#CC9FA0"/>
<path d="M2891.05 389.301L2828.92 254.483L2719.89 314.893L2891.05 389.301Z" fill="#C39AA0"/>
<path d="M2619.7 565.864L2592.68 710.995L2776.61 717.134L2619.7 565.864Z" fill="#D59993"/>
<path d="M2619.7 565.864L2689.93 436.203L2582.86 369.164L2619.7 565.864Z" fill="#D59993"/>
<path d="M2999.84 -6.55567H2749.85L2861.83 101.985L2999.84 -6.55567Z" fill="#B093A3"/>
<path d="M2861.83 101.985L2828.92 254.483L2971.35 213.228L2861.83 101.985Z" fill="#C0959C"/>
<path d="M2719.89 314.894L2828.92 254.483L2700.24 151.099L2719.89 314.894Z" fill="#CF9896"/>
<path d="M2549.95 135.137L2374.86 102.722L2530.55 254.237L2549.95 135.137Z" fill="#DD978C"/>
<path d="M2828.92 254.483L2861.83 101.985L2700.24 151.099L2828.92 254.483Z" fill="#C5979B"/>
<path d="M2719.89 314.893L2689.93 436.203L2802.89 466.163L2719.89 314.893Z" fill="#CF9896"/>
<path d="M2719.89 314.893L2802.89 466.163L2891.05 389.3L2719.89 314.893Z" fill="#CF9896"/>
<path d="M2619.7 565.864L2802.89 466.163L2689.93 436.203L2619.7 565.864Z" fill="#D59993"/>
<path d="M2999.84 -6.5563L2971.35 213.228L3124.83 53.3623L2999.84 -6.5563Z" fill="#B093A3"/>
<path d="M2749.85 -6.55631H2499.86L2624.85 40.5928L2749.85 -6.55631Z" fill="#CB9696"/>
<path d="M2374.86 102.722L2262.39 251.782L2396.23 287.881L2374.86 102.722Z" fill="#EB9985"/>
<path d="M2700.24 151.099L2624.85 40.5928L2549.95 135.137L2700.24 151.099Z" fill="#D09794"/>
<path d="M2323.79 405.754L2396.23 287.881L2262.39 251.782L2323.79 405.754Z" fill="#E89684"/>
<path d="M2483.9 447.5L2396.23 287.881L2323.79 405.754L2483.9 447.5Z" fill="#DE978B"/>
<path d="M2374.86 102.722L2499.86 -6.55631H2249.87L2374.86 102.722Z" fill="#EB9985"/>
<path d="M2122.42 230.172L2124.88 27.5781L1985.15 195.056L2122.42 230.172Z" fill="#F69A80"/>
<path d="M2210.33 124.823L2374.86 102.722L2249.87 -6.55567L2210.33 124.823Z" fill="#F49A81"/>
<path d="M2700.24 151.099L2549.95 135.137L2530.55 254.237L2700.24 151.099Z" fill="#D09794"/>
<path d="M2499.86 -6.55567L2549.95 135.138L2624.85 40.5934L2499.86 -6.55567Z" fill="#E2988A"/>
<path d="M2124.88 27.5784L2210.33 124.823L2249.87 -6.55567L2124.88 27.5784Z" fill="#F89C81"/>
<path d="M2374.86 102.722L2210.33 124.823L2262.39 251.782L2374.86 102.722Z" fill="#EB9985"/>
<path d="M2549.95 135.138L2499.86 -6.55567L2374.86 102.722L2549.95 135.138Z" fill="#DD978C"/>
<path d="M2249.87 -6.55599H1999.88L2124.87 27.5781L2249.87 -6.55599Z" fill="#F39A82"/>
<path d="M1985.15 195.056L2124.88 27.5778L1999.88 -6.5563L1985.15 195.056Z" fill="#FA9D81"/>
<path d="M2619.7 565.864L2582.86 369.164L2483.9 447.5L2619.7 565.864Z" fill="#D59993"/>
<path d="M2719.89 314.894L2582.86 369.164L2689.93 436.204L2719.89 314.894Z" fill="#CF9896"/>
<path d="M3697.99 1354.63L3697.74 1483.31L3863.5 1431.74L3697.99 1354.63Z" fill="#FAE4C8"/>
<path d="M179.727 500.052L-6.90527 333.556V500.052H179.727Z" fill="#ECEDEB"/>
<path d="M3820.03 2166.73L4006.67 2333.47V2166.73H3820.03Z" fill="#FEC490"/>
<path d="M3423.44 1930.73L3556.29 1804.27L3377.52 1764.24L3423.44 1930.73Z" fill="#EFBD9C"/>
<path d="M3725.98 1873.76L3848.27 1746.07L3665.33 1691.55L3725.98 1873.76Z" fill="#FDD2A5"/>
<path d="M3424.67 1660.12L3556.29 1804.27L3529.28 1613.95L3424.67 1660.12Z" fill="#F8D0B1"/>
<path d="M1407.08 407.473L1342.25 229.436L1291.66 339.941L1407.08 407.473Z" fill="#EAAEA0"/>
<path d="M1229.53 183.76L1012.94 132.927L1060.58 264.797L1229.53 183.76Z" fill="#F5BDAC"/>
<path d="M1869.48 91.9164L1866.54 246.87L1985.15 195.056L1869.48 91.9164Z" fill="#FEA184"/>
<path d="M1999.88 -6.55567H1749.89L1869.48 91.917L1999.88 -6.55567Z" fill="#FC9E81"/>
<path d="M999.925 -6.55631L1012.94 132.927L1124.92 52.1348L999.925 -6.55631Z" fill="#F9CCBD"/>
<path d="M1342.25 229.436L1229.53 183.76L1291.66 339.941L1342.25 229.436Z" fill="#F4B6A4"/>
<path d="M1342.25 229.436L1458.16 191.618L1374.91 70.5524L1342.25 229.436Z" fill="#F4B6A4"/>
<path d="M1536 443.571L1499.17 315.384L1407.08 407.473L1536 443.571Z" fill="#EAA697"/>
<path d="M1587.08 178.111L1499.17 315.384L1628.58 301.141L1587.08 178.111Z" fill="#FAAA92"/>
<path d="M1499.9 -6.55567H1249.91L1374.91 70.5527L1499.9 -6.55567Z" fill="#FCAF97"/>
<path d="M1374.91 70.5524L1249.91 -6.55598L1229.53 183.76L1374.91 70.5524Z" fill="#FAB6A1"/>
<path d="M70.6943 833.533L174.079 681.527L-6.90527 666.792L70.6943 833.533Z" fill="#CDE8F5"/>
<path d="M427.996 887.559L275.253 816.098L339.838 971.789L427.996 887.559Z" fill="#BFDCEF"/>
<path d="M-6.90527 500.052L90.5853 587.966L179.727 500.052H-6.90527Z" fill="#ECEFED"/>
<path d="M-6.90527 666.793L174.079 681.527L90.5853 587.966L-6.90527 666.793Z" fill="#DDECF1"/>
<path d="M-6.90527 666.793V1000.03L70.6943 833.534L-6.90527 666.793Z" fill="#DDECF1"/>
<path d="M203.793 937.164L-6.90527 1000.03L173.833 1074.44L203.793 937.164Z" fill="#C1E4F5"/>
<path d="M354.817 667.529L174.079 681.527L275.253 816.098L354.817 667.529Z" fill="#DAE5EC"/>
<path d="M70.6943 833.533L275.253 816.098L174.079 681.527L70.6943 833.533Z" fill="#CDE8F5"/>
<path d="M275.253 816.098L70.6943 833.534L203.793 937.164L275.253 816.098Z" fill="#CBE4F2"/>
<path d="M-6.90527 1000.03L203.793 937.164L70.6943 833.534L-6.90527 1000.03Z" fill="#BEE5F8"/>
<path d="M1587.08 178.112L1499.9 -6.55567L1458.16 191.618L1587.08 178.112Z" fill="#FAAA92"/>
<path d="M1628.58 301.142L1715.27 157.484L1587.08 178.112L1628.58 301.142Z" fill="#F5A690"/>
<path d="M1624.9 52.8718L1587.08 178.111L1715.27 157.484L1624.9 52.8718Z" fill="#FDAA90"/>
<path d="M3491.46 2173.11L3583.8 2268.39L3669.99 2144.38L3491.46 2173.11Z" fill="#EFB38B"/>
<path d="M3556.29 1804.27L3615.72 1901.27L3725.98 1873.76L3556.29 1804.27Z" fill="#FACFA9"/>
<path d="M3715.18 2288.28L3820.03 2166.72L3669.99 2144.38L3715.18 2288.28Z" fill="#FBBA87"/>
<path d="M3764.78 2023.07L3669.99 2144.38L3820.03 2166.72L3764.78 2023.07Z" fill="#FDCB9A"/>
<path d="M3890.02 2057.45L3764.78 2023.07L3820.03 2166.72L3890.02 2057.45Z" fill="#FECC98"/>
<path d="M3764.78 2023.07L3725.98 1873.76L3615.72 1901.27L3764.78 2023.07Z" fill="#FDCB9A"/>
<path d="M4006.67 2166.72L3890.02 2057.45L3820.03 2166.72H4006.67Z" fill="#FFC791"/>
<path d="M4006.67 2000.23L3873.81 1906.67L3890.02 2057.45L4006.67 2000.23Z" fill="#FFD09D"/>
<path d="M3423.44 1930.73L3615.72 1901.27L3556.29 1804.27L3423.44 1930.73Z" fill="#EFBD9C"/>
<path d="M3764.78 2023.07L3615.72 1901.27L3595.58 2013.25L3764.78 2023.07Z" fill="#FDCB9A"/>
<path d="M3665.33 1691.55L3697.74 1483.31L3529.28 1613.95L3665.33 1691.55Z" fill="#FEDBB3"/>
<path d="M3848.27 1746.07L3725.98 1873.76L3873.81 1906.67L3848.27 1746.07Z" fill="#FFDDB0"/>
<path d="M3665.33 1691.55L3529.28 1613.95L3556.29 1804.27L3665.33 1691.55Z" fill="#FEDBB3"/>
<path d="M3529.28 1613.95L3697.74 1483.31L3571.76 1457.03L3529.28 1613.95Z" fill="#FDD9B7"/>
<path d="M3863.5 1431.74L3697.74 1483.31L3778.78 1583.25L3863.5 1431.74Z" fill="#FBE5C5"/>
<path d="M3916.3 1560.66L3863.5 1431.74L3778.78 1583.25L3916.3 1560.66Z" fill="#FDE4BD"/>
<path d="M3863.5 1431.74L4006.67 1333.51L3845.08 1240.93L3863.5 1431.74Z" fill="#FBE5C5"/>
<path d="M3725.98 1873.76L3665.33 1691.55L3556.29 1804.27L3725.98 1873.76Z" fill="#FDD2A5"/>
<path d="M3697.74 1483.31L3665.33 1691.55L3778.78 1583.25L3697.74 1483.31Z" fill="#FEE3C1"/>
<path d="M3848.27 1746.07L3916.3 1560.66L3778.78 1583.25L3848.27 1746.07Z" fill="#FFDDB0"/>
<path d="M4006.67 1333.51L3916.3 1560.66L4006.67 1666.75V1333.51Z" fill="#F6E5CA"/>
<path d="M3873.81 1906.67L3764.78 2023.07L3890.02 2057.45L3873.81 1906.67Z" fill="#FED4A4"/>
<path d="M3916.3 1560.66L3848.27 1746.07L4006.67 1666.75L3916.3 1560.66Z" fill="#FDE4BD"/>
<path d="M4006.67 1666.75L3848.27 1746.07L4006.67 1833.49V1666.75Z" fill="#FFE2B7"/>
<path d="M3725.98 1873.76L3764.78 2023.07L3873.81 1906.67L3725.98 1873.76Z" fill="#FDD2A5"/>
<path d="M3848.27 1746.07L3873.81 1906.67L4006.67 1833.49L3848.27 1746.07Z" fill="#FFDDB0"/>
<path d="M3891.74 952.635L4006.67 833.534H3926.61L3891.74 952.635Z" fill="#D0CECF"/>
</g>
<rect width="4000" height="2666.67" fill="url(#paint0_radial_833_96)" fill-opacity="0.75"/>
</g>
<defs>
<filter id="filter0_f_833_96" x="-406.905" y="-406.556" width="4813.57" height="3479.89" filterUnits="userSpaceOnUse" color-interpolation-filters="sRGB">
<feFlood flood-opacity="0" result="BackgroundImageFix"/>
<feBlend mode="normal" in="SourceGraphic" in2="BackgroundImageFix" result="shape"/>
<feGaussianBlur stdDeviation="200" result="effect1_foregroundBlur_833_96"/>
</filter>
<radialGradient id="paint0_radial_833_96" cx="0" cy="0" r="1" gradientUnits="userSpaceOnUse" gradientTransform="translate(3134.5 2505.5) rotate(-124.206) scale(1740.58 2610.87)">
<stop offset="0.0104167" stop-color="white"/>
<stop offset="1" stop-color="white" stop-opacity="0"/>
</radialGradient>
<clipPath id="clip0_833_96">
<rect width="4000" height="2666.67" fill="white"/>
</clipPath>
</defs>
</svg>
