<svg width="353" height="339" viewBox="0 0 353 339" fill="none" xmlns="http://www.w3.org/2000/svg">
<path d="M329.032 0H205.162C196.409 0 189.313 7.09608 189.313 15.8495V139.72C189.313 148.473 196.409 155.569 205.162 155.569H329.032C337.786 155.569 344.882 148.473 344.882 139.72V15.8495C344.882 7.09608 337.786 0 329.032 0Z" fill="#263769"/>
<path d="M329.032 182.431H205.162C196.409 182.431 189.313 189.527 189.313 198.28V322.15C189.313 330.904 196.409 338 205.162 338H329.032C337.786 338 344.882 330.904 344.882 322.15V198.28C344.882 189.527 337.786 182.431 329.032 182.431Z" fill="#263769"/>
<path d="M146.601 0H23.8495C15.0961 0 8 7.09608 8 15.8495V138.601C8 147.354 15.0961 154.45 23.8495 154.45H146.601C155.354 154.45 162.45 147.354 162.45 138.601V15.8495C162.45 7.09608 155.354 0 146.601 0Z" fill="#263769"/>
<path d="M146.601 182.431H23.8495C15.0961 182.431 8 189.527 8 198.28V321.031C8 329.785 15.0961 336.881 23.8495 336.881H146.601C155.354 336.881 162.45 329.785 162.45 321.031V198.28C162.45 189.527 155.354 182.431 146.601 182.431Z" fill="#263769"/>
<g filter="url(#filter0_d_36_174)">
<path d="M77.471 132.854C75.887 132.862 74.3362 132.401 73.0136 131.529C71.8278 130.733 70.863 129.649 70.2093 128.379C69.5557 127.109 69.2344 125.694 69.2755 124.266V87.3906C69.1524 86.2146 68.7706 85.0805 68.1575 84.0695L31.0964 35.3846C30.1282 34.2313 29.5087 32.8261 29.3102 31.3334C29.1118 29.8408 29.3427 28.3225 29.976 26.9563C30.6797 25.628 31.7454 24.5263 33.0495 23.7788C34.3537 23.0313 35.843 22.6687 37.3448 22.733H133.028C134.524 22.6688 136.007 23.0249 137.31 23.7608C138.614 24.4967 139.685 25.583 140.402 26.8966C141.051 28.2439 141.31 29.7461 141.149 31.2329C140.988 32.7198 140.414 34.1318 139.491 35.309L104.719 83.8622C104.092 84.9436 103.706 86.1468 103.585 87.3906V114.523C103.528 116.819 102.831 119.053 101.573 120.975C100.314 122.896 98.5436 124.427 96.4611 125.397L81.1663 132.058C80.0026 132.575 78.7444 132.846 77.471 132.853V132.854ZM45.5256 34.6653L77.6465 76.8226C79.8433 79.9202 81.0813 83.5951 81.2066 87.3906V119.025L91.6917 114.455L91.6478 87.4101C91.774 83.6731 92.9392 80.0451 95.0127 76.9336L125.28 34.6653H45.5256Z" fill="white"/>
</g>
<g filter="url(#filter1_d_36_174)">
<path d="M126.704 232.801C128.535 232.798 130.29 232.069 131.584 230.773C132.878 229.478 133.605 227.722 133.606 225.891V212.067C133.606 210.235 132.88 208.479 131.586 207.183C130.291 205.887 128.536 205.157 126.704 205.154H43.7419C41.9104 205.157 40.1549 205.887 38.8609 207.183C37.5669 208.479 36.8401 210.235 36.8401 212.067C36.843 212.949 37.0165 213.821 37.3509 214.637V214.676C37.6976 215.527 38.2103 216.301 38.859 216.952V216.952L82.1283 260.218L38.9212 303.421V303.443C37.9451 304.403 37.2763 305.632 36.9997 306.973C36.723 308.314 36.851 309.707 37.3674 310.975C37.8838 312.243 38.7653 313.329 39.9 314.095C41.0348 314.861 42.3715 315.273 43.7407 315.278H126.704C128.538 315.278 130.296 314.55 131.593 313.253C132.889 311.957 133.617 310.198 133.617 308.365V294.545C133.629 293.63 133.46 292.721 133.118 291.872C132.776 291.023 132.269 290.25 131.626 289.598C130.983 288.946 130.216 288.429 129.372 288.076C128.527 287.723 127.621 287.541 126.705 287.541C125.79 287.541 124.883 287.723 124.038 288.076C123.194 288.429 122.428 288.946 121.785 289.598C121.142 290.25 120.634 291.023 120.292 291.872C119.951 292.721 119.781 293.63 119.793 294.545V301.458H60.44L96.783 265.115C97.4251 264.474 97.9345 263.712 98.2821 262.874C98.6297 262.036 98.8086 261.137 98.8086 260.229C98.8086 259.322 98.6297 258.423 98.2821 257.585C97.9345 256.746 97.4251 255.985 96.783 255.343L96.7537 255.321V255.292L60.44 218.979H119.782V225.891C119.782 226.8 119.962 227.699 120.31 228.538C120.659 229.377 121.169 230.139 121.812 230.781C122.455 231.423 123.218 231.931 124.058 232.278C124.897 232.624 125.797 232.802 126.706 232.801H126.704Z" fill="white"/>
</g>
<g filter="url(#filter2_d_36_174)">
<path d="M310.497 58.1079H291.993L288.116 69.2355H279.496L297.541 21.4675H304.978L323.068 69.2355H314.404L310.497 58.1079ZM294.319 51.4194H308.166L301.241 31.6026L294.319 51.4194ZM291.566 124.632H317.087V131.258H281.522V125.882L306.229 90.1837H281.691V83.4648H316.316V88.7073L291.566 124.632ZM266.362 99.6788C265.15 98.4686 263.508 97.7889 261.796 97.7889C260.083 97.7889 258.441 98.4686 257.229 99.6788L246.091 110.817V27.9694C246.091 26.2557 245.41 24.6121 244.198 23.4003C242.986 22.1885 241.343 21.5077 239.629 21.5077C237.915 21.5077 236.271 22.1885 235.06 23.4003C233.848 24.6121 233.167 26.2557 233.167 27.9694V110.764L222.208 99.8032C220.996 98.5945 219.355 97.9157 217.644 97.9157C215.932 97.9157 214.291 98.5945 213.08 99.8032L213.013 99.8702C212.413 100.469 211.937 101.181 211.612 101.964C211.288 102.747 211.12 103.587 211.12 104.434C211.12 105.282 211.288 106.122 211.612 106.905C211.937 107.688 212.413 108.399 213.013 108.998L235.118 131.099C236.329 132.306 237.969 132.983 239.679 132.983C241.389 132.983 243.029 132.306 244.24 131.099L244.307 131.032C244.418 130.882 244.522 130.727 244.617 130.566L266.362 108.813C266.963 108.214 267.439 107.502 267.764 106.718C268.089 105.935 268.257 105.095 268.257 104.247C268.257 103.398 268.089 102.558 267.764 101.775C267.439 100.991 266.963 100.279 266.362 99.68V99.6788Z" fill="white"/>
</g>
<g filter="url(#filter3_d_36_174)">
<path d="M247.712 253.19H221.865C218.438 253.19 215.15 251.829 212.727 249.405C210.303 246.982 208.942 243.694 208.942 240.267V214.42C208.942 210.992 210.303 207.705 212.727 205.282C215.15 202.858 218.438 201.496 221.865 201.496H247.712C249.409 201.496 251.09 201.831 252.658 202.48C254.226 203.13 255.65 204.082 256.85 205.282C258.05 206.482 259.002 207.906 259.652 209.474C260.301 211.042 260.636 212.723 260.636 214.42V240.267C260.636 241.964 260.301 243.645 259.652 245.212C259.002 246.78 258.05 248.205 256.85 249.405C255.65 250.605 254.226 251.557 252.658 252.207C251.09 252.856 249.409 253.19 247.712 253.19V253.19ZM221.865 210.113C220.723 210.113 219.627 210.567 218.82 211.374C218.012 212.182 217.558 213.278 217.558 214.42V240.267C217.557 240.833 217.668 241.393 217.884 241.917C218.101 242.44 218.418 242.915 218.818 243.315C219.218 243.716 219.693 244.034 220.216 244.25C220.739 244.467 221.299 244.579 221.865 244.579H247.712C248.278 244.58 248.839 244.468 249.363 244.252C249.886 244.035 250.362 243.718 250.762 243.317C251.163 242.917 251.481 242.441 251.697 241.918C251.914 241.394 252.025 240.833 252.024 240.267V214.42C252.024 213.854 251.912 213.293 251.696 212.771C251.479 212.248 251.161 211.773 250.761 211.373C250.36 210.973 249.885 210.656 249.362 210.439C248.839 210.223 248.278 210.112 247.712 210.113H221.865ZM312.339 253.19H286.492C283.065 253.19 279.778 251.829 277.354 249.405C274.93 246.982 273.569 243.694 273.569 240.267V214.42C273.569 210.992 274.93 207.705 277.354 205.282C279.778 202.858 283.065 201.496 286.492 201.496H312.339C315.767 201.496 319.054 202.858 321.477 205.282C323.901 207.705 325.263 210.992 325.263 214.42V240.267C325.263 241.964 324.928 243.645 324.279 245.212C323.629 246.78 322.677 248.205 321.477 249.405C320.277 250.605 318.853 251.557 317.285 252.207C315.717 252.856 314.036 253.19 312.339 253.19V253.19ZM286.49 210.113C285.347 210.113 284.252 210.567 283.444 211.374C282.637 212.182 282.183 213.278 282.182 214.42V240.267C282.182 241.41 282.636 242.506 283.444 243.314C284.252 244.122 285.348 244.575 286.491 244.575H312.338C312.904 244.576 313.464 244.464 313.987 244.248C314.51 244.031 314.985 243.714 315.385 243.314C315.786 242.914 316.103 242.439 316.32 241.916C316.536 241.393 316.648 240.833 316.648 240.267V214.42C316.648 213.854 316.536 213.294 316.32 212.771C316.103 212.248 315.786 211.773 315.386 211.373C314.986 210.973 314.511 210.656 313.988 210.439C313.465 210.223 312.905 210.111 312.339 210.111L286.49 210.113ZM247.712 317.819H221.865C218.438 317.819 215.15 316.457 212.727 314.033C210.303 311.61 208.942 308.323 208.942 304.895V279.048C208.942 275.621 210.303 272.334 212.727 269.91C215.15 267.486 218.438 266.125 221.865 266.125H247.712C249.409 266.125 251.09 266.459 252.658 267.109C254.226 267.758 255.65 268.71 256.85 269.91C258.05 271.11 259.002 272.535 259.652 274.103C260.301 275.671 260.636 277.351 260.636 279.048V304.895C260.636 306.592 260.301 308.273 259.652 309.841C259.002 311.409 258.05 312.833 256.85 314.033C255.65 315.233 254.226 316.185 252.658 316.835C251.09 317.484 249.409 317.819 247.712 317.819V317.819ZM221.865 274.737C220.722 274.737 219.626 275.191 218.818 275.999C218.01 276.807 217.556 277.903 217.556 279.046V304.893C217.556 305.459 217.668 306.019 217.884 306.542C218.101 307.065 218.418 307.54 218.818 307.94C219.218 308.34 219.693 308.658 220.216 308.874C220.739 309.091 221.299 309.203 221.865 309.203H247.712C248.855 309.203 249.951 308.749 250.759 307.941C251.567 307.133 252.021 306.037 252.021 304.894V279.047C252.021 278.481 251.91 277.921 251.693 277.398C251.477 276.875 251.159 276.4 250.759 276C250.359 275.599 249.884 275.282 249.361 275.065C248.838 274.849 248.278 274.737 247.712 274.737H221.865ZM312.339 317.819H286.492C283.065 317.819 279.778 316.457 277.354 314.033C274.93 311.61 273.569 308.323 273.569 304.895V279.048C273.569 275.621 274.93 272.334 277.354 269.91C279.778 267.486 283.065 266.125 286.492 266.125H312.339C315.767 266.125 319.054 267.486 321.477 269.91C323.901 272.334 325.263 275.621 325.263 279.048V304.895C325.263 308.323 323.901 311.61 321.477 314.033C319.054 316.457 315.767 317.819 312.339 317.819V317.819ZM286.492 274.736C285.349 274.736 284.254 275.19 283.446 275.998C282.638 276.806 282.184 277.902 282.184 279.045V304.892C282.184 306.034 282.638 307.13 283.446 307.938C284.254 308.746 285.349 309.2 286.492 309.2H312.339C313.482 309.2 314.578 308.746 315.386 307.938C316.194 307.13 316.648 306.034 316.648 304.892V279.045C316.648 277.902 316.194 276.806 315.386 275.998C314.578 275.19 313.482 274.736 312.339 274.736H286.492Z" fill="white"/>
</g>
<defs>
<filter id="filter0_d_36_174" x="24.2411" y="17.7256" width="123.954" height="122.129" filterUnits="userSpaceOnUse" color-interpolation-filters="sRGB">
<feFlood flood-opacity="0" result="BackgroundImageFix"/>
<feColorMatrix in="SourceAlpha" type="matrix" values="0 0 0 0 0 0 0 0 0 0 0 0 0 0 0 0 0 0 127 0" result="hardAlpha"/>
<feOffset dx="1" dy="1"/>
<feGaussianBlur stdDeviation="3"/>
<feColorMatrix type="matrix" values="0 0 0 0 0 0 0 0 0 0 0 0 0 0 0 0 0 0 0.09 0"/>
<feBlend mode="normal" in2="BackgroundImageFix" result="effect1_dropShadow_36_174"/>
<feBlend mode="normal" in="SourceGraphic" in2="effect1_dropShadow_36_174" result="shape"/>
</filter>
<filter id="filter1_d_36_174" x="31.8401" y="200.154" width="108.778" height="122.124" filterUnits="userSpaceOnUse" color-interpolation-filters="sRGB">
<feFlood flood-opacity="0" result="BackgroundImageFix"/>
<feColorMatrix in="SourceAlpha" type="matrix" values="0 0 0 0 0 0 0 0 0 0 0 0 0 0 0 0 0 0 127 0" result="hardAlpha"/>
<feOffset dx="1" dy="1"/>
<feGaussianBlur stdDeviation="3"/>
<feColorMatrix type="matrix" values="0 0 0 0 0 0 0 0 0 0 0 0 0 0 0 0 0 0 0.09 0"/>
<feBlend mode="normal" in2="BackgroundImageFix" result="effect1_dropShadow_36_174"/>
<feBlend mode="normal" in="SourceGraphic" in2="effect1_dropShadow_36_174" result="shape"/>
</filter>
<filter id="filter2_d_36_174" x="206.12" y="16.4675" width="123.948" height="123.516" filterUnits="userSpaceOnUse" color-interpolation-filters="sRGB">
<feFlood flood-opacity="0" result="BackgroundImageFix"/>
<feColorMatrix in="SourceAlpha" type="matrix" values="0 0 0 0 0 0 0 0 0 0 0 0 0 0 0 0 0 0 127 0" result="hardAlpha"/>
<feOffset dx="1" dy="1"/>
<feGaussianBlur stdDeviation="3"/>
<feColorMatrix type="matrix" values="0 0 0 0 0 0 0 0 0 0 0 0 0 0 0 0 0 0 0.09 0"/>
<feBlend mode="normal" in2="BackgroundImageFix" result="effect1_dropShadow_36_174"/>
<feBlend mode="normal" in="SourceGraphic" in2="effect1_dropShadow_36_174" result="shape"/>
</filter>
<filter id="filter3_d_36_174" x="203.942" y="196.496" width="128.321" height="128.322" filterUnits="userSpaceOnUse" color-interpolation-filters="sRGB">
<feFlood flood-opacity="0" result="BackgroundImageFix"/>
<feColorMatrix in="SourceAlpha" type="matrix" values="0 0 0 0 0 0 0 0 0 0 0 0 0 0 0 0 0 0 127 0" result="hardAlpha"/>
<feOffset dx="1" dy="1"/>
<feGaussianBlur stdDeviation="3"/>
<feColorMatrix type="matrix" values="0 0 0 0 0 0 0 0 0 0 0 0 0 0 0 0 0 0 0.09 0"/>
<feBlend mode="normal" in2="BackgroundImageFix" result="effect1_dropShadow_36_174"/>
<feBlend mode="normal" in="SourceGraphic" in2="effect1_dropShadow_36_174" result="shape"/>
</filter>
</defs>
</svg>
