<svg xmlns="http://www.w3.org/2000/svg" xmlns:xlink="http://www.w3.org/1999/xlink" width="368" height="265.217" viewBox="0 0 368 265.217"><defs><linearGradient id="a" x1="-0.03" y1="0.119" x2="0.938" y2="0.934" gradientUnits="objectBoundingBox"><stop offset="0" stop-color="#f5d4f9"/><stop offset="1" stop-color="#7469ff" stop-opacity="0.647"/><stop offset="1" stop-color="#ba83c4" stop-opacity="0"/></linearGradient><filter id="b" x="0" y="49.877" width="100.68" height="38.473" filterUnits="userSpaceOnUse"><feOffset dx="1" dy="1" input="SourceAlpha"/><feGaussianBlur stdDeviation="2" result="c"/><feFlood flood-opacity="0.09"/><feComposite operator="in" in2="c"/><feComposite in="SourceGraphic"/></filter><filter id="d" x="0" y="82.969" width="100.68" height="38.473" filterUnits="userSpaceOnUse"><feOffset dx="1" dy="1" input="SourceAlpha"/><feGaussianBlur stdDeviation="2" result="e"/><feFlood flood-opacity="0.09"/><feComposite operator="in" in2="e"/><feComposite in="SourceGraphic"/></filter><filter id="f" x="0" y="116.06" width="100.68" height="38.473" filterUnits="userSpaceOnUse"><feOffset dx="1" dy="1" input="SourceAlpha"/><feGaussianBlur stdDeviation="2" result="g"/><feFlood flood-opacity="0.09"/><feComposite operator="in" in2="g"/><feComposite in="SourceGraphic"/></filter><filter id="h" x="0" y="149.151" width="100.68" height="38.473" filterUnits="userSpaceOnUse"><feOffset dx="1" dy="1" input="SourceAlpha"/><feGaussianBlur stdDeviation="2" result="i"/><feFlood flood-opacity="0.09"/><feComposite operator="in" in2="i"/><feComposite in="SourceGraphic"/></filter><filter id="j" x="0" y="182.242" width="100.68" height="38.473" filterUnits="userSpaceOnUse"><feOffset dx="1" dy="1" input="SourceAlpha"/><feGaussianBlur stdDeviation="2" result="k"/><feFlood flood-opacity="0.09"/><feComposite operator="in" in2="k"/><feComposite in="SourceGraphic"/></filter><filter id="l" x="96.675" y="49.877" width="100.68" height="38.473" filterUnits="userSpaceOnUse"><feOffset dx="1" dy="1" input="SourceAlpha"/><feGaussianBlur stdDeviation="2" result="m"/><feFlood flood-opacity="0.09"/><feComposite operator="in" in2="m"/><feComposite in="SourceGraphic"/></filter><filter id="n" x="96.675" y="82.969" width="100.68" height="38.473" filterUnits="userSpaceOnUse"><feOffset dx="1" dy="1" input="SourceAlpha"/><feGaussianBlur stdDeviation="2" result="o"/><feFlood flood-opacity="0.09"/><feComposite operator="in" in2="o"/><feComposite in="SourceGraphic"/></filter><filter id="p" x="96.675" y="116.06" width="100.68" height="38.473" filterUnits="userSpaceOnUse"><feOffset dx="1" dy="1" input="SourceAlpha"/><feGaussianBlur stdDeviation="2" result="q"/><feFlood flood-opacity="0.09"/><feComposite operator="in" in2="q"/><feComposite in="SourceGraphic"/></filter><filter id="r" x="96.675" y="149.151" width="100.68" height="38.473" filterUnits="userSpaceOnUse"><feOffset dx="1" dy="1" input="SourceAlpha"/><feGaussianBlur stdDeviation="2" result="s"/><feFlood flood-opacity="0.09"/><feComposite operator="in" in2="s"/><feComposite in="SourceGraphic"/></filter><filter id="t" x="96.675" y="182.242" width="100.68" height="38.473" filterUnits="userSpaceOnUse"><feOffset dx="1" dy="1" input="SourceAlpha"/><feGaussianBlur stdDeviation="2" result="u"/><feFlood flood-opacity="0.09"/><feComposite operator="in" in2="u"/><feComposite in="SourceGraphic"/></filter><filter id="v" x="193.351" y="49.877" width="100.68" height="38.473" filterUnits="userSpaceOnUse"><feOffset dx="1" dy="1" input="SourceAlpha"/><feGaussianBlur stdDeviation="2" result="w"/><feFlood flood-opacity="0.09"/><feComposite operator="in" in2="w"/><feComposite in="SourceGraphic"/></filter><filter id="x" x="193.351" y="82.969" width="100.68" height="38.473" filterUnits="userSpaceOnUse"><feOffset dx="1" dy="1" input="SourceAlpha"/><feGaussianBlur stdDeviation="2" result="y"/><feFlood flood-opacity="0.09"/><feComposite operator="in" in2="y"/><feComposite in="SourceGraphic"/></filter><filter id="z" x="193.351" y="116.06" width="100.68" height="38.473" filterUnits="userSpaceOnUse"><feOffset dx="1" dy="1" input="SourceAlpha"/><feGaussianBlur stdDeviation="2" result="aa"/><feFlood flood-opacity="0.09"/><feComposite operator="in" in2="aa"/><feComposite in="SourceGraphic"/></filter><filter id="ab" x="193.351" y="149.151" width="100.68" height="38.473" filterUnits="userSpaceOnUse"><feOffset dx="1" dy="1" input="SourceAlpha"/><feGaussianBlur stdDeviation="2" result="ac"/><feFlood flood-opacity="0.09"/><feComposite operator="in" in2="ac"/><feComposite in="SourceGraphic"/></filter><filter id="ad" x="193.351" y="182.242" width="100.68" height="38.473" filterUnits="userSpaceOnUse"><feOffset dx="1" dy="1" input="SourceAlpha"/><feGaussianBlur stdDeviation="2" result="ae"/><feFlood flood-opacity="0.09"/><feComposite operator="in" in2="ae"/><feComposite in="SourceGraphic"/></filter><filter id="af" x="228.767" y="143.325" width="43.74" height="43.745" filterUnits="userSpaceOnUse"><feOffset dx="2" dy="3" input="SourceAlpha"/><feGaussianBlur stdDeviation="3" result="ag"/><feFlood flood-opacity="0.22"/><feComposite operator="in" in2="ag"/><feComposite in="SourceGraphic"/></filter><filter id="ah" x="240.245" y="66.174" width="109.416" height="109.416" filterUnits="userSpaceOnUse"><feOffset dx="2" dy="3" input="SourceAlpha"/><feGaussianBlur stdDeviation="3" result="ai"/><feFlood flood-opacity="0.22"/><feComposite operator="in" in2="ai"/><feComposite in="SourceGraphic"/></filter><filter id="aj" x="317.206" y="47.813" width="50.794" height="50.794" filterUnits="userSpaceOnUse"><feOffset dx="2" dy="3" input="SourceAlpha"/><feGaussianBlur stdDeviation="3" result="ak"/><feFlood flood-opacity="0.22"/><feComposite operator="in" in2="ak"/><feComposite in="SourceGraphic"/></filter></defs><g transform="translate(679.679 -2962.187)"><path d="M176.839-54.873C199.884-34.085,207.25-.007,212.162,33.219c4.911,33.4,7.178,65.771-8.5,87.411-15.867,21.469-49.678,32.2-83.678,43.961-34,11.587-68,24.536-101.056,20.106-32.867-4.6-64.789-26.411-84.245-55.377S-91.951,64.231-81.562,34.412c10.578-29.818,38.722-53.332,68-72.928C15.716-58.281,46.127-74.127,80.694-78.387,115.261-82.817,153.795-75.49,176.839-54.873Z" transform="translate(-579.457 3041.816)" opacity="0.61" fill="url(#a)"/><g transform="matrix(1, 0, 0, 1, -679.68, 2962.19)" filter="url(#b)"><rect width="88.68" height="26.473" rx="5" transform="translate(5 54.88)" fill="#7469ff"/></g><g transform="matrix(1, 0, 0, 1, -679.68, 2962.19)" filter="url(#d)"><rect width="88.68" height="26.473" rx="5" transform="translate(5 87.97)" fill="#968af5"/></g><g transform="matrix(1, 0, 0, 1, -679.68, 2962.19)" filter="url(#f)"><rect width="88.68" height="26.473" rx="5" transform="translate(5 121.06)" fill="#968af5"/></g><g transform="matrix(1, 0, 0, 1, -679.68, 2962.19)" filter="url(#h)"><rect width="88.68" height="26.473" rx="5" transform="translate(5 154.15)" fill="#968af5"/></g><g transform="matrix(1, 0, 0, 1, -679.68, 2962.19)" filter="url(#j)"><rect width="88.68" height="26.473" rx="5" transform="translate(5 187.24)" fill="#968af5"/></g><g transform="matrix(1, 0, 0, 1, -679.68, 2962.19)" filter="url(#l)"><rect width="88.68" height="26.473" rx="5" transform="translate(101.68 54.88)" fill="#7469ff"/></g><g transform="matrix(1, 0, 0, 1, -679.68, 2962.19)" filter="url(#n)"><rect width="88.68" height="26.473" rx="5" transform="translate(101.68 87.97)" fill="#968af5"/></g><g transform="matrix(1, 0, 0, 1, -679.68, 2962.19)" filter="url(#p)"><rect width="88.68" height="26.473" rx="5" transform="translate(101.68 121.06)" fill="#968af5"/></g><g transform="matrix(1, 0, 0, 1, -679.68, 2962.19)" filter="url(#r)"><rect width="88.68" height="26.473" rx="5" transform="translate(101.68 154.15)" fill="#968af5"/></g><g transform="matrix(1, 0, 0, 1, -679.68, 2962.19)" filter="url(#t)"><rect width="88.68" height="26.473" rx="5" transform="translate(101.68 187.24)" fill="#968af5"/></g><g transform="matrix(1, 0, 0, 1, -679.68, 2962.19)" filter="url(#v)"><rect width="88.68" height="26.473" rx="5" transform="translate(198.35 54.88)" fill="#7469ff"/></g><g transform="matrix(1, 0, 0, 1, -679.68, 2962.19)" filter="url(#x)"><rect width="88.68" height="26.473" rx="5" transform="translate(198.35 87.97)" fill="#968af5"/></g><g transform="matrix(1, 0, 0, 1, -679.68, 2962.19)" filter="url(#z)"><rect width="88.68" height="26.473" rx="5" transform="translate(198.35 121.06)" fill="#968af5"/></g><g transform="matrix(1, 0, 0, 1, -679.68, 2962.19)" filter="url(#ab)"><rect width="88.68" height="26.473" rx="5" transform="translate(198.35 154.15)" fill="#f5d4f9"/></g><g transform="matrix(1, 0, 0, 1, -679.68, 2962.19)" filter="url(#ad)"><rect width="88.68" height="26.473" rx="5" transform="translate(198.35 187.24)" fill="#968af5"/></g><g transform="translate(-443.912 3016)"><g transform="matrix(1, 0, 0, 1, -235.77, -53.81)" filter="url(#af)"><path d="M52.477,113.685l3.638-20.409a2.668,2.668,0,0,1,4.513-1.416l16.765,16.765a2.662,2.662,0,0,1-1.422,4.507l-20.4,3.649a2.668,2.668,0,0,1-3.091-3.1Z" transform="translate(183.33 58.25)" fill="#263769"/></g><g transform="matrix(1, 0, 0, 1, -235.77, -53.81)" filter="url(#ah)"><rect width="29.382" height="99.899" rx="0.48" transform="translate(317.89 72.17) rotate(45)" fill="#263769"/></g><g transform="matrix(1, 0, 0, 1, -235.77, -53.81)" filter="url(#aj)"><path d="M8.162,0H21.331a8.1,8.1,0,0,1,8.08,8.1v5.4a3.461,3.461,0,0,1-3.461,3.461H3.461A3.461,3.461,0,0,1,0,13.5V8.1A8.1,8.1,0,0,1,8.162,0Z" transform="translate(336.2 53.81) rotate(45)" fill="#263769"/></g></g></g></svg>