<svg xmlns="http://www.w3.org/2000/svg" xmlns:xlink="http://www.w3.org/1999/xlink" width="1386.252" height="1043.518" viewBox="0 0 1386.252 1043.518"><defs><style>.a,.g,.j,.k,.l,.r{fill:none;}.a,.b,.c,.d,.g,.j,.k,.l,.m,.n,.o{stroke:#2c2c3d;}.a,.g,.j,.k,.l,.m,.n,.o{stroke-linecap:round;}.a,.b,.c,.d,.l{stroke-width:13px;}.b{fill:url(#c);}.c{fill:url(#f);}.d{fill:url(#i);}.e{fill:#2c2c3d;}.f{fill:url(#ad);}.g{stroke-width:15px;}.h{fill:url(#ag);}.i{fill:url(#aj);}.j,.l,.m,.n,.o{stroke-linejoin:round;}.j,.k,.m,.n,.o{stroke-width:12px;}.m{fill:url(#ao);}.n{fill:url(#az);}.o{fill:url(#be);}.p{fill:#fed66b;}.q{stroke:none;}.s{filter:url(#bl);}.t{filter:url(#bj);}.u{filter:url(#bh);}.v{filter:url(#bf);}.w{filter:url(#bc);}.x{filter:url(#ba);}.y{filter:url(#ax);}.z{filter:url(#av);}.aa{filter:url(#at);}.ab{filter:url(#ar);}.ac{filter:url(#ap);}.ad{filter:url(#am);}.ae{filter:url(#ak);}.af{filter:url(#ah);}.ag{filter:url(#ae);}.ah{filter:url(#ab);}.ai{filter:url(#z);}.aj{filter:url(#x);}.ak{filter:url(#v);}.al{filter:url(#t);}.am{filter:url(#r);}.an{filter:url(#p);}.ao{filter:url(#n);}.ap{filter:url(#l);}.aq{filter:url(#j);}.ar{filter:url(#g);}.as{filter:url(#d);}.at{filter:url(#a);}</style><filter id="a" x="10.733" y="529" width="1295" height="31" filterUnits="userSpaceOnUse"><feOffset dy="3" input="SourceAlpha"/><feGaussianBlur stdDeviation="3" result="b"/><feFlood flood-opacity="0.161"/><feComposite operator="in" in2="b"/><feComposite in="SourceGraphic"/></filter><linearGradient id="c" x1="0.659" y1="0.649" x2="0.408" y2="0.381" gradientUnits="objectBoundingBox"><stop offset="0" stop-color="#fed66b"/><stop offset="1" stop-color="#fedf84"/></linearGradient><filter id="d" x="1135.233" y="497" width="94" height="94" filterUnits="userSpaceOnUse"><feOffset dy="3" input="SourceAlpha"/><feGaussianBlur stdDeviation="3" result="e"/><feFlood flood-opacity="0.161"/><feComposite operator="in" in2="e"/><feComposite in="SourceGraphic"/></filter><linearGradient id="f" x1="0.63" y1="0.627" x2="0.423" y2="0.422" gradientUnits="objectBoundingBox"><stop offset="0" stop-color="#fed66b"/><stop offset="1" stop-color="#fedd7e"/></linearGradient><filter id="g" x="594.233" y="497" width="94" height="94" filterUnits="userSpaceOnUse"><feOffset dy="3" input="SourceAlpha"/><feGaussianBlur stdDeviation="3" result="h"/><feFlood flood-opacity="0.161"/><feComposite operator="in" in2="h"/><feComposite in="SourceGraphic"/></filter><linearGradient id="i" x1="0.625" y1="0.605" x2="0.325" y2="0.362" xlink:href="#c"/><filter id="j" x="87.233" y="496" width="94" height="94" filterUnits="userSpaceOnUse"><feOffset dy="3" input="SourceAlpha"/><feGaussianBlur stdDeviation="3" result="k"/><feFlood flood-opacity="0.161"/><feComposite operator="in" in2="k"/><feComposite in="SourceGraphic"/></filter><filter id="l" x="865.867" y="453.234" width="31" height="106.766" filterUnits="userSpaceOnUse"><feOffset dy="3" input="SourceAlpha"/><feGaussianBlur stdDeviation="3" result="m"/><feFlood flood-opacity="0.161"/><feComposite operator="in" in2="m"/><feComposite in="SourceGraphic"/></filter><filter id="n" x="625.165" y="267.249" width="31" height="254.102" filterUnits="userSpaceOnUse"><feOffset dy="3" input="SourceAlpha"/><feGaussianBlur stdDeviation="3" result="o"/><feFlood flood-opacity="0.161"/><feComposite operator="in" in2="o"/><feComposite in="SourceGraphic"/></filter><filter id="p" x="1166.233" y="329" width="31" height="193" filterUnits="userSpaceOnUse"><feOffset dy="3" input="SourceAlpha"/><feGaussianBlur stdDeviation="3" result="q"/><feFlood flood-opacity="0.161"/><feComposite operator="in" in2="q"/><feComposite in="SourceGraphic"/></filter><filter id="r" x="119.233" y="353" width="31" height="168" filterUnits="userSpaceOnUse"><feOffset dy="3" input="SourceAlpha"/><feGaussianBlur stdDeviation="3" result="s"/><feFlood flood-opacity="0.161"/><feComposite operator="in" in2="s"/><feComposite in="SourceGraphic"/></filter><filter id="t" x="384.867" y="452.234" width="31" height="106.766" filterUnits="userSpaceOnUse"><feOffset dy="3" input="SourceAlpha"/><feGaussianBlur stdDeviation="3" result="u"/><feFlood flood-opacity="0.161"/><feComposite operator="in" in2="u"/><feComposite in="SourceGraphic"/></filter><filter id="v" x="534.233" y="0" width="213" height="83" filterUnits="userSpaceOnUse"><feOffset dy="3" input="SourceAlpha"/><feGaussianBlur stdDeviation="3" result="w"/><feFlood flood-opacity="0.161"/><feComposite operator="in" in2="w"/><feComposite in="SourceGraphic"/></filter><filter id="x" x="530.933" y="42.726" width="219.734" height="102.338" filterUnits="userSpaceOnUse"><feOffset dy="3" input="SourceAlpha"/><feGaussianBlur stdDeviation="3" result="y"/><feFlood flood-opacity="0.161"/><feComposite operator="in" in2="y"/><feComposite in="SourceGraphic"/></filter><filter id="z" x="530.933" y="167.726" width="219.734" height="102.338" filterUnits="userSpaceOnUse"><feOffset dy="3" input="SourceAlpha"/><feGaussianBlur stdDeviation="3" result="aa"/><feFlood flood-opacity="0.161"/><feComposite operator="in" in2="aa"/><feComposite in="SourceGraphic"/></filter><filter id="ab" x="531.087" y="105.309" width="219.497" height="101.755" filterUnits="userSpaceOnUse"><feOffset dy="3" input="SourceAlpha"/><feGaussianBlur stdDeviation="3" result="ac"/><feFlood flood-opacity="0.161"/><feComposite operator="in" in2="ac"/><feComposite in="SourceGraphic"/></filter><linearGradient id="ad" x1="0.898" y1="0.93" x2="0.153" y2="0.122" xlink:href="#c"/><filter id="ae" x="301.233" y="287" width="198" height="168" filterUnits="userSpaceOnUse"><feOffset dy="3" input="SourceAlpha"/><feGaussianBlur stdDeviation="3" result="af"/><feFlood flood-opacity="0.161"/><feComposite operator="in" in2="af"/><feComposite in="SourceGraphic"/></filter><linearGradient id="ag" x1="0.228" y1="0.244" x2="0.956" y2="0.874" gradientUnits="objectBoundingBox"><stop offset="0" stop-color="#fedf84"/><stop offset="1" stop-color="#fed66b"/></linearGradient><filter id="ah" x="782.233" y="330" width="198" height="126" filterUnits="userSpaceOnUse"><feOffset dy="3" input="SourceAlpha"/><feGaussianBlur stdDeviation="3" result="ai"/><feFlood flood-opacity="0.161"/><feComposite operator="in" in2="ai"/><feComposite in="SourceGraphic"/></filter><linearGradient id="aj" x1="0.319" y1="0.317" x2="0.956" y2="0.874" xlink:href="#ag"/><filter id="ak" x="782.233" y="288" width="198" height="52" filterUnits="userSpaceOnUse"><feOffset dy="3" input="SourceAlpha"/><feGaussianBlur stdDeviation="3" result="al"/><feFlood flood-opacity="0.161"/><feComposite operator="in" in2="al"/><feComposite in="SourceGraphic"/></filter><filter id="am" x="0" y="161.802" width="269.813" height="193.94" filterUnits="userSpaceOnUse"><feOffset dy="3" input="SourceAlpha"/><feGaussianBlur stdDeviation="3" result="an"/><feFlood flood-opacity="0.161"/><feComposite operator="in" in2="an"/><feComposite in="SourceGraphic"/></filter><linearGradient id="ao" x1="0.504" y1="0.786" x2="0.498" y2="0.281" xlink:href="#ag"/><filter id="ap" x="975.916" y="228.169" width="160.337" height="178.827" filterUnits="userSpaceOnUse"><feOffset dy="3" input="SourceAlpha"/><feGaussianBlur stdDeviation="3" result="aq"/><feFlood flood-opacity="0.161"/><feComposite operator="in" in2="aq"/><feComposite in="SourceGraphic"/></filter><filter id="ar" x="1038.025" y="228.168" width="160.226" height="178.644" filterUnits="userSpaceOnUse"><feOffset dy="3" input="SourceAlpha"/><feGaussianBlur stdDeviation="3" result="as"/><feFlood flood-opacity="0.161"/><feComposite operator="in" in2="as"/><feComposite in="SourceGraphic"/></filter><filter id="at" x="1010.045" y="210.532" width="153.888" height="104.771" filterUnits="userSpaceOnUse"><feOffset dy="3" input="SourceAlpha"/><feGaussianBlur stdDeviation="3" result="au"/><feFlood flood-opacity="0.161"/><feComposite operator="in" in2="au"/><feComposite in="SourceGraphic"/></filter><filter id="av" x="1069.916" y="172.169" width="160.337" height="178.827" filterUnits="userSpaceOnUse"><feOffset dy="3" input="SourceAlpha"/><feGaussianBlur stdDeviation="3" result="aw"/><feFlood flood-opacity="0.161"/><feComposite operator="in" in2="aw"/><feComposite in="SourceGraphic"/></filter><filter id="ax" x="1132.026" y="172.168" width="160.226" height="178.644" filterUnits="userSpaceOnUse"><feOffset dy="3" input="SourceAlpha"/><feGaussianBlur stdDeviation="3" result="ay"/><feFlood flood-opacity="0.161"/><feComposite operator="in" in2="ay"/><feComposite in="SourceGraphic"/></filter><linearGradient id="az" x1="0.5" y1="0.23" x2="0.5" y2="0.749" xlink:href="#ag"/><filter id="ba" x="1104.045" y="154.532" width="153.888" height="104.771" filterUnits="userSpaceOnUse"><feOffset dy="3" input="SourceAlpha"/><feGaussianBlur stdDeviation="3" result="bb"/><feFlood flood-opacity="0.161"/><feComposite operator="in" in2="bb"/><feComposite in="SourceGraphic"/></filter><filter id="bc" x="1163.916" y="228.169" width="160.337" height="178.827" filterUnits="userSpaceOnUse"><feOffset dy="3" input="SourceAlpha"/><feGaussianBlur stdDeviation="3" result="bd"/><feFlood flood-opacity="0.161"/><feComposite operator="in" in2="bd"/><feComposite in="SourceGraphic"/></filter><linearGradient id="be" x1="0.503" y1="0.782" x2="0.502" y2="0.393" xlink:href="#c"/><filter id="bf" x="1226.026" y="228.168" width="160.226" height="178.644" filterUnits="userSpaceOnUse"><feOffset dy="3" input="SourceAlpha"/><feGaussianBlur stdDeviation="3" result="bg"/><feFlood flood-opacity="0.161"/><feComposite operator="in" in2="bg"/><feComposite in="SourceGraphic"/></filter><filter id="bh" x="1198.045" y="210.532" width="153.888" height="104.771" filterUnits="userSpaceOnUse"><feOffset dy="3" input="SourceAlpha"/><feGaussianBlur stdDeviation="3" result="bi"/><feFlood flood-opacity="0.161"/><feComposite operator="in" in2="bi"/><feComposite in="SourceGraphic"/></filter><filter id="bj" x="30.133" y="704.882" width="934.419" height="338.636" filterUnits="userSpaceOnUse"><feOffset dy="3" input="SourceAlpha"/><feGaussianBlur stdDeviation="3" result="bk"/><feFlood flood-opacity="0.278"/><feComposite operator="in" in2="bk"/><feComposite in="SourceGraphic"/></filter><filter id="bl" x="992.833" y="693.94" width="361.592" height="349.559" filterUnits="userSpaceOnUse"><feOffset dy="3" input="SourceAlpha"/><feGaussianBlur stdDeviation="3" result="bm"/><feFlood flood-opacity="0.278"/><feComposite operator="in" in2="bm"/><feComposite in="SourceGraphic"/></filter></defs><g transform="translate(-589.767 -604)"><g transform="translate(-2 7)"><g class="at" transform="matrix(1, 0, 0, 1, 591.77, 597)"><path class="a" d="M0,0H1264" transform="translate(26.23 541.5)"/></g><g class="as" transform="matrix(1, 0, 0, 1, 591.77, 597)"><g class="b" transform="translate(1144.23 503)"><circle class="q" cx="38" cy="38" r="38"/><circle class="r" cx="38" cy="38" r="31.5"/></g></g><g class="ar" transform="matrix(1, 0, 0, 1, 591.77, 597)"><g class="c" transform="translate(603.23 503)"><circle class="q" cx="38" cy="38" r="38"/><circle class="r" cx="38" cy="38" r="31.5"/></g></g><g class="aq" transform="matrix(1, 0, 0, 1, 591.77, 597)"><g class="d" transform="translate(96.23 502)"><circle class="q" cx="38" cy="38" r="38"/><circle class="r" cx="38" cy="38" r="31.5"/></g></g><g class="ap" transform="matrix(1, 0, 0, 1, 591.77, 597)"><path class="a" d="M7121.134,1437.056v75.766" transform="translate(-6239.77 -971.32)"/></g><g class="ao" transform="matrix(1, 0, 0, 1, 591.77, 597)"><path class="a" d="M6811.432,1480.652v-223.1" transform="translate(-6170.77 -977.8)"/></g><g class="an" transform="matrix(1, 0, 0, 1, 591.77, 597)"><line class="a" y1="162" transform="translate(1181.73 341.5)"/></g><g class="am" transform="matrix(1, 0, 0, 1, 591.77, 597)"><line class="a" y1="137" transform="translate(134.73 365.5)"/></g><g class="al" transform="matrix(1, 0, 0, 1, 591.77, 597)"><path class="a" d="M7121.134,1437.056v75.766" transform="translate(-6720.77 -972.32)"/></g><g transform="translate(-56 290)"><g class="ak" transform="matrix(1, 0, 0, 1, 647.77, 307)"><ellipse class="e" cx="97.5" cy="32.5" rx="97.5" ry="32.5" transform="translate(543.23 6)"/></g><g class="aj" transform="matrix(1, 0, 0, 1, 647.77, 307)"><path class="e" d="M.841-1.274C7.868,17.341,49.51,30.741,99.76,30.741S186.812,20.9,199.4.186c3.285,9.034,1.6,32.241,1.6,48.545-21.488,23.451-50,34.333-100.25,34.333S15.561,71.637,0,47C0,35.121-1.075,6.847.841-1.274Z" transform="translate(540.23 50)"/></g><g class="ai" transform="matrix(1, 0, 0, 1, 647.77, 307)"><path class="e" d="M.841-1.274C12.126,15.508,49.51,30.741,99.76,30.741S182.221,19.826,199.4.186c3.285,9.034,1.6,32.241,1.6,48.545-21.488,23.451-50,34.333-100.25,34.333S15.561,71.637,0,47C0,35.121-1.075,6.847.841-1.274Z" transform="translate(540.23 175)"/></g><g class="ah" transform="matrix(1, 0, 0, 1, 647.77, 307)"><path class="e" d="M2.125-.677C14.907,15.615,49.51,30.741,99.76,30.741s83.83-12.269,98.921-31.431c4,8.984,2.319,33.118,2.319,49.422-21.488,23.451-50,34.333-100.25,34.333S15.561,71.637,0,47C0,35.121-.977,6.715,2.125-.677Z" transform="translate(540.23 112)"/></g></g><g transform="translate(-1270 300.884)"><g class="ag" transform="matrix(1, 0, 0, 1, 1861.77, 296.12)"><rect class="f" width="180" height="150" rx="20" transform="translate(310.23 293)"/></g><g transform="translate(-10 5)"><line class="g" y2="69" transform="translate(2219.5 624.616)"/><line class="g" y2="40.215" transform="translate(2260.067 651.616)"/><line class="g" y2="48.277" transform="translate(2300.722 641.095)"/><line class="g" x2="105.481" transform="translate(2220.019 694.184)"/></g></g><g transform="translate(-55 -18.05)"><g class="af" transform="matrix(1, 0, 0, 1, 646.77, 615.05)"><path class="h" d="M0,0H180a0,0,0,0,1,0,0V88a20,20,0,0,1-20,20H20A20,20,0,0,1,0,88V0A0,0,0,0,1,0,0Z" transform="translate(791.23 336)"/></g><g class="ae" transform="matrix(1, 0, 0, 1, 646.77, 615.05)"><path class="i" d="M20,0H160a20,20,0,0,1,20,20V34a0,0,0,0,1,0,0H0a0,0,0,0,1,0,0V20A20,20,0,0,1,20,0Z" transform="translate(791.23 294)"/></g><path class="j" d="M7651.432,992.771l-34.668,22.433,34.668,21.54" transform="translate(-6157.182 -8.903)"/><path class="k" d="M7683.552,977.73l-26.384,72.141" transform="translate(-6143.434 -8.361)"/><path class="j" d="M7616.763,992.771l34.668,22.433-34.668,21.54" transform="translate(-6055.86 -8.809)"/><circle class="e" cx="6" cy="6" r="6" transform="translate(1453 920.05)"/><circle class="e" cx="6" cy="6" r="6" transform="translate(1475 920.05)"/></g><g class="ad" transform="matrix(1, 0, 0, 1, 591.77, 597)"><path class="l" d="M8106.57,242.568c0-33.51-35.629-69.152-73.487-67.02s-64.079,28.219-69.958,74.074c-31.158-1.764-49.969,18.225-48.795,38.8s9.39,49.971,48.795,49.971H8106.57c24.72,0,45.268-20.135,46.444-42.328s-17.041-46.443-37.625-46.443-51.147,11.164-51.147,41.74" transform="translate(-7898.77 -1.15)"/></g><g transform="translate(7 32)"><g class="ac" transform="matrix(1, 0, 0, 1, 584.77, 565)"><path class="m" d="M13041.368,492.46l61.668,37.054,63.82-34.279L13105,458.07Z" transform="translate(7381.94 11801.32) rotate(-121)"/></g><g class="ab" transform="matrix(1, 0, 0, 1, 584.77, 565)"><path class="j" d="M.214,37.3,61.668,0l63.82,34.278L63.635,71.443Z" transform="translate(1055.15 349.97) rotate(-59)"/></g><g class="aa" transform="matrix(1, 0, 0, 1, 584.77, 565)"><path class="j" d="M-.105,37.426,61.668,0l62.115,37.426L61.668,74.771Z" transform="translate(1148.83 297.3) rotate(-180)"/></g><g class="z" transform="matrix(1, 0, 0, 1, 584.77, 565)"><path class="j" d="M13041.368,492.46l61.668,37.054,63.82-34.279L13105,458.07Z" transform="translate(7475.94 11745.32) rotate(-121)"/></g><g class="y" transform="matrix(1, 0, 0, 1, 584.77, 565)"><path class="j" d="M.214,37.3,61.668,0l63.82,34.278L63.635,71.443Z" transform="translate(1149.15 293.97) rotate(-59)"/></g><g class="x" transform="matrix(1, 0, 0, 1, 584.77, 565)"><path class="n" d="M-.105,37.426,61.668,0l62.115,37.426L61.668,74.771Z" transform="translate(1242.83 241.3) rotate(-180)"/></g><g class="w" transform="matrix(1, 0, 0, 1, 584.77, 565)"><path class="j" d="M13041.368,492.46l61.668,37.054,63.82-34.279L13105,458.07Z" transform="translate(7569.94 11801.32) rotate(-121)"/></g><g class="v" transform="matrix(1, 0, 0, 1, 584.77, 565)"><path class="o" d="M.214,37.3,61.668,0l63.82,34.278L63.635,71.443Z" transform="translate(1243.15 349.97) rotate(-59)"/></g><g class="u" transform="matrix(1, 0, 0, 1, 584.77, 565)"><path class="j" d="M-.105,37.426,61.668,0l62.115,37.426L61.668,74.771Z" transform="translate(1336.83 297.3) rotate(-180)"/></g></g></g><g class="t" transform="matrix(1, 0, 0, 1, 589.77, 604)"><path class="e" d="M191.731-320.6H146.024L60.3-97.4H283.088Zm-23.825,37.823,56.2,151.119H115.4ZM22.9,0H67.96L87.88-54.964H44ZM300.457-54.964h-47L274.613,0h48.335ZM595.15-141.5q-15.626-20.568-44.717-29.081,22.511-11.17,33.671-29.291a72.646,72.646,0,0,0,11.16-38.718q0-22.054-12.589-42.317A75.821,75.821,0,0,0,547.9-310.867q-22.2-9.741-58.943-9.732H368.69v172.545H485.262q30.624,0,46.907,5.352A48.607,48.607,0,0,1,557.651-124.1q9.17,13.227,9.18,31.176,0,15.283-6.342,27.005c-4.228,7.789-9.618,13.75-16.188,17.826-6.551,4.095-14.722,6.989-24.491,8.742Q511.5-37.8,490.938-37.8H411.122v-67.818H368.69V.018H490.938q30.624,0,51.725-5.352t35.1-15.864q14-10.484,23.5-29.843a93.575,93.575,0,0,0,9.522-41.86q0-28.081-15.636-48.6Zm-49.859-64.066q-8.2,11.17-24.377,15.959-12.255,3.742-40.47,3.714H411.122v-96.88h64.085q34.537,0,48.773,4.475a38.709,38.709,0,0,1,21.863,16.626q7.656,12.141,7.656,28.11,0,16.826-8.208,28ZM699.223,0V-100.233H656.791V0ZM883.575-87.264q-16.626-25.6-35.214-42.641-8.77-7.856-25.6-15.959Q868.9-152.206,891-175.612q22.082-23.4,22.092-57.534a90.958,90.958,0,0,0-13.35-48.316q-13.341-21.882-35.652-30.529-22.311-8.627-65.171-8.627H656.772v177.934l83.416.286h8.227q16.4,0,23.615,1.524a64.09,64.09,0,0,1,19.349,8.532q9.513,6.142,21.539,21.425,12.027,15.312,30.6,44.184L885.956-.039h53.363ZM790.408-179.1H699.223V-285.176h101.47q35.652,0,52.163,14.645,16.512,14.683,16.512,37.4a51.959,51.959,0,0,1-8.532,28.757q-8.513,13.255-24.93,19.254T790.408-179.1Z" transform="translate(16.23 1031.5)"/></g><g class="s" transform="matrix(1, 0, 0, 1, 589.77, 604)"><path class="p" d="M-366.4-320.6V0h42.413V-320.6Zm159.164,40.537q17.594-14.118,56.087-14.116,36.94,0,55.876,15.522c11.409,9.371,18.32,23.005,21.2,40.51h41.444c-1.085-17.825-6.156-33.92-15.522-48.145q-14.661-22.314-41.88-33.787-27.226-11.452-62.87-11.482a160.9,160.9,0,0,0-40.048,4.873,33.641,33.641,0,0,0-18.531,12.416,39.216,39.216,0,0,0-7.96,23.807,37.7,37.7,0,0,0,4.36,18,55.1,55.1,0,0,1,7.846-7.6ZM-36.118-141.646q-13.341-19.772-41.33-32.7c-9.389-4.269-24.718-9.087-45.727-14.4-1.292-.321-2.624-.646-3.98-.989-6.609-1.64-13.557-3.311-21.251-5.047-13.484-3.046-24.892-6.073-34.359-9.064-13.671-4.04-24.549-7.96-31.881-11.711q-24.65-12.455-36.736-30.874a71.609,71.609,0,0,1-9.806-23.138,79.772,79.772,0,0,0-4.553,26.34,73.226,73.226,0,0,0,11.253,39.915q11.26,17.828,34.226,29.843,17.711,9.4,61.894,20.019,44.167,10.621,57.076,15.632,20.115,7.66,28.872,18.915a41.591,41.591,0,0,1,8.743,26.358A45.866,45.866,0,0,1-72.762-65.1q-9.082,12.565-27.672,19.786T-143.3-38.1q-27.336,0-49.194-9.522t-32.262-24.929c-6.4-9.5-10.548-21.558-12.645-35.958h-40.6q.859,32.138,17.6,57.612,16.715,25.481,46.148,38.165Q-184.872-.05-141.32-.05q34.336,0,61.78-12.568,27.425-12.572,42.09-35.216t14.642-48.223Q-22.781-121.819-36.118-141.646Z" transform="translate(1368.23 1031.5)"/></g></g></svg>