<svg xmlns="http://www.w3.org/2000/svg" xmlns:xlink="http://www.w3.org/1999/xlink" width="352" height="288.991" viewBox="0 0 352 288.991"><defs><linearGradient id="a" x1="-0.03" y1="0.881" x2="0.938" y2="0.066" gradientUnits="objectBoundingBox"><stop offset="0" stop-color="#7469ff"/><stop offset="1" stop-color="#f4d4f9"/><stop offset="1" stop-color="#ba83c4" stop-opacity="0"/></linearGradient><filter id="b" x="21.721" y="43.294" width="105.661" height="33.496" filterUnits="userSpaceOnUse"><feOffset dx="1" dy="1" input="SourceAlpha"/><feGaussianBlur stdDeviation="2" result="c"/><feFlood flood-opacity="0.09"/><feComposite operator="in" in2="c"/><feComposite in="SourceGraphic"/></filter><filter id="d" x="21.721" y="70.165" width="105.661" height="33.496" filterUnits="userSpaceOnUse"><feOffset dx="1" dy="1" input="SourceAlpha"/><feGaussianBlur stdDeviation="2" result="e"/><feFlood flood-opacity="0.09"/><feComposite operator="in" in2="e"/><feComposite in="SourceGraphic"/></filter><filter id="f" x="21.721" y="97.034" width="105.661" height="33.496" filterUnits="userSpaceOnUse"><feOffset dx="1" dy="1" input="SourceAlpha"/><feGaussianBlur stdDeviation="2" result="g"/><feFlood flood-opacity="0.09"/><feComposite operator="in" in2="g"/><feComposite in="SourceGraphic"/></filter><filter id="h" x="21.721" y="123.904" width="105.661" height="33.496" filterUnits="userSpaceOnUse"><feOffset dx="1" dy="1" input="SourceAlpha"/><feGaussianBlur stdDeviation="2" result="i"/><feFlood flood-opacity="0.09"/><feComposite operator="in" in2="i"/><feComposite in="SourceGraphic"/></filter><filter id="j" x="21.721" y="150.774" width="105.661" height="33.496" filterUnits="userSpaceOnUse"><feOffset dx="1" dy="1" input="SourceAlpha"/><feGaussianBlur stdDeviation="2" result="k"/><feFlood flood-opacity="0.09"/><feComposite operator="in" in2="k"/><feComposite in="SourceGraphic"/></filter><filter id="l" x="123.826" y="43.294" width="105.661" height="33.496" filterUnits="userSpaceOnUse"><feOffset dx="1" dy="1" input="SourceAlpha"/><feGaussianBlur stdDeviation="2" result="m"/><feFlood flood-opacity="0.09"/><feComposite operator="in" in2="m"/><feComposite in="SourceGraphic"/></filter><filter id="n" x="123.826" y="70.165" width="105.661" height="33.496" filterUnits="userSpaceOnUse"><feOffset dx="1" dy="1" input="SourceAlpha"/><feGaussianBlur stdDeviation="2" result="o"/><feFlood flood-opacity="0.09"/><feComposite operator="in" in2="o"/><feComposite in="SourceGraphic"/></filter><filter id="p" x="123.826" y="97.034" width="105.661" height="33.496" filterUnits="userSpaceOnUse"><feOffset dx="1" dy="1" input="SourceAlpha"/><feGaussianBlur stdDeviation="2" result="q"/><feFlood flood-opacity="0.09"/><feComposite operator="in" in2="q"/><feComposite in="SourceGraphic"/></filter><filter id="r" x="123.826" y="123.904" width="105.661" height="33.496" filterUnits="userSpaceOnUse"><feOffset dx="1" dy="1" input="SourceAlpha"/><feGaussianBlur stdDeviation="2" result="s"/><feFlood flood-opacity="0.09"/><feComposite operator="in" in2="s"/><feComposite in="SourceGraphic"/></filter><filter id="t" x="123.826" y="150.774" width="105.661" height="33.496" filterUnits="userSpaceOnUse"><feOffset dx="1" dy="1" input="SourceAlpha"/><feGaussianBlur stdDeviation="2" result="u"/><feFlood flood-opacity="0.09"/><feComposite operator="in" in2="u"/><feComposite in="SourceGraphic"/></filter><filter id="v" x="225.932" y="43.294" width="105.661" height="33.496" filterUnits="userSpaceOnUse"><feOffset dx="1" dy="1" input="SourceAlpha"/><feGaussianBlur stdDeviation="2" result="w"/><feFlood flood-opacity="0.09"/><feComposite operator="in" in2="w"/><feComposite in="SourceGraphic"/></filter><filter id="x" x="225.932" y="70.165" width="105.661" height="33.496" filterUnits="userSpaceOnUse"><feOffset dx="1" dy="1" input="SourceAlpha"/><feGaussianBlur stdDeviation="2" result="y"/><feFlood flood-opacity="0.09"/><feComposite operator="in" in2="y"/><feComposite in="SourceGraphic"/></filter><filter id="z" x="225.932" y="97.034" width="105.661" height="33.496" filterUnits="userSpaceOnUse"><feOffset dx="1" dy="1" input="SourceAlpha"/><feGaussianBlur stdDeviation="2" result="aa"/><feFlood flood-opacity="0.09"/><feComposite operator="in" in2="aa"/><feComposite in="SourceGraphic"/></filter><filter id="ab" x="225.932" y="123.904" width="105.661" height="33.496" filterUnits="userSpaceOnUse"><feOffset dx="1" dy="1" input="SourceAlpha"/><feGaussianBlur stdDeviation="2" result="ac"/><feFlood flood-opacity="0.09"/><feComposite operator="in" in2="ac"/><feComposite in="SourceGraphic"/></filter><filter id="ad" x="225.932" y="150.774" width="105.661" height="33.496" filterUnits="userSpaceOnUse"><feOffset dx="1" dy="1" input="SourceAlpha"/><feGaussianBlur stdDeviation="2" result="ae"/><feFlood flood-opacity="0.09"/><feComposite operator="in" in2="ae"/><feComposite in="SourceGraphic"/></filter></defs><g transform="translate(3.806 -163.593)"><path d="M303,255.591c26.353-22.1,34.777-58.318,40.393-93.635,5.616-35.5,8.208-69.91-9.72-92.911-18.144-22.82-56.809-34.23-95.69-46.727C199.1,10,160.219-3.763,122.418.946c-37.585,4.89-81.2,14.891-103.444,45.68S-4.376,128.993,7.5,160.688c12.1,31.695,44.281,56.688,77.762,77.516,33.481,21.009,68.258,37.853,107.786,42.38C232.581,285.293,276.646,277.506,303,255.591Z" transform="translate(348.194 445.498) rotate(-180)" opacity="0.61" fill="url(#a)"/><path d="M581.475,555.885s23.877-12.256,50.5-17.653a200.546,200.546,0,0,0,26.948-7.123c4.891-1.645,13.917-1.312,19.138-2.27,10.5-1.927,14.772-3.474,19.133-1.125s3.86,7.316-1.688,10.519c-7.754,4.477-22.669,4.611-25.745,6.926s-6.2-1.662,1.834,1.738c35.844,10.8,55.509-3.47,67.968,8.989s18.471,53.351-52.235,57.279S577.056,604,577.056,604Z" transform="translate(-402.647 -178.426)" fill="#fbbebe"/><path d="M322.761,566.639s21.9-1.386,20.923,6.47-1.964,68.742-7.856,70.215-52.539,1.473-71.689,1.473H161.913c-15.311,0-5.8-94.134-5.8-94.134s76.6-4.56,114.9,14.589C271.014,565.253,317.06,564.588,322.761,566.639Z" transform="translate(-157 -192.214)" fill="#6c63ff"/><g transform="matrix(1, 0, 0, 1, -3.81, 163.59)" filter="url(#b)"><rect width="93.661" height="21.496" rx="5" transform="translate(26.72 48.29)" fill="#7469ff"/></g><g transform="matrix(1, 0, 0, 1, -3.81, 163.59)" filter="url(#d)"><rect width="93.661" height="21.496" rx="5" transform="translate(26.72 75.16)" fill="#968af5"/></g><g transform="matrix(1, 0, 0, 1, -3.81, 163.59)" filter="url(#f)"><rect width="93.661" height="21.496" rx="5" transform="translate(26.72 102.03)" fill="#968af5"/></g><g transform="matrix(1, 0, 0, 1, -3.81, 163.59)" filter="url(#h)"><rect width="93.661" height="21.496" rx="5" transform="translate(26.72 128.9)" fill="#968af5"/></g><g transform="matrix(1, 0, 0, 1, -3.81, 163.59)" filter="url(#j)"><rect width="93.661" height="21.496" rx="5" transform="translate(26.72 155.77)" fill="#968af5"/></g><g transform="matrix(1, 0, 0, 1, -3.81, 163.59)" filter="url(#l)"><rect width="93.661" height="21.496" rx="5" transform="translate(128.83 48.29)" fill="#7469ff"/></g><g transform="matrix(1, 0, 0, 1, -3.81, 163.59)" filter="url(#n)"><rect width="93.661" height="21.496" rx="5" transform="translate(128.83 75.16)" fill="#968af5"/></g><g transform="matrix(1, 0, 0, 1, -3.81, 163.59)" filter="url(#p)"><rect width="93.661" height="21.496" rx="5" transform="translate(128.83 102.03)" fill="#968af5"/></g><g transform="matrix(1, 0, 0, 1, -3.81, 163.59)" filter="url(#r)"><rect width="93.661" height="21.496" rx="5" transform="translate(128.83 128.9)" fill="#968af5"/></g><g transform="matrix(1, 0, 0, 1, -3.81, 163.59)" filter="url(#t)"><rect width="93.661" height="21.496" rx="5" transform="translate(128.83 155.77)" fill="#968af5"/></g><g transform="matrix(1, 0, 0, 1, -3.81, 163.59)" filter="url(#v)"><rect width="93.661" height="21.496" rx="5" transform="translate(230.93 48.29)" fill="#7469ff"/></g><g transform="matrix(1, 0, 0, 1, -3.81, 163.59)" filter="url(#x)"><rect width="93.661" height="21.496" rx="5" transform="translate(230.93 75.16)" fill="#968af5"/></g><g transform="matrix(1, 0, 0, 1, -3.81, 163.59)" filter="url(#z)"><rect width="93.661" height="21.496" rx="5" transform="translate(230.93 102.03)" fill="#968af5"/></g><g transform="matrix(1, 0, 0, 1, -3.81, 163.59)" filter="url(#ab)"><rect width="93.661" height="21.496" rx="5" transform="translate(230.93 128.9)" fill="#968af5"/></g><g transform="matrix(1, 0, 0, 1, -3.81, 163.59)" filter="url(#ad)"><rect width="93.661" height="21.496" rx="5" transform="translate(230.93 155.77)" fill="#968af5"/></g></g></svg>