<svg xmlns="http://www.w3.org/2000/svg" xmlns:xlink="http://www.w3.org/1999/xlink" width="363.315" height="299.535" viewBox="0 0 363.315 299.535"><defs><linearGradient id="a" x1="1.03" y1="0.881" x2="0.062" y2="0.066" gradientUnits="objectBoundingBox"><stop offset="0" stop-color="#7469ff"/><stop offset="1" stop-color="#f4d4f9"/><stop offset="1" stop-color="#ba83c4" stop-opacity="0"/></linearGradient><filter id="b" x="58.301" y="180.131" width="121.237" height="119.403" filterUnits="userSpaceOnUse"><feOffset dx="3" dy="3" input="SourceAlpha"/><feGaussianBlur stdDeviation="4" result="c"/><feFlood flood-opacity="0.161"/><feComposite operator="in" in2="c"/><feComposite in="SourceGraphic"/></filter><filter id="d" x="119.419" y="0" width="137.39" height="136.319" filterUnits="userSpaceOnUse"><feOffset dx="3" dy="3" input="SourceAlpha"/><feGaussianBlur stdDeviation="4" result="e"/><feFlood flood-opacity="0.161"/><feComposite operator="in" in2="e"/><feComposite in="SourceGraphic"/></filter></defs><g transform="translate(576.815 -2260.684)"><path d="M-43.864,145.872c-25.1-19.494-33.123-51.453-38.472-82.612-5.349-31.319-7.818-61.679,9.258-81.973,17.282-20.134,54.108-30.2,91.14-41.226C55.094-70.8,92.126-82.948,128.13-78.794c35.8,4.314,70.567,24.767,91.757,51.932s29.008,61.04,17.693,89c-11.521,27.963-42.176,50.014-74.064,68.39-31.889,18.536-65.012,33.4-102.661,37.391C23.205,172.077-18.764,165.206-43.864,145.872Z" transform="translate(-490.498 2370.612)" opacity="0.61" fill="url(#a)"/><path d="M0,82.218a7.973,7.973,0,0,1-5.534-2.224,8,8,0,0,1-.241-11.311C36.414,24.66,43.359-1.679,43.424-1.94a8,8,0,0,1,9.7-5.821,8,8,0,0,1,5.821,9.7c-.308,1.234-8.072,30.754-53.171,77.813A7.977,7.977,0,0,1,0,82.218Z" transform="translate(-224.815 2413.621) rotate(135)" fill="#7469ff"/><path d="M.281,64.944a8,8,0,0,1-8-7.887C-8.35,12.193-7.731.064-7.7-.431A8,8,0,0,1,.707-7.985,8,8,0,0,1,8.272.423c-.006.119-.612,12.394.01,56.407A8,8,0,0,1,.4,64.943Z" transform="translate(-290.893 2459.341) rotate(135)" fill="#7469ff"/><path d="M10.226,84.459A8,8,0,0,1,2.3,77.438C-3.7,28.849-7.867,1.48-7.908,1.209a8,8,0,0,1,6.7-9.117,8,8,0,0,1,9.117,6.7c.042.273,4.246,27.872,10.268,76.688a8,8,0,0,1-6.96,8.919A8.083,8.083,0,0,1,10.226,84.459Z" transform="translate(-320.049 2487.592) rotate(135)" fill="#7469ff"/><path d="M32.622,58.866A7.984,7.984,0,0,1,26.4,55.9C-3.713,18.662-7.506,3.233-7.839,1.6A8,8,0,0,1-1.6-7.839,8,8,0,0,1,7.839-1.6c-.008-.058,3.685,13.656,31,47.431a8,8,0,0,1-6.216,13.031Z" transform="translate(-328.654 2517.46) rotate(135)" fill="#7469ff"/><g transform="translate(-407.15 2387.484) rotate(120)"><path d="M0,24.444a8,8,0,0,1-8-8V0A8,8,0,0,1,0-8,8,8,0,0,1,8,0V16.444A8,8,0,0,1,0,24.444Z" transform="translate(30.244 0)" fill="#7469ff"/><path d="M0,24.444a8,8,0,0,1-8-8V0A8,8,0,0,1,0-8,8,8,0,0,1,8,0V16.444A8,8,0,0,1,0,24.444Z" transform="translate(30.244 44.26)" fill="#7469ff"/><path d="M0,24.444a8,8,0,0,1-8-8V0A8,8,0,0,1,0-8,8,8,0,0,1,8,0V16.444A8,8,0,0,1,0,24.444Z" transform="translate(16.444 29.811) rotate(90)" fill="#7469ff"/><path d="M0,24.444a8,8,0,0,1-8-8V0A8,8,0,0,1,0-8,8,8,0,0,1,8,0V16.444A8,8,0,0,1,0,24.444Z" transform="translate(59.841 29.811) rotate(90)" fill="#7469ff"/></g><path d="M0,34.3a4.486,4.486,0,0,1-3.182-1.318,4.5,4.5,0,0,1,0-6.364C2.95,20.482,2.957,9.321-3.166,3.2h0A4.5,4.5,0,0,1,3.2-3.167h0A16.5,16.5,0,0,0,14.861,1.382,16.627,16.627,0,0,0,26.614-3.182a4.5,4.5,0,0,1,6.364,0A4.486,4.486,0,0,1,34.3,0a4.486,4.486,0,0,1-1.318,3.182C26.955,9.2,26.9,20.539,32.869,26.505a4.5,4.5,0,0,1-6.364,6.364A16.35,16.35,0,0,0,14.951,28.36,16.661,16.661,0,0,0,3.182,32.978,4.486,4.486,0,0,1,0,34.3ZM9.957,9.935a27.3,27.3,0,0,1,0,9.889,27.29,27.29,0,0,1,9.95,0,28.047,28.047,0,0,1,.03-9.914A27.553,27.553,0,0,1,9.957,9.935Z" transform="translate(-298.98 2340.072) rotate(135)" fill="#7469ff"/><g transform="matrix(1, 0, 0, 1, -576.81, 2260.68)" filter="url(#b)"><path d="M95.694,86.411,70.118,60.835a38.588,38.588,0,1,0-7.2,7.7L88.244,93.86a5.268,5.268,0,1,0,7.45-7.45ZM38.621,66.641a28.1,28.1,0,1,1,28.1-28.1,28.1,28.1,0,0,1-28.1,28.1Z" transform="translate(67.3 189.13)" fill="#fed66b"/></g><g transform="matrix(1, 0, 0, 1, -576.81, 2260.68)" filter="url(#d)"><path d="M40.02,91.388a6.667,6.667,0,0,1-3.7-1.1,7.017,7.017,0,0,1-3.1-6.027v-30.6a6.65,6.65,0,0,0-.927-2.756L1.537,10.5A6.581,6.581,0,0,1,.61,3.511,6.6,6.6,0,0,1,6.722.006h79.4a6.647,6.647,0,0,1,6.119,3.456,6.644,6.644,0,0,1-.756,6.984L62.631,50.734a7.238,7.238,0,0,0-.941,2.927V76.177A10.231,10.231,0,0,1,55.78,85.2L43.086,90.728a7.661,7.661,0,0,1-3.066.66ZM13.511,9.907,40.169,44.892a16.076,16.076,0,0,1,2.954,8.769V79.913l8.7-3.792L51.79,53.678a16.694,16.694,0,0,1,2.792-8.693L79.695,9.907Z" transform="matrix(0.97, -0.26, 0.26, 0.97, 128.42, 33.04)" fill="#fed66b"/></g></g></svg>