<svg width="369" height="266" viewBox="0 0 369 266" fill="none" xmlns="http://www.w3.org/2000/svg">
<g filter="url(#filter0_d_36_189)">
<path d="M88.994 55.0638H10.314C7.55254 55.0638 5.31396 57.3024 5.31396 60.0638V76.5368C5.31396 79.2983 7.55254 81.5368 10.314 81.5368H88.994C91.7554 81.5368 93.994 79.2983 93.994 76.5368V60.0638C93.994 57.3024 91.7554 55.0638 88.994 55.0638Z" fill="#263769"/>
</g>
<g filter="url(#filter1_d_36_189)">
<path d="M88.994 88.1539H10.314C7.55254 88.1539 5.31396 90.3925 5.31396 93.1539V109.627C5.31396 112.388 7.55254 114.627 10.314 114.627H88.994C91.7554 114.627 93.994 112.388 93.994 109.627V93.1539C93.994 90.3925 91.7554 88.1539 88.994 88.1539Z" fill="#263769" fill-opacity="0.5"/>
</g>
<g filter="url(#filter2_d_36_189)">
<path d="M88.994 121.244H10.314C7.55254 121.244 5.31396 123.483 5.31396 126.244V142.717C5.31396 145.478 7.55254 147.717 10.314 147.717H88.994C91.7554 147.717 93.994 145.478 93.994 142.717V126.244C93.994 123.483 91.7554 121.244 88.994 121.244Z" fill="#263769" fill-opacity="0.5"/>
</g>
<g filter="url(#filter3_d_36_189)">
<path d="M88.994 154.334H10.314C7.55254 154.334 5.31396 156.572 5.31396 159.334V175.807C5.31396 178.568 7.55254 180.807 10.314 180.807H88.994C91.7554 180.807 93.994 178.568 93.994 175.807V159.334C93.994 156.572 91.7554 154.334 88.994 154.334Z" fill="#263769" fill-opacity="0.5"/>
</g>
<g filter="url(#filter4_d_36_189)">
<path d="M88.994 187.424H10.314C7.55254 187.424 5.31396 189.663 5.31396 192.424V208.897C5.31396 211.658 7.55254 213.897 10.314 213.897H88.994C91.7554 213.897 93.994 211.658 93.994 208.897V192.424C93.994 189.663 91.7554 187.424 88.994 187.424Z" fill="#263769" fill-opacity="0.5"/>
</g>
<g filter="url(#filter5_d_36_189)">
<path d="M185.674 55.0638H106.994C104.233 55.0638 101.994 57.3024 101.994 60.0638V76.5368C101.994 79.2983 104.233 81.5368 106.994 81.5368H185.674C188.435 81.5368 190.674 79.2983 190.674 76.5368V60.0638C190.674 57.3024 188.435 55.0638 185.674 55.0638Z" fill="#263769"/>
</g>
<g filter="url(#filter6_d_36_189)">
<path d="M185.674 88.1539H106.994C104.233 88.1539 101.994 90.3925 101.994 93.1539V109.627C101.994 112.388 104.233 114.627 106.994 114.627H185.674C188.435 114.627 190.674 112.388 190.674 109.627V93.1539C190.674 90.3925 188.435 88.1539 185.674 88.1539Z" fill="#263769" fill-opacity="0.5"/>
</g>
<g filter="url(#filter7_d_36_189)">
<path d="M185.674 121.244H106.994C104.233 121.244 101.994 123.483 101.994 126.244V142.717C101.994 145.478 104.233 147.717 106.994 147.717H185.674C188.435 147.717 190.674 145.478 190.674 142.717V126.244C190.674 123.483 188.435 121.244 185.674 121.244Z" fill="#263769" fill-opacity="0.5"/>
</g>
<g filter="url(#filter8_d_36_189)">
<path d="M185.674 154.334H106.994C104.233 154.334 101.994 156.572 101.994 159.334V175.807C101.994 178.568 104.233 180.807 106.994 180.807H185.674C188.435 180.807 190.674 178.568 190.674 175.807V159.334C190.674 156.572 188.435 154.334 185.674 154.334Z" fill="#263769" fill-opacity="0.5"/>
</g>
<g filter="url(#filter9_d_36_189)">
<path d="M185.674 187.424H106.994C104.233 187.424 101.994 189.663 101.994 192.424V208.897C101.994 211.658 104.233 213.897 106.994 213.897H185.674C188.435 213.897 190.674 211.658 190.674 208.897V192.424C190.674 189.663 188.435 187.424 185.674 187.424Z" fill="#263769" fill-opacity="0.5"/>
</g>
<g filter="url(#filter10_d_36_189)">
<path d="M282.344 55.0638H203.664C200.903 55.0638 198.664 57.3024 198.664 60.0638V76.5368C198.664 79.2983 200.903 81.5368 203.664 81.5368H282.344C285.105 81.5368 287.344 79.2983 287.344 76.5368V60.0638C287.344 57.3024 285.105 55.0638 282.344 55.0638Z" fill="#263769"/>
</g>
<g filter="url(#filter11_d_36_189)">
<path d="M282.344 88.1539H203.664C200.903 88.1539 198.664 90.3925 198.664 93.1539V109.627C198.664 112.388 200.903 114.627 203.664 114.627H282.344C285.105 114.627 287.344 112.388 287.344 109.627V93.1539C287.344 90.3925 285.105 88.1539 282.344 88.1539Z" fill="#263769" fill-opacity="0.5"/>
</g>
<g filter="url(#filter12_d_36_189)">
<path d="M282.344 121.244H203.664C200.903 121.244 198.664 123.483 198.664 126.244V142.717C198.664 145.478 200.903 147.717 203.664 147.717H282.344C285.105 147.717 287.344 145.478 287.344 142.717V126.244C287.344 123.483 285.105 121.244 282.344 121.244Z" fill="#263769" fill-opacity="0.5"/>
</g>
<g filter="url(#filter13_d_36_189)">
<path d="M282.344 154.334H203.664C200.903 154.334 198.664 156.572 198.664 159.334V175.807C198.664 178.568 200.903 180.807 203.664 180.807H282.344C285.105 180.807 287.344 178.568 287.344 175.807V159.334C287.344 156.572 285.105 154.334 282.344 154.334Z" fill="#263769"/>
</g>
<g filter="url(#filter14_d_36_189)">
<path d="M282.344 187.424H203.664C200.903 187.424 198.664 189.663 198.664 192.424V208.897C198.664 211.658 200.903 213.897 203.664 213.897H282.344C285.105 213.897 287.344 211.658 287.344 208.897V192.424C287.344 189.663 285.105 187.424 282.344 187.424Z" fill="#263769" fill-opacity="0.5"/>
</g>
<g filter="url(#filter15_d_36_189)">
<path d="M236.119 172.119L239.757 151.71C239.843 151.23 240.059 150.783 240.381 150.417C240.703 150.051 241.119 149.781 241.584 149.635C242.05 149.489 242.546 149.473 243.019 149.589C243.493 149.705 243.925 149.949 244.27 150.294L261.035 167.059C261.38 167.403 261.624 167.836 261.74 168.31C261.857 168.783 261.84 169.28 261.694 169.745C261.547 170.21 261.275 170.625 260.908 170.947C260.541 171.268 260.093 171.482 259.613 171.566L239.213 175.215C238.79 175.29 238.354 175.261 237.945 175.132C237.535 175.003 237.162 174.776 236.858 174.472C236.555 174.167 236.329 173.794 236.201 173.384C236.073 172.973 236.046 172.538 236.122 172.115L236.119 172.119Z" fill="#FED66B"/>
</g>
<g filter="url(#filter16_d_36_189)">
<path d="M338.639 92.7907L318.541 72.6934C318.354 72.5059 318.05 72.5059 317.863 72.6934L247.902 142.654C247.715 142.841 247.715 143.145 247.902 143.333L268 163.43C268.187 163.617 268.491 163.617 268.678 163.43L338.639 93.4696C338.826 93.2821 338.826 92.9782 338.639 92.7907Z" fill="#FED66B"/>
</g>
<g filter="url(#filter17_d_36_189)">
<path d="M342.283 59.7653L351.595 69.0772C353.108 70.5976 353.956 72.6559 353.954 74.8007C353.951 76.9454 353.098 79.0016 351.581 80.5182L347.763 84.3366C347.114 84.9857 346.233 85.3503 345.315 85.3503C344.397 85.3503 343.517 84.9857 342.868 84.3366L326.966 68.4345C326.317 67.7854 325.952 66.9051 325.952 65.9872C325.952 65.0693 326.317 64.1889 326.966 63.5399L330.784 59.7215C331.54 58.9656 332.438 58.3668 333.427 57.9596C334.415 57.5524 335.474 57.3449 336.543 57.349C337.612 57.353 338.669 57.5687 339.655 57.9834C340.64 58.3981 341.533 59.0037 342.283 59.7653V59.7653Z" fill="#FED66B"/>
</g>
<defs>
<filter id="filter0_d_36_189" x="2.31396" y="52.0638" width="96.68" height="34.473" filterUnits="userSpaceOnUse" color-interpolation-filters="sRGB">
<feFlood flood-opacity="0" result="BackgroundImageFix"/>
<feColorMatrix in="SourceAlpha" type="matrix" values="0 0 0 0 0 0 0 0 0 0 0 0 0 0 0 0 0 0 127 0" result="hardAlpha"/>
<feOffset dx="1" dy="1"/>
<feGaussianBlur stdDeviation="2"/>
<feColorMatrix type="matrix" values="0 0 0 0 0 0 0 0 0 0 0 0 0 0 0 0 0 0 0.09 0"/>
<feBlend mode="normal" in2="BackgroundImageFix" result="effect1_dropShadow_36_189"/>
<feBlend mode="normal" in="SourceGraphic" in2="effect1_dropShadow_36_189" result="shape"/>
</filter>
<filter id="filter1_d_36_189" x="2.31396" y="85.1539" width="96.68" height="34.473" filterUnits="userSpaceOnUse" color-interpolation-filters="sRGB">
<feFlood flood-opacity="0" result="BackgroundImageFix"/>
<feColorMatrix in="SourceAlpha" type="matrix" values="0 0 0 0 0 0 0 0 0 0 0 0 0 0 0 0 0 0 127 0" result="hardAlpha"/>
<feOffset dx="1" dy="1"/>
<feGaussianBlur stdDeviation="2"/>
<feColorMatrix type="matrix" values="0 0 0 0 0 0 0 0 0 0 0 0 0 0 0 0 0 0 0.09 0"/>
<feBlend mode="normal" in2="BackgroundImageFix" result="effect1_dropShadow_36_189"/>
<feBlend mode="normal" in="SourceGraphic" in2="effect1_dropShadow_36_189" result="shape"/>
</filter>
<filter id="filter2_d_36_189" x="2.31396" y="118.244" width="96.68" height="34.473" filterUnits="userSpaceOnUse" color-interpolation-filters="sRGB">
<feFlood flood-opacity="0" result="BackgroundImageFix"/>
<feColorMatrix in="SourceAlpha" type="matrix" values="0 0 0 0 0 0 0 0 0 0 0 0 0 0 0 0 0 0 127 0" result="hardAlpha"/>
<feOffset dx="1" dy="1"/>
<feGaussianBlur stdDeviation="2"/>
<feColorMatrix type="matrix" values="0 0 0 0 0 0 0 0 0 0 0 0 0 0 0 0 0 0 0.09 0"/>
<feBlend mode="normal" in2="BackgroundImageFix" result="effect1_dropShadow_36_189"/>
<feBlend mode="normal" in="SourceGraphic" in2="effect1_dropShadow_36_189" result="shape"/>
</filter>
<filter id="filter3_d_36_189" x="2.31396" y="151.334" width="96.68" height="34.473" filterUnits="userSpaceOnUse" color-interpolation-filters="sRGB">
<feFlood flood-opacity="0" result="BackgroundImageFix"/>
<feColorMatrix in="SourceAlpha" type="matrix" values="0 0 0 0 0 0 0 0 0 0 0 0 0 0 0 0 0 0 127 0" result="hardAlpha"/>
<feOffset dx="1" dy="1"/>
<feGaussianBlur stdDeviation="2"/>
<feColorMatrix type="matrix" values="0 0 0 0 0 0 0 0 0 0 0 0 0 0 0 0 0 0 0.09 0"/>
<feBlend mode="normal" in2="BackgroundImageFix" result="effect1_dropShadow_36_189"/>
<feBlend mode="normal" in="SourceGraphic" in2="effect1_dropShadow_36_189" result="shape"/>
</filter>
<filter id="filter4_d_36_189" x="2.31396" y="184.424" width="96.68" height="34.473" filterUnits="userSpaceOnUse" color-interpolation-filters="sRGB">
<feFlood flood-opacity="0" result="BackgroundImageFix"/>
<feColorMatrix in="SourceAlpha" type="matrix" values="0 0 0 0 0 0 0 0 0 0 0 0 0 0 0 0 0 0 127 0" result="hardAlpha"/>
<feOffset dx="1" dy="1"/>
<feGaussianBlur stdDeviation="2"/>
<feColorMatrix type="matrix" values="0 0 0 0 0 0 0 0 0 0 0 0 0 0 0 0 0 0 0.09 0"/>
<feBlend mode="normal" in2="BackgroundImageFix" result="effect1_dropShadow_36_189"/>
<feBlend mode="normal" in="SourceGraphic" in2="effect1_dropShadow_36_189" result="shape"/>
</filter>
<filter id="filter5_d_36_189" x="98.994" y="52.0638" width="96.68" height="34.473" filterUnits="userSpaceOnUse" color-interpolation-filters="sRGB">
<feFlood flood-opacity="0" result="BackgroundImageFix"/>
<feColorMatrix in="SourceAlpha" type="matrix" values="0 0 0 0 0 0 0 0 0 0 0 0 0 0 0 0 0 0 127 0" result="hardAlpha"/>
<feOffset dx="1" dy="1"/>
<feGaussianBlur stdDeviation="2"/>
<feColorMatrix type="matrix" values="0 0 0 0 0 0 0 0 0 0 0 0 0 0 0 0 0 0 0.09 0"/>
<feBlend mode="normal" in2="BackgroundImageFix" result="effect1_dropShadow_36_189"/>
<feBlend mode="normal" in="SourceGraphic" in2="effect1_dropShadow_36_189" result="shape"/>
</filter>
<filter id="filter6_d_36_189" x="98.994" y="85.1539" width="96.68" height="34.473" filterUnits="userSpaceOnUse" color-interpolation-filters="sRGB">
<feFlood flood-opacity="0" result="BackgroundImageFix"/>
<feColorMatrix in="SourceAlpha" type="matrix" values="0 0 0 0 0 0 0 0 0 0 0 0 0 0 0 0 0 0 127 0" result="hardAlpha"/>
<feOffset dx="1" dy="1"/>
<feGaussianBlur stdDeviation="2"/>
<feColorMatrix type="matrix" values="0 0 0 0 0 0 0 0 0 0 0 0 0 0 0 0 0 0 0.09 0"/>
<feBlend mode="normal" in2="BackgroundImageFix" result="effect1_dropShadow_36_189"/>
<feBlend mode="normal" in="SourceGraphic" in2="effect1_dropShadow_36_189" result="shape"/>
</filter>
<filter id="filter7_d_36_189" x="98.994" y="118.244" width="96.68" height="34.473" filterUnits="userSpaceOnUse" color-interpolation-filters="sRGB">
<feFlood flood-opacity="0" result="BackgroundImageFix"/>
<feColorMatrix in="SourceAlpha" type="matrix" values="0 0 0 0 0 0 0 0 0 0 0 0 0 0 0 0 0 0 127 0" result="hardAlpha"/>
<feOffset dx="1" dy="1"/>
<feGaussianBlur stdDeviation="2"/>
<feColorMatrix type="matrix" values="0 0 0 0 0 0 0 0 0 0 0 0 0 0 0 0 0 0 0.09 0"/>
<feBlend mode="normal" in2="BackgroundImageFix" result="effect1_dropShadow_36_189"/>
<feBlend mode="normal" in="SourceGraphic" in2="effect1_dropShadow_36_189" result="shape"/>
</filter>
<filter id="filter8_d_36_189" x="98.994" y="151.334" width="96.68" height="34.473" filterUnits="userSpaceOnUse" color-interpolation-filters="sRGB">
<feFlood flood-opacity="0" result="BackgroundImageFix"/>
<feColorMatrix in="SourceAlpha" type="matrix" values="0 0 0 0 0 0 0 0 0 0 0 0 0 0 0 0 0 0 127 0" result="hardAlpha"/>
<feOffset dx="1" dy="1"/>
<feGaussianBlur stdDeviation="2"/>
<feColorMatrix type="matrix" values="0 0 0 0 0 0 0 0 0 0 0 0 0 0 0 0 0 0 0.09 0"/>
<feBlend mode="normal" in2="BackgroundImageFix" result="effect1_dropShadow_36_189"/>
<feBlend mode="normal" in="SourceGraphic" in2="effect1_dropShadow_36_189" result="shape"/>
</filter>
<filter id="filter9_d_36_189" x="98.994" y="184.424" width="96.68" height="34.473" filterUnits="userSpaceOnUse" color-interpolation-filters="sRGB">
<feFlood flood-opacity="0" result="BackgroundImageFix"/>
<feColorMatrix in="SourceAlpha" type="matrix" values="0 0 0 0 0 0 0 0 0 0 0 0 0 0 0 0 0 0 127 0" result="hardAlpha"/>
<feOffset dx="1" dy="1"/>
<feGaussianBlur stdDeviation="2"/>
<feColorMatrix type="matrix" values="0 0 0 0 0 0 0 0 0 0 0 0 0 0 0 0 0 0 0.09 0"/>
<feBlend mode="normal" in2="BackgroundImageFix" result="effect1_dropShadow_36_189"/>
<feBlend mode="normal" in="SourceGraphic" in2="effect1_dropShadow_36_189" result="shape"/>
</filter>
<filter id="filter10_d_36_189" x="195.664" y="52.0638" width="96.68" height="34.473" filterUnits="userSpaceOnUse" color-interpolation-filters="sRGB">
<feFlood flood-opacity="0" result="BackgroundImageFix"/>
<feColorMatrix in="SourceAlpha" type="matrix" values="0 0 0 0 0 0 0 0 0 0 0 0 0 0 0 0 0 0 127 0" result="hardAlpha"/>
<feOffset dx="1" dy="1"/>
<feGaussianBlur stdDeviation="2"/>
<feColorMatrix type="matrix" values="0 0 0 0 0 0 0 0 0 0 0 0 0 0 0 0 0 0 0.09 0"/>
<feBlend mode="normal" in2="BackgroundImageFix" result="effect1_dropShadow_36_189"/>
<feBlend mode="normal" in="SourceGraphic" in2="effect1_dropShadow_36_189" result="shape"/>
</filter>
<filter id="filter11_d_36_189" x="195.664" y="85.1539" width="96.68" height="34.473" filterUnits="userSpaceOnUse" color-interpolation-filters="sRGB">
<feFlood flood-opacity="0" result="BackgroundImageFix"/>
<feColorMatrix in="SourceAlpha" type="matrix" values="0 0 0 0 0 0 0 0 0 0 0 0 0 0 0 0 0 0 127 0" result="hardAlpha"/>
<feOffset dx="1" dy="1"/>
<feGaussianBlur stdDeviation="2"/>
<feColorMatrix type="matrix" values="0 0 0 0 0 0 0 0 0 0 0 0 0 0 0 0 0 0 0.09 0"/>
<feBlend mode="normal" in2="BackgroundImageFix" result="effect1_dropShadow_36_189"/>
<feBlend mode="normal" in="SourceGraphic" in2="effect1_dropShadow_36_189" result="shape"/>
</filter>
<filter id="filter12_d_36_189" x="195.664" y="118.244" width="96.68" height="34.473" filterUnits="userSpaceOnUse" color-interpolation-filters="sRGB">
<feFlood flood-opacity="0" result="BackgroundImageFix"/>
<feColorMatrix in="SourceAlpha" type="matrix" values="0 0 0 0 0 0 0 0 0 0 0 0 0 0 0 0 0 0 127 0" result="hardAlpha"/>
<feOffset dx="1" dy="1"/>
<feGaussianBlur stdDeviation="2"/>
<feColorMatrix type="matrix" values="0 0 0 0 0 0 0 0 0 0 0 0 0 0 0 0 0 0 0.09 0"/>
<feBlend mode="normal" in2="BackgroundImageFix" result="effect1_dropShadow_36_189"/>
<feBlend mode="normal" in="SourceGraphic" in2="effect1_dropShadow_36_189" result="shape"/>
</filter>
<filter id="filter13_d_36_189" x="195.664" y="151.334" width="96.68" height="34.473" filterUnits="userSpaceOnUse" color-interpolation-filters="sRGB">
<feFlood flood-opacity="0" result="BackgroundImageFix"/>
<feColorMatrix in="SourceAlpha" type="matrix" values="0 0 0 0 0 0 0 0 0 0 0 0 0 0 0 0 0 0 127 0" result="hardAlpha"/>
<feOffset dx="1" dy="1"/>
<feGaussianBlur stdDeviation="2"/>
<feColorMatrix type="matrix" values="0 0 0 0 0 0 0 0 0 0 0 0 0 0 0 0 0 0 0.09 0"/>
<feBlend mode="normal" in2="BackgroundImageFix" result="effect1_dropShadow_36_189"/>
<feBlend mode="normal" in="SourceGraphic" in2="effect1_dropShadow_36_189" result="shape"/>
</filter>
<filter id="filter14_d_36_189" x="195.664" y="184.424" width="96.68" height="34.473" filterUnits="userSpaceOnUse" color-interpolation-filters="sRGB">
<feFlood flood-opacity="0" result="BackgroundImageFix"/>
<feColorMatrix in="SourceAlpha" type="matrix" values="0 0 0 0 0 0 0 0 0 0 0 0 0 0 0 0 0 0 127 0" result="hardAlpha"/>
<feOffset dx="1" dy="1"/>
<feGaussianBlur stdDeviation="2"/>
<feColorMatrix type="matrix" values="0 0 0 0 0 0 0 0 0 0 0 0 0 0 0 0 0 0 0.09 0"/>
<feBlend mode="normal" in2="BackgroundImageFix" result="effect1_dropShadow_36_189"/>
<feBlend mode="normal" in="SourceGraphic" in2="effect1_dropShadow_36_189" result="shape"/>
</filter>
<filter id="filter15_d_36_189" x="232.08" y="146.512" width="37.7373" height="37.7435" filterUnits="userSpaceOnUse" color-interpolation-filters="sRGB">
<feFlood flood-opacity="0" result="BackgroundImageFix"/>
<feColorMatrix in="SourceAlpha" type="matrix" values="0 0 0 0 0 0 0 0 0 0 0 0 0 0 0 0 0 0 127 0" result="hardAlpha"/>
<feOffset dx="2" dy="3"/>
<feGaussianBlur stdDeviation="3"/>
<feColorMatrix type="matrix" values="0 0 0 0 0 0 0 0 0 0 0 0 0 0 0 0 0 0 0.22 0"/>
<feBlend mode="normal" in2="BackgroundImageFix" result="effect1_dropShadow_36_189"/>
<feBlend mode="normal" in="SourceGraphic" in2="effect1_dropShadow_36_189" result="shape"/>
</filter>
<filter id="filter16_d_36_189" x="243.762" y="69.5528" width="103.018" height="103.018" filterUnits="userSpaceOnUse" color-interpolation-filters="sRGB">
<feFlood flood-opacity="0" result="BackgroundImageFix"/>
<feColorMatrix in="SourceAlpha" type="matrix" values="0 0 0 0 0 0 0 0 0 0 0 0 0 0 0 0 0 0 127 0" result="hardAlpha"/>
<feOffset dx="2" dy="3"/>
<feGaussianBlur stdDeviation="3"/>
<feColorMatrix type="matrix" values="0 0 0 0 0 0 0 0 0 0 0 0 0 0 0 0 0 0 0.22 0"/>
<feBlend mode="normal" in2="BackgroundImageFix" result="effect1_dropShadow_36_189"/>
<feBlend mode="normal" in="SourceGraphic" in2="effect1_dropShadow_36_189" result="shape"/>
</filter>
<filter id="filter17_d_36_189" x="321.952" y="54.3489" width="40.0013" height="40.0014" filterUnits="userSpaceOnUse" color-interpolation-filters="sRGB">
<feFlood flood-opacity="0" result="BackgroundImageFix"/>
<feColorMatrix in="SourceAlpha" type="matrix" values="0 0 0 0 0 0 0 0 0 0 0 0 0 0 0 0 0 0 127 0" result="hardAlpha"/>
<feOffset dx="2" dy="3"/>
<feGaussianBlur stdDeviation="3"/>
<feColorMatrix type="matrix" values="0 0 0 0 0 0 0 0 0 0 0 0 0 0 0 0 0 0 0.22 0"/>
<feBlend mode="normal" in2="BackgroundImageFix" result="effect1_dropShadow_36_189"/>
<feBlend mode="normal" in="SourceGraphic" in2="effect1_dropShadow_36_189" result="shape"/>
</filter>
</defs>
</svg>
