<svg xmlns="http://www.w3.org/2000/svg" xmlns:xlink="http://www.w3.org/1999/xlink" width="29.196" height="28.831" viewBox="0 0 29.196 28.831"><defs><filter id="a" x="0.372" y="6.953" width="11.464" height="21.878" filterUnits="userSpaceOnUse"><feOffset dx="1" input="SourceAlpha"/><feGaussianBlur stdDeviation="1" result="b"/><feFlood flood-opacity="0.161"/><feComposite operator="in" in2="b"/><feComposite in="SourceGraphic"/></filter><filter id="c" x="0" y="0" width="12.21" height="12.207" filterUnits="userSpaceOnUse"><feOffset dx="1" input="SourceAlpha"/><feGaussianBlur stdDeviation="1" result="d"/><feFlood flood-opacity="0.161"/><feComposite operator="in" in2="d"/><feComposite in="SourceGraphic"/></filter><filter id="e" x="7.779" y="6.576" width="21.417" height="22.255" filterUnits="userSpaceOnUse"><feOffset dx="1" input="SourceAlpha"/><feGaussianBlur stdDeviation="1" result="f"/><feFlood flood-opacity="0.161"/><feComposite operator="in" in2="f"/><feComposite in="SourceGraphic"/></filter></defs><g transform="translate(2 2.659)"><rect width="25" height="25" transform="translate(-0.902 -0.743)" fill="rgba(229,236,243,0)"/><g transform="matrix(1, 0, 0, 1, -2, -2.66)" filter="url(#a)"><path d="M10.012,99.73H5.305a.378.378,0,0,0-.378.378v15.122a.378.378,0,0,0,.378.378h4.707a.378.378,0,0,0,.378-.378V100.108A.378.378,0,0,0,10.012,99.73Z" transform="translate(-2.55 -89.78)" fill="#fff"/></g><g transform="matrix(1, 0, 0, 1, -2, -2.66)" filter="url(#c)"><path d="M3.106.341a3.1,3.1,0,1,0,3.1,3.1A3.108,3.108,0,0,0,3.106.341Z" transform="translate(2 2.66)" fill="#fff"/></g><g transform="matrix(1, 0, 0, 1, -2, -2.66)" filter="url(#e)"><path d="M115.576,94.761A5.529,5.529,0,0,0,111.44,96.5v-.982a.378.378,0,0,0-.378-.378h-4.508a.378.378,0,0,0-.378.378v15.122a.378.378,0,0,0,.378.378h4.7a.378.378,0,0,0,.378-.378v-7.482c0-2.521.685-3.5,2.442-3.5,1.914,0,2.066,1.575,2.066,3.633v7.352a.378.378,0,0,0,.378.378h4.7a.378.378,0,0,0,.378-.378v-8.295C121.593,98.594,120.878,94.761,115.576,94.761Z" transform="translate(-96.4 -85.18)" fill="#fff"/></g></g></svg>