<svg xmlns="http://www.w3.org/2000/svg" xmlns:xlink="http://www.w3.org/1999/xlink" width="28.17" height="25" viewBox="0 0 28.17 25"><defs><filter id="a" x="0" y="2.698" width="28.17" height="21.603" filterUnits="userSpaceOnUse"><feOffset dy="1" input="SourceAlpha"/><feGaussianBlur stdDeviation="1" result="b"/><feFlood flood-opacity="0.161"/><feComposite operator="in" in2="b"/><feComposite in="SourceGraphic"/></filter></defs><g transform="translate(3 -41.219)"><rect width="25" height="25" transform="translate(-1.415 41.219)" fill="rgba(229,236,243,0)"/><g transform="matrix(1, 0, 0, 1, -3, 41.22)" filter="url(#a)"><path d="M21.306,47.256c-.8-.951-2.278-1.339-5.1-1.339H5.963c-2.886,0-4.389.413-5.186,1.426C0,48.33,0,49.785,0,51.8v3.838c0,3.9.922,5.882,5.963,5.882H16.206c2.447,0,3.8-.342,4.68-1.182.9-.861,1.283-2.267,1.283-4.7V51.8C22.17,49.675,22.11,48.212,21.306,47.256Zm-7.073,6.992L9.582,56.679a.715.715,0,0,1-1.046-.634V51.2a.715.715,0,0,1,1.045-.635l4.651,2.415a.715.715,0,0,1,0,1.269Z" transform="translate(3 -41.22)" fill="#fff"/></g></g></svg>